<?xml version="1.0" encoding="UTF-8"?>
<svg id="Layer_1" data-name="Layer 1" xmlns="http://www.w3.org/2000/svg" viewBox="0 0 1136.17 280.55">
  <defs>
    <style>
      .cls-1 {
        fill-rule: evenodd;
      }

      .cls-1, .cls-2 {
        fill: #0a0a0a;
      }
    </style>
  </defs>
  <path class="cls-1" d="M28.54,222.78v14.43h14.46v28.86H14.05V99.7L144.06,24.64v241.42h-28.97v-28.86h14.48v-14.43h-28.83v57.77h57.88v-14.48h-.08v-101.01l24.9-14.37h-24.9V-.44l-14.48,8.36h0S14.05,82.98,14.05,82.98L-.43,91.34v189.21h57.88v-57.77h-28.91ZM115.09,136.31v-38.28h12.72l-12.72-7.35v-32.59l14.48-8.36v100.96H28.54v-42.62l14.49-8.36v36.61h72.07ZM86.31,121.83v-47.12l14.35-8.28v55.4h-14.35ZM71.83,83.07h0v38.75h-14.38v-30.45l14.38-8.3h0ZM28.54,193.92h101.03v14.48h-43.28v72.15h-14.49v-72.15H28.54v-14.48h0ZM129.57,165.12h0v14.37H28.54v-14.37h101.03Z"/>
  <g>
    <g>
      <path class="cls-2" d="M234.46,26.27h-38.19V-.14h116.32v26.42h-38.19v84.97h-39.94V26.27Z"/>
      <path class="cls-2" d="M324.47-.14h39.94v41.06h31.03V-.14h39.94v111.39h-39.94v-43.6h-31.03v43.6h-39.94V-.14Z"/>
      <path class="cls-2" d="M447.27-.14h97.87v25.62h-58.08v17.19h43.28v24.35h-43.28v19.41h58.08v24.82h-97.87V-.14Z"/>
    </g>
    <g>
      <path class="cls-2" d="M568.91-.14h35.8l5.41,32.78,5.41,33.1,7.64-33.1L630.97-.14h31.99l7.64,32.78,7.8,33.58,5.41-33.58L689.21-.14h34.53l-23.39,111.39h-39.46l-7.32-31.99-7.32-32.78-7,32.78-7.48,31.99h-39.3L568.91-.14Z"/>
      <path class="cls-2" d="M735.63-.14h39.94v41.06h31.03V-.14h39.94v111.39h-39.94v-43.6h-31.03v43.6h-39.94V-.14Z"/>
      <path class="cls-2" d="M858.43-.14h39.78v111.39h-39.78V-.14Z"/>
      <path class="cls-2" d="M948.29,26.27h-38.19V-.14h116.32v26.42h-38.19v84.97h-39.94V26.27Z"/>
      <path class="cls-2" d="M1038.31-.14h97.87v25.62h-58.08v17.19h43.28v24.35h-43.28v19.41h58.08v24.82h-97.87V-.14Z"/>
    </g>
  </g>
  <g>
    <path class="cls-2" d="M246.57,168.62h-50.31v-34.8h153.23v34.8h-50.31v111.93h-52.61v-111.93Z"/>
    <path class="cls-2" d="M362.49,220.63v-86.81h51.51v90.29c0,12.52,8,19.5,19.91,19.5s19.91-6.98,19.91-19.29v-90.5h50.48v87.01c0,38.38-26.06,59.72-71.21,59.72s-70.59-21.55-70.59-59.92Z"/>
    <path class="cls-2" d="M520.29,231.51h48.44c2.01,13.47,9.45,19.5,22.91,19.5,12.26,0,18.49-4.62,18.49-10.45,0-9.45-15.28-12.86-33.16-17.29-25.53-6.23-56.28-14.27-56.28-44.82,0-25.93,23.32-44.62,65.93-44.62s66.53,17.29,71.76,48.64h-47.64c-2.21-12.46-10.05-18.69-22.71-18.69-11.46,0-16.68,4.22-16.68,9.85,0,8.44,13.06,12.06,29.14,16.08,26.13,6.43,60.1,13.87,60.1,45.63,0,26.53-25.33,45.22-67.94,45.22s-67.33-16.88-72.36-49.04Z"/>
    <path class="cls-2" d="M679.55,133.82h51.98l-.21,59.74,44.86-59.74h55.97l-45.7,61,46.74,85.73h-58.48l-25.57-52.82-17.82,20.33.21,32.49h-51.98v-146.73Z"/>
    <path class="cls-2" d="M846.2,133.82h128.91v33.75h-76.51v22.64h57.01v32.07h-57.01v25.57h76.51v32.7h-128.91v-146.73Z"/>
    <path class="cls-2" d="M987.97,133.82h91.18c35.63,0,54.29,15.93,54.29,41.29,0,15.93-7.97,28.51-22.43,35.22,14.04,4.4,19.7,13.83,19.91,28.93.21,15.72.84,30.39,5.24,41.29h-53.24c-3.56-8.59-3.98-20.75-4.19-41.29-.21-9.01-3.56-12.58-11.53-12.58h-26.62v53.87h-52.61v-146.73ZM1040.59,166.52v29.77h25.78c9.64,0,15.51-5.03,15.51-14.88s-5.87-14.88-15.51-14.88h-25.78Z"/>
  </g>
</svg>