<?xml version="1.0" encoding="UTF-8"?>
<svg id="Layer_1" data-name="Layer 1" xmlns="http://www.w3.org/2000/svg" viewBox="0 0 154.94 80">
  <defs>
    <style>
      .cls-1 {
        fill: #ed434c;
      }

      .cls-1, .cls-2 {
        fill-rule: evenodd;
      }

      .cls-2 {
        fill: #162c53;
      }
    </style>
  </defs>
  <path class="cls-2" d="M16.12,8.47c.62-.34,4.7-1.55,5.64-1.81,1.97-.55,3.94-1.05,6.02-1.43,8.6-1.57,18.02-1.55,26.07,1.84.91.39,1.69.79,2.42,1.27,1.69,1.11,2.99,2.78,2.23,4.89-.24.65-.67,1.21-1.18,1.64-.19.16-.39.2-.47.44.13.34.73.53,1.04.74.99.67,2.1,1.74,2.74,2.83.77,1.29.7,3.34-.12,4.29-1.79,2.05-4.66,1.78-7.45,1.78-5.54,0-36.43.14-36.91-.07-.11-.35-.08-1.27-.03-1.65.51-.22.93-.15,1.59-.81.38-.38.69-.95.78-1.71.17-1.48.08-3.33.08-4.86,0-1.85.2-3.63-1.47-4.62-.17-.1-.79-.34-.87-.4-.24-.18-.17-1.99-.1-2.36ZM14,13.06c.63.14,1.71.03,2.25,1.04.33.63.21,2.33.21,3.17,0,3.25.58,3.48-2.45,4.21-.07.43-.07,5.21.01,5.53.59.13,15.17.04,16.19.04h24.38c1.32,0,2.48.06,3.73-.28.96-.26,2.15-.8,2.81-1.29,1.57-1.18,2.87-3.42,2.41-5.59-.26-1.23-1.31-3.12-2.18-3.87-.29-.25-.93-.69-1.11-.97.1-.21.26-.44.39-.68.43-.84.7-1.8.6-2.79-.12-1.09-.82-2.53-1.34-3.17-3.54-4.32-15.27-6.2-20.82-6.2-7.17,0-9.3.37-16.1,1.91-2.87.65-5.89,1.6-8.6,2.62-.58.22-.41.29-.41,1.86,0,1.18-.12,3.43.03,4.46h0Z"/>
  <polygon class="cls-1" points=".79 34.89 153.34 34.9 153.34 33.64 153.07 33.64 152.8 33.64 .79 33.64 .79 34.89"/>
  <path class="cls-2" d="M104.1,23.54c-.3.11-.79.4-1.15.57-.41.19-.8.34-1.25.5-2.81.95-6.25,1.44-9.17.8-3.47-.76-4.65-3.17-3.36-6.2,1.61-3.76,7.56-5.15,11.95-5.52,1.77-.15,11.96-.21,13.8-.11-.03.28-.16.35-.23.65-.1.43-.05,5.38-.05,5.93,0,1.24.02,1.93.74,2.68.81.84,1.26.69,2.5.93.04.19.14,1.01-.06,1.11l-3.72.08c-1.73,0-6.29.08-7.66,0-1.49-.1-1.9-.98-2.35-1.41h0ZM119.94,21.85c-.49-.36-1.98.27-2.73-.42-.68-.63-.48-1.65-.48-2.75,0-.99-.17-3.98.26-4.57.34-.46.58-.34.99-.61v-1.96c-.6-.09-10.18-.03-11.06-.03-3.71,0-6.75-.03-10.27.81-3.22.76-5.57,1.89-7.46,3.62-1.5,1.37-3.65,5.03-2.1,8.01,1.12,2.17,4.08,3.47,7.34,3.74,1.73.14,3.48.01,5.13-.32,1.13-.23,2.18-.53,3.23-.93.55-.21.52-.36,1-.05,1.22.8,3.21.67,4.82.67h11.15c.43-.04.28-.64.28-1.05v-3.83c-.01-.28.04-.16-.09-.32h0Z"/>
  <path class="cls-2" d="M125.69,11.1c.25-.23.91-.49,1.25-.69.69-.4,1.71-1.09,2.29-1.61.23-.2.3-.27.5-.44.19-.16.28-.3.47-.47.94-.86,3.69-2.78,4.93-2.77-.04.56-.41.79-.41,2.41,0,1.55-.08,13.24.05,13.95.44,2.28,2.69,2.13,3.25,2.32.07.34.09.78-.01,1.11-.47.15-8.25.05-9.85.06-1.12,0-1.84-.26-1.9-1.37-.12-2.59,0-6.97,0-9.88,0-2.14-.59-2.01-.56-2.6h0ZM123.21,11.94c.92.83.97-.48.97,2.97,0,1.33-.09,9.3.07,10.02.11.51.44,1.08.7,1.31.72.65,1.89.8,3.14.8,1.48,0,11.47.08,12.03-.04.09-.35.08-4.72.02-5.2-1.62-.37-3.28.88-3.28-2.12v-10.75c0-1.44-.27-2.91.43-3.63.36-.36.54-.27.94-.45.04-.56,0-1.14.02-1.71.01-.87-.12-.69-.95-.58-.95.13-1.88.31-2.75.6-2.74.92-4.22,2.17-6.22,3.85-.61.51-1.17.97-1.94,1.42-.7.42-1.41.79-2.26,1.1-.59.22-.95.06-.95.72,0,.5-.03,1.18.02,1.67h0Z"/>
  <path class="cls-2" d="M68.96,13.57c1.01-.04,8.82-.09,9.17.05.21.41.07,5.73.07,6.68,0,1.19.06,1.87.78,2.55,1.12,1.07,2.23.72,2.48.94.12.2.09.43.09.68,0,.68.05.5-1.9.5-1.63,0-8.86.1-9.44-.06-.92-.26-.97-1.06-.97-2.12v-7.86c0-.82-.23-.88-.27-1.35h0ZM65.9,13.5c.52.31.83.2,1.12.82.26.57.14,4.91.14,5.7,0,1.3,0,2.6,0,3.9,0,1.4.42,2.2,1.29,2.68,1.24.69,5.64.45,7.38.45,1.16,0,7.2.13,7.78-.05.1-.43.04-3.08.04-3.89,0-.36.06-1.16-.1-1.29-.83-.36-2.32.47-3-.69-.37-.64-.21-2.65-.21-3.53v-5.65c0-.6-.12-.45-1.43-.45h-11.28c-.34,0-1.6-.17-1.73.14-.06.15-.03,1.62,0,1.86h0Z"/>
  <path class="cls-2" d="M37.08,18.14c0-.33.06-.36.39-.36h10.61c1.51,0,3.58.3,4.99.67,3.48.91,3.85,2.69,2.4,2.69-2.33,0-17.37.08-18.36-.03-.06-.76-.03-2.15-.03-2.97ZM58.9,21.43c.32-1.54-1.03-2.94-2.17-3.68-2.4-1.55-4.78-1.77-7.81-1.99-3.04-.22-8.37-.1-11.79-.1-2.36,0-2.18-.25-2.17.8v5.91c0,.33-.09.78.16.87l9.8.02c1.31,0,11.01.1,11.83-.07.98-.2,1.96-.85,2.15-1.76h0Z"/>
  <path class="cls-2" d="M37.11,8.52c1.76-.35,7.45.33,9.4.64,1.99.32,5.4,1.2,7.01,2.54.37.31.18.31.17.32-.07.04-15.64.19-16.57.02-.09-.33-.09-3.14-.01-3.52h0ZM35.91,6.41c-1.04.05-.95-.13-.94.91v6.32c0,.45-.05.53.41.54,4.01.06,8.66,0,12.7,0,1.56,0,5.82.19,7.01-.25.79-.3,1.36-1.29.99-2.38-.26-.77-1.16-1.36-1.86-1.77-4.6-2.68-12.99-3.63-18.31-3.37h0Z"/>
  <path class="cls-2" d="M40.94,67.8l1.5.11-.03,8.44-1.6.1v1.17s4.89,0,4.89,0v-1.17s-1.59-.13-1.59-.13c-.14-.37-.05-5.83-.04-6.74.24-.25.91-.69,1.26-.93.44-.29.91-.54,1.5-.72.62-.19,1.37-.24,2.05-.14.65.1.93.45,1.04,1.11.3,1.84-.15,7.18.09,8.71h3.37s.02-1.16.02-1.16l-1.77-.12v-6.67c.09-.35,2.13-1.63,3.28-1.84.66-.12,1.81-.14,2.25.23s.45,1.37.45,2.08v7.49s3.41,0,3.41,0v-1.16s-1.78-.13-1.78-.13c0-1.66,0-3.33,0-4.99,0-1.39.22-3.46-.63-4.34-.82-.84-2.79-.75-4.02-.31-.62.22-1.16.52-1.64.84l-1.36,1.03c-.3-.47.09-2.72-3.63-2.13-2.09.33-3.23,1.69-3.88,2.02v-1.82h-3.13s0,1.16,0,1.16h0Z"/>
  <path class="cls-2" d="M16.7,41.92v12.33l-1.8.11-.02,1.23h5.32s0-1.23,0-1.23l-1.78-.11v-5.52s3.6,0,3.6,0l1.86,2.75c.3.45,1.78,2.52,1.83,2.84l-1.45.04-.02,1.21,5.39.02v-1.23s-1.95-.11-1.95-.11l-3.24-4.75c-.2-.28-.36-.54-.54-.81-.17-.26-.39-.53-.53-.8.12-.3.99-1.43,1.23-1.78.43-.61.84-1.15,1.25-1.77l1.56-2.2c.3-.45.89-.28,1.98-.36v-1.22s-5.18,0-5.18,0c0,.37-.08.9.06,1.23l1.48.08c-.06.23-1.61,2.3-1.89,2.69l-1.95,2.68h-3.49s-.03-5.35-.03-5.35l1.8-.11v-1.22h-5.35c0,1.75-.35,1.07,1.84,1.34h0Z"/>
  <path class="cls-2" d="M88.51,56.16c0-.92.62-1.64,1.09-1.95.31-.2,1.05-.04,1.47-.04.49,0,.99,0,1.48,0,3.07,0,4.27-.44,4.27,1.65,0,.92-.15,1.44-.92,1.81-1.03.48-3.81.33-5.1.33-1.65,0-2.3-.14-2.3-1.81h0ZM91.75,45.45c1.25-.15,3.65-.3,4.04,1.21.16.6.14,1.82-.12,2.34-.59,1.2-3.05,1.07-4.24.87-.8-.13-1.32-.46-1.53-1.15-.18-.59-.15-1.83.11-2.34.31-.61.85-.82,1.73-.93h0ZM89.07,50.25c-.55.43-1.29.74-1.39,1.63-.12,1.09.09,1.71.98,1.99-.26.32-.54.39-.82.73-.22.28-.45.59-.6,1.01-.25.71-.22,2.12.24,2.65,1,1.13,3.99.86,5.47.86,3.79,0,5.58-.6,5.29-4.17-.09-1.07-.45-1.62-1.34-1.88-1.2-.35-4.69-.15-6.17-.18-1.1-.02-1.98,0-1.79-1.29.06-.39.42-.65.73-.81.36-.19.35.06,1.2.24,1.47.31,4.39.24,5.51-.51,1.04-.7,1.19-2.37,1-3.64-.09-.63-.24-.71-.44-1.11l1.83-.17v-1c-.95-.1-2.44.05-3.2-.02-.29-.03-.63-.14-.96-.18-1.11-.13-3.04-.13-4.1.1-1.26.27-2.02.85-2.23,2.12-.14.83-.13,2.16.29,2.94.17.33.14.24.35.46l.15.2h0Z"/>
  <path class="cls-2" d="M103.11,17.38l.03,1.7c0,.44-.1.37-.86.73-1.67.78-4.63,1.66-6.46,1.8-3.88.3-2.83-2.24,1.52-3.51,1.09-.32,4.7-.96,5.77-.72h0ZM105.31,20.77c.07-.67.02-3.83.03-4.98,0-.3.06-.46-.23-.52-.75-.15-4.4.26-5.3.39-3.32.48-6.59,1.4-8.12,3.36-.87,1.11-1.17,2.95.24,3.98,1.16.85,3.16.87,4.79.67,2.34-.29,4.6-1,6.7-1.91.7-.31,1.31-.69,1.89-.98h0Z"/>
  <path class="cls-2" d="M56.71,53.2c-.07-1.2-.02-4.1-.02-5.58,0-.48.24-.55.89-.97.75-.48,1.72-.89,2.85-.93,1.39-.05,2.06.2,2.34,1.45.21.94.12,2.52.12,3.54,0,2.62-.03,4.3-3.64,3.66-.81-.14-2.05-.73-2.55-1.18h0ZM56.72,46.11l-.02-1.51h-3.13v1.17s1.5.11,1.5.11v12.11s-1.6.1-1.6.1l-.03,1.16h5.15s0-1.17,0-1.17l-1.89-.11v-3.49c.32.08.85.45,1.23.62,1.4.63,3.51.93,4.8.45,2.08-.77,1.8-3.32,1.8-5.78s.19-4.91-2.14-5.37c-1.59-.31-3.22.17-4.53.97-.34.21-.83.58-1.14.74h0Z"/>
  <path class="cls-2" d="M90.93,68.92v5.93c-1.25,1.04-2.62,1.66-4.36,1.53-2.05-.16-1.82-2.29-1.82-4.17s-.3-4.07,1.49-4.43c.66-.13,2.04-.06,2.69.12.44.13,1.85.7,1.99,1.02h0ZM89.12,63.41l.02.24,1.76.12.03,3.87c-1.41-.43-1.29-1.28-4.56-1.28-2.45,0-3.25,1.48-3.25,3.89v3.56c0,2.66.81,3.96,3.32,3.96,2.61,0,3.47-1.34,4.48-1.87v1.7h3.27v-1.17s-1.61-.1-1.61-.1l-.02-13.75h-3.43s0,.81,0,.81h0Z"/>
  <path class="cls-2" d="M69.23,6.92c0-.37.04-.41.41-.41h8.13c.4,0,.43-.01.43.41,0,.57.05.55-.05,1.06-.78.1-7.19.04-8.51.04-.51,0-.41,0-.41-1.1h0ZM67.16,5.11v4.3c0,.39.04.39.41.39h12.43c.32,0,.36-.06.36-.39,0-.93.05-3.9-.04-4.61-.47-.16-11.35-.06-12.81-.06-.34,0-.34.04-.34.37h0Z"/>
  <path class="cls-2" d="M68.9,67.8l1.5.1-.03,8.45-1.59.11v1.17c1.23,0,3.81.05,4.89-.01v-1.15s-1.6-.1-1.6-.1l-.02-6.78c.7-.29,2.32-2.07,4.93-1.8.74.08,1.04.34,1.18,1.05.31,1.58-.12,7.86.12,8.8h3.37s0-1.16,0-1.16l-1.78-.14c0-1.66,0-3.32,0-4.98,0-1.41.25-3.46-.63-4.35-.83-.85-2.83-.72-4.03-.29-1.59.56-2.78,1.68-3.17,1.84v-1.88s-3.14-.02-3.14-.02v1.16s0,0,0,0Z"/>
  <path class="cls-2" d="M76.12,46.52l-.03-1.92h-3.13s0,1.14,0,1.14l1.5.14v8.42s-1.62.12-1.62.12v1.15s4.85.01,4.85.01l.04-1.17-1.61-.11-.03-6.76c1.4-.76,2.42-2.02,4.84-1.82.76.06,1.09.3,1.25.98.22.91.11,7.41.11,8.86l3.41.02v-1.16c-.44-.02-.85-.05-1.28-.08-.68-.04-.5-.09-.5-.8,0-1.72.15-7.04-.27-8.03-.63-1.47-2.86-1.31-4.04-.96-1.16.34-2.64,1.25-3.49,1.97h0Z"/>
  <path class="cls-2" d="M21.31,67.79l1.5.13c0,1.11.12,7.97-.04,8.43l-1.58.1v1.17s4.89,0,4.89,0v-1.17s-1.61-.11-1.61-.11v-6.74c.93-.58,1.58-1.21,2.86-1.63.65-.21,1.29-.27,2.02-.21.72.06,1.07.35,1.21,1.02.3,1.5-.06,7.58.11,8.83h3.36s.02-1.16.02-1.16l-1.74-.15c-.08-.48-.03-4.22-.03-5.04,0-1.41.24-3.4-.65-4.3-.87-.88-2.89-.68-4.08-.25-1.17.42-2.28,1.24-3.08,1.83l-.02-1.92c-.68,0-2.59-.04-3.14.03v1.12s0,0,0,0Z"/>
  <path class="cls-2" d="M31.91,49.64c0-2.26-.03-4.13,3.27-4.13,3.41,0,3.31,1.69,3.3,4.16,0,0-6.58-.02-6.58-.02ZM39.64,53.05l-1.2-.02c-.23.43-.23.57-.54.87-.85.8-2.68.79-3.77.64-2.03-.28-2.21-1.65-2.21-3.68l8.03-.02c.17-.82.11-3.5-.39-4.55-.51-1.09-1.51-1.72-3.09-1.89-3.3-.36-5.87.53-6.12,3.71-.09,1.11-.1,3.84.13,4.85.31,1.38,1.1,2.22,2.37,2.61,1.12.34,3.33.35,4.47.05.72-.19,1.16-.43,1.67-.81.62-.45.77-.63.65-1.74h0Z"/>
  <path class="cls-2" d="M43.79,49.44c0-2.62.27-3.93,3.55-3.93,3.24,0,3.03,2.13,3.03,4.16h-6.58v-.22s0,0,0,0ZM51.53,53.03c-1.99,0-.81-.06-1.76.86-.22.22-.55.42-.94.53-.64.19-2.11.21-2.82.11-2.31-.31-2.22-2.11-2.22-3.69h8.04c.19-1.05.03-3.69-.39-4.55-.53-1.08-1.49-1.74-3.08-1.9-3.3-.34-5.86.5-6.13,3.69-.09,1.09-.1,3.76.11,4.77.29,1.4,1.03,2.26,2.29,2.68,1.55.52,4.6.5,6.18-.67.78-.58.73-.59.73-1.82h0Z"/>
  <path class="cls-2" d="M128.29,49.66c0-1.34-.13-2.23.58-3.19.5-.67,1.52-.96,2.7-.96,3.39,0,3.29,1.7,3.29,4.16h-6.58ZM136.03,53.03c-1.95,0-.8-.12-1.76.85-.82.82-2.68.79-3.76.65-.88-.12-1.5-.51-1.85-1.1-.43-.7-.37-1.7-.37-2.6h8.04c.09-.53.04-1.87.03-2.47-.04-2.2-.96-3.7-3.48-3.98-3.32-.36-5.88.52-6.15,3.68-.09,1.07-.1,3.78.11,4.77.28,1.38,1.05,2.28,2.3,2.67,1.14.36,3.28.4,4.47.1.68-.17,1.26-.42,1.71-.78.77-.61.73-.55.73-1.81h0Z"/>
  <path class="cls-2" d="M120.38,44.63l-1.66.11v1.07h1.67v8.52s-1.62.1-1.62.1v1.13s5.21.03,5.21.03v-1.16s-1.95-.14-1.95-.14v-8.48s3.34,0,3.34,0v-1.18s-3.34-.03-3.34-.03c-.03-.95-.12-2.18.5-2.66.66-.5,1.82-.43,2.41-.76l-.12-1.04c-.42-.07-2.9.32-3.56.87-1.05.89-.75,2.09-.89,3.61h0Z"/>
  <polygon class="cls-2" points="105.92 41.74 107.42 41.84 107.41 54.32 105.8 54.42 105.79 55.58 110.68 55.58 110.68 54.43 109.08 54.32 109.05 40.59 105.92 40.57 105.92 41.74"/>
  <polygon class="cls-2" points="66.68 45.75 68.17 45.88 68.17 54.32 66.56 54.42 66.57 55.59 71.41 55.59 71.44 54.44 69.82 54.31 69.81 44.6 66.67 44.6 66.68 45.75"/>
  <path class="cls-2" d="M15.03,67.8l1.5.1-.03,8.45-1.59.11v1.17c1.25,0,3.78.05,4.89-.01v-1.15s-1.59-.1-1.59-.1c-.13-.58-.03-8.38-.03-9.7l-3.14-.02v1.17h0Z"/>
  <path class="cls-2" d="M112.52,45.74l1.5.15v8.42s-1.63.12-1.63.12v1.14s4.84.02,4.84.02c.08-.38.05-.78.03-1.17l-1.59-.11c-.08-.64-.02-8.41-.02-9.72h-3.14s0,1.14,0,1.14h0Z"/>
  <path class="cls-2" d="M62.8,67.82c.34.07.92.04,1.32.11,0,1.1.12,7.97-.04,8.43l-1.58.1v1.17s4.89,0,4.89,0v-1.17s-1.61-.1-1.61-.1c-.09-1.16-.02-8-.02-9.72l-3.14.03c0,.83-.12,1.09.18,1.16h0Z"/>
  <path class="cls-2" d="M97.8,77.12c.52-1.56-1.7-1.77-2-.78-.48,1.59,1.68,1.74,2,.78Z"/>
  <path class="cls-2" d="M68.56,40.68c-1.22.44-.59,2.2.78,1.74,1.16-.39.58-2.22-.78-1.74Z"/>
  <path class="cls-2" d="M16.91,62.72c-1.22.4-.54,2.26.83,1.72,1.08-.43.56-2.17-.83-1.72Z"/>
  <path class="cls-2" d="M64.48,62.73c-1.23.47-.49,2.19.81,1.71,1.15-.41.54-2.23-.81-1.71Z"/>
  <path class="cls-2" d="M114.4,40.7c-1.25.48-.49,2.19.81,1.71,1.14-.41.52-2.22-.81-1.71Z"/>
</svg>