<?xml version="1.0" encoding="UTF-8"?>
<!DOCTYPE svg PUBLIC "-//W3C//DTD SVG 1.1//EN" "http://www.w3.org/Graphics/SVG/1.1/DTD/svg11.dtd">
<!-- Creator: CorelDRAW (OEM Version) -->
<svg xmlns="http://www.w3.org/2000/svg" xml:space="preserve" width="3.6in" height="3.6in" version="1.1" style="shape-rendering:geometricPrecision; text-rendering:geometricPrecision; image-rendering:optimizeQuality; fill-rule:evenodd; clip-rule:evenodd"
viewBox="0 0 3600 3600"
 xmlns:xlink="http://www.w3.org/1999/xlink"
 xmlns:xodm="http://www.corel.com/coreldraw/odm/2003">
 <defs>
  <style type="text/css">
   <![CDATA[
    .fil1 {fill:#162C53}
    .fil2 {fill:#ED434C}
    .fil0 {fill:white}
   ]]>
  </style>
 </defs>
 <g id="Layer_x0020_1">
  <metadata id="CorelCorpID_0Corel-Layer"/>
  <g id="_2217827377360">
   <path class="fil0" d="M2209.82 2534.67c-6.4,19.12 -49.13,16.13 -39.58,-15.39 5.96,-19.68 49.91,-15.44 39.58,15.39zm-572.13 -207.52l62.1 0.39 -0.01 37.25c7.73,-3.15 31.3,-25.3 62.77,-36.44 23.75,-8.41 63.26,-10.91 79.7,5.83 17.31,17.64 12.43,58.28 12.43,86.13 0,32.86 0.06,65.73 -0,98.59l35.15 2.83 0.01 22.68 -66.7 0.26c-4.81,-18.57 3.58,-142.97 -2.46,-174.19 -2.71,-14.01 -8.67,-19.19 -23.29,-20.72 -51.64,-5.41 -83.61,29.78 -97.5,35.6l0.41 134.22 31.58 1.99 0.17 22.83c-21.37,1.23 -72.54,0.26 -96.93,0.25l0.13 -23.09 31.46 -2.08 0.67 -167.25 -29.69 -2 0.01 -23.06zm-124.42 0.54l62.08 -0.53c0,33.97 -1.41,169.3 0.37,192.33l31.66 2.04 0.22 23.12 -96.89 0 0.18 -23.15 31.3 -2.07c3.19,-8.91 0.87,-144.93 0.85,-166.78 -7.81,-1.28 -19.38,-0.61 -26.1,-2.08 -6.13,-1.34 -3.65,-6.49 -3.66,-22.87zm-429.15 -0.54l62 0.01 0 36c12.83,-6.4 35.37,-33.34 76.78,-39.89 73.67,-11.64 65.87,32.76 71.83,42.14l27.01 -20.44c9.56,-6.33 20.21,-12.35 32.49,-16.72 24.38,-8.67 63.46,-10.61 79.66,6.11 16.87,17.41 12.42,58.39 12.42,85.97 0,32.93 -0.07,65.86 0.01,98.78l34.98 2.52 0.28 23.02 -67.58 0.01 -0.01 -148.26c0,-13.95 -0.38,-33.87 -8.97,-41.15 -8.58,-7.28 -31.43,-6.96 -44.48,-4.58 -22.8,4.15 -63.07,29.56 -64.89,36.43l0 132.08 35.01 2.46 -0.34 23.07 -66.64 -0.06c-4.86,-30.3 4.11,-136.13 -1.8,-172.48 -2.15,-13.24 -7.56,-20.07 -20.52,-22.05 -13.43,-2.06 -28.26,-1.02 -40.63,2.78 -11.55,3.54 -20.93,8.54 -29.6,14.31 -7.06,4.69 -20.28,13.46 -24.99,18.35 -0.04,18 -1.91,126.16 0.88,133.43l31.19 2.58 0.28 23.09 -96.93 0.01 0.06 -23.13 31.7 -2.07 0.5 -167.12 -29.69 -2.11 0 -23.07zm-388.54 0.61c10.8,-1.45 48.62,-0.64 62.08,-0.61l0.34 38.05c15.96,-11.83 37.91,-28 61.02,-36.3 23.6,-8.48 63.7,-12.44 80.83,4.93 17.59,17.83 12.83,57.27 12.83,85.16 0,16.15 -1.03,90.32 0.59,99.73l34.41 2.94 -0.34 23.03 -66.6 -0.06c-3.53,-24.74 3.75,-145.16 -2.25,-174.82 -2.67,-13.18 -9.65,-18.87 -23.87,-20.14 -14.47,-1.29 -27.09,-0.04 -39.97,4.14 -25.46,8.27 -38.32,20.67 -56.85,32.18l0.21 133.44 31.76 2.11 0.2 23.1 -96.88 0 0.07 -23.13 31.29 -2.07c3.26,-9.07 0.97,-144.92 0.88,-166.87l-29.79 -2.54 0.04 -22.26zm-124.32 -0.6l62.09 0.39c0.03,26.06 -1.79,180.59 0.69,192.01l31.4 2 0.17 22.85c-21.91,1.21 -72.14,0.25 -96.93,0.24l0.13 -23.09 31.46 -2.09 0.65 -167.25 -29.68 -1.99 0 -23.07zm978.99 -77.35c26.79,-10.2 38.85,25.78 16.13,33.94 -25.92,9.32 -40.48,-24.68 -16.13,-33.94zm-941.86 -0.24c27.46,-9.01 37.78,25.6 16.41,34.04 -27.08,10.68 -40.65,-26.08 -16.41,-34.04zm1465.2 261.38c-20.01,10.43 -37.12,37.04 -88.76,37.01 -49.66,-0.02 -65.74,-25.7 -65.74,-78.45l0 -70.47c0,-47.72 15.98,-76.98 64.41,-77.05 64.6,-0.09 62.36,16.83 90.2,25.25l-0.51 -76.66 -34.79 -2.35 -0.39 -4.82 0 -16.12 67.97 0.01 0.47 272.13 31.81 2.07 0.06 23.14 -64.66 -0 -0.07 -33.68zm892.98 -453.06c-0.04,25.04 0.84,23.76 -14.45,35.91 -8.89,7.06 -20.38,12.05 -33.77,15.36 -23.53,5.82 -65.85,5.1 -88.47,-2.01 -24.77,-7.78 -39.82,-25.64 -45.46,-52.93 -4.07,-19.7 -3.93,-73.2 -2.1,-94.44 5.38,-62.68 55.97,-80.14 121.72,-72.92 49.85,5.48 68.08,35.2 68.88,78.69 0.22,11.8 1.31,38.35 -0.52,48.7l-159.09 0.12c0,17.88 -1.15,37.72 7.29,51.54 7.08,11.6 19.2,19.36 36.69,21.69 21.33,2.84 58.25,3.42 74.44,-12.85 19.05,-19.14 -3.7,-16.86 34.83,-16.85zm-1672.7 -0.01c-0.02,24.35 0.87,24.52 -14.49,35.95 -31.13,23.19 -91.54,23.52 -122.28,13.32 -24.98,-8.29 -39.62,-25.34 -45.37,-53 -4.14,-19.91 -3.89,-72.85 -2.11,-94.33 5.24,-63.13 55.88,-79.74 121.29,-73.05 31.53,3.22 50.48,16.17 61.06,37.64 8.33,16.93 11.45,69.35 7.7,89.82l-159.06 0.24c0,31.35 -1.87,66.94 43.9,73.1 14,1.89 43.18,1.63 55.79,-2.19 7.78,-2.35 14.27,-6.33 18.7,-10.59 18.89,-18.19 -4.63,-16.93 34.86,-16.93zm-235.48 0.36c2.33,21.99 -0.65,25.5 -12.89,34.44 -10.17,7.43 -18.79,12.14 -33.14,15.99 -22.7,6.1 -66.32,5.89 -88.54,-0.93 -25.08,-7.69 -40.84,-24.26 -46.94,-51.62 -4.45,-19.97 -4.22,-73.97 -2.48,-95.95 4.98,-62.97 55.94,-80.51 121.19,-73.39 31.2,3.4 50.98,15.87 61.17,37.46 9.75,20.64 10.98,73.85 7.67,89.99l-159.01 0.46c0,40.27 3.59,67.4 43.81,72.9 21.61,2.95 57.81,3.25 74.6,-12.62 6.23,-5.89 6.07,-8.65 10.72,-17.14l23.85 0.41zm535.16 -167.24l62.07 0 0.27 192.22 31.99 2.57 -0.46 22.69 -95.87 0.05 -0.31 -23.1 31.96 -2 -0 -167.15 -29.52 -2.6 -0.11 -22.69zm907.59 0.05l62.1 -0.06c-0.02,25.93 -1.02,179.75 0.47,192.33l31.56 2.08c0.3,7.7 0.99,15.54 -0.62,23.09l-95.92 -0.3 0.03 -22.65 32.13 -2.43 0.04 -166.7 -29.78 -2.89 -0.01 -22.49zm-720.59 38c16.83,-14.2 46,-32.21 69,-38.98 23.35,-6.87 67.56,-10.2 80.06,18.98 8.33,19.45 5.5,124.91 5.33,158.89 -0.07,14.12 -3.46,15.1 9.92,15.93 8.41,0.52 16.63,1.1 25.26,1.59l0.07 23.05 -67.57 -0.4c-0,-28.62 2.16,-157.2 -2.11,-175.31 -3.16,-13.4 -9.67,-18.11 -24.67,-19.31 -48.01,-3.83 -68.21,21.06 -95.89,36.11l0.51 133.74 31.83 2.09 -0.84 23.07 -95.99 -0.26 0.03 -22.7 32.12 -2.46 0.03 -166.64 -29.78 -2.78 -0.01 -22.62 62.05 0.04 0.65 37.98zm-384.08 -8.11c6.23,-3.1 15.76,-10.42 22.57,-14.57 25.97,-15.85 58.2,-25.3 89.7,-19.18 46.22,8.99 42.43,59.67 42.43,106.28 0,48.82 5.55,99.26 -35.62,114.46 -25.55,9.44 -67.3,3.61 -95.04,-8.91 -7.48,-3.38 -18.03,-10.61 -24.33,-12.22l-0.03 69.06 37.43 2.18 -0 23.09 -102.02 -0.01 0.68 -23.06 31.63 -2.04 -0.02 -239.75 -29.73 -2.13 0.01 -23.13 62.04 -0 0.33 29.95zm637.5 77.86c-4.03,-4.42 -3.41,-2.68 -6.87,-9.12 -8.36,-15.54 -8.52,-41.9 -5.74,-58.26 4.27,-25.22 19.25,-36.62 44.2,-42.01 21.14,-4.57 59.27,-4.67 81.24,-2.01 6.45,0.78 13.28,2.97 18.94,3.48 15.21,1.37 44.7,-1.46 63.41,0.45l0.03 19.7 -36.3 3.33c3.95,7.87 6.98,9.49 8.78,21.88 3.65,25.11 0.78,58.23 -19.8,72.1 -22.04,14.85 -79.94,16.14 -109.01,10.09 -16.96,-3.53 -16.63,-8.51 -23.8,-4.8 -6.15,3.19 -13.39,8.48 -14.52,16.13 -3.8,25.69 13.48,25.18 35.34,25.53 29.41,0.46 98.52,-3.43 122.2,3.5 17.51,5.11 24.8,16.02 26.49,37.13 5.66,70.72 -29.77,82.65 -104.76,82.62 -29.23,-0.01 -88.59,5.44 -108.29,-16.96 -9.13,-10.39 -9.73,-38.29 -4.76,-52.44 2.92,-8.3 7.46,-14.58 11.89,-20.07 5.47,-6.77 10.96,-8.26 16.17,-14.52 -17.63,-5.53 -21.85,-17.8 -19.37,-39.45 2.02,-17.63 16.76,-23.81 27.58,-32.33l-3.04 -3.97zm504.3 -185.11c26.48,-10.1 38.75,25.74 16.11,33.93 -25.9,9.37 -40.79,-24.52 -16.11,-33.93zm-907.4 -0.32c26.85,-9.59 38.42,26.62 15.42,34.38 -27.09,9.14 -39.66,-25.73 -15.42,-34.38zm-770.52 270.76l0.11 24.35 -106.74 -0.39 0.3 -23.91 28.76 -0.81c-1.13,-6.39 -30.43,-47.48 -36.31,-56.31l-36.83 -54.46 -71.37 0.1 0.09 109.28 35.22 2.23 0.07 24.17 -105.39 0.09 0.37 -24.35 35.7 -2.15 0 -244.11c-43.45,-5.39 -36.41,8.16 -36.49,-26.63l105.81 0.05 0 24.22 -35.69 2.26 0.54 105.91 69.16 -0.05 38.61 -53.14c5.58,-7.75 36.26,-48.75 37.47,-53.3l-29.25 -1.65c-2.83,-6.43 -1.15,-16.93 -1.15,-24.32l102.48 0.09 0.01 24.1c-21.5,1.57 -33.27,-1.82 -39.21,7.05l-30.87 43.62c-8.31,12.16 -16.31,22.87 -24.84,35 -4.83,6.86 -22.08,29.16 -24.36,35.16 2.8,5.25 7.12,10.59 10.5,15.74 3.47,5.28 6.8,10.32 10.68,15.95l64.15 94.1 38.48 2.12zm1510.07 -272.93l62.08 0.44 0.61 271.68 31.58 2.18 0.07 22.88 -96.95 -0.01 0.24 -22.93 32.01 -2 0.02 -247.06 -29.66 -2.11 -0 -23.05zm286.31 80.29c2.7,-30.14 -3.28,-53.8 17.56,-71.5 12.98,-11.02 62.15,-18.75 70.38,-17.3l2.43 20.56c-11.75,6.56 -34.72,5.24 -47.74,15.09 -12.41,9.38 -10.46,33.87 -9.94,52.61l66.15 0.56 -0.11 23.28 -66.14 0.06 0.02 167.89 38.56 2.81 0.07 22.91 -103.26 -0.5 0.2 -22.44 32.04 -2.07 0.03 -168.62 -33.08 0 -0.06 -21.26 32.91 -2.09zm-2367.3 -217.58l3009.13 0 5.32 0 5.31 0.02 0.01 24.91 -3019.77 -0 0 -24.93zm2358.59 -233.41c2.66,3.14 1.53,0.82 1.9,6.34l-0.1 75.9c0.01,8.08 2.96,19.99 -5.52,20.87l-220.69 -0.09c-31.78,0 -71.13,2.6 -95.33,-13.19 -9.44,-6.17 -8.75,-3.14 -19.7,1.04 -20.89,7.95 -41.61,13.9 -64.02,18.37 -32.75,6.53 -67.36,9.1 -101.54,6.24 -64.44,-5.39 -123.02,-31.16 -145.28,-74.09 -30.57,-58.97 11.9,-131.4 41.63,-158.54 37.42,-34.15 83.98,-56.46 147.76,-71.59 69.67,-16.52 129.84,-15.98 203.24,-15.98 17.42,0 207.09,-1.2 219.25,0.56l-0.25 38.83c-8.12,5.52 -12.91,3.14 -19.62,12.16 -8.67,11.66 -5.24,70.84 -5.24,90.49 0,21.71 -4.1,42.01 9.44,54.4 14.93,13.65 44.45,1.09 54.08,8.3zm-783.8 -83.97c0,17.43 -3.19,57.26 4.17,69.84 13.38,22.88 42.96,6.53 59.34,13.63 3.14,2.54 1.89,18.34 1.89,25.57 0,15.86 1.14,68.38 -0.89,76.91 -11.53,3.56 -130.98,1.04 -154.02,1.04 -34.56,0 -121.53,4.83 -146.15,-8.91 -17.25,-9.63 -25.55,-25.43 -25.48,-53.09 0.07,-25.7 0.01,-51.42 0.01,-77.12 0,-15.7 2.4,-101.57 -2.78,-112.84 -5.61,-12.2 -11.81,-9.99 -22.11,-16.2 -0.47,-4.74 -1.11,-33.87 0.13,-36.78 2.57,-6.09 27.35,-2.81 34.16,-2.81l223.39 0c25.97,0 28.28,-2.91 28.46,8.94l-0.12 111.83zm-1313.28 -89.88c-3.02,-20.39 -0.56,-64.88 -0.56,-88.3 0,-31 -3.52,-32.48 8.06,-36.83 53.62,-20.13 113.42,-38.93 170.21,-51.81 134.62,-30.54 176.77,-37.78 318.72,-37.85 109.71,-0.06 341.9,37.15 412.05,122.65 10.33,12.59 24.22,41.01 26.5,62.66 2.06,19.66 -3.28,38.69 -11.88,55.32 -2.48,4.81 -5.7,9.28 -7.71,13.51 3.63,5.54 16.32,14.28 21.99,19.17 17.09,14.72 37.95,52.09 43.12,76.54 9.11,43.03 -16.44,87.3 -47.61,110.72 -13.07,9.82 -36.53,20.48 -55.54,25.59 -24.65,6.64 -47.58,5.5 -73.76,5.5 -160.89,0 -321.79,0 -482.69,0 -20.24,0 -308.8,1.72 -320.57,-0.76 -1.62,-6.39 -1.62,-101.01 -0.23,-109.56 59.87,-14.53 48.45,-19.07 48.45,-83.32 0,-16.49 2.57,-50.26 -4.06,-62.7 -10.66,-20.01 -32.02,-17.73 -44.5,-20.53zm1052.17 -157.45c0,-6.43 -0.02,-7.24 6.72,-7.23 28.87,0.02 244.34,-2 253.62,1.17 1.78,13.97 0.77,72.83 0.77,91.17 0,6.48 -0.69,7.74 -7.07,7.74l-246 0c-7.3,0 -8.06,0.03 -8.06,-7.74l0 -85.1zm1109.58 135.24c-1.06,-9.58 -0.46,-22.97 -0.46,-32.96 -0.01,-13.14 7.14,-9.97 18.8,-14.28 16.72,-6.17 30.76,-13.55 44.69,-21.8 15.08,-8.93 26.26,-18.06 38.32,-28.14 39.74,-33.21 68.92,-58.11 123.22,-76.26 17.22,-5.76 35.48,-9.41 54.36,-11.91 16.38,-2.17 19.01,-5.76 18.77,11.52 -0.15,11.21 0.4,22.59 -0.32,33.76 -7.92,3.47 -11.55,1.63 -18.65,8.85 -13.94,14.16 -8.57,43.32 -8.57,71.78l0 212.76c-0.04,59.35 32.83,34.76 64.84,41.99 1.3,9.6 1.37,96 -0.34,103 -11.05,2.39 -208.75,0.75 -238.11,0.78 -24.72,0.02 -47.89,-2.98 -62.09,-15.88 -5.08,-4.61 -11.56,-15.89 -13.83,-26 -3.17,-14.17 -1.46,-172.01 -1.46,-198.3 0,-68.45 -0.96,-42.43 -19.17,-58.89zm-2483.09 1340.73l3140.77 0 0 -1570.39 -3140.77 0 0 1570.39z"/>
   <path class="fil0" d="M1439.8 1432.33c-3.72,18.05 -23.12,30.83 -42.51,34.79 -16.34,3.33 -208.36,1.36 -234.22,1.36l-193.98 -0.31c-4.91,-1.86 -3.18,-10.66 -3.15,-17.22l-0.01 -117.02c-0.17,-20.71 -3.88,-15.79 42.89,-15.79 67.57,0 173.22,-2.44 233.35,1.98 59.97,4.4 107.09,8.73 154.64,39.35 22.67,14.59 49.27,42.33 42.98,72.86zm-455.16 -297.27c105.32,-5.1 271.42,13.76 362.42,66.72 13.82,8.04 31.7,19.72 36.87,34.95 7.33,21.59 -3.99,41.2 -19.69,47.05 -23.55,8.77 -107.84,4.94 -138.67,4.94 -79.99,0 -172.15,1.4 -251.46,0.13 -9.19,-0.15 -8.34,-1.83 -8.26,-10.69l0.09 -125.08c-0.1,-20.52 -1.83,-17.04 18.7,-18.03zm-391.75 40.78c-1.28,7.33 -2.76,43.16 2.06,46.74 1.74,1.29 13.98,5.98 17.3,7.96 33.04,19.63 29.07,54.74 29.07,91.43 0,30.25 1.8,67.02 -1.54,96.23 -1.72,15.04 -7.91,26.37 -15.48,33.85 -13.2,13.07 -21.56,11.73 -31.57,16.11 -0.98,7.57 -1.67,25.83 0.54,32.67 9.54,4.06 621.04,1.28 730.69,1.31 55.37,0.02 112.03,5.24 147.56,-35.27 16.38,-18.68 17.64,-59.25 2.46,-84.86 -12.72,-21.47 -34.69,-42.7 -54.33,-55.98 -6.2,-4.19 -18.06,-8.05 -20.67,-14.71 1.58,-4.63 5.61,-5.45 9.39,-8.68 9.96,-8.54 18.59,-19.58 23.3,-32.54 15.19,-41.85 -10.54,-74.9 -44.09,-96.85 -14.54,-9.51 -29.84,-17.56 -47.94,-25.19 -159.31,-67.19 -345.85,-67.53 -516,-36.44 -41.04,7.5 -80.19,17.49 -119.11,28.37 -18.54,5.18 -99.42,29.21 -111.64,35.85z"/>
   <path class="fil1" d="M592.89 1175.84c12.22,-6.64 93.1,-30.67 111.64,-35.85 38.91,-10.87 78.07,-20.87 119.11,-28.37 170.15,-31.08 356.69,-30.74 516,36.44 18.1,7.63 33.4,15.68 47.94,25.19 33.55,21.95 59.28,55 44.09,96.85 -4.7,12.96 -13.33,24.01 -23.3,32.54 -3.77,3.23 -7.8,4.05 -9.39,8.68 2.61,6.66 14.47,10.52 20.67,14.71 19.64,13.28 41.6,34.51 54.33,55.98 15.18,25.61 13.92,66.18 -2.46,84.86 -35.53,40.51 -92.19,35.29 -147.56,35.27 -109.65,-0.03 -721.15,2.75 -730.69,-1.31 -2.2,-6.85 -1.52,-25.11 -0.54,-32.67 10.01,-4.38 18.37,-3.04 31.57,-16.11 7.56,-7.49 13.75,-18.81 15.48,-33.85 3.35,-29.21 1.54,-65.98 1.54,-96.23 0,-36.68 3.96,-71.8 -29.07,-91.43 -3.32,-1.97 -15.57,-6.67 -17.3,-7.96 -4.82,-3.59 -3.33,-39.41 -2.06,-46.74zm-41.93 90.82c12.48,2.8 33.84,0.52 44.5,20.53 6.63,12.44 4.06,46.2 4.06,62.7 0,64.25 11.43,68.8 -48.45,83.32 -1.39,8.54 -1.39,103.17 0.23,109.56 11.77,2.48 300.32,0.76 320.57,0.76 160.89,0 321.79,0 482.69,0 26.18,0 49.11,1.14 73.76,-5.5 19.01,-5.12 42.47,-15.78 55.54,-25.59 31.17,-23.43 56.72,-67.7 47.61,-110.72 -5.17,-24.44 -26.03,-61.82 -43.12,-76.54 -5.67,-4.88 -18.35,-13.63 -21.99,-19.17 2.01,-4.24 5.23,-8.7 7.71,-13.51 8.6,-16.63 13.94,-35.66 11.88,-55.32 -2.28,-21.65 -16.17,-50.07 -26.5,-62.66 -70.15,-85.5 -302.34,-122.7 -412.05,-122.65 -141.95,0.07 -184.1,7.31 -318.72,37.85 -56.79,12.89 -116.59,31.69 -170.21,51.81 -11.57,4.34 -8.06,5.82 -8.06,36.83 0,23.43 -2.46,67.91 0.56,88.3z"/>
   <polygon class="fil2" points="289.45,1698.85 3309.22,1698.86 3309.21,1673.94 3303.9,1673.93 3298.58,1673.93 289.46,1673.93 "/>
   <path class="fil0" d="M2358.39 1419.21c-11.57,5.85 -23.53,13.4 -37.42,19.47 -41.49,18.14 -86.21,32.15 -132.6,37.9 -32.29,4 -71.85,3.63 -94.91,-13.23 -27.9,-20.4 -21.97,-56.73 -4.81,-78.75 30.33,-38.89 94.96,-57.16 160.74,-66.56 17.82,-2.55 90.2,-10.67 104.96,-7.71 5.66,1.13 4.57,4.33 4.55,10.22 -0.1,22.77 0.87,85.39 -0.52,98.66zm-23.85 54.9c8.91,8.57 16.93,25.98 46.48,27.9 27.19,1.77 117.43,0.13 151.64,0.13l73.61 -1.58c4.08,-1.98 2.07,-18.23 1.22,-21.97 -24.59,-4.67 -33.48,-1.87 -49.48,-18.41 -14.41,-14.89 -14.72,-28.6 -14.71,-53.1 0,-10.85 -1.05,-108.94 0.98,-117.44 1.41,-5.91 3.8,-7.35 4.47,-12.9 -36.39,-2 -238.17,-0.87 -273.13,2.13 -86.8,7.45 -204.68,34.88 -236.46,109.36 -25.64,60.06 -2.27,107.63 66.46,122.74 57.8,12.7 125.71,2.94 181.43,-15.77 8.92,-3 16.55,-6.12 24.72,-9.81 7.24,-3.27 16.82,-9.09 22.78,-11.27z"/>
   <path class="fil1" d="M2334.54 1474.11c-5.95,2.18 -15.54,8 -22.78,11.27 -8.17,3.69 -15.8,6.82 -24.72,9.81 -55.72,18.71 -123.63,28.47 -181.43,15.77 -68.72,-15.11 -92.09,-62.68 -66.46,-122.74 31.79,-74.48 149.66,-101.91 236.46,-109.36 34.96,-3 236.74,-4.14 273.13,-2.13 -0.67,5.55 -3.07,6.99 -4.47,12.9 -2.02,8.5 -0.97,106.59 -0.98,117.44 -0,24.5 0.31,38.22 14.71,53.1 16,16.54 24.89,13.75 49.48,18.41 0.85,3.74 2.85,20 -1.22,21.97l-73.61 1.58c-34.21,0 -124.45,1.65 -151.64,-0.13 -29.56,-1.93 -37.58,-19.33 -46.48,-27.9zm313.5 -33.59c-9.63,-7.21 -39.15,5.35 -54.08,-8.3 -13.54,-12.39 -9.44,-32.69 -9.44,-54.4 0,-19.65 -3.43,-78.83 5.24,-90.49 6.71,-9.02 11.5,-6.64 19.62,-12.16l0.25 -38.83c-12.16,-1.76 -201.83,-0.56 -219.25,-0.56 -73.4,0 -133.57,-0.54 -203.24,15.98 -63.79,15.13 -110.35,37.44 -147.76,71.59 -29.73,27.14 -72.2,99.57 -41.63,158.54 22.26,42.93 80.84,68.7 145.28,74.09 34.18,2.86 68.79,0.29 101.54,-6.24 22.41,-4.47 43.14,-10.41 64.02,-18.37 10.95,-4.17 10.26,-7.2 19.7,-1.04 24.21,15.79 63.56,13.19 95.33,13.19l220.69 0.09c8.48,-0.88 5.53,-12.79 5.52,-20.87l0.1 -75.9c-0.37,-5.52 0.76,-3.2 -1.9,-6.34z"/>
   <path class="fil0" d="M2761.87 1227.9c-0.43,11.77 11.2,9.08 11.16,51.52 -0.06,57.65 -2.35,144.29 0.02,195.53 1.02,22.06 15.37,27.26 37.53,27.2 31.74,-0.09 185.74,1.8 195,-1.13 1.96,-6.6 1.64,-15.22 0.28,-21.99 -11.05,-3.64 -55.54,-0.79 -64.32,-45.85 -2.73,-13.97 -1.08,-245.39 -1.07,-276.09 0.01,-32.01 7.39,-36.63 8.14,-47.65 -24.59,-0.15 -78.97,37.87 -97.57,54.89 -3.63,3.33 -5.4,6.11 -9.22,9.34 -3.94,3.33 -5.44,4.62 -9.95,8.66 -11.41,10.24 -31.64,24 -45.24,31.91 -6.8,3.95 -19.9,9.2 -24.75,13.67z"/>
   <path class="fil1" d="M2761.87 1227.9c4.85,-4.46 17.95,-9.71 24.75,-13.67 13.59,-7.91 33.82,-21.67 45.24,-31.91 4.5,-4.04 6,-5.33 9.95,-8.66 3.82,-3.23 5.59,-6.01 9.22,-9.34 18.61,-17.02 72.99,-55.05 97.57,-54.89 -0.75,11.03 -8.13,15.65 -8.14,47.65 -0,30.7 -1.65,262.11 1.07,276.09 8.79,45.06 53.28,42.21 64.32,45.85 1.36,6.77 1.69,15.39 -0.28,21.99 -9.26,2.93 -163.26,1.04 -195,1.13 -22.16,0.06 -36.51,-5.13 -37.53,-27.2 -2.37,-51.24 -0.09,-137.89 -0.02,-195.53 0.05,-42.44 -11.59,-39.75 -11.16,-51.52zm-49.16 16.56c18.21,16.46 19.17,-9.56 19.17,58.89 0,26.29 -1.72,184.13 1.46,198.3 2.27,10.11 8.74,21.39 13.83,26 14.2,12.9 37.37,15.91 62.09,15.88 29.36,-0.03 227.07,1.61 238.11,-0.78 1.71,-7 1.65,-93.4 0.34,-103 -32.01,-7.23 -64.88,17.36 -64.84,-41.99l0 -212.76c0,-28.45 -5.37,-57.61 8.57,-71.78 7.1,-7.21 10.73,-5.38 18.65,-8.85 0.72,-11.17 0.17,-22.55 0.32,-33.76 0.24,-17.28 -2.39,-13.69 -18.77,-11.52 -18.89,2.5 -37.14,6.15 -54.36,11.91 -54.3,18.15 -83.48,43.05 -123.22,76.26 -12.06,10.08 -23.24,19.21 -38.32,28.14 -13.93,8.25 -27.96,15.63 -44.69,21.8 -11.66,4.3 -18.81,1.13 -18.8,14.28 0.01,9.99 -0.59,23.38 0.46,32.96z"/>
   <path class="fil1" d="M1638.86 1276.68c20.07,-0.79 174.66,-1.81 181.57,0.9 4.15,8.15 1.43,113.38 1.42,132.15 -0.02,23.48 1.27,36.96 15.43,50.48 22.13,21.13 44.15,14.33 49.15,18.63 2.32,3.99 1.7,8.42 1.71,13.41 0.02,13.5 0.98,9.88 -37.61,9.88 -32.28,0 -175.31,2.06 -186.97,-1.18 -18.22,-5.06 -19.3,-20.89 -19.3,-42.03l0.02 -155.59c0.04,-16.14 -4.52,-17.46 -5.43,-26.66zm-60.63 -1.3c10.3,6.21 16.51,4 22.11,16.2 5.18,11.27 2.78,97.15 2.78,112.84 0,25.7 0.06,51.42 -0.01,77.12 -0.07,27.65 8.23,43.46 25.48,53.09 24.62,13.74 111.59,8.91 146.15,8.91 23.04,0 142.48,2.52 154.02,-1.04 2.03,-8.54 0.89,-61.05 0.89,-76.91 0,-7.22 1.26,-23.03 -1.89,-25.57 -16.39,-7.1 -45.96,9.25 -59.34,-13.63 -7.36,-12.58 -4.17,-52.41 -4.17,-69.84l0.12 -111.83c-0.19,-11.85 -2.5,-8.94 -28.46,-8.94l-223.39 0c-6.81,0 -31.58,-3.28 -34.16,2.81 -1.23,2.91 -0.6,32.04 -0.13,36.78z"/>
   <path class="fil1" d="M1007.74 1367.18c0,-6.46 1.19,-7.05 7.73,-7.06l210.09 0c29.96,0 70.94,6.01 98.8,13.32 68.83,18.07 76.13,53.25 47.47,53.25 -46.06,-0.01 -343.87,1.54 -363.5,-0.66 -1.28,-15.11 -0.59,-42.5 -0.59,-58.85zm432.06 65.15c6.29,-30.54 -20.31,-58.27 -42.98,-72.86 -47.55,-30.62 -94.67,-34.95 -154.64,-39.35 -60.14,-4.41 -165.78,-1.97 -233.35,-1.98 -46.77,0 -43.06,-4.92 -42.89,15.79l0.01 117.02c-0.03,6.56 -1.76,15.36 3.15,17.22l193.98 0.31c25.86,0 217.88,1.98 234.22,-1.36 19.39,-3.96 38.79,-16.74 42.51,-34.79z"/>
   <path class="fil0" d="M1820.43 1277.58c-6.92,-2.71 -161.5,-1.69 -181.57,-0.9 0.9,9.2 5.46,10.52 5.43,26.66l-0.02 155.59c-0.01,21.15 1.08,36.97 19.3,42.03 11.66,3.24 154.69,1.18 186.97,1.18 38.59,0 37.63,3.62 37.61,-9.88 -0.01,-5 0.61,-9.43 -1.71,-13.41 -4.99,-4.3 -27.02,2.5 -49.15,-18.63 -14.16,-13.53 -15.45,-27 -15.43,-50.48 0.02,-18.78 2.73,-124 -1.42,-132.15z"/>
   <path class="fil1" d="M1008.44 1176.66c34.82,-6.83 147.57,6.52 186.15,12.63 39.38,6.24 106.98,23.81 138.71,50.31 7.28,6.07 3.65,6.15 3.46,6.31 -1.44,0.86 -309.65,3.71 -328.11,0.37 -1.78,-6.61 -1.72,-62.12 -0.22,-69.61zm-23.8 -41.59c-20.53,0.99 -18.8,-2.49 -18.7,18.03l-0.09 125.08c-0.08,8.86 -0.93,10.54 8.26,10.69 79.3,1.26 171.46,-0.13 251.46,-0.13 30.83,0 115.12,3.83 138.67,-4.94 15.7,-5.85 27.02,-25.45 19.69,-47.05 -5.17,-15.23 -23.05,-26.91 -36.87,-34.95 -91,-52.96 -257.09,-71.82 -362.42,-66.72z"/>
   <path class="fil1" d="M1084.11 2350.21l29.69 2.11 -0.5 167.12 -31.7 2.07 -0.06 23.13 96.93 -0.01 -0.28 -23.09 -31.19 -2.58c-2.8,-7.27 -0.93,-115.43 -0.88,-133.43 4.71,-4.88 17.94,-13.66 24.99,-18.35 8.67,-5.77 18.05,-10.78 29.6,-14.31 12.37,-3.79 27.2,-4.83 40.63,-2.78 12.96,1.98 18.36,8.81 20.52,22.05 5.91,36.35 -3.06,142.18 1.8,172.48l66.64 0.06 0.34 -23.07 -35.01 -2.46 0 -132.08c1.81,-6.87 42.09,-32.28 64.89,-36.43 13.05,-2.37 35.89,-2.7 44.48,4.58 8.59,7.28 8.97,27.2 8.97,41.15l0.01 148.26 67.58 -0.01 -0.28 -23.02 -34.98 -2.52c-0.08,-32.92 -0.01,-65.85 -0.01,-98.78 0,-27.57 4.45,-68.56 -12.42,-85.97 -16.2,-16.72 -55.28,-14.78 -79.66,-6.11 -12.28,4.37 -22.93,10.39 -32.49,16.72l-27.01 20.44c-5.95,-9.38 1.85,-53.78 -71.83,-42.14 -41.41,6.55 -63.95,33.49 -76.78,39.89l0 -36 -62 -0.01 -0 23.07z"/>
   <path class="fil1" d="M604.33 1837.89l0 244.11 -35.7 2.15 -0.37 24.35 105.39 -0.09 -0.07 -24.17 -35.22 -2.23 -0.09 -109.28 71.37 -0.1 36.83 54.46c5.88,8.83 35.18,49.92 36.31,56.31l-28.76 0.81 -0.3 23.91 106.74 0.39 -0.11 -24.35 -38.48 -2.12 -64.15 -94.1c-3.88,-5.63 -7.2,-10.67 -10.68,-15.95 -3.39,-5.15 -7.71,-10.49 -10.5,-15.74 2.28,-6 19.53,-28.3 24.36,-35.16 8.53,-12.13 16.53,-22.84 24.84,-35l30.87 -43.62c5.94,-8.87 17.71,-5.47 39.21,-7.05l-0.01 -24.1 -102.48 -0.09c0,7.39 -1.67,17.89 1.15,24.32l29.25 1.65c-1.21,4.55 -31.89,45.55 -37.47,53.3l-38.61 53.14 -69.16 0.05 -0.54 -105.91 35.69 -2.26 -0 -24.22 -105.81 -0.05c0.08,34.79 -6.96,21.24 36.49,26.63z"/>
   <path class="fil1" d="M2025.81 2119.8c0.03,-18.27 12.19,-32.54 21.59,-38.56 6.05,-3.87 20.83,-0.77 29.18,-0.74 9.75,0.02 19.5,-0.01 29.26,-0.01 60.69,0 84.6,-8.76 84.6,32.66 0,18.23 -2.93,28.59 -18.29,35.76 -20.31,9.48 -75.46,6.63 -100.89,6.63 -32.62,0 -45.51,-2.72 -45.45,-35.74zm64.19 -211.94c24.76,-3.06 72.34,-5.95 80.06,24.02 3.08,11.96 2.72,36.04 -2.34,46.31 -11.7,23.78 -60.34,21.17 -83.91,17.23 -15.91,-2.66 -26.12,-9.08 -30.23,-22.85 -3.52,-11.77 -2.94,-36.15 2.23,-46.36 6.12,-12.07 16.88,-16.21 34.18,-18.35zm-52.97 94.93c-10.82,8.52 -25.56,14.71 -27.58,32.33 -2.47,21.65 1.74,33.92 19.37,39.45 -5.2,6.26 -10.7,7.75 -16.17,14.52 -4.44,5.49 -8.98,11.77 -11.89,20.07 -4.97,14.15 -4.37,42.05 4.76,52.44 19.7,22.41 79.06,16.95 108.29,16.96 75,0.02 110.43,-11.9 104.76,-82.62 -1.69,-21.11 -8.98,-32.01 -26.49,-37.13 -23.68,-6.92 -92.8,-3.03 -122.2,-3.5 -21.86,-0.35 -39.13,0.17 -35.34,-25.53 1.13,-7.64 8.37,-12.94 14.52,-16.13 7.17,-3.72 6.84,1.27 23.8,4.8 29.07,6.04 86.97,4.76 109.01,-10.09 20.58,-13.87 23.46,-47 19.8,-72.1 -1.8,-12.39 -4.83,-14.01 -8.78,-21.88l36.3 -3.33 -0.03 -19.7c-18.71,-1.91 -48.2,0.92 -63.41,-0.45 -5.67,-0.51 -12.49,-2.7 -18.94,-3.48 -21.97,-2.66 -60.1,-2.56 -81.24,2.01 -24.94,5.39 -39.93,16.79 -44.2,42.01 -2.77,16.36 -2.61,42.72 5.74,58.26 3.46,6.44 2.83,4.7 6.87,9.12l3.04 3.97z"/>
   <path class="fil1" d="M2314.95 1352.09l0.56 33.7c-0.02,8.64 -2.07,7.42 -17.05,14.46 -32.98,15.52 -91.63,32.9 -127.89,35.68 -76.86,5.91 -56.07,-44.35 30.15,-69.57 21.65,-6.33 93.06,-19.03 114.24,-14.27zm43.44 67.11c1.39,-13.28 0.41,-75.89 0.52,-98.66 0.02,-5.89 1.11,-9.09 -4.55,-10.22 -14.76,-2.96 -87.14,5.16 -104.96,7.71 -65.78,9.41 -130.41,27.67 -160.74,66.56 -17.17,22.02 -23.09,58.35 4.81,78.75 23.06,16.86 62.61,17.24 94.91,13.23 46.39,-5.75 91.11,-19.76 132.6,-37.9 13.89,-6.07 25.85,-13.61 37.42,-19.47z"/>
   <path class="fil1" d="M1396.39 2061.29c-1.47,-23.84 -0.41,-81.22 -0.3,-110.48 0.03,-9.57 4.66,-10.79 17.65,-19.13 14.84,-9.53 34.04,-17.64 56.48,-18.41 27.61,-0.94 40.71,4 46.23,28.64 4.17,18.6 2.39,49.92 2.4,70.17 0,51.85 -0.58,85.09 -72.05,72.5 -16.02,-2.82 -40.56,-14.37 -50.41,-23.3zm0.09 -140.34l-0.33 -29.95 -62.04 0 -0.01 23.13 29.73 2.13 0.02 239.75 -31.63 2.04 -0.68 23.06 102.02 0.01 0 -23.09 -37.43 -2.18 0.03 -69.06c6.3,1.61 16.85,8.84 24.33,12.22 27.74,12.52 69.5,18.35 95.04,8.91 41.17,-15.21 35.62,-65.64 35.62,-114.46 0,-46.61 3.79,-97.29 -42.43,-106.28 -31.5,-6.12 -63.73,3.32 -89.7,19.18 -6.81,4.15 -16.34,11.48 -22.57,14.57z"/>
   <path class="fil1" d="M2073.68 2372.44l-0 117.32c-24.72,20.62 -51.87,32.95 -86.23,30.3 -40.57,-3.14 -35.93,-45.26 -35.93,-82.46 0,-36.32 -5.94,-80.55 29.48,-87.7 13.11,-2.65 40.39,-1.25 53.29,2.39 8.78,2.48 36.72,13.9 39.4,20.16zm-35.66 -109.04l0.39 4.82 34.79 2.35 0.51 76.66c-27.83,-8.43 -25.59,-25.34 -90.2,-25.25 -48.43,0.07 -64.41,29.33 -64.41,77.05l0 70.47c0,52.75 16.08,78.44 65.74,78.45 51.65,0.02 68.75,-26.58 88.76,-37.01l0.07 33.68 64.66 0 -0.06 -23.14 -31.81 -2.07 -0.47 -272.13 -67.97 -0.01 0 16.12z"/>
   <path class="fil0" d="M1007.74 1367.18c0,16.35 -0.69,43.74 0.59,58.85 19.64,2.19 317.44,0.65 363.5,0.66 28.67,0 21.37,-35.17 -47.47,-53.25 -27.86,-7.31 -68.84,-13.32 -98.8,-13.32l-210.09 0c-6.54,0.01 -7.73,0.59 -7.73,7.06z"/>
   <path class="fil1" d="M1644.26 1145.12c0,-7.3 0.88,-8.06 8.14,-8.05l160.9 0c7.96,0 8.56,-0.23 8.56,8.05 0.09,11.22 1.02,10.8 -1.07,21.01 -15.39,1.9 -142.34,0.76 -168.38,0.76 -10.06,-0 -8.14,-0.14 -8.14,-21.77zm-41.14 -35.9l-0 85.1c0,7.77 0.76,7.74 8.06,7.74l246 -0c6.38,0 7.07,-1.26 7.07,-7.74 0,-18.34 1.01,-77.2 -0.77,-91.17 -9.28,-3.17 -224.75,-1.15 -253.62,-1.17 -6.74,-0 -6.72,0.81 -6.72,7.23z"/>
   <path class="fil1" d="M1637.69 2350.2l29.69 2 -0.67 167.25 -31.46 2.08 -0.13 23.09c24.39,0.01 75.57,0.98 96.93,-0.25l-0.17 -22.83 -31.58 -1.99 -0.41 -134.22c13.89,-5.83 45.86,-41.01 97.5,-35.6 14.62,1.53 20.58,6.71 23.29,20.72 6.04,31.22 -2.36,155.62 2.46,174.19l66.7 -0.26 -0.01 -22.68 -35.15 -2.83c0.06,-32.86 0,-65.72 0,-98.59 0,-27.85 4.88,-68.49 -12.43,-86.13 -16.44,-16.75 -55.95,-14.25 -79.7,-5.83 -31.47,11.15 -55.04,33.3 -62.77,36.44l0.01 -37.25 -62.1 -0.39 -0.01 23.06z"/>
   <path class="fil1" d="M1780.57 1929.06l-0.65 -37.98 -62.05 -0.04 0.01 22.62 29.78 2.78 -0.03 166.64 -32.12 2.46 -0.03 22.7 95.99 0.26 0.84 -23.07 -31.83 -2.09 -0.51 -133.74c27.68,-15.05 47.88,-39.94 95.89,-36.11 15,1.2 21.51,5.91 24.67,19.31 4.27,18.11 2.1,146.69 2.11,175.31l67.57 0.4 -0.07 -23.05c-8.63,-0.49 -16.85,-1.07 -25.26,-1.59 -13.38,-0.83 -9.99,-1.81 -9.92,-15.93 0.17,-33.99 3,-139.44 -5.33,-158.89 -12.49,-29.18 -56.7,-25.85 -80.06,-18.98 -23,6.77 -52.18,24.78 -69,38.98z"/>
   <path class="fil1" d="M695.54 2350.02l29.79 2.54c0.09,21.96 2.38,157.8 -0.88,166.87l-31.29 2.07 -0.07 23.13 96.88 -0 -0.2 -23.1 -31.76 -2.11 -0.21 -133.44c18.53,-11.52 31.39,-23.91 56.85,-32.18 12.88,-4.18 25.5,-5.43 39.97,-4.14 14.22,1.27 21.2,6.96 23.87,20.14 6,29.67 -1.28,150.09 2.25,174.82l66.6 0.06 0.34 -23.03 -34.41 -2.94c-1.63,-9.41 -0.59,-83.57 -0.59,-99.73 0,-27.89 4.76,-67.33 -12.83,-85.16 -17.13,-17.37 -57.23,-13.41 -80.83,-4.93 -23.1,8.3 -45.05,24.47 -61.02,36.3l-0.34 -38.05c-13.46,-0.03 -51.28,-0.85 -62.08,0.61l-0.04 22.26z"/>
   <path class="fil0" d="M1396.39 2061.29c9.85,8.92 34.39,20.47 50.41,23.3 71.47,12.59 72.05,-20.64 72.05,-72.5 -0,-20.25 1.77,-51.57 -2.4,-70.17 -5.52,-24.65 -18.61,-29.59 -46.23,-28.64 -22.44,0.77 -41.65,8.88 -56.48,18.41 -12.99,8.34 -17.62,9.56 -17.65,19.13 -0.11,29.26 -1.17,86.64 0.3,110.48z"/>
   <path class="fil1" d="M905.44 1990.78c-0.07,-44.68 -0.66,-81.72 64.82,-81.85 67.57,-0.13 65.43,33.54 65.4,82.3l-130.22 -0.45zm152.97 67.46l-23.85 -0.41c-4.65,8.5 -4.48,11.25 -10.72,17.14 -16.79,15.87 -52.99,15.57 -74.6,12.62 -40.22,-5.5 -43.81,-32.63 -43.81,-72.9l159.01 -0.46c3.3,-16.15 2.08,-69.35 -7.67,-89.99 -10.19,-21.59 -29.97,-34.06 -61.17,-37.46 -65.24,-7.11 -116.2,10.43 -121.19,73.39 -1.74,21.98 -1.97,75.98 2.48,95.95 6.1,27.35 21.87,43.93 46.94,51.62 22.22,6.81 65.83,7.02 88.54,0.93 14.35,-3.85 22.96,-8.56 33.14,-15.99 12.24,-8.94 15.22,-12.45 12.89,-34.44z"/>
   <path class="fil1" d="M1140.63 1986.83c0.01,-51.86 5.44,-77.85 70.31,-77.88 64.19,-0.02 59.91,42.25 59.91,82.26l-130.21 0 -0.01 -4.39zm153.26 71.06c-39.49,0 -15.96,-1.27 -34.86,16.93 -4.43,4.27 -10.92,8.24 -18.7,10.59 -12.61,3.81 -41.8,4.07 -55.79,2.19 -45.77,-6.16 -43.9,-41.76 -43.9,-73.1l159.06 -0.24c3.75,-20.47 0.63,-72.89 -7.7,-89.82 -10.57,-21.47 -29.53,-34.42 -61.06,-37.64 -65.41,-6.69 -116.05,9.92 -121.29,73.05 -1.78,21.48 -2.03,74.42 2.11,94.33 5.75,27.65 20.39,44.7 45.37,53 30.74,10.2 91.15,9.87 122.28,-13.32 15.35,-11.44 14.47,-11.6 14.49,-35.95z"/>
   <path class="fil1" d="M2813.31 1991.12c0.03,-26.52 -2.51,-44.24 11.55,-63.12 9.89,-13.28 30.09,-19.02 53.53,-19.06 67.09,-0.1 65.08,33.75 65.16,82.29l-130.24 -0.11zm153.26 66.77c-38.54,-0.01 -15.79,-2.28 -34.83,16.85 -16.19,16.28 -53.11,15.69 -74.44,12.85 -17.49,-2.33 -29.61,-10.09 -36.69,-21.69 -8.44,-13.82 -7.29,-33.66 -7.29,-51.54l159.09 -0.12c1.83,-10.36 0.73,-36.91 0.52,-48.7 -0.8,-43.48 -19.03,-73.21 -68.88,-78.69 -65.75,-7.22 -116.34,10.24 -121.72,72.92 -1.82,21.24 -1.97,74.73 2.1,94.44 5.64,27.29 20.69,45.16 45.46,52.93 22.62,7.11 64.94,7.83 88.47,2.01 13.39,-3.31 24.89,-8.3 33.77,-15.36 15.29,-12.14 14.41,-10.87 14.45,-35.91z"/>
   <path class="fil0" d="M2073.68 2372.44c-2.68,-6.26 -30.61,-17.68 -39.4,-20.16 -12.9,-3.64 -40.17,-5.04 -53.29,-2.39 -35.42,7.16 -29.48,51.38 -29.48,87.7 0,37.2 -4.64,79.32 35.93,82.46 34.35,2.66 61.5,-9.68 86.23,-30.3l0 -117.32z"/>
   <path class="fil0" d="M1008.44 1176.66c-1.5,7.5 -1.56,63 0.22,69.61 18.46,3.34 326.67,0.49 328.11,-0.37 0.18,-0.16 3.81,-0.23 -3.46,-6.31 -31.73,-26.5 -99.33,-44.07 -138.71,-50.31 -38.58,-6.11 -151.33,-19.46 -186.15,-12.63z"/>
   <path class="fil1" d="M2656.75 1891.51l-32.91 2.09 0.06 21.26 33.08 -0 -0.03 168.62 -32.04 2.07 -0.2 22.44 103.26 0.5 -0.07 -22.91 -38.56 -2.81 -0.02 -167.89 66.14 -0.06 0.11 -23.28 -66.15 -0.56c-0.52,-18.75 -2.47,-43.24 9.94,-52.61 13.03,-9.85 35.99,-8.52 47.74,-15.09l-2.43 -20.56c-8.24,-1.45 -57.41,6.28 -70.38,17.3 -20.84,17.7 -14.86,41.35 -17.56,71.5z"/>
   <polygon class="fil1" points="2370.44,1834.27 2400.11,1836.39 2400.09,2083.45 2368.08,2085.45 2367.83,2108.38 2464.78,2108.39 2464.72,2085.51 2433.14,2083.33 2432.52,1811.66 2370.44,1811.22 "/>
   <path class="fil0" d="M2025.81 2119.8c-0.06,33.02 12.83,35.74 45.45,35.74 25.43,0 80.57,2.85 100.89,-6.63 15.35,-7.17 18.29,-17.52 18.29,-35.76 0,-41.42 -23.91,-32.66 -84.6,-32.66 -9.75,0 -19.51,0.03 -29.26,0.01 -8.35,-0.02 -23.13,-3.13 -29.18,0.74 -9.4,6.02 -21.56,20.29 -21.59,38.56z"/>
   <path class="fil0" d="M2314.95 1352.09c-21.17,-4.76 -92.59,7.93 -114.24,14.27 -86.22,25.23 -107.01,75.48 -30.15,69.57 36.26,-2.78 94.92,-20.16 127.89,-35.68 14.97,-7.04 17.03,-5.82 17.05,-14.46l-0.56 -33.7z"/>
   <path class="fil0" d="M2090 1907.85c-17.3,2.14 -28.06,6.28 -34.18,18.35 -5.17,10.21 -5.74,34.59 -2.23,46.36 4.11,13.77 14.32,20.19 30.23,22.85 23.57,3.94 72.21,6.55 83.91,-17.23 5.06,-10.28 5.42,-34.35 2.34,-46.31 -7.72,-29.97 -55.3,-27.08 -80.06,-24.02z"/>
   <path class="fil0" d="M1140.64 1991.21l130.21 0c0,-40.01 4.28,-82.29 -59.91,-82.26 -64.87,0.03 -70.3,26.02 -70.31,77.88l0.01 4.39z"/>
   <path class="fil0" d="M2813.31 1991.12l130.24 0.11c-0.07,-48.54 1.93,-82.39 -65.16,-82.29 -23.44,0.04 -43.64,5.78 -53.53,19.06 -14.06,18.89 -11.52,36.6 -11.55,63.12z"/>
   <path class="fil0" d="M905.44 1990.78l130.22 0.45c0.04,-48.76 2.17,-82.43 -65.4,-82.3 -65.48,0.13 -64.89,37.17 -64.82,81.85z"/>
   <polygon class="fil1" points="1593.68,1913.69 1623.2,1916.29 1623.2,2083.44 1591.25,2085.43 1591.56,2108.53 1687.44,2108.48 1687.9,2085.8 1655.91,2083.22 1655.64,1891 1593.57,1891 "/>
   <path class="fil1" d="M571.26 2350.22l29.68 1.99 -0.65 167.25 -31.46 2.09 -0.13 23.09c24.79,0.01 75.02,0.98 96.93,-0.24l-0.17 -22.85 -31.4 -2c-2.48,-11.42 -0.66,-165.96 -0.69,-192.01l-62.09 -0.39 -0 23.07z"/>
   <path class="fil1" d="M2501.17 1913.54l29.78 2.89 -0.04 166.7 -32.13 2.43 -0.03 22.65 95.92 0.3c1.61,-7.56 0.93,-15.39 0.62,-23.09l-31.56 -2.08c-1.49,-12.58 -0.49,-166.4 -0.47,-192.33l-62.1 0.06 0.01 22.49z"/>
   <path class="fil1" d="M1516.93 2350.55c6.72,1.47 18.29,0.8 26.1,2.08 0.02,21.84 2.35,157.87 -0.85,166.78l-31.3 2.07 -0.18 23.15 96.89 0 -0.22 -23.12 -31.66 -2.04c-1.78,-23.03 -0.37,-158.36 -0.37,-192.33l-62.08 0.53c0.01,16.39 -2.46,21.54 3.66,22.87z"/>
   <path class="fil0" d="M1644.26 1145.12c0,21.63 -1.93,21.76 8.14,21.77 26.04,0 152.99,1.15 168.38,-0.76 2.09,-10.22 1.16,-9.79 1.07,-21.01 0,-8.28 -0.59,-8.05 -8.56,-8.05l-160.9 0c-7.26,-0 -8.14,0.75 -8.14,8.05z"/>
   <path class="fil1" d="M2209.82 2534.67c10.32,-30.83 -33.62,-35.07 -39.58,-15.39 -9.55,31.52 33.19,34.51 39.58,15.39z"/>
   <path class="fil1" d="M1630.89 1813.39c-24.24,8.65 -11.67,43.52 15.42,34.38 23,-7.76 11.43,-43.97 -15.42,-34.38z"/>
   <path class="fil1" d="M608.39 2249.57c-24.24,7.95 -10.68,44.72 16.41,34.04 21.37,-8.43 11.06,-43.05 -16.41,-34.04z"/>
   <path class="fil1" d="M1550.25 2249.8c-24.35,9.26 -9.79,43.26 16.13,33.94 22.71,-8.16 10.65,-44.14 -16.13,-33.94z"/>
   <path class="fil1" d="M2538.29 1813.7c-24.68,9.41 -9.79,43.31 16.11,33.93 22.64,-8.19 10.37,-44.03 -16.11,-33.93z"/>
  </g>
 </g>
</svg>
