<?xml version="1.0" encoding="UTF-8"?>
<!DOCTYPE svg PUBLIC "-//W3C//DTD SVG 1.1//EN" "http://www.w3.org/Graphics/SVG/1.1/DTD/svg11.dtd">
<!-- Creator: CorelDRAW (OEM Version) -->
<svg xmlns="http://www.w3.org/2000/svg" xml:space="preserve" width="3.6in" height="3.6in" version="1.1" style="shape-rendering:geometricPrecision; text-rendering:geometricPrecision; image-rendering:optimizeQuality; fill-rule:evenodd; clip-rule:evenodd"
viewBox="0 0 3600 3600"
 xmlns:xlink="http://www.w3.org/1999/xlink"
 xmlns:xodm="http://www.corel.com/coreldraw/odm/2003">
 <defs>
  <style type="text/css">
   <![CDATA[
    .fil0 {fill:#0038A6}
   ]]>
  </style>
 </defs>
 <g id="Layer_x0020_1">
  <metadata id="CorelCorpID_0Corel-Layer"/>
  <g id="_2217738682400">
   <path class="fil0" d="M554.26 1799.56c4.76,20.44 23.66,47.17 33.32,66.51 12.35,24.72 23.26,44.56 35.52,67.73 -16.98,11.37 -18.42,22.85 -61.42,45.29 -85.07,44.38 -174.99,27.94 -248.37,-21.19 7.19,-30.87 50.67,-102.93 70.26,-132.82l32.99 -49.62c5.81,-8.19 10.42,-16.12 16.69,-24.62 11.72,-15.89 22.87,-29.1 34.48,-44.69l114.07 -133.77c101.38,67.89 134.7,194.62 86.05,296.02 -11.02,-5.28 -19.93,-7.52 -30.84,-13.91 -8.89,-5.21 -18.96,-10.49 -28.39,-16.36 -9.21,-5.74 -18.7,-12 -26.85,-17.89 -9.83,-7.11 -16.63,-13.4 -27.51,-20.68zm-282.25 113.59c-36.81,-24.65 -51.63,-100.94 -51.63,-158.33 0,-43.62 20.7,-89.57 43.3,-121.92 44.02,-63 115.02,-98.38 194.2,-98.38 43.82,0 64.42,9.54 96.37,20.65l-80.04 78.29c-8.52,8.43 -10.2,10.26 -17.78,20.07 -7.24,9.37 -12.23,13 -20.13,21.18 -31.22,32.33 -98.02,122.89 -119.71,159.1l-44.58 79.33zm450.91 -475.01c-20.03,4.67 -114.41,73.17 -131.56,88.76 -15.24,13.85 -14.52,16.63 -34.1,8.35 -14.09,-5.97 -25.37,-10.72 -40.75,-14.61 -28.21,-7.14 -69.75,-9.65 -101.01,-4.41 -32.54,5.47 -58.3,13.89 -82.64,27.5 -23.71,13.26 -38.3,24.76 -57.06,42.76l-5.89 5.9c-21.07,22 -31.33,36.21 -44.98,63.7 -11.38,22.92 -23.49,54.28 -25.13,85.04 -8.41,158.02 66.69,173.5 55.43,206.41 -14.26,41.66 -72.86,164.5 -9.45,208.69 58.98,41.11 177.27,-59.45 205.23,-112.29 -10.38,2.77 -17.49,11.42 -26.52,18.22 -24.75,18.63 -64.32,43.88 -97.48,44.09 -72.13,0.45 -29.19,-105.48 -24.01,-127.71 51.05,27.01 106.77,56.24 178.82,46.94 65.3,-5.1 122.27,-32.34 148.18,-71.03 6.02,2.28 7.11,1.74 10.33,13.77 62.56,-1.36 123.81,-4.74 168.66,-6.89 24.66,-1.26 37.5,-2.09 55.17,-2.38 18.69,-0.66 40.63,-1.13 58.44,-1.04l113.61 -3.42c10.78,-0.3 40.6,-1.61 51.59,-6.93 -51.93,-12.1 -182.87,-10.61 -309.11,-41.98 -14.15,-3.52 -31.85,-8.35 -45.87,-12.65 -15.38,-4.72 -28.78,-10.59 -44.31,-14.2 3.34,-14.36 9.28,-27.12 13.43,-41.64 29.59,-103.35 -14.71,-219.4 -102.93,-278.47 9.67,-14.44 84.76,-86.61 107.75,-105.66 7.99,-6.62 10.57,-6.46 16.16,-14.81z"/>
   <path class="fil0" d="M1142.86 1796.12c31.02,-58.61 41.41,-48.19 89.5,-48.19 16.52,0 7.82,13.06 2.9,19.71 -27.77,37.48 -28.98,28.48 -92.4,28.48zm79.17 -106.7c7.68,-11.47 27.61,-32.14 30.98,-44.75 39.59,0 83.99,-11.28 54.8,27.21 -18.95,24.98 -35.8,17.54 -85.78,17.54zm-268.48 165.22c89.49,0 178.99,-0.06 268.48,0 72.91,0.04 101.52,-8.94 139.65,-59.99 20.72,-27.74 35.26,-36.04 18.68,-67.37 26.83,-12.87 36.36,-11.78 61.15,-38.67 7.93,-8.61 13.91,-17.91 20.98,-27.21 31.9,-42.03 21.3,-75.24 -30.5,-75.24l-271.93 0c-14.03,0 -97.02,119.76 -106.23,131.28 -14.75,18.44 -96.65,123.58 -100.29,137.21z"/>
   <path class="fil0" d="M1638.52 1796.12c-69.74,0 -66.02,13.66 32.94,-118.5 29.27,-39.09 17.14,-32.95 87.53,-32.95 0,22.06 -3.02,16.65 -27.04,48.69 -9.72,12.96 -18.64,24.83 -28.04,37.37 -9.39,12.54 -18.38,24.4 -28,37.4 -8.4,11.35 -19.01,28 -37.39,28zm-209.97 17.21c0,26.47 17.66,41.31 37.86,41.31l227.18 0c79.64,0 108.25,-58.24 153.42,-118.5 24.93,-33.26 82.06,-95.74 74.09,-122.64 -4.81,-16.24 -20.63,-27.34 -41.63,-27.34l-213.41 0c-75.74,0 -95.14,32.26 -126.85,72.8l-63.94 84.07c-9.04,12.06 -46.72,57.97 -46.72,70.31z"/>
   <path class="fil0" d="M2908.64 1813.33c0,20.94 5.84,41.31 41.31,41.31 59.67,0 230.43,7.41 272.4,-9.85 11.08,-4.56 29.76,-16.56 37.91,-24.05 45.04,-41.41 13.18,-52.15 75.2,-52.15 12.82,-19.15 30.92,-38.89 41.3,-58.52l-178.99 0 -52.94 70.98c-16.06,21.11 -31.47,15.07 -74.42,15.07 0.31,-14.09 1.17,-14.58 7.63,-23.34 5.18,-7.02 9.38,-12.09 14.95,-19.47l59.52 -78.16c26.42,-35.46 21.97,-30.48 76.22,-30.48 24.57,0 -3.51,29.38 -6.89,34.42l148.01 0c6.46,-9.64 30.98,-40.09 30.98,-51.63 0,-28.22 -16.98,-41.31 -44.74,-41.31l-209.97 0c-83.71,0 -105.63,42.06 -141.13,89.5 -12.7,16.97 -96.38,117.46 -96.38,137.68z"/>
   <path class="fil0" d="M2447.41 1854.64c26.22,0 53.41,0.77 79.46,0.29 19.54,-0.36 19.07,-2.28 27.42,-13.89l89.32 -117.2c5.11,21.93 10.7,43.65 15.76,66.85 17.84,81.92 -7.31,63.95 121.93,63.95 13.72,0 97.79,-120.08 106.21,-131.3l75.53 -100.02c8.5,-12.57 21.1,-23.36 24.79,-37.17l-96.38 0c-11.46,17.12 -90.17,124.34 -99.82,130.8l-23.42 -100.5c-9.2,-38.43 14.56,-30.3 -114.27,-30.3 -12.48,0 -46.33,53.74 -53.6,63.43l-127.36 168.66c-9.78,13.04 -18.31,22.68 -25.57,36.39z"/>
   <path class="fil0" d="M1841.6 1854.64l289.13 0c12.82,-19.15 30.92,-38.89 41.3,-58.52l-141.13 0c6.89,-13.01 13.62,-20.07 22.52,-32.56 13.87,-19.46 12.34,-16.02 42.83,-15.69 38.96,0.43 78.11,0.06 117.09,0.06 4.63,-17.37 32.52,-38.52 37.86,-58.52l-141.13 0c10.12,-15.11 22.61,-28.93 30.98,-44.75l148.01 0c6.76,-10.09 12.62,-18.06 20.16,-28.03 3.74,-4.95 7.03,-8.69 10.54,-13.56 8.3,-11.5 5.86,-1.26 7.17,-16.93l-289.13 0c-2.72,10.18 -14.99,23.86 -22.11,32.97 -20.94,26.8 -169.53,218.42 -174.09,235.52z"/>
   <path class="fil0" d="M2213.35 1854.64l144.57 0c11.39,-21.54 33.35,-45.56 48.19,-65.4l100.31 -133.74c10.89,-14.51 44.21,-54.39 47.69,-69.34l-144.57 0 -148.48 199.17c-10.5,13.13 -44.47,55.39 -47.71,69.32z"/>
   <polygon class="fil0" points="722.93,1438.15 726.37,1438.15 723.5,1434.13 "/>
   <polygon class="fil0" points="554.26,1799.56 554.26,1796.12 550.25,1798.99 "/>
  </g>
 </g>
</svg>
