<?xml version="1.0" encoding="UTF-8"?>
<svg id="Layer_1" data-name="Layer 1" xmlns="http://www.w3.org/2000/svg" viewBox="0 0 232.79 80">
  <defs>
    <style>
      .cls-1 {
        fill: #0038a6;
        fill-rule: evenodd;
      }
    </style>
  </defs>
  <g id="Layer_1-2" data-name="Layer_1">
    <g id="_2217738682400" data-name=" 2217738682400">
      <path class="cls-1" d="M26.75,39.97c.34,1.47,1.7,3.4,2.4,4.79.89,1.78,1.67,3.21,2.56,4.88-1.22.82-1.33,1.65-4.42,3.26-6.13,3.2-12.6,2.01-17.88-1.53.52-2.22,3.65-7.41,5.06-9.56l2.38-3.57c.42-.59.75-1.16,1.2-1.77.84-1.14,1.65-2.1,2.48-3.22l8.21-9.63c7.3,4.89,9.7,14.01,6.2,21.31-.79-.38-1.43-.54-2.22-1-.64-.38-1.37-.76-2.04-1.18-.66-.41-1.35-.86-1.93-1.29-.71-.51-1.2-.96-1.98-1.49ZM6.42,48.15c-2.65-1.77-3.72-7.27-3.72-11.4,0-3.14,1.49-6.45,3.12-8.78,3.17-4.54,8.28-7.08,13.98-7.08,3.16,0,4.64.69,6.94,1.49l-5.76,5.64c-.61.61-.73.74-1.28,1.45-.52.67-.88.94-1.45,1.52-2.25,2.33-7.06,8.85-8.62,11.46l-3.21,5.71h0ZM38.89,13.95c-1.44.34-8.24,5.27-9.47,6.39-1.1,1-1.05,1.2-2.46.6-1.01-.43-1.83-.77-2.93-1.05-2.03-.51-5.02-.69-7.27-.32-2.34.39-4.2,1-5.95,1.98-1.71.95-2.76,1.78-4.11,3.08l-.42.42c-1.52,1.58-2.26,2.61-3.24,4.59-.82,1.65-1.69,3.91-1.81,6.12-.61,11.38,4.8,12.49,3.99,14.86-1.03,3-5.25,11.84-.68,15.03,4.25,2.96,12.76-4.28,14.78-8.08-.75.2-1.26.82-1.91,1.31-1.78,1.34-4.63,3.16-7.02,3.17-5.19.03-2.1-7.59-1.73-9.2,3.68,1.94,7.69,4.05,12.88,3.38,4.7-.37,8.8-2.33,10.67-5.11.43.16.51.13.74.99,4.5-.1,8.91-.34,12.14-.5,1.78-.09,2.7-.15,3.97-.17,1.35-.05,2.93-.08,4.21-.07l8.18-.25c.78-.02,2.92-.12,3.71-.5-3.74-.87-13.17-.76-22.26-3.02-1.02-.25-2.29-.6-3.3-.91-1.11-.34-2.07-.76-3.19-1.02.24-1.03.67-1.95.97-3,2.13-7.44-1.06-15.8-7.41-20.05.7-1.04,6.1-6.24,7.76-7.61.58-.48.76-.47,1.16-1.07h0Z"/>
      <path class="cls-1" d="M69.13,39.72c2.23-4.22,2.98-3.47,6.44-3.47,1.19,0,.56.94.21,1.42-2,2.7-2.09,2.05-6.65,2.05ZM74.83,32.04c.55-.83,1.99-2.31,2.23-3.22,2.85,0,6.05-.81,3.95,1.96-1.36,1.8-2.58,1.26-6.18,1.26ZM55.49,43.93c6.44,0,12.89,0,19.33,0,5.25,0,7.31-.64,10.05-4.32,1.49-2,2.54-2.59,1.34-4.85,1.93-.93,2.62-.85,4.4-2.78.57-.62,1-1.29,1.51-1.96,2.3-3.03,1.53-5.42-2.2-5.42h-19.58c-1.01,0-6.99,8.62-7.65,9.45-1.06,1.33-6.96,8.9-7.22,9.88h0Z"/>
      <path class="cls-1" d="M104.81,39.72c-5.02,0-4.75.98,2.37-8.53,2.11-2.81,1.23-2.37,6.3-2.37,0,1.59-.22,1.2-1.95,3.51-.7.93-1.34,1.79-2.02,2.69-.68.9-1.32,1.76-2.02,2.69-.6.82-1.37,2.02-2.69,2.02h0ZM89.69,40.96c0,1.91,1.27,2.97,2.73,2.97h16.36c5.73,0,7.79-4.19,11.05-8.53,1.79-2.39,5.91-6.89,5.33-8.83-.35-1.17-1.49-1.97-3-1.97h-15.37c-5.45,0-6.85,2.32-9.13,5.24l-4.6,6.05c-.65.87-3.36,4.17-3.36,5.06h0Z"/>
      <path class="cls-1" d="M196.26,40.96c0,1.51.42,2.97,2.97,2.97,4.3,0,16.59.53,19.61-.71.8-.33,2.14-1.19,2.73-1.73,3.24-2.98.95-3.75,5.41-3.75.92-1.38,2.23-2.8,2.97-4.21h-12.89l-3.81,5.11c-1.16,1.52-2.27,1.09-5.36,1.09.02-1.01.08-1.05.55-1.68.37-.51.68-.87,1.08-1.4l4.29-5.63c1.9-2.55,1.58-2.19,5.49-2.19,1.77,0-.25,2.12-.5,2.48h10.66c.47-.69,2.23-2.89,2.23-3.72,0-2.03-1.22-2.97-3.22-2.97h-15.12c-6.03,0-7.61,3.03-10.16,6.44-.91,1.22-6.94,8.46-6.94,9.91h0Z"/>
      <path class="cls-1" d="M163.05,43.93c1.89,0,3.85.06,5.72.02,1.41-.03,1.37-.16,1.97-1l6.43-8.44c.37,1.58.77,3.14,1.13,4.81,1.28,5.9-.53,4.6,8.78,4.6.99,0,7.04-8.65,7.65-9.45l5.44-7.2c.61-.91,1.52-1.68,1.78-2.68h-6.94c-.83,1.23-6.49,8.95-7.19,9.42l-1.69-7.24c-.66-2.77,1.05-2.18-8.23-2.18-.9,0-3.34,3.87-3.86,4.57l-9.17,12.14c-.7.94-1.32,1.63-1.84,2.62h0Z"/>
      <path class="cls-1" d="M119.43,43.93h20.82c.92-1.38,2.23-2.8,2.97-4.21h-10.16c.5-.94.98-1.45,1.62-2.34,1-1.4.89-1.15,3.08-1.13,2.81.03,5.62,0,8.43,0,.33-1.25,2.34-2.77,2.73-4.21h-10.16c.73-1.09,1.63-2.08,2.23-3.22h10.66c.49-.73.91-1.3,1.45-2.02.27-.36.51-.63.76-.98.6-.83.42-.09.52-1.22h-20.82c-.2.73-1.08,1.72-1.59,2.37-1.51,1.93-12.21,15.73-12.53,16.96h0Z"/>
      <path class="cls-1" d="M146.2,43.93h10.41c.82-1.55,2.4-3.28,3.47-4.71l7.22-9.63c.78-1.04,3.18-3.92,3.43-4.99h-10.41l-10.69,14.34c-.76.95-3.2,3.99-3.44,4.99h0Z"/>
      <polygon class="cls-1" points="38.89 13.95 39.14 13.95 38.93 13.66 38.89 13.95"/>
      <polygon class="cls-1" points="26.75 39.97 26.75 39.72 26.46 39.93 26.75 39.97"/>
    </g>
  </g>
</svg>