<?xml version="1.0" encoding="UTF-8"?>
<svg id="Layer_1" data-name="Layer 1" xmlns="http://www.w3.org/2000/svg" viewBox="0 0 115.93 80">
  <defs>
    <style>
      .cls-1 {
        fill: #f2c224;
      }

      .cls-2 {
        fill: #f2c227;
      }
    </style>
  </defs>
  <g id="Layer_1-2" data-name="Layer_1">
    <g id="_2217731502576" data-name=" 2217731502576">
      <path class="cls-2" d="M78.32,2.51s4.89.5,7.03-1.6l-.05,59.61h-7.08l.1-58.01h0Z"/>
      <path class="cls-2" d="M13.01,27.84v-1.75S1.09,28.74.99,43.3c0,0-.85,12.67,11.67,17.41h.45l-.02-1.87s-11.39-14.93-.07-31h0Z"/>
      <path class="cls-1" d="M43.47,30.07s2.62-3.79,7.58-3.64c0,0,8.06-1.57,8.06,6.93s.02,23.92.02,23.92c0,0,1.05,4.55,7.63,4.36,6.58-.19,8.38-3.63,8.38-3.63,0,0,.41-1.83-1.61-.75l-2.32,1.8s-4.26,1.57-4.38-.67c-.11-2.24-.04-25.75-.04-25.75,0,0-1.81-6.76-14.08-7.43,0,0-8.75-.91-12.79,5.51l3.58-.44-.04-.21h0Z"/>
      <path class="cls-2" d="M32.84,33.07c0,2.23-2.01,4.04-4.5,4.04s-4.5-1.81-4.5-4.04,2.01-4.04,4.5-4.04c.29,0,.57.02.85.07.12.02.23.04.35.07,1.9.47,3.3,2.04,3.3,3.89h0Z"/>
      <path class="cls-2" d="M102.92,27.84v-1.75s11.92,2.64,12.02,17.21c0,0,.85,12.67-11.67,17.41h-.45l.02-1.87s11.39-14.93.07-31h0Z"/>
      <path class="cls-2" d="M11.9,75.8c-.27.12-.63.25-1.17.25-1.04,0-1.82-.75-1.82-1.96,0-1.09.65-1.99,1.85-1.99.52,0,.88.13,1.11.25l.22-.73c-.26-.14-.76-.28-1.32-.28-1.71,0-2.82,1.18-2.82,2.8s1.03,2.68,2.61,2.68c.71,0,1.26-.18,1.51-.3l-.16-.72h0ZM13.46,76.7h.95v-2.8c0-.15.01-.31.03-.45.13-.72.61-1.21,1.28-1.21.13,0,.23,0,.33.02v-.9c-.09,0-.16-.02-.26-.02-.64,0-1.23.45-1.46,1.15h-.03l-.04-1.04h-.84c.03.49.05,1.02.05,1.64v3.61ZM21.4,74.25c.02-.11.03-.25.03-.45,0-.97-.44-2.46-2.17-2.46-1.53,0-2.46,1.24-2.46,2.82s.97,2.66,2.58,2.66c.83,0,1.42-.18,1.76-.34l-.17-.68c-.35.15-.77.27-1.45.27-.97,0-1.78-.53-1.8-1.82h3.69,0ZM17.72,73.57c.08-.66.49-1.54,1.46-1.54,1.07,0,1.33.94,1.32,1.54h-2.79ZM26.58,73.48c0-1.04-.39-2.14-1.99-2.14-.66,0-1.3.18-1.74.46l.22.64c.37-.25.88-.39,1.38-.39,1.07-.01,1.19.78,1.19,1.2v.11c-2.03,0-3.16.69-3.16,1.95,0,.76.54,1.51,1.61,1.51.75,0,1.31-.37,1.6-.78h.03l.08.66h.86c-.06-.36-.08-.8-.08-1.26v-1.96h0ZM25.66,74.93c0,.09,0,.19-.04.3-.15.44-.6.88-1.29.88-.48,0-.89-.28-.89-.91,0-1.02,1.18-1.2,2.22-1.18v.91h0ZM28.62,70.48v.98h-.81v.73h.81v2.86c0,.62.11,1.08.37,1.38.23.25.59.4,1.03.4.37,0,.66-.06.85-.13l-.04-.73c-.14.04-.29.06-.55.06-.53,0-.72-.37-.72-1.02v-2.83h1.37v-.73h-1.37v-1.26l-.93.28h0ZM33.23,76.7v-5.25h-.95v5.25h.95ZM32.75,69.38c-.36,0-.6.27-.6.6s.23.58.57.58c.38,0,.61-.26.61-.58s-.24-.6-.58-.6ZM34.44,71.46l1.99,5.25h.91l2.06-5.25h-1l-1.02,2.94c-.17.49-.32.92-.44,1.36h-.03c-.11-.44-.25-.87-.42-1.36l-1.03-2.94h-1.02ZM41.55,76.7v-5.25h-.95v5.25h.95ZM41.07,69.38c-.36,0-.6.27-.6.6s.23.58.57.58c.38,0,.61-.26.61-.58s-.24-.6-.58-.6ZM43.63,70.48v.98h-.81v.73h.81v2.86c0,.62.11,1.08.37,1.38.23.25.59.4,1.03.4.37,0,.66-.06.85-.13l-.04-.73c-.14.04-.29.06-.55.06-.53,0-.72-.37-.72-1.02v-2.83h1.37v-.73h-1.37v-1.26l-.93.28h0ZM46.59,71.46l1.93,4.83c.05.12.07.19.07.25s-.03.13-.02.23c-.23.49-.54.86-.8,1.06-.28.24-.6.39-.83.47l.24.79c.24-.04.69-.21,1.17-.61.65-.57,1.12-1.49,1.8-3.29l1.43-3.74h-1.01l-1.04,3.08c-.13.38-.24.78-.34,1.1h-.02c-.09-.32-.22-.73-.35-1.08l-1.14-3.1h-1.09,0ZM59.93,70.93v2.55h-2.45v.65h2.45v2.57h.69v-2.57h2.45v-.65h-2.45v-2.55h-.69ZM69.75,75.35c0,.47-.02,1-.05,1.36h.81l.06-.86h.02c.4.69,1.01.98,1.77.98,1.17,0,2.36-.93,2.36-2.81,0-1.58-.91-2.67-2.22-2.67-.85,0-1.45.37-1.79.96h-.02v-3.3h-.94v6.34h0ZM70.69,73.67c0-.15.02-.28.06-.4.2-.72.8-1.17,1.44-1.17,1.03,0,1.57.9,1.57,1.95,0,1.2-.59,2.02-1.6,2.02-.69,0-1.26-.46-1.43-1.12-.03-.11-.05-.23-.05-.34v-.93h0ZM76.2,76.7h.95v-2.8c0-.15.01-.31.03-.45.13-.72.61-1.21,1.28-1.21.13,0,.23,0,.33.02v-.9c-.09,0-.16-.02-.26-.02-.64,0-1.23.45-1.46,1.15h-.03l-.04-1.04h-.84c.03.49.05,1.02.05,1.64v3.61ZM83.71,73.48c0-1.04-.39-2.14-1.99-2.14-.66,0-1.3.18-1.74.46l.22.64c.37-.25.88-.39,1.38-.39,1.07-.01,1.19.78,1.19,1.2v.11c-2.03,0-3.16.69-3.16,1.95,0,.76.54,1.51,1.61,1.51.75,0,1.31-.37,1.6-.78h.03l.08.66h.86c-.06-.36-.08-.8-.08-1.26v-1.96h0ZM82.79,74.94c0,.09,0,.19-.04.3-.15.44-.6.88-1.29.88-.48,0-.89-.28-.89-.91,0-1.02,1.18-1.2,2.22-1.18v.91h0ZM84.8,71.46l1.99,5.25h.91l2.06-5.25h-1l-1.02,2.94c-.17.49-.32.92-.44,1.36h-.03c-.11-.44-.25-.87-.42-1.36l-1.03-2.94h-1.02ZM95.05,74.25c.02-.11.03-.25.03-.45,0-.97-.44-2.46-2.17-2.46-1.53,0-2.46,1.24-2.46,2.82s.97,2.66,2.58,2.66c.83,0,1.42-.18,1.76-.34l-.17-.68c-.35.15-.77.27-1.45.27-.97,0-1.78-.53-1.8-1.82h3.69,0ZM91.38,73.57c.08-.66.49-1.54,1.46-1.54,1.07,0,1.33.94,1.32,1.54h-2.79ZM96.55,76.7h.95v-2.8c0-.15.01-.31.03-.45.13-.72.61-1.21,1.28-1.21.13,0,.23,0,.33.02v-.9c-.09,0-.16-.02-.26-.02-.64,0-1.23.45-1.46,1.15h-.03l-.04-1.04h-.84c.03.49.05,1.02.05,1.64v3.61h0ZM99.95,71.46l1.93,4.83c.05.12.07.19.07.25s-.03.13-.02.23c-.23.49-.54.86-.8,1.06-.28.24-.6.39-.83.47l.24.79c.24-.04.69-.21,1.17-.61.65-.57,1.12-1.49,1.8-3.29l1.43-3.74h-1.01l-1.04,3.08c-.13.38-.24.78-.34,1.1h-.02c-.09-.32-.22-.73-.35-1.08l-1.14-3.1h-1.09,0Z"/>
    </g>
  </g>
</svg>