<?xml version="1.0" encoding="UTF-8"?>
<!DOCTYPE svg PUBLIC "-//W3C//DTD SVG 1.1//EN" "http://www.w3.org/Graphics/SVG/1.1/DTD/svg11.dtd">
<!-- Creator: CorelDRAW (OEM Version) -->
<svg xmlns="http://www.w3.org/2000/svg" xml:space="preserve" width="3.6in" height="3.6in" version="1.1" style="shape-rendering:geometricPrecision; text-rendering:geometricPrecision; image-rendering:optimizeQuality; fill-rule:evenodd; clip-rule:evenodd"
viewBox="0 0 3600 3600"
 xmlns:xlink="http://www.w3.org/1999/xlink"
 xmlns:xodm="http://www.corel.com/coreldraw/odm/2003">
 <defs>
  <style type="text/css">
   <![CDATA[
    .fil0 {fill:#F2C227;fill-rule:nonzero}
    .fil1 {fill:#F2C224;fill-rule:nonzero}
   ]]>
  </style>
 </defs>
 <g id="Layer_x0020_1">
  <metadata id="CorelCorpID_0Corel-Layer"/>
  <g id="_2217731502576">
   <path class="fil0" d="M2372.94 744.54c0,0 137.62,14.04 198,-44.94l-1.41 1678.08 -199.4 0 2.8 -1633.15z"/>
   <path class="fil0" d="M534.41 1457.71l0 -49.15c0,0 -335.62,74.43 -338.42,484.46 0,0 -23.88,356.68 328.6,490.08l12.63 0 -0.7 -52.66c0,0 -320.52,-420.22 -2.11,-872.74z"/>
   <path class="fil1" d="M1392.07 1520.39c0,0 73.72,-106.72 213.44,-102.52 0,0 226.79,-44.23 226.79,195.2 0,239.43 0.7,673.34 0.7,673.34 0,0 29.48,128.14 214.85,122.87 185.36,-5.27 235.92,-102.16 235.92,-102.16 0,0 11.58,-51.61 -45.28,-21.06l-65.3 50.55c0,0 -120.06,44.24 -123.22,-18.96 -3.16,-63.19 -1.06,-724.94 -1.06,-724.94 0,0 -50.9,-190.28 -396.35,-209.24 0,0 -246.44,-25.62 -360.19,155.17l100.7 -12.33 -1 -5.93z"/>
   <path class="fil0" d="M1092.83 1605c0,62.79 -56.69,113.69 -126.6,113.69 -69.92,0 -126.59,-50.9 -126.59,-113.69 0,-62.79 56.68,-113.69 126.59,-113.69 8.14,0 16.1,0.69 23.83,2 3.31,0.57 6.58,1.25 9.8,2.05 53.6,13.23 92.98,57.3 92.98,109.64z"/>
   <path class="fil0" d="M3065.59 1457.71l0 -49.15c0,0 335.62,74.43 338.42,484.46 0,0 23.88,356.68 -328.59,490.08l-12.63 0 0.7 -52.66c0,0 320.52,-420.22 2.1,-872.74z"/>
   <path class="fil0" d="M503.26 2807.89c-7.61,3.38 -17.74,7.01 -32.96,7.01 -29.33,0 -51.31,-21.03 -51.31,-55.2 0,-30.55 18.34,-55.9 52.17,-55.9 14.71,0 24.75,3.72 31.15,7.01l6.15 -20.42c-7.35,-3.98 -21.37,-7.96 -37.3,-7.96 -48.19,0 -79.35,33.31 -79.35,78.74 0,45.26 28.99,75.45 73.55,75.45 19.9,0 35.39,-5.19 42.48,-8.57l-4.59 -20.16zm43.93 25.35l26.82 0 0 -78.74c0,-4.33 0.35,-8.83 0.95,-12.55 3.63,-20.16 17.05,-34.18 36,-34.18 3.63,0 6.4,0 9.17,0.61l0 -25.35c-2.51,-0.26 -4.58,-0.61 -7.35,-0.61 -18,0 -34.52,12.55 -41.19,32.36l-0.95 0 -1.21 -29.24 -23.54 0c0.95,13.67 1.3,28.64 1.3,46.03l0 101.67zm223.45 -68.96c0.61,-3.12 0.87,-7.01 0.87,-12.55 0,-27.17 -12.46,-69.31 -61,-69.31 -43.09,0 -69.31,34.79 -69.31,79.35 0,44.65 27.17,74.85 72.69,74.85 23.45,0 39.98,-5.19 49.41,-9.52l-4.85 -19.21c-9.78,4.33 -21.72,7.62 -40.93,7.62 -27.17,0 -50.1,-14.89 -50.7,-51.22l103.83 0zm-103.48 -19.3c2.16,-18.6 13.76,-43.26 41.19,-43.26 30.2,0 37.56,26.48 37.3,43.26l-78.48 0zm249.35 -2.42c0,-29.25 -10.99,-60.14 -56.15,-60.14 -18.61,0 -36.6,5.19 -48.89,12.81l6.14 18.08c10.39,-7.09 24.75,-10.99 38.77,-10.99 30.2,-0.35 33.57,21.98 33.57,33.83l0 3.03c-57.11,-0.26 -88.86,19.3 -88.86,54.94 0,21.37 15.31,42.48 45.25,42.48 21.03,0 36.86,-10.38 45.17,-21.98l0.86 0 2.17 18.6 24.14 0c-1.56,-10.04 -2.17,-22.58 -2.17,-35.39l0 -55.29zm-25.96 40.93c0,2.42 -0.26,5.45 -1.21,8.56 -4.24,12.46 -16.79,24.66 -36.34,24.66 -13.41,0 -25,-7.87 -25,-25.61 0,-28.64 33.22,-33.83 62.56,-33.23l0 25.61zm83.3 -125.46l0 27.52 -22.84 0 0 20.42 22.84 0 0 80.56c0,17.39 3.03,30.54 10.38,38.76 6.4,7.01 16.53,11.33 28.99,11.33 10.38,0 18.6,-1.81 23.8,-3.72l-1.21 -20.42c-3.98,1.21 -8.22,1.82 -15.57,1.82 -14.97,0 -20.16,-10.39 -20.16,-28.64l0 -79.69 38.5 0 0 -20.42 -38.5 0 0 -35.48 -26.22 7.96zm129.77 175.22l0 -147.7 -26.82 0 0 147.7 26.82 0zm-13.41 -206.02c-10.12,0 -16.79,7.61 -16.79,16.79 0,9.17 6.41,16.44 16.18,16.44 10.65,0 17.05,-7.27 17.05,-16.44 0,-9.52 -6.66,-16.79 -16.44,-16.79zm47.65 58.32l56.16 147.7 25.61 0 58.06 -147.7 -28.12 0 -28.73 82.72c-4.85,13.67 -9.09,25.87 -12.46,38.16l-0.95 0c-3.03,-12.29 -7.01,-24.49 -11.85,-38.16l-29.07 -82.72 -28.64 0zm199.94 147.7l0 -147.7 -26.82 0 0 147.7 26.82 0zm-13.41 -206.02c-10.13,0 -16.79,7.61 -16.79,16.79 0,9.17 6.4,16.44 16.18,16.44 10.64,0 17.05,-7.27 17.05,-16.44 0,-9.52 -6.67,-16.79 -16.44,-16.79zm72.05 30.81l0 27.52 -22.84 0 0 20.42 22.84 0 0 80.56c0,17.39 3.03,30.54 10.39,38.76 6.4,7.01 16.53,11.33 28.98,11.33 10.39,0 18.61,-1.81 23.8,-3.72l-1.21 -20.42c-3.98,1.21 -8.22,1.82 -15.57,1.82 -14.97,0 -20.16,-10.39 -20.16,-28.64l0 -79.69 38.5 0 0 -20.42 -38.5 0 0 -35.48 -26.22 7.96zm83.39 27.52l54.34 136.11c1.47,3.37 2.07,5.45 2.07,7.01 0,1.56 -0.87,3.63 -0.61,6.41 -6.4,13.76 -15.23,24.14 -22.58,29.94 -7.87,6.75 -16.79,10.99 -23.45,13.15l6.66 22.24c6.75,-1.21 19.56,-5.8 32.97,-17.05 18.34,-16.18 31.5,-41.88 50.7,-92.5l40.32 -105.3 -28.47 0 -29.25 86.61c-3.72,10.73 -6.75,21.98 -9.52,30.89l-0.61 0c-2.43,-8.91 -6.06,-20.51 -9.78,-30.29l-32.01 -87.22 -30.81 0zm375.46 -14.71l0 71.73 -68.96 0 0 18.34 68.96 0 0 72.34 19.56 0 0 -72.34 68.96 0 0 -18.34 -68.96 0 0 -71.73 -19.56 0zm276.39 124.26c0,13.15 -0.69,28.12 -1.3,38.16l22.93 0 1.56 -24.14 0.61 0c11.25,19.3 28.38,27.52 49.75,27.52 32.97,0 66.54,-26.3 66.54,-79.09 0,-44.56 -25.7,-75.11 -62.56,-75.11 -23.88,0 -40.93,10.39 -50.36,26.91l-0.69 0 0 -92.85 -26.48 0 0 178.59zm26.48 -47.33c0,-4.24 0.69,-7.96 1.56,-11.25 5.54,-20.16 22.58,-32.97 40.58,-32.97 28.99,0 44.3,25.27 44.3,54.94 0,33.83 -16.53,56.76 -44.91,56.76 -19.56,0 -35.39,-12.81 -40.24,-31.5 -0.95,-3.03 -1.3,-6.41 -1.3,-9.69l0 -26.3zm155.12 85.49l26.82 0 0 -78.74c0,-4.33 0.35,-8.83 0.95,-12.55 3.63,-20.16 17.04,-34.18 36,-34.18 3.63,0 6.4,0 9.17,0.61l0 -25.35c-2.51,-0.26 -4.59,-0.61 -7.35,-0.61 -18,0 -34.52,12.55 -41.19,32.36l-0.95 0 -1.21 -29.24 -23.54 0c0.95,13.67 1.3,28.64 1.3,46.03l0 101.67zm211.54 -90.68c0,-29.25 -10.99,-60.14 -56.16,-60.14 -18.6,0 -36.6,5.19 -48.89,12.81l6.14 18.08c10.39,-7.09 24.75,-10.99 38.76,-10.99 30.2,-0.35 33.57,21.98 33.57,33.83l0 3.03c-57.11,-0.26 -88.87,19.3 -88.87,54.94 0,21.37 15.31,42.48 45.26,42.48 21.03,0 36.86,-10.38 45.17,-21.98l0.87 0 2.17 18.6 24.14 0c-1.56,-10.04 -2.16,-22.58 -2.16,-35.39l0 -55.29zm-25.96 40.93c0,2.42 -0.26,5.45 -1.21,8.56 -4.24,12.46 -16.79,24.66 -36.34,24.66 -13.41,0 -25,-7.87 -25,-25.61 0,-28.64 33.22,-33.83 62.56,-33.23l0 25.61zm56.46 -97.95l56.15 147.7 25.61 0 58.06 -147.7 -28.12 0 -28.73 82.72c-4.84,13.67 -9.08,25.87 -12.46,38.16l-0.95 0c-3.03,-12.29 -7.01,-24.49 -11.85,-38.16l-29.07 -82.72 -28.64 0zm288.78 78.74c0.61,-3.12 0.87,-7.01 0.87,-12.55 0,-27.17 -12.46,-69.31 -61,-69.31 -43.09,0 -69.31,34.79 -69.31,79.35 0,44.65 27.17,74.85 72.69,74.85 23.45,0 39.98,-5.19 49.41,-9.52l-4.85 -19.21c-9.78,4.33 -21.72,7.62 -40.93,7.62 -27.17,0 -50.1,-14.89 -50.7,-51.22l103.83 0zm-103.48 -19.3c2.16,-18.6 13.76,-43.26 41.19,-43.26 30.2,0 37.56,26.48 37.3,43.26l-78.48 0zm145.6 88.26l26.82 0 0 -78.74c0,-4.33 0.35,-8.83 0.95,-12.55 3.63,-20.16 17.04,-34.18 35.99,-34.18 3.63,0 6.41,0 9.17,0.61l0 -25.35c-2.51,-0.26 -4.59,-0.61 -7.35,-0.61 -18,0 -34.52,12.55 -41.19,32.36l-0.95 0 -1.21 -29.24 -23.54 0c0.95,13.67 1.3,28.64 1.3,46.03l0 101.67zm95.86 -147.7l54.34 136.11c1.47,3.37 2.07,5.45 2.07,7.01 0,1.56 -0.87,3.63 -0.61,6.41 -6.4,13.76 -15.23,24.14 -22.58,29.94 -7.87,6.75 -16.79,10.99 -23.45,13.15l6.66 22.24c6.75,-1.21 19.56,-5.8 32.97,-17.05 18.34,-16.18 31.5,-41.88 50.7,-92.5l40.32 -105.3 -28.47 0 -29.25 86.61c-3.72,10.73 -6.75,21.98 -9.52,30.89l-0.61 0c-2.42,-8.91 -6.06,-20.51 -9.78,-30.29l-32.01 -87.22 -30.81 0z"/>
  </g>
 </g>
</svg>
