<?xml version="1.0" encoding="UTF-8"?>
<!DOCTYPE svg PUBLIC "-//W3C//DTD SVG 1.1//EN" "http://www.w3.org/Graphics/SVG/1.1/DTD/svg11.dtd">
<!-- Creator: CorelDRAW (OEM Version) -->
<svg xmlns="http://www.w3.org/2000/svg" xml:space="preserve" width="3.6in" height="3.6in" version="1.1" style="shape-rendering:geometricPrecision; text-rendering:geometricPrecision; image-rendering:optimizeQuality; fill-rule:evenodd; clip-rule:evenodd"
viewBox="0 0 3600 3600"
 xmlns:xlink="http://www.w3.org/1999/xlink"
 xmlns:xodm="http://www.corel.com/coreldraw/odm/2003">
 <defs>
  <style type="text/css">
   <![CDATA[
    .fil0 {fill:#2B2A29;fill-rule:nonzero}
   ]]>
  </style>
 </defs>
 <g id="Layer_x0020_1">
  <metadata id="CorelCorpID_0Corel-Layer"/>
  <g id="_2217758616208">
   <path class="fil0" d="M491.53 1689.95c5.5,0.55 10.86,1.5 16.08,2.83l28 -159.8c-5.3,-1.11 -10.66,-2.05 -16.07,-2.84l-28.01 159.81zm-84.59 28.32l-123.26 -104.15c-5.71,6.24 -11.13,12.74 -16.25,19.49l122.97 103.95c4.74,-7.07 10.31,-13.54 16.55,-19.3zm214.94 -150.49c-4.32,-2.7 -8.69,-5.32 -13.17,-7.77l-80.56 140.31c4.62,2.25 9.06,4.8 13.28,7.65l80.44 -140.19zm60.85 52.13l-122.88 103.78c3.02,3.21 5.85,6.6 8.47,10.16l122.84 -103.73c-2.72,-3.47 -5.53,-6.88 -8.43,-10.21zm-307.96 153.74c2.22,-9.62 5.68,-18.76 10.25,-27.22l-150.96 -55.35c-3.78,8.89 -7.11,18.03 -9.94,27.39l150.65 55.19zm214.59 24.46c0,60.04 -48.67,108.69 -108.7,108.69 -53.76,0 -98.38,-39.05 -107.11,-90.32l-150.68 55.27c3.34,11.78 7.45,23.21 12.28,34.27l149.76 -54.92 -122.25 103.43c7.74,10.86 16.25,21.12 25.47,30.69l114.31 -96.63 -74.57 130.63c11.85,8.29 24.37,15.66 37.5,21.97l70.07 -122.72 -24.44 139.65c14.96,4.04 30.44,6.79 46.31,8.17l22.81 -130.49 22.89 130.57c16.62,-1.39 32.81,-4.28 48.43,-8.57l-21.22 -121.14 61.13 106.63c16.74,-7.65 32.56,-16.95 47.25,-27.75l-56.11 -97.76 85.79 72.45c13.69,-13.5 25.92,-28.45 36.5,-44.63l-76.67 -64.71 93.86 34.4c8.69,-18.01 15.4,-37.16 19.97,-57.13l-82.39 -30.16 87.54 -0.01c1.13,-10.07 1.76,-20.29 1.76,-30.65 0,-12 -0.85,-23.8 -2.36,-35.37l-163.29 0c3.98,11.31 6.18,23.46 6.18,36.14zm-217.39 0c0,-6.04 0.52,-11.94 1.46,-17.71l-160.39 0c-0.35,5.6 -0.58,11.23 -0.58,16.94 0,5.31 0.2,10.59 0.5,15.83l160.07 0c-0.69,-4.93 -1.06,-9.94 -1.06,-15.06zm45.69 -88.54c5.87,-4.19 12.17,-7.81 18.84,-10.78l-80.56 -140.53c-6.41,3.4 -12.64,7.05 -18.73,10.94l80.45 140.36zm7.2 -176.39c5.85,-1.25 11.78,-2.29 17.77,-3.14l28.02 159.85c-6.1,0.55 -12.06,1.6 -17.82,3.13l-27.97 -159.84z"/>
   <path class="fil0" d="M1127.63 2012.77l-7.87 0 0 -31.19 8.15 0c12.08,0 18.12,5.15 18.12,15.45 0,10.49 -6.13,15.74 -18.4,15.74zm41.37 1.06c2.96,-4.92 4.43,-10.43 4.43,-16.51 0,-11.43 -3.68,-20.35 -11.03,-26.77 -7.35,-6.41 -17.59,-9.63 -30.7,-9.63l-38.92 0 0 106.78 26.98 0 0 -34.29 14.33 0 18.69 34.29 31.05 0 -26.13 -41.73c4.59,-3.19 8.36,-7.23 11.31,-12.15z"/>
   <polygon class="fil0" points="1176.1,1983.83 1208.83,1983.83 1208.83,2067.71 1237.35,2067.71 1237.35,1983.83 1270.09,1983.83 1270.09,1960.93 1176.1,1960.93 "/>
   <polygon class="fil0" points="1376.31,1960.93 1343.99,1960.93 1325.31,1993.81 1306.48,1960.93 1273.18,1960.93 1307.74,2012.07 1270.65,2067.71 1302.96,2067.71 1323.33,2031.46 1344.83,2067.71 1378.27,2067.71 1341.32,2013.33 "/>
   <path class="fil0" d="M903.36 2024.86l20.23 -51.57 20.23 51.57 -40.46 0zm13.63 -63.93l-43.41 106.78 12.93 0 12.64 -32.31 48.75 0 12.79 32.31 13.63 0 -43.41 -106.78 -13.91 0z"/>
   <path class="fil0" d="M1024.91 1995.21c-5.43,0 -10.2,1.26 -14.33,3.8 -4.12,2.52 -7.17,6.08 -9.14,10.67l-0.14 -12.22 -11.24 0 0 70.25 11.95 0 0 -38.78c0,-7.2 1.78,-12.87 5.33,-17 3.56,-4.12 8.48,-6.19 14.75,-6.19 5.71,0 9.95,1.78 12.72,5.34 2.76,3.56 4.15,8.99 4.15,16.3l0 40.32 11.94 0 0 -42.43c0,-9.65 -2.25,-17.07 -6.74,-22.27 -4.5,-5.2 -10.92,-7.8 -19.25,-7.8z"/>
   <path class="fil0" d="M1472.27 2052.04c-3.98,3.51 -9.54,5.27 -16.65,5.27l-27.4 0 0 -40.33 25.43 0c8.05,0 14.16,1.69 18.33,5.06 4.17,3.38 6.26,8.38 6.26,15.03 0,6.46 -2,11.45 -5.97,14.96zm-44.05 -80.72l23.6 0c6.93,0 12.2,1.43 15.81,4.29 3.6,2.85 5.41,6.95 5.41,12.29 0,6.46 -1.76,11.24 -5.27,14.33 -3.51,3.09 -9.02,4.64 -16.51,4.64l-23.04 0 0 -35.55zm40.88 39.48c5.06,-1.87 9.07,-4.85 12.02,-8.93 2.95,-4.07 4.42,-8.73 4.42,-13.98 0,-8.43 -2.83,-15.03 -8.49,-19.81 -5.67,-4.78 -13.52,-7.16 -23.53,-7.16l-37.37 0 0 106.78 38.77 0c11.33,0 20.19,-2.69 26.56,-8.08 6.37,-5.39 9.55,-12.91 9.55,-22.55 0,-6.65 -1.96,-12.36 -5.9,-17.14 -3.93,-4.78 -9.27,-7.82 -16.02,-9.13z"/>
   <path class="fil0" d="M1556.94 2036.24c0,7.21 -1.76,12.88 -5.27,17 -3.51,4.13 -8.31,6.19 -14.4,6.19 -6,0 -10.3,-1.61 -12.93,-4.85 -2.62,-3.23 -3.93,-8.54 -3.93,-15.94l0 -41.17 -11.94 0 0 44.54c0,8.99 2.13,15.89 6.39,20.72 4.26,4.83 10.38,7.24 18.34,7.24 5.71,0 10.7,-1.25 14.96,-3.72 4.26,-2.48 7.33,-5.97 9.2,-10.47l0.28 11.94 11.24 0 0 -70.25 -11.94 0 0 38.78z"/>
   <path class="fil0" d="M1611.61 2026.54c-5.8,-1.69 -9.79,-3.37 -11.94,-5.06 -2.15,-1.69 -3.23,-3.99 -3.23,-6.89 0,-3 1.27,-5.32 3.8,-6.96 2.53,-1.64 6.13,-2.46 10.82,-2.46 7.02,0 13.54,1.92 19.52,5.76l1.97 -10.11c-2.53,-1.69 -5.76,-3.05 -9.69,-4.08 -3.94,-1.02 -7.78,-1.54 -11.53,-1.54 -8.15,0 -14.59,1.85 -19.31,5.55 -4.74,3.7 -7.1,8.74 -7.1,15.1 0,5.25 1.69,9.51 5.06,12.79 3.37,3.28 8.99,6.09 16.86,8.43 4.59,1.31 8.08,2.53 10.47,3.66 2.39,1.12 4.07,2.34 5.06,3.65 0.98,1.31 1.48,3.09 1.48,5.34 0,3.19 -1.46,5.69 -4.35,7.52 -2.91,1.83 -6.98,2.74 -12.22,2.74 -3.65,0 -7.47,-0.66 -11.45,-1.97 -3.98,-1.31 -7.43,-3.04 -10.33,-5.2l-1.83 10.54c2.62,1.97 6.11,3.56 10.47,4.78 4.36,1.22 8.74,1.83 13.14,1.83 8.62,0 15.55,-1.93 20.79,-5.76 5.24,-3.85 7.87,-8.9 7.87,-15.17 0,-5.71 -1.82,-10.24 -5.48,-13.57 -3.65,-3.32 -9.93,-6.3 -18.83,-8.92z"/>
   <path class="fil0" d="M1656.87 1961.77c-2.34,0 -4.28,0.8 -5.83,2.39 -1.55,1.59 -2.32,3.61 -2.32,6.04 0,2.44 0.78,4.45 2.32,6.05 1.54,1.59 3.49,2.38 5.83,2.38 2.34,0 4.28,-0.79 5.83,-2.38 1.54,-1.59 2.32,-3.61 2.32,-6.05 0,-2.43 -0.78,-4.44 -2.32,-6.04 -1.55,-1.59 -3.49,-2.39 -5.83,-2.39z"/>
   <polygon class="fil0" points="1650.97,2067.71 1662.91,2067.71 1662.91,1997.46 1650.97,1997.46 "/>
   <path class="fil0" d="M1719.13 1995.21c-5.43,0 -10.2,1.26 -14.33,3.8 -4.13,2.52 -7.17,6.08 -9.14,10.67l-0.14 -12.22 -11.24 0 0 70.25 11.94 0 0 -38.78c0,-7.2 1.78,-12.87 5.33,-17 3.56,-4.12 8.48,-6.19 14.75,-6.19 5.71,0 9.95,1.78 12.72,5.34 2.76,3.56 4.15,8.99 4.15,16.3l0 40.32 11.94 0 0 -42.43c0,-9.65 -2.25,-17.07 -6.75,-22.27 -4.49,-5.2 -10.91,-7.8 -19.25,-7.8z"/>
   <path class="fil0" d="M1773.1 2026.96c0.84,-6.75 3.23,-12.02 7.16,-15.8 3.93,-3.8 8.94,-5.69 15.04,-5.69 6.37,0 11.36,1.87 14.96,5.62 3.61,3.74 5.59,9.04 5.96,15.87l-43.13 0zm22.9 -31.75c-6.83,0 -12.93,1.66 -18.26,4.98 -5.33,3.33 -9.44,7.85 -12.29,13.56 -2.86,5.72 -4.28,12.09 -4.28,19.11 0,11.43 3.48,20.47 10.46,27.12 6.98,6.65 16.46,9.98 28.46,9.98 4.96,0 9.76,-0.57 14.4,-1.69 4.64,-1.13 8.55,-2.67 11.74,-4.63l-1.41 -10.12c-7.87,3.84 -15.92,5.76 -24.16,5.76 -8.06,0 -14.48,-1.97 -19.25,-5.9 -4.78,-3.93 -7.59,-9.6 -8.43,-17l54.51 0c0.09,-1.13 0.17,-2.2 0.21,-3.24 0.04,-1.03 0.07,-2.15 0.07,-3.37 0,-10.3 -2.93,-18.64 -8.79,-25.01 -5.85,-6.37 -13.51,-9.55 -22.97,-9.55z"/>
   <path class="fil0" d="M1869.08 2026.54c-5.81,-1.69 -9.79,-3.37 -11.94,-5.06 -2.16,-1.69 -3.23,-3.99 -3.23,-6.89 0,-3 1.27,-5.32 3.8,-6.96 2.53,-1.64 6.13,-2.46 10.82,-2.46 7.02,0 13.54,1.92 19.52,5.76l1.96 -10.11c-2.53,-1.69 -5.75,-3.05 -9.69,-4.08 -3.94,-1.02 -7.78,-1.54 -11.53,-1.54 -8.15,0 -14.59,1.85 -19.31,5.55 -4.74,3.7 -7.09,8.74 -7.09,15.1 0,5.25 1.68,9.51 5.06,12.79 3.37,3.28 8.99,6.09 16.86,8.43 4.59,1.31 8.08,2.53 10.47,3.66 2.39,1.12 4.07,2.34 5.06,3.65 0.98,1.31 1.48,3.09 1.48,5.34 0,3.19 -1.46,5.69 -4.36,7.52 -2.91,1.83 -6.98,2.74 -12.22,2.74 -3.65,0 -7.47,-0.66 -11.45,-1.97 -3.98,-1.31 -7.43,-3.04 -10.33,-5.2l-1.83 10.54c2.62,1.97 6.11,3.56 10.47,4.78 4.36,1.22 8.74,1.83 13.14,1.83 8.62,0 15.54,-1.93 20.79,-5.76 5.24,-3.85 7.87,-8.9 7.87,-15.17 0,-5.71 -1.82,-10.24 -5.48,-13.57 -3.65,-3.32 -9.93,-6.3 -18.83,-8.92z"/>
   <path class="fil0" d="M1950.02 2035.46c-3.65,-3.32 -9.93,-6.3 -18.82,-8.92 -5.81,-1.69 -9.8,-3.37 -11.94,-5.06 -2.16,-1.69 -3.24,-3.98 -3.24,-6.89 0,-3 1.26,-5.31 3.8,-6.96 2.53,-1.63 6.13,-2.46 10.82,-2.46 7.02,0 13.53,1.93 19.53,5.76l1.96 -10.12c-2.53,-1.69 -5.76,-3.04 -9.69,-4.07 -3.93,-1.03 -7.78,-1.54 -11.53,-1.54 -8.14,0 -14.59,1.85 -19.31,5.55 -4.74,3.7 -7.09,8.74 -7.09,15.1 0,5.24 1.68,9.51 5.06,12.78 3.37,3.28 8.99,6.09 16.86,8.43 4.59,1.31 8.08,2.53 10.47,3.65 2.38,1.13 4.07,2.35 5.06,3.65 0.98,1.32 1.48,3.09 1.48,5.34 0,3.19 -1.46,5.7 -4.36,7.52 -2.91,1.83 -6.98,2.74 -12.22,2.74 -3.65,0 -7.47,-0.65 -11.45,-1.97 -3.98,-1.31 -7.42,-3.04 -10.32,-5.19l-1.83 10.53c2.63,1.97 6.11,3.56 10.47,4.78 4.35,1.22 8.73,1.83 13.13,1.83 8.62,0 15.55,-1.93 20.79,-5.76 5.24,-3.84 7.87,-8.9 7.87,-15.17 0,-5.71 -1.83,-10.23 -5.48,-13.56z"/>
   <path class="fil0" d="M3198.19 1830.19c-4.81,0.78 -9.05,1.16 -12.69,1.16 -12.14,0 -21.52,-2.83 -28.16,-8.51 -6.63,-5.68 -9.95,-13.61 -9.95,-23.82 0,-10 3.33,-17.9 9.95,-23.67 6.64,-5.77 15.74,-8.66 27.29,-8.66 3.84,0 8.66,0.49 14.43,1.45 5.77,0.96 10.59,2.5 14.43,4.61l6.64 -43.88c-11.15,-5.57 -25.21,-8.36 -42.14,-8.36 -12.13,0 -23.24,1.93 -33.34,5.77 -10.1,3.85 -18.76,9.25 -25.97,16.17 -7.22,6.93 -12.85,15.25 -16.89,24.96 -4.04,9.72 -6.06,20.45 -6.06,32.2 0,11.93 1.83,22.66 5.48,32.18 3.65,9.52 9.04,17.7 16.17,24.54 7.11,6.83 15.76,12.07 25.97,15.73 10.19,3.64 21.84,5.48 34.93,5.48 9.23,0 18.42,-1.16 27.56,-3.48 9.13,-2.3 17.07,-5.67 23.81,-10.09l-18.75 -36.94c-3.67,1.35 -7.9,2.41 -12.7,3.17z"/>
   <path class="fil0" d="M3020.38 1822.83c-5.58,6.06 -12.8,9.08 -21.65,9.08 -8.85,0 -16.12,-3.02 -21.79,-9.08 -5.68,-6.06 -8.51,-14 -8.51,-23.81 0,-9.81 2.83,-17.76 8.51,-23.8 5.67,-6.07 12.94,-9.1 21.79,-9.1 8.85,0 16.06,3.03 21.65,9.1 5.57,6.05 8.38,13.99 8.38,23.8 0,9.82 -2.81,17.75 -8.38,23.81zm8.09 -80.96c-4.44,-6.93 -10.35,-12.32 -17.76,-16.17 -7.4,-3.85 -15.63,-5.78 -24.67,-5.78 -9.82,0 -18.96,2.02 -27.43,6.07 -8.46,4.04 -15.82,9.62 -22.07,16.74 -6.25,7.12 -11.11,15.53 -14.58,25.25 -3.46,9.72 -5.19,20.26 -5.19,31.61 0,11.54 1.69,22.13 5.05,31.74 3.36,9.63 8.03,17.9 13.99,24.83 5.96,6.93 13.08,12.31 21.35,16.16 8.27,3.85 17.42,5.78 27.43,5.78 9.62,0 18.23,-1.88 25.83,-5.63 7.59,-3.74 13.6,-9.09 18.04,-16.02l0.57 17.03 48.78 0 0 -148.93 -48.78 0 -0.57 17.32z"/>
   <path class="fil0" d="M2840.13 1822.83c-5.69,6.06 -12.95,9.08 -21.79,9.08 -8.85,0 -16.07,-3.02 -21.65,-9.08 -5.58,-6.06 -8.36,-14 -8.36,-23.81 0,-9.81 2.78,-17.76 8.36,-23.8 5.57,-6.07 12.79,-9.1 21.65,-9.1 8.84,0 16.11,3.03 21.79,9.1 5.68,6.05 8.52,13.99 8.52,23.8 0,9.82 -2.84,17.75 -8.52,23.81zm41.13 -80.96c-5.96,-6.93 -13.08,-12.32 -21.35,-16.17 -8.28,-3.85 -17.43,-5.78 -27.43,-5.78 -9.62,0 -18.23,1.88 -25.83,5.64 -7.61,3.75 -13.62,9.09 -18.05,16.02l-0.57 -17.03 -48.79 0 0 213.87 51.96 0 0 -78.21c4.42,5.58 10.15,9.95 17.17,13.13 7.02,3.18 14.58,4.76 22.67,4.76 9.81,0 18.95,-2.02 27.41,-6.06 8.46,-4.04 15.82,-9.62 22.08,-16.74 6.24,-7.11 11.12,-15.53 14.57,-25.25 3.48,-9.72 5.2,-20.26 5.2,-31.61 0,-11.54 -1.69,-22.11 -5.06,-31.75 -3.37,-9.62 -8.04,-17.89 -14,-24.81z"/>
   <path class="fil0" d="M2666.24 1779.68c-8.65,-2.11 -14.53,-4.07 -17.6,-5.91 -3.08,-1.83 -4.62,-4.28 -4.62,-7.35 0,-5.78 5.3,-8.66 15.87,-8.66 7.12,0 14.73,1 22.81,3.03 8.08,2.01 15.58,4.76 22.51,8.22l5.19 -37.23c-6.33,-3.65 -14.39,-6.54 -24.11,-8.67 -9.72,-2.12 -19.58,-3.18 -29.58,-3.18 -20.01,0 -35.65,4.19 -46.9,12.56 -11.25,8.37 -16.89,20.06 -16.89,35.06 0,6.75 0.97,12.7 2.89,17.9 1.91,5.19 4.9,9.8 8.94,13.85 4.04,4.04 9.28,7.59 15.74,10.68 6.43,3.07 14.18,5.76 23.22,8.08 4.43,1.15 8.09,2.21 10.97,3.18 2.89,0.96 5.13,1.92 6.78,2.88 1.63,0.96 2.75,2.02 3.32,3.19 0.57,1.15 0.87,2.5 0.87,4.04 0,5.96 -6.25,8.94 -18.75,8.94 -5.98,0 -12.51,-0.67 -19.63,-2.02 -7.12,-1.34 -13.56,-3.17 -19.33,-5.49l-17.04 30.89c6.35,4.42 14.91,7.94 25.69,10.54 10.78,2.61 21.94,3.9 33.48,3.9 21.56,0 38.15,-4.15 49.79,-12.41 11.64,-8.28 17.46,-19.92 17.46,-34.93 0,-13.48 -4,-24.25 -11.98,-32.32 -7.98,-8.09 -21.03,-14.33 -39.11,-18.77z"/>
   <path class="fil0" d="M2516.88 1824.86c-5.87,6.45 -13.7,9.67 -23.52,9.67 -9.81,0 -17.7,-3.22 -23.66,-9.67 -5.98,-6.45 -8.96,-15.06 -8.96,-25.84 0,-10.57 2.98,-19.14 8.96,-25.69 5.96,-6.53 13.85,-9.81 23.66,-9.81 9.82,0 17.65,3.28 23.52,9.81 5.87,6.55 8.8,15.11 8.8,25.69 0,10.78 -2.93,19.39 -8.8,25.84zm35.07 -82.55c-7.32,-7.02 -15.98,-12.51 -25.98,-16.45 -10.01,-3.95 -20.88,-5.93 -32.61,-5.93 -11.74,0 -22.61,1.98 -32.62,5.93 -10,3.94 -18.66,9.48 -25.97,16.59 -7.31,7.12 -13.05,15.5 -17.17,25.11 -4.15,9.63 -6.21,20.11 -6.21,31.46 0,11.37 2.06,21.9 6.21,31.61 4.12,9.72 9.8,18.08 17.02,25.1 7.22,7.04 15.82,12.51 25.83,16.46 10,3.94 20.98,5.92 32.9,5.92 11.74,0 22.61,-1.98 32.61,-5.92 10,-3.94 18.62,-9.47 25.83,-16.59 7.21,-7.12 12.89,-15.5 17.03,-25.11 4.13,-9.62 6.19,-20.1 6.19,-31.46 0,-11.35 -2.01,-21.89 -6.04,-31.6 -4.06,-9.72 -9.72,-18.08 -17.04,-25.11z"/>
   <path class="fil0" d="M2362.31 1728.16c-6.35,4.33 -11.35,10.54 -15,18.62l-0.57 -22.23 -50.52 0 0 148.93 51.96 0 0 -63.79c0,-26.35 10.1,-39.55 30.3,-39.55 3.07,0 6.35,0.34 9.82,1.02 3.46,0.67 6.54,1.59 9.24,2.74l4.04 -49.07c-4.82,-2.12 -10.49,-3.19 -17.04,-3.19 -8.46,0 -15.87,2.17 -22.23,6.5z"/>
   <path class="fil0" d="M1974.4 1778.81l25.1 -74.76 25.11 74.76 -50.22 0zm-2.89 -124.69l-86 219.36 57.44 0 16.74 -50.51 79.94 0 17.03 50.51 60.9 0 -86 -219.36 -60.04 0z"/>
   <path class="fil0" d="M1767.45 1779.68c-8.65,-2.11 -14.52,-4.07 -17.61,-5.91 -3.07,-1.83 -4.61,-4.28 -4.61,-7.35 0,-5.78 5.28,-8.66 15.87,-8.66 7.12,0 14.72,1 22.8,3.03 8.08,2.01 15.58,4.76 22.51,8.22l5.2 -37.23c-6.35,-3.65 -14.39,-6.54 -24.09,-8.67 -9.72,-2.12 -19.58,-3.18 -29.59,-3.18 -20.01,0 -35.65,4.19 -46.9,12.56 -11.25,8.37 -16.89,20.06 -16.89,35.06 0,6.75 0.97,12.7 2.89,17.9 1.92,5.19 4.9,9.8 8.94,13.85 4.04,4.04 9.28,7.59 15.72,10.68 6.46,3.07 14.19,5.76 23.24,8.08 4.43,1.15 8.08,2.21 10.97,3.18 2.89,0.96 5.15,1.92 6.78,2.88 1.63,0.96 2.75,2.02 3.31,3.19 0.57,1.15 0.87,2.5 0.87,4.04 0,5.96 -6.25,8.94 -18.75,8.94 -5.98,0 -12.51,-0.67 -19.63,-2.02 -7.12,-1.34 -13.57,-3.17 -19.33,-5.49l-17.04 30.89c6.35,4.42 14.91,7.94 25.69,10.54 10.78,2.61 21.94,3.9 33.48,3.9 21.55,0 38.15,-4.15 49.79,-12.41 11.64,-8.28 17.46,-19.92 17.46,-34.93 0,-13.48 -4,-24.25 -11.98,-32.32 -7.98,-8.09 -21.02,-14.33 -39.12,-18.77z"/>
   <path class="fil0" d="M1617.94 1719.93c-9.81,0 -18.43,2.03 -25.83,6.07 -7.42,4.04 -13.05,9.72 -16.89,17.03l-0.58 -18.48 -50.8 0 0 148.93 51.95 0 0 -78.79c0,-9.24 1.87,-16.3 5.63,-21.22 3.75,-4.91 9.28,-7.35 16.6,-7.35 13.27,0 19.91,8.85 19.91,26.56l0 80.81 51.96 0 0 -90.62c0,-20.79 -4.38,-36.47 -13.14,-47.06 -8.76,-10.57 -21.7,-15.87 -38.82,-15.87z"/>
   <polygon class="fil0" points="1438.41,1873.48 1490.37,1873.48 1490.37,1724.55 1438.41,1724.55 "/>
   <path class="fil0" d="M1464.39 1645.46c-8.28,0 -15.2,2.66 -20.78,7.94 -5.59,5.3 -8.38,11.98 -8.38,20.06 0,7.89 2.79,14.48 8.38,19.77 5.57,5.3 12.5,7.94 20.78,7.94 8.27,0 15.2,-2.59 20.78,-7.79 5.59,-5.19 8.37,-11.83 8.37,-19.92 0,-8.08 -2.78,-14.77 -8.37,-20.06 -5.58,-5.28 -12.51,-7.94 -20.78,-7.94z"/>
   <polygon class="fil0" points="1349.24,1873.48 1401.2,1873.48 1401.2,1654.12 1349.24,1654.12 "/>
   <polygon class="fil0" points="1264.4,1873.48 1316.36,1873.48 1316.36,1654.12 1264.4,1654.12 "/>
   <path class="fil0" d="M1184.3 1824.86c-5.87,6.45 -13.7,9.67 -23.52,9.67 -9.81,0 -17.7,-3.22 -23.67,-9.67 -5.96,-6.45 -8.95,-15.06 -8.95,-25.84 0,-10.57 2.99,-19.14 8.95,-25.69 5.96,-6.53 13.85,-9.81 23.67,-9.81 9.82,0 17.66,3.28 23.52,9.81 5.87,6.55 8.8,15.11 8.8,25.69 0,10.78 -2.93,19.39 -8.8,25.84zm35.07 -82.55c-7.33,-7.02 -15.98,-12.51 -25.98,-16.45 -10.01,-3.95 -20.88,-5.93 -32.62,-5.93 -11.74,0 -22.66,1.84 -32.76,5.49 -10.1,3.66 -18.81,8.8 -26.13,15.44 -7.3,6.64 -13.08,14.62 -17.31,23.95 -4.23,9.34 -6.35,19.68 -6.35,31.03 0,11.35 2.08,22.04 6.21,32.04 4.14,10.01 9.91,18.72 17.32,26.12 7.4,7.41 16.11,13.29 26.12,17.61 10,4.34 20.97,6.5 32.9,6.5 11.74,0 22.61,-1.98 32.62,-5.92 10,-3.94 18.62,-9.47 25.83,-16.59 7.21,-7.12 12.89,-15.5 17.04,-25.11 4.13,-9.62 6.2,-20.1 6.2,-31.46 0,-11.35 -2.02,-21.89 -6.06,-31.6 -4.05,-9.72 -9.72,-18.08 -17.03,-25.11z"/>
   <path class="fil0" d="M1018.48 1821.1c-8.07,2.99 -16.54,4.47 -25.39,4.47 -9.24,0 -17.57,-1.48 -24.97,-4.47 -7.41,-2.98 -13.71,-7.17 -18.91,-12.54 -5.19,-5.39 -9.19,-11.84 -11.97,-19.35 -2.79,-7.5 -4.18,-15.87 -4.18,-25.11 0,-19.24 5.67,-34.39 17.02,-45.45 11.36,-11.07 26.95,-16.6 46.77,-16.6 4.62,0 8.76,0.24 12.41,0.72 3.66,0.49 7.11,1.21 10.39,2.17 3.26,0.97 6.64,2.23 10.09,3.75 3.46,1.55 7.31,3.28 11.55,5.19l23.67 -45.02c-4.43,-2.5 -9.43,-4.86 -15.02,-7.07 -5.58,-2.21 -11.5,-4.14 -17.74,-5.77 -6.27,-1.63 -12.71,-2.89 -19.34,-3.75 -6.65,-0.87 -13.13,-1.31 -19.48,-1.31 -17.71,0 -33.91,2.79 -48.65,8.37 -14.72,5.59 -27.37,13.38 -37.95,23.37 -10.58,10.01 -18.81,21.94 -24.67,35.8 -5.88,13.86 -8.81,29.15 -8.81,45.89 0,17.9 2.6,33.82 7.8,47.77 5.2,13.94 12.71,25.69 22.52,35.21 9.81,9.52 21.68,16.8 35.65,21.79 13.94,5 29.77,7.51 47.48,7.51 15.39,0 29.91,-2.03 43.58,-6.06 13.66,-4.04 25.58,-10.01 35.79,-17.9l-24.25 -44.15c-7.51,5.37 -15.3,9.56 -23.39,12.54z"/>
   <path class="fil0" d="M2165.32 1785.26c3.96,-20.11 14.85,-30.15 32.62,-30.15 8.63,0 15.65,2.62 21.04,7.88 5.37,5.27 8.64,12.69 9.81,22.27l-63.47 0zm106.36 9.17c0,-11.55 -1.68,-21.89 -5.05,-31.04 -3.38,-9.13 -8.23,-16.93 -14.59,-23.38 -6.34,-6.44 -14.05,-11.39 -23.08,-14.87 -9.06,-3.45 -19.16,-5.19 -30.31,-5.19 -11.56,0 -22.09,1.93 -31.62,5.77 -9.51,3.86 -17.75,9.23 -24.68,16.17 -6.93,6.92 -12.26,15.25 -16.02,24.98 -3.75,9.71 -5.63,20.45 -5.63,32.18 0,12.13 2.07,23.09 6.2,32.9 4.14,9.81 10.11,18.15 17.9,24.96 7.79,6.84 17.22,12.08 28.29,15.74 11.06,3.65 23.53,5.5 37.38,5.5 11.54,0 22.66,-1.35 33.34,-4.06 10.67,-2.69 19.77,-6.54 27.27,-11.54l-16.44 -33.2c-6.17,2.7 -12.85,4.76 -20.07,6.21 -7.21,1.43 -13.7,2.15 -19.48,2.15 -23.67,0 -44.57,-8.46 -49.77,-25.4l104.6 0c1.16,-4.81 1.74,-10.77 1.74,-17.89z"/>
   <path class="fil0" d="M3313.78 1755.1c8.63,0 15.65,2.63 21.04,7.89 5.37,5.27 8.64,12.68 9.82,22.27l-63.48 0c3.96,-20.11 14.85,-30.15 32.61,-30.15zm36.65 80.45c-7.2,1.43 -13.7,2.15 -19.47,2.15 -23.68,0 -44.58,-8.45 -49.78,-25.4l104.6 0c1.16,-4.8 1.75,-10.77 1.75,-17.89 0,-11.55 -1.69,-21.9 -5.06,-31.04 -3.38,-9.13 -8.22,-16.93 -14.58,-23.39 -6.35,-6.44 -14.06,-11.39 -23.09,-14.86 -9.05,-3.45 -19.16,-5.19 -30.31,-5.19 -11.56,0 -22.08,1.93 -31.62,5.77 -9.52,3.86 -17.74,9.23 -24.67,16.17 -6.92,6.92 -12.26,15.25 -16.02,24.97 -3.75,9.71 -5.63,20.45 -5.63,32.18 0,12.14 2.06,23.09 6.2,32.91 4.14,9.81 10.1,18.15 17.9,24.96 7.8,6.85 17.22,12.09 28.29,15.74 11.06,3.65 23.52,5.48 37.38,5.48 11.54,0 22.66,-1.35 33.34,-4.04 10.67,-2.69 19.78,-6.55 27.27,-11.55l-16.44 -33.19c-6.17,2.7 -12.85,4.77 -20.07,6.21z"/>
  </g>
 </g>
</svg>
