<?xml version="1.0" encoding="UTF-8"?>
<svg id="Layer_1" data-name="Layer 1" xmlns="http://www.w3.org/2000/svg" viewBox="0 0 230.5 80">
  <g id="Layer_1-2" data-name="Layer_1">
    <g id="_2217758616208" data-name=" 2217758616208">
      <path d="M21.04,32.08c.4.04.78.11,1.16.2l2.02-11.51c-.38-.08-.77-.15-1.16-.2,0,0-2.02,11.51-2.02,11.51ZM14.95,34.12l-8.87-7.5c-.41.45-.8.92-1.17,1.4l8.85,7.48c.34-.51.74-.97,1.19-1.39h0ZM30.43,23.28c-.31-.19-.63-.38-.95-.56l-5.8,10.1c.33.16.65.35.96.55l5.79-10.09h0ZM34.81,27.03l-8.85,7.47c.22.23.42.48.61.73l8.84-7.47c-.2-.25-.4-.5-.61-.74ZM12.63,38.1c.16-.69.41-1.35.74-1.96l-10.87-3.99c-.27.64-.51,1.3-.72,1.97l10.85,3.97h0ZM28.09,39.86c0,4.32-3.5,7.83-7.83,7.83-3.87,0-7.08-2.81-7.71-6.5l-10.85,3.98c.24.85.54,1.67.88,2.47l10.78-3.95-8.8,7.45c.56.78,1.17,1.52,1.83,2.21l8.23-6.96-5.37,9.41c.85.6,1.75,1.13,2.7,1.58l5.05-8.84-1.76,10.05c1.08.29,2.19.49,3.33.59l1.64-9.4,1.65,9.4c1.2-.1,2.36-.31,3.49-.62l-1.53-8.72,4.4,7.68c1.21-.55,2.34-1.22,3.4-2l-4.04-7.04,6.18,5.22c.99-.97,1.87-2.05,2.63-3.21l-5.52-4.66,6.76,2.48c.63-1.3,1.11-2.68,1.44-4.11l-5.93-2.17h6.3c.08-.73.13-1.46.13-2.21,0-.86-.06-1.71-.17-2.55h-11.76c.29.81.44,1.69.44,2.6h0ZM12.43,39.86c0-.43.04-.86.11-1.28H.99c-.03.4-.04.81-.04,1.22,0,.38.01.76.04,1.14h11.53c-.05-.35-.08-.72-.08-1.08ZM15.72,33.49c.42-.3.88-.56,1.36-.78l-5.8-10.12c-.46.24-.91.51-1.35.79l5.79,10.11h0ZM16.24,20.79c.42-.09.85-.16,1.28-.23l2.02,11.51c-.44.04-.87.12-1.28.23,0,0-2.01-11.51-2.01-11.51Z"/>
      <path d="M66.84,55.32h-.57v-2.25h.59c.87,0,1.3.37,1.3,1.11s-.44,1.13-1.32,1.13ZM69.82,55.4c.21-.35.32-.75.32-1.19,0-.82-.26-1.47-.79-1.93-.53-.46-1.27-.69-2.21-.69h-2.8v7.69h1.94v-2.47h1.03l1.35,2.47h2.24l-1.88-3c.33-.23.6-.52.81-.87h0Z"/>
      <polygon points="70.33 53.24 72.69 53.24 72.69 59.27 74.74 59.27 74.74 53.24 77.1 53.24 77.1 51.59 70.33 51.59 70.33 53.24"/>
      <polygon points="84.75 51.59 82.42 51.59 81.07 53.95 79.72 51.59 77.32 51.59 79.81 55.27 77.14 59.27 79.46 59.27 80.93 56.66 82.48 59.27 84.89 59.27 82.23 55.36 84.75 51.59"/>
      <path d="M50.69,56.19l1.46-3.71,1.46,3.71s-2.91,0-2.91,0ZM51.67,51.59l-3.13,7.69h.93l.91-2.33h3.51l.92,2.33h.98l-3.13-7.69h-1Z"/>
      <path d="M59.44,54.05c-.39,0-.73.09-1.03.27-.3.18-.52.44-.66.77v-.88h-.82v5.06h.86v-2.79c0-.52.13-.93.38-1.22.26-.3.61-.45,1.06-.45.41,0,.72.13.92.38.2.26.3.65.3,1.17v2.9h.86v-3.05c0-.69-.16-1.23-.49-1.6-.32-.37-.79-.56-1.39-.56h0Z"/>
      <path d="M91.65,58.15c-.29.25-.69.38-1.2.38h-1.97v-2.9h1.83c.58,0,1.02.12,1.32.36.3.24.45.6.45,1.08s-.14.82-.43,1.08h0ZM88.48,52.33h1.7c.5,0,.88.1,1.14.31.26.21.39.5.39.88,0,.47-.13.81-.38,1.03s-.65.33-1.19.33h-1.66v-2.56ZM91.43,55.18c.36-.13.65-.35.87-.64.21-.29.32-.63.32-1.01,0-.61-.2-1.08-.61-1.43-.41-.34-.97-.52-1.69-.52h-2.69v7.69h2.79c.82,0,1.45-.19,1.91-.58.46-.39.69-.93.69-1.62,0-.48-.14-.89-.42-1.23-.28-.34-.67-.56-1.15-.66h0Z"/>
      <path d="M97.75,57.01c0,.52-.13.93-.38,1.22-.25.3-.6.45-1.04.45s-.74-.12-.93-.35c-.19-.23-.28-.61-.28-1.15v-2.96h-.86v3.21c0,.65.15,1.14.46,1.49s.75.52,1.32.52c.41,0,.77-.09,1.08-.27.31-.18.53-.43.66-.75l.02.86h.81v-5.06h-.86v2.79h0Z"/>
      <path d="M101.69,56.31c-.42-.12-.7-.24-.86-.36-.15-.12-.23-.29-.23-.5s.09-.38.27-.5.44-.18.78-.18c.51,0,.97.14,1.41.41l.14-.73c-.18-.12-.41-.22-.7-.29-.28-.07-.56-.11-.83-.11-.59,0-1.05.13-1.39.4-.34.27-.51.63-.51,1.09,0,.38.12.68.36.92.24.24.65.44,1.21.61.33.09.58.18.75.26.17.08.29.17.36.26.07.09.11.22.11.38,0,.23-.11.41-.31.54-.21.13-.5.2-.88.2-.26,0-.54-.05-.82-.14s-.53-.22-.74-.37l-.13.76c.19.14.44.26.75.34s.63.13.95.13c.62,0,1.12-.14,1.5-.41.38-.28.57-.64.57-1.09,0-.41-.13-.74-.39-.98-.26-.24-.71-.45-1.36-.64h0Z"/>
      <path d="M104.95,51.65c-.17,0-.31.06-.42.17-.11.11-.17.26-.17.43s.06.32.17.44c.11.11.25.17.42.17s.31-.06.42-.17c.11-.11.17-.26.17-.44s-.06-.32-.17-.43c-.11-.11-.25-.17-.42-.17Z"/>
      <polygon points="104.52 59.27 105.38 59.27 105.38 54.22 104.52 54.22 104.52 59.27"/>
      <path d="M109.43,54.05c-.39,0-.73.09-1.03.27-.3.18-.52.44-.66.77v-.88h-.82v5.06h.86v-2.79c0-.52.13-.93.38-1.22.26-.3.61-.45,1.06-.45.41,0,.72.13.92.38.2.26.3.65.3,1.17v2.9h.86v-3.05c0-.69-.16-1.23-.49-1.6-.32-.37-.79-.56-1.39-.56h0Z"/>
      <path d="M113.31,56.34c.06-.49.23-.87.52-1.14.28-.27.64-.41,1.08-.41s.82.13,1.08.4c.26.27.4.65.43,1.14h-3.11,0ZM114.96,54.05c-.49,0-.93.12-1.31.36-.38.24-.68.57-.88.98-.21.41-.31.87-.31,1.38,0,.82.25,1.47.75,1.95s1.19.72,2.05.72c.36,0,.7-.04,1.04-.12.33-.08.62-.19.85-.33l-.1-.73c-.57.28-1.15.41-1.74.41s-1.04-.14-1.39-.42c-.34-.28-.55-.69-.61-1.22h3.92c0-.08.01-.16.02-.23,0-.07,0-.15,0-.24,0-.74-.21-1.34-.63-1.8-.42-.46-.97-.69-1.65-.69h0Z"/>
      <path d="M120.23,56.31c-.42-.12-.7-.24-.86-.36-.16-.12-.23-.29-.23-.5s.09-.38.27-.5.44-.18.78-.18c.51,0,.97.14,1.41.41l.14-.73c-.18-.12-.41-.22-.7-.29-.28-.07-.56-.11-.83-.11-.59,0-1.05.13-1.39.4-.34.27-.51.63-.51,1.09,0,.38.12.68.36.92.24.24.65.44,1.21.61.33.09.58.18.75.26.17.08.29.17.36.26.07.09.11.22.11.38,0,.23-.11.41-.31.54-.21.13-.5.2-.88.2-.26,0-.54-.05-.82-.14s-.53-.22-.74-.37l-.13.76c.19.14.44.26.75.34s.63.13.95.13c.62,0,1.12-.14,1.5-.41.38-.28.57-.64.57-1.09,0-.41-.13-.74-.39-.98-.26-.24-.71-.45-1.36-.64h0Z"/>
      <path d="M126.05,56.95c-.26-.24-.71-.45-1.36-.64-.42-.12-.71-.24-.86-.36-.16-.12-.23-.29-.23-.5s.09-.38.27-.5c.18-.12.44-.18.78-.18.51,0,.97.14,1.41.41l.14-.73c-.18-.12-.41-.22-.7-.29-.28-.07-.56-.11-.83-.11-.59,0-1.05.13-1.39.4-.34.27-.51.63-.51,1.09,0,.38.12.68.36.92.24.24.65.44,1.21.61.33.09.58.18.75.26.17.08.29.17.36.26.07.1.11.22.11.38,0,.23-.11.41-.31.54-.21.13-.5.2-.88.2-.26,0-.54-.05-.82-.14-.29-.09-.53-.22-.74-.37l-.13.76c.19.14.44.26.75.34.31.09.63.13.95.13.62,0,1.12-.14,1.5-.41.38-.28.57-.64.57-1.09,0-.41-.13-.74-.39-.98h0Z"/>
      <path d="M215.92,42.17c-.35.06-.65.08-.91.08-.87,0-1.55-.2-2.03-.61-.48-.41-.72-.98-.72-1.72s.24-1.29.72-1.7c.48-.42,1.13-.62,1.96-.62.28,0,.62.04,1.04.1s.76.18,1.04.33l.48-3.16c-.8-.4-1.82-.6-3.03-.6-.87,0-1.67.14-2.4.42-.73.28-1.35.67-1.87,1.16-.52.5-.93,1.1-1.22,1.8-.29.7-.44,1.47-.44,2.32s.13,1.63.39,2.32.65,1.27,1.16,1.77c.51.49,1.13.87,1.87,1.13.73.26,1.57.39,2.51.39.66,0,1.33-.08,1.98-.25.66-.17,1.23-.41,1.71-.73l-1.35-2.66c-.26.1-.57.17-.91.23h0Z"/>
      <path d="M203.12,41.64c-.4.44-.92.65-1.56.65s-1.16-.22-1.57-.65c-.41-.44-.61-1.01-.61-1.71s.2-1.28.61-1.71c.41-.44.93-.66,1.57-.66s1.16.22,1.56.66c.4.44.6,1.01.6,1.71s-.2,1.28-.6,1.71ZM203.7,35.81c-.32-.5-.75-.89-1.28-1.16-.53-.28-1.13-.42-1.78-.42-.71,0-1.37.15-1.97.44-.61.29-1.14.69-1.59,1.21s-.8,1.12-1.05,1.82c-.25.7-.37,1.46-.37,2.28s.12,1.59.36,2.29c.24.69.58,1.29,1.01,1.79.43.5.94.89,1.54,1.16s1.25.42,1.97.42,1.31-.14,1.86-.41c.55-.27.98-.65,1.3-1.15l.04,1.23h3.51v-10.72h-3.51l-.04,1.25h0Z"/>
      <path d="M190.14,41.64c-.41.44-.93.65-1.57.65s-1.16-.22-1.56-.65c-.4-.44-.6-1.01-.6-1.71s.2-1.28.6-1.71c.4-.44.92-.66,1.56-.66s1.16.22,1.57.66c.41.44.61,1.01.61,1.71s-.2,1.28-.61,1.71ZM193.1,35.81c-.43-.5-.94-.89-1.54-1.16-.6-.28-1.25-.42-1.97-.42s-1.31.14-1.86.41c-.55.27-.98.65-1.3,1.15l-.04-1.23h-3.51v15.4h3.74v-5.63c.32.4.73.72,1.24.95s1.05.34,1.63.34c.71,0,1.36-.15,1.97-.44s1.14-.69,1.59-1.21c.45-.51.8-1.12,1.05-1.82.25-.7.37-1.46.37-2.28s-.12-1.59-.36-2.29c-.24-.69-.58-1.29-1.01-1.79h0Z"/>
      <path d="M177.62,38.54c-.62-.15-1.05-.29-1.27-.43-.22-.13-.33-.31-.33-.53,0-.42.38-.62,1.14-.62.51,0,1.06.07,1.64.22.58.14,1.12.34,1.62.59l.37-2.68c-.46-.26-1.04-.47-1.74-.62-.7-.15-1.41-.23-2.13-.23-1.44,0-2.57.3-3.38.9-.81.6-1.22,1.44-1.22,2.52,0,.49.07.91.21,1.29.14.37.35.71.64,1,.29.29.67.55,1.13.77.46.22,1.02.41,1.67.58.32.08.58.16.79.23.21.07.37.14.49.21.12.07.2.15.24.23.04.08.06.18.06.29,0,.43-.45.64-1.35.64-.43,0-.9-.05-1.41-.15-.51-.1-.98-.23-1.39-.4l-1.23,2.22c.46.32,1.07.57,1.85.76.78.19,1.58.28,2.41.28,1.55,0,2.75-.3,3.58-.89.84-.6,1.26-1.43,1.26-2.51,0-.97-.29-1.75-.86-2.33-.57-.58-1.51-1.03-2.82-1.35h0Z"/>
      <path d="M166.87,41.79c-.42.46-.99.7-1.69.7s-1.27-.23-1.7-.7c-.43-.46-.65-1.08-.65-1.86s.21-1.38.65-1.85c.43-.47,1-.71,1.7-.71s1.27.24,1.69.71c.42.47.63,1.09.63,1.85s-.21,1.4-.63,1.86ZM169.39,35.85c-.53-.51-1.15-.9-1.87-1.18-.72-.28-1.5-.43-2.35-.43s-1.63.14-2.35.43c-.72.28-1.34.68-1.87,1.19-.53.51-.94,1.12-1.24,1.81-.3.69-.45,1.45-.45,2.27s.15,1.58.45,2.28c.3.7.71,1.3,1.23,1.81.52.51,1.14.9,1.86,1.19.72.28,1.51.43,2.37.43s1.63-.14,2.35-.43c.72-.28,1.34-.68,1.86-1.19s.93-1.12,1.23-1.81c.3-.69.45-1.45.45-2.27s-.14-1.58-.43-2.28c-.29-.7-.7-1.3-1.23-1.81h0Z"/>
      <path d="M155.74,34.83c-.46.31-.82.76-1.08,1.34l-.04-1.6h-3.64v10.72h3.74v-4.59c0-1.9.73-2.85,2.18-2.85.22,0,.46.02.71.07.25.05.47.11.67.2l.29-3.53c-.35-.15-.76-.23-1.23-.23-.61,0-1.14.16-1.6.47h0Z"/>
      <path d="M127.81,38.47l1.81-5.38,1.81,5.38h-3.62,0ZM127.6,29.5l-6.19,15.79h4.14l1.21-3.64h5.76l1.23,3.64h4.38l-6.19-15.79h-4.32Z"/>
      <path d="M112.91,38.54c-.62-.15-1.05-.29-1.27-.43-.22-.13-.33-.31-.33-.53,0-.42.38-.62,1.14-.62.51,0,1.06.07,1.64.22.58.14,1.12.34,1.62.59l.37-2.68c-.46-.26-1.04-.47-1.73-.62-.7-.15-1.41-.23-2.13-.23-1.44,0-2.57.3-3.38.9-.81.6-1.22,1.44-1.22,2.52,0,.49.07.91.21,1.29.14.37.35.71.64,1,.29.29.67.55,1.13.77.47.22,1.02.41,1.67.58.32.08.58.16.79.23.21.07.37.14.49.21s.2.15.24.23c.04.08.06.18.06.29,0,.43-.45.64-1.35.64-.43,0-.9-.05-1.41-.15-.51-.1-.98-.23-1.39-.4l-1.23,2.22c.46.32,1.07.57,1.85.76.78.19,1.58.28,2.41.28,1.55,0,2.75-.3,3.58-.89.84-.6,1.26-1.43,1.26-2.51,0-.97-.29-1.75-.86-2.33-.57-.58-1.51-1.03-2.82-1.35h0Z"/>
      <path d="M102.14,34.23c-.71,0-1.33.15-1.86.44-.53.29-.94.7-1.22,1.23l-.04-1.33h-3.66v10.72h3.74v-5.67c0-.67.13-1.17.41-1.53.27-.35.67-.53,1.2-.53.96,0,1.43.64,1.43,1.91v5.82h3.74v-6.52c0-1.5-.32-2.63-.95-3.39-.63-.76-1.56-1.14-2.8-1.14h0Z"/>
      <polygon points="89.22 45.29 92.96 45.29 92.96 34.57 89.22 34.57 89.22 45.29"/>
      <path d="M91.09,28.87c-.6,0-1.09.19-1.5.57-.4.38-.6.86-.6,1.44s.2,1.04.6,1.42c.4.38.9.57,1.5.57s1.09-.19,1.5-.56c.4-.37.6-.85.6-1.43s-.2-1.06-.6-1.44c-.4-.38-.9-.57-1.5-.57Z"/>
      <polygon points="82.8 45.29 86.54 45.29 86.54 29.5 82.8 29.5 82.8 45.29"/>
      <polygon points="76.69 45.29 80.43 45.29 80.43 29.5 76.69 29.5 76.69 45.29"/>
      <path d="M70.92,41.79c-.42.46-.99.7-1.69.7s-1.27-.23-1.7-.7c-.43-.46-.64-1.08-.64-1.86s.22-1.38.64-1.85c.43-.47,1-.71,1.7-.71s1.27.24,1.69.71c.42.47.63,1.09.63,1.85s-.21,1.4-.63,1.86ZM73.45,35.85c-.53-.51-1.15-.9-1.87-1.18-.72-.28-1.5-.43-2.35-.43s-1.63.13-2.36.4c-.73.26-1.35.63-1.88,1.11-.53.48-.94,1.05-1.25,1.72-.3.67-.46,1.42-.46,2.23s.15,1.59.45,2.31c.3.72.71,1.35,1.25,1.88.53.53,1.16.96,1.88,1.27.72.31,1.51.47,2.37.47s1.63-.14,2.35-.43c.72-.28,1.34-.68,1.86-1.19s.93-1.12,1.23-1.81c.3-.69.45-1.45.45-2.27s-.15-1.58-.44-2.28c-.29-.7-.7-1.3-1.23-1.81h0Z"/>
      <path d="M58.98,41.52c-.58.22-1.19.32-1.83.32s-1.27-.11-1.8-.32c-.53-.21-.99-.52-1.36-.9-.37-.39-.66-.85-.86-1.39-.2-.54-.3-1.14-.3-1.81,0-1.39.41-2.48,1.23-3.27.82-.8,1.94-1.2,3.37-1.2.33,0,.63.02.89.05.26.04.51.09.75.16.23.07.48.16.73.27.25.11.53.24.83.37l1.7-3.24c-.32-.18-.68-.35-1.08-.51-.4-.16-.83-.3-1.28-.42-.45-.12-.92-.21-1.39-.27-.48-.06-.95-.09-1.4-.09-1.28,0-2.44.2-3.5.6-1.06.4-1.97.96-2.73,1.68-.76.72-1.35,1.58-1.78,2.58-.42,1-.63,2.1-.63,3.3,0,1.29.19,2.44.56,3.44.37,1,.92,1.85,1.62,2.54s1.56,1.21,2.57,1.57c1,.36,2.14.54,3.42.54,1.11,0,2.15-.15,3.14-.44.98-.29,1.84-.72,2.58-1.29l-1.75-3.18c-.54.39-1.1.69-1.68.9h0Z"/>
      <path d="M141.55,38.94c.29-1.45,1.07-2.17,2.35-2.17.62,0,1.13.19,1.51.57.39.38.62.91.71,1.6h-4.57ZM149.21,39.6c0-.83-.12-1.58-.36-2.23-.24-.66-.59-1.22-1.05-1.68-.46-.46-1.01-.82-1.66-1.07-.65-.25-1.38-.37-2.18-.37s-1.59.14-2.28.42c-.68.28-1.28.66-1.78,1.16-.5.5-.88,1.1-1.15,1.8-.27.7-.41,1.47-.41,2.32s.15,1.66.45,2.37c.3.71.73,1.31,1.29,1.8.56.49,1.24.87,2.04,1.13.8.26,1.69.4,2.69.4.83,0,1.63-.1,2.4-.29.77-.19,1.42-.47,1.96-.83l-1.18-2.39c-.44.19-.93.34-1.45.45-.52.1-.99.15-1.4.15-1.7,0-3.21-.61-3.58-1.83h7.53c.08-.35.13-.78.13-1.29h0Z"/>
      <path d="M224.24,36.77c.62,0,1.13.19,1.51.57.39.38.62.91.71,1.6h-4.57c.29-1.45,1.07-2.17,2.35-2.17h0ZM226.88,42.56c-.52.1-.99.15-1.4.15-1.7,0-3.21-.61-3.58-1.83h7.53c.08-.35.13-.78.13-1.29,0-.83-.12-1.58-.36-2.23-.24-.66-.59-1.22-1.05-1.68-.46-.46-1.01-.82-1.66-1.07-.65-.25-1.38-.37-2.18-.37s-1.59.14-2.28.42c-.69.28-1.28.66-1.78,1.16-.5.5-.88,1.1-1.15,1.8-.27.7-.41,1.47-.41,2.32s.15,1.66.45,2.37c.3.71.73,1.31,1.29,1.8.56.49,1.24.87,2.04,1.13.8.26,1.69.39,2.69.39.83,0,1.63-.1,2.4-.29.77-.19,1.42-.47,1.96-.83l-1.18-2.39c-.44.19-.93.34-1.45.45h0Z"/>
    </g>
  </g>
</svg>