<?xml version="1.0" encoding="UTF-8"?>
<!DOCTYPE svg PUBLIC "-//W3C//DTD SVG 1.1//EN" "http://www.w3.org/Graphics/SVG/1.1/DTD/svg11.dtd">
<!-- Creator: CorelDRAW (OEM Version) -->
<svg xmlns="http://www.w3.org/2000/svg" xml:space="preserve" width="3.6in" height="3.6in" version="1.1" style="shape-rendering:geometricPrecision; text-rendering:geometricPrecision; image-rendering:optimizeQuality; fill-rule:evenodd; clip-rule:evenodd"
viewBox="0 0 3600 3600"
 xmlns:xlink="http://www.w3.org/1999/xlink"
 xmlns:xodm="http://www.corel.com/coreldraw/odm/2003">
 <defs>
  <style type="text/css">
   <![CDATA[
    .fil0 {fill:black}
   ]]>
  </style>
 </defs>
 <g id="Layer_x0020_1">
  <metadata id="CorelCorpID_0Corel-Layer"/>
  <g id="_2217828310320">
   <path class="fil0" d="M1579.98 1781.43c0,47.91 -2.1,63.58 11.78,112.22 28.35,99.33 94,171.25 184.52,215.91 39.33,19.4 83.34,29.6 127.84,30.96l20.54 0c43.26,-1.31 86.37,-10.9 125.47,-28.45 109.32,-49.06 180.87,-149.14 180.87,-273.81 0,-23.8 2.04,-42.15 -2.58,-62l-266.1 -0.01c-39.74,-0.23 -30.99,-16.57 -30.99,105.93l180.84 0c0,26.13 -10.69,47.06 -21.66,63.59 -32.85,49.48 -99.54,88.83 -166.93,88.83 -76.5,0 -123.74,-26.92 -169.89,-72.95 -62.67,-62.53 -85.32,-173.89 -45.44,-256.05 20.88,-43.02 39.1,-66.57 76.91,-96.17 13.8,-10.8 20.52,-14.44 36.78,-22.64 106.23,-53.55 229.57,-8.3 292.81,86.13 15.48,-10.37 27.52,-23.06 42.11,-35.39l20.99 -17.76c8.35,-6.49 14.07,-10.97 19.57,-19.18 -32.63,-48.72 -95.48,-97.79 -150.17,-118.5 -73.85,-27.98 -150.7,-29.82 -230.53,-6.44 -59.94,17.56 -102.41,49.22 -144.39,90.7 -44.99,44.46 -92.35,134.01 -92.35,215.08z"/>
   <path class="fil0" d="M2812.26 1799.51c0,-206.21 247.33,-314.66 394.61,-167.28 20.25,20.26 35.99,36.99 48.92,64.76 52.42,112.57 9.48,255.72 -107.66,314.39 -76.91,38.52 -173.15,29.45 -241.43,-22.13l-30.5 -26.34c-4.51,-5.17 -8.37,-10.44 -12.63,-15.78 -32.12,-40.16 -51.31,-93.99 -51.31,-147.61zm222.17 341.01c106.1,0 185.55,-31.95 256.4,-102.69 113.29,-113.11 128.13,-307.51 33.69,-432.83 -52.2,-69.27 -114.26,-117.78 -203.33,-137.68 -40.98,-9.15 -74.73,-8.97 -115.02,-6.07 -118.81,8.52 -220.36,92.26 -272.3,195.29 -24.56,48.72 -27.7,84.83 -30.69,139.54 -9.96,182.56 152.98,344.43 331.24,344.43z"/>
   <path class="fil0" d="M381.28 2024.26l-51.67 0 0 -449.51c70.58,0 157.26,5.14 214.46,46.46 95,68.63 112.22,220.27 43.57,312.31l-27.71 31.71c-20.21,15.99 -9.78,9.97 -34.44,24.97 -37.24,22.64 -97.16,34.05 -144.2,34.05zm-167.92 105.92c125.6,0 252.41,11.64 364.26,-46.5 16.03,-8.33 38.15,-22.19 51.05,-34.2 12.55,-11.68 30.35,-28.53 40.51,-42.16 59.72,-80.14 68.61,-129.19 68.61,-231.07 0,-61.44 -27.83,-135.06 -63.97,-178.87 -40.7,-49.34 -81.31,-81 -143.67,-101.75 -99.49,-33.11 -210.89,-24.22 -316.8,-24.22l0 658.76z"/>
   <path class="fil0" d="M1288.06 1670.34c7.3,5.35 9.2,15.17 12.55,23.62l75.29 188.22c-27.26,13.08 -90.73,14.7 -127.77,8.93 -16.28,-2.54 -31.46,-8.63 -45.32,-8.93l64.19 -157.98c6.74,-16.73 16.94,-36.15 21.06,-53.85zm-310.01 459.84l118.83 0c8.14,-16.97 63.86,-146.32 64.59,-155 37.38,8.71 60.78,25.83 129.17,25.83 41.16,0 99.91,-11.72 126.59,-25.83 1.48,17.84 57.87,137.29 62,155l121.42 0c-5.9,-12.3 -11.32,-26.34 -16.98,-39.86l-245.43 -578.68c-4.36,-10.42 -15.81,-33.3 -16.61,-42.81l-56.83 0 -71.62 163.47c-46.84,109.63 -98.68,222.17 -144.28,331.07 -6.37,15.2 -11.94,26.57 -18.1,41.31 -8.19,19.6 -51.8,113.88 -52.76,125.5z"/>
   <polygon class="fil0" points="2300.74,2130.19 2659.83,2130.19 2659.83,2024.26 2409.24,2024.26 2409.24,1822.76 2639.17,1822.76 2639.17,1719.43 2409.24,1719.43 2409.24,1574.76 2659.83,1574.76 2659.83,1471.42 2300.74,1471.42 "/>
   <polygon class="fil0" points="825.63,2130.19 934.13,2130.19 934.13,1471.42 825.63,1471.42 "/>
  </g>
 </g>
</svg>
