<?xml version="1.0" encoding="UTF-8"?>
<svg id="Layer_1" data-name="Layer 1" xmlns="http://www.w3.org/2000/svg" viewBox="0 0 230.5 80">
  <defs>
    <style>
      .cls-1 {
        fill-rule: evenodd;
      }
    </style>
  </defs>
  <g id="Layer_1-2" data-name="Layer_1">
    <g id="_2217828310320" data-name=" 2217828310320">
      <path class="cls-1" d="M99.41,38.66c0,3.45-.15,4.58.85,8.08,2.04,7.15,6.77,12.33,13.29,15.55,2.83,1.4,6,2.13,9.2,2.23h1.48c3.11-.09,6.22-.78,9.03-2.05,7.87-3.53,13.02-10.74,13.02-19.71,0-1.71.15-3.03-.19-4.46h-19.16c-2.86-.02-2.23-1.19-2.23,7.63h13.02c0,1.88-.77,3.39-1.56,4.58-2.37,3.56-7.17,6.4-12.02,6.4-5.51,0-8.91-1.94-12.23-5.25-4.51-4.5-6.14-12.52-3.27-18.44,1.5-3.1,2.82-4.79,5.54-6.92.99-.78,1.48-1.04,2.65-1.63,7.65-3.86,16.53-.6,21.08,6.2,1.11-.75,1.98-1.66,3.03-2.55l1.51-1.28c.6-.47,1.01-.79,1.41-1.38-2.35-3.51-6.87-7.04-10.81-8.53-5.32-2.01-10.85-2.15-16.6-.46-4.32,1.26-7.37,3.54-10.4,6.53-3.24,3.2-6.65,9.65-6.65,15.49h0Z"/>
      <path class="cls-1" d="M188.13,39.96c0-14.85,17.81-22.66,28.41-12.04,1.46,1.46,2.59,2.66,3.52,4.66,3.77,8.11.68,18.41-7.75,22.64-5.54,2.77-12.47,2.12-17.38-1.59l-2.2-1.9c-.32-.37-.6-.75-.91-1.14-2.31-2.89-3.69-6.77-3.69-10.63h0ZM204.13,64.52c7.64,0,13.36-2.3,18.46-7.39,8.16-8.14,9.23-22.14,2.43-31.16-3.76-4.99-8.23-8.48-14.64-9.91-2.95-.66-5.38-.65-8.28-.44-8.55.61-15.87,6.64-19.61,14.06-1.77,3.51-1.99,6.11-2.21,10.05-.72,13.14,11.01,24.8,23.85,24.8h0Z"/>
      <path class="cls-1" d="M13.1,56.15h-3.72V23.78c5.08,0,11.32.37,15.44,3.35,6.84,4.94,8.08,15.86,3.14,22.49l-2,2.28c-1.46,1.15-.7.72-2.48,1.8-2.68,1.63-7,2.45-10.38,2.45h0ZM1.01,63.77c9.04,0,18.17.84,26.23-3.35,1.15-.6,2.75-1.6,3.68-2.46.9-.84,2.19-2.05,2.92-3.04,4.3-5.77,4.94-9.3,4.94-16.64,0-4.42-2-9.72-4.61-12.88-2.93-3.55-5.85-5.83-10.34-7.33-7.16-2.38-15.18-1.74-22.81-1.74v47.43h0Z"/>
      <path class="cls-1" d="M78.39,30.66c.53.39.66,1.09.9,1.7l5.42,13.55c-1.96.94-6.53,1.06-9.2.64-1.17-.18-2.27-.62-3.26-.64l4.62-11.37c.49-1.2,1.22-2.6,1.52-3.88h0ZM56.07,63.77h8.56c.59-1.22,4.6-10.54,4.65-11.16,2.69.63,4.38,1.86,9.3,1.86,2.96,0,7.19-.84,9.11-1.86.11,1.28,4.17,9.88,4.46,11.16h8.74c-.42-.89-.82-1.9-1.22-2.87l-17.67-41.66c-.31-.75-1.14-2.4-1.2-3.08h-4.09l-5.16,11.77c-3.37,7.89-7.1,16-10.39,23.84-.46,1.09-.86,1.91-1.3,2.97-.59,1.41-3.73,8.2-3.8,9.04h0Z"/>
      <polygon class="cls-1" points="151.3 63.77 177.16 63.77 177.16 56.15 159.12 56.15 159.12 41.64 175.67 41.64 175.67 34.2 159.12 34.2 159.12 23.78 177.16 23.78 177.16 16.34 151.3 16.34 151.3 63.77"/>
      <polygon class="cls-1" points="45.1 63.77 52.91 63.77 52.91 16.34 45.1 16.34 45.1 63.77"/>
    </g>
  </g>
</svg>