<?xml version="1.0" encoding="UTF-8"?>
<!DOCTYPE svg PUBLIC "-//W3C//DTD SVG 1.1//EN" "http://www.w3.org/Graphics/SVG/1.1/DTD/svg11.dtd">
<!-- Creator: CorelDRAW (OEM Version) -->
<svg xmlns="http://www.w3.org/2000/svg" xml:space="preserve" width="3.6in" height="3.6in" version="1.1" style="shape-rendering:geometricPrecision; text-rendering:geometricPrecision; image-rendering:optimizeQuality; fill-rule:evenodd; clip-rule:evenodd"
viewBox="0 0 3600 3600"
 xmlns:xlink="http://www.w3.org/1999/xlink"
 xmlns:xodm="http://www.corel.com/coreldraw/odm/2003">
 <defs>
  <style type="text/css">
   <![CDATA[
    .fil0 {fill:#2B2A29;fill-rule:nonzero}
    .fil1 {fill:#F19327;fill-rule:nonzero}
   ]]>
  </style>
 </defs>
 <g id="Layer_x0020_1">
  <metadata id="CorelCorpID_0Corel-Layer"/>
  <g id="_2217731869472">
   <polygon class="fil0" points="155.39,2566.43 1796.74,315.43 2450.68,1206.97 1804.56,1205.93 1703.48,1340.36 2550.72,1345.57 2867.01,1774.66 1388.49,1773.37 1294.17,1908.32 2963.15,1909.88 3444.61,2566.43 "/>
   <path class="fil1" d="M171.22 3275.19l338.85 0 0 -113.47 -203.27 0 0 -91.36 167.08 0 0 -113.47 -167.08 0 0 -80.41 195.45 0 0 -113.47 -331.03 0 0 512.19zm438.02 0l121.29 0 0 -151.22c0,-52.05 -10.94,-131.57 -17.2,-182.94l3.13 0 40.87 123.07 62.99 169.31 72.6 0 62.99 -169.31 42.66 -123.07 3.13 0c-6.26,51.37 -17.42,130.89 -17.42,182.94l0 151.22 123.07 0 0 -512.19 -145.19 0 -73.94 209.52c-9.38,28.37 -17.42,59.86 -26.8,89.79l-3.13 0c-9.61,-29.93 -17.42,-61.43 -26.8,-89.79l-77.29 -209.52 -144.97 0 0 512.19zm611.58 0l200.14 0c110.35,0 201.7,-45.79 201.7,-151.22 0,-67.91 -39.31,-105.65 -88.23,-119.95l0 -3.13c39.31,-15.63 64.56,-66.12 64.56,-110.34 0,-100.74 -86.67,-127.54 -193.67,-127.54l-184.5 0 0 512.19zm135.58 -312.05l0 -96.05 45.57 0c44.22,0 64.78,12.51 64.78,44 0,31.5 -20.55,52.04 -64.78,52.04l-45.57 0zm0 207.96l0 -108.78 55.17 0c53.61,0 78.85,14.3 78.85,52.05 0,37.97 -25.24,56.74 -78.85,56.74l-55.17 0zm282.12 104.09l138.71 0 25.24 -108.78 142.51 0 25.24 108.78 143.4 0 -156.13 -512.19 -163.73 0 -155.24 512.19zm187.4 -213.54l8.71 -35.52c12.73,-48.92 25.24,-110.34 36.19,-162.39l3.35 0c12.51,51.37 25.02,113.47 37.75,162.39l8.71 35.52 -94.71 0zm499.68 222.93c127.54,0 200.14,-77.07 200.14,-163.73 0,-71.03 -36.19,-115.26 -100.07,-140.28l-62.32 -24.57c-46.46,-18.09 -75.72,-26.81 -75.72,-51.15 0,-22.78 20.55,-34.62 53.61,-34.62 37.98,0 67.91,12.51 102.53,37.08l67.68 -85.1c-47.13,-46.69 -111.91,-68.57 -170.21,-68.57 -111.91,0 -190.53,71.7 -190.53,159.04 0,74.16 48.02,120.62 103.2,142.73l63.66 26.81c43.33,17.2 69.46,25.24 69.46,49.59 0,22.79 -17.42,36.19 -58.3,36.19 -37.75,0 -83.54,-20.55 -119.72,-49.59l-77.28 92.92c55.17,49.59 129.1,73.27 193.88,73.27zm428.75 0c127.54,0 200.13,-77.07 200.13,-163.73 0,-71.03 -36.19,-115.26 -100.07,-140.28l-62.32 -24.57c-46.46,-18.09 -75.72,-26.81 -75.72,-51.15 0,-22.78 20.55,-34.62 53.61,-34.62 37.97,0 67.9,12.51 102.52,37.08l67.69 -85.1c-47.13,-46.69 -111.91,-68.57 -170.21,-68.57 -111.91,0 -190.53,71.7 -190.53,159.04 0,74.16 48.02,120.62 103.19,142.73l63.66 26.81c43.33,17.2 69.46,25.24 69.46,49.59 0,22.79 -17.42,36.19 -58.3,36.19 -37.75,0 -83.54,-20.55 -119.72,-49.59l-77.29 92.92c55.17,49.59 129.11,73.27 193.89,73.27zm356.15 -9.38l135.59 0 0 -176.46 154.35 -335.72 -141.84 0 -37.75 107.22c-13.4,38.64 -26.8,73.94 -40.2,114.14l-3.13 0c-13.4,-40.2 -25.91,-75.5 -38.64,-114.14l-37.75 -107.22 -144.96 0 154.35 335.72 0 176.46z"/>
  </g>
 </g>
</svg>
