<?xml version="1.0" encoding="UTF-8"?>
<svg id="Layer_1" data-name="Layer 1" xmlns="http://www.w3.org/2000/svg" viewBox="0 0 86.59 80">
  <defs>
    <style>
      .cls-1 {
        fill: #2b2a29;
      }

      .cls-2 {
        fill: #f19327;
      }
    </style>
  </defs>
  <g id="Layer_1-2" data-name="Layer_1">
    <g id="_2217731869472" data-name=" 2217731869472">
      <polygon class="cls-1" points="1.66 59.4 43.21 2.42 59.76 24.99 43.41 24.96 40.85 28.36 62.3 28.5 70.3 39.36 32.88 39.33 30.49 42.74 72.74 42.78 84.92 59.4 1.66 59.4"/>
      <path class="cls-2" d="M2.06,77.34h8.58v-2.87h-5.15v-2.31h4.23v-2.87h-4.23v-2.04h4.95v-2.87H2.06v12.97h0ZM13.15,77.34h3.07v-3.83c0-1.32-.28-3.33-.44-4.63h.08l1.03,3.12,1.59,4.29h1.84l1.59-4.29,1.08-3.12h.08c-.16,1.3-.44,3.31-.44,4.63v3.83h3.12v-12.97h-3.68l-1.87,5.3c-.24.72-.44,1.52-.68,2.27h-.08c-.24-.76-.44-1.55-.68-2.27l-1.96-5.3h-3.67v12.97h0ZM28.63,77.34h5.07c2.79,0,5.11-1.16,5.11-3.83,0-1.72-1-2.67-2.23-3.04v-.08c1-.4,1.63-1.67,1.63-2.79,0-2.55-2.19-3.23-4.9-3.23h-4.67v12.97h0ZM32.06,69.44v-2.43h1.15c1.12,0,1.64.32,1.64,1.11s-.52,1.32-1.64,1.32h-1.15ZM32.06,74.71v-2.75h1.4c1.36,0,2,.36,2,1.32s-.64,1.44-2,1.44h-1.4ZM39.21,77.34h3.51l.64-2.75h3.61l.64,2.75h3.63l-3.95-12.97h-4.14s-3.93,12.97-3.93,12.97ZM43.95,71.94l.22-.9c.32-1.24.64-2.79.92-4.11h.08c.32,1.3.63,2.87.96,4.11l.22.9s-2.4,0-2.4,0ZM56.6,77.58c3.23,0,5.07-1.95,5.07-4.14,0-1.8-.92-2.92-2.53-3.55l-1.58-.62c-1.18-.46-1.92-.68-1.92-1.29,0-.58.52-.88,1.36-.88.96,0,1.72.32,2.6.94l1.71-2.15c-1.19-1.18-2.83-1.74-4.31-1.74-2.83,0-4.82,1.81-4.82,4.03,0,1.88,1.22,3.05,2.61,3.61l1.61.68c1.1.44,1.76.64,1.76,1.26,0,.58-.44.92-1.48.92-.96,0-2.11-.52-3.03-1.26l-1.96,2.35c1.4,1.26,3.27,1.85,4.91,1.85h0ZM67.45,77.58c3.23,0,5.07-1.95,5.07-4.14,0-1.8-.92-2.92-2.53-3.55l-1.58-.62c-1.18-.46-1.92-.68-1.92-1.29,0-.58.52-.88,1.36-.88.96,0,1.72.32,2.6.94l1.71-2.15c-1.19-1.18-2.83-1.74-4.31-1.74-2.83,0-4.82,1.81-4.82,4.03,0,1.88,1.22,3.05,2.61,3.61l1.61.68c1.1.44,1.76.64,1.76,1.26,0,.58-.44.92-1.48.92-.96,0-2.11-.52-3.03-1.26l-1.96,2.35c1.4,1.26,3.27,1.85,4.91,1.85h0ZM76.47,77.34h3.43v-4.47l3.91-8.5h-3.59l-.96,2.71c-.34.98-.68,1.87-1.02,2.89h-.08c-.34-1.02-.66-1.91-.98-2.89l-.96-2.71h-3.67l3.91,8.5v4.47h0Z"/>
    </g>
  </g>
</svg>