<?xml version="1.0" encoding="UTF-8"?>
<!DOCTYPE svg PUBLIC "-//W3C//DTD SVG 1.1//EN" "http://www.w3.org/Graphics/SVG/1.1/DTD/svg11.dtd">
<!-- Creator: CorelDRAW (OEM Version) -->
<svg xmlns="http://www.w3.org/2000/svg" xml:space="preserve" width="3.6in" height="3.6in" version="1.1" style="shape-rendering:geometricPrecision; text-rendering:geometricPrecision; image-rendering:optimizeQuality; fill-rule:evenodd; clip-rule:evenodd"
viewBox="0 0 3600 3600"
 xmlns:xlink="http://www.w3.org/1999/xlink"
 xmlns:xodm="http://www.corel.com/coreldraw/odm/2003">
 <defs>
  <style type="text/css">
   <![CDATA[
    .fil2 {fill:#046169;fill-rule:nonzero}
    .fil0 {fill:#09C0DE;fill-rule:nonzero}
    .fil1 {fill:#6BBE4A;fill-rule:nonzero}
   ]]>
  </style>
 </defs>
 <g id="Layer_x0020_1">
  <metadata id="CorelCorpID_0Corel-Layer"/>
  <g id="_2217631309168">
   <g>
    <path class="fil0" d="M3085.34 1416.42c-126.28,-97.83 -244.46,-139.76 -289.08,-95.14 -44.87,44.87 -2.7,163.06 95.14,289.08 26.48,-34.08 57.13,-68.9 91.22,-102.98 34.08,-34.09 68.9,-64.49 102.98,-91.22l-0.26 0.26zm0 0l0 0 0 0z"/>
   </g>
   <g>
    <path class="fil0" d="M3085.34 1804.56c126.28,97.83 244.46,139.76 289.08,95.14 44.87,-44.87 2.7,-163.06 -95.14,-289.08 -26.48,34.09 -57.13,68.9 -91.22,102.99 -34.09,34.08 -68.9,64.49 -102.99,91.22l0.26 -0.26zm0 0l0 0 0 0z"/>
   </g>
   <g>
    <path class="fil1" d="M2891.15 1610.61c-97.83,126.03 -139.76,244.46 -95.14,289.08 44.87,44.87 163.06,2.7 289.08,-95.14 -34.09,-26.48 -68.9,-57.13 -102.99,-91.22 -34.08,-34.08 -64.49,-68.9 -91.22,-102.98l0.26 0.26zm0 0l0 0 0 0z"/>
   </g>
   <g>
    <path class="fil1" d="M3374.43 1321.28c-44.87,-44.87 -163.06,-2.7 -289.08,95.14 34.33,26.48 68.9,57.13 102.99,91.22 34.08,34.08 64.49,68.9 91.22,102.98 97.83,-126.28 139.76,-244.46 95.14,-289.08l-0.26 -0.26zm0 0l0 0 0 0z"/>
   </g>
   <path class="fil2" d="M3085.34 1416.42c-34.08,26.48 -68.9,57.13 -102.98,91.22 -34.09,34.08 -64.49,68.9 -91.22,102.98 26.48,34.09 57.13,68.9 91.22,102.99 34.08,34.08 68.9,64.49 102.98,91.22 34.09,-26.49 68.9,-57.13 102.99,-91.22 34.08,-34.09 64.49,-68.9 91.22,-102.99 -26.49,-34.08 -57.13,-68.9 -91.22,-102.98 -34.09,-34.09 -68.9,-64.49 -102.99,-91.22z"/>
   <g>
    <path class="fil2" d="M207.5 2205.69l0 -653.2 525.21 0 -30.9 101.02c-6.62,21.83 -23.54,36.04 -45.11,36.04l-293.25 0.01 0 154.47 315.07 -0.01 -30.9 101.02c-7.11,22.81 -23.54,36.04 -45.11,36.04l-238.82 0.01 0 165.5 369.51 0 -30.9 101.02c-7.11,23.05 -23.54,36.04 -45.11,36.04l-370.98 0c-43.16,0 -77.97,-34.81 -77.97,-77.97l-0.73 0zm0 0l0 0 0 0z"/>
   </g>
   <g>
    <path class="fil2" d="M1480.79 2205.69l0 -653.2 525.21 0 -30.9 101.02c-6.62,21.83 -23.54,36.04 -45.11,36.04l-293.25 0.01 0 154.47 315.07 -0.01 -30.9 101.02c-7.11,22.81 -23.54,36.04 -45.11,36.04l-238.82 0.01 0 165.5 369.51 0 -30.9 101.02c-7.11,23.05 -23.54,36.04 -45.11,36.04l-370.97 0c-43.16,0 -77.98,-34.81 -77.98,-77.97l-0.74 0zm0 0l0 0 0 0z"/>
   </g>
   <g>
    <path class="fil2" d="M1246.87 2245.42l-320.72 -438.65 0 476.9 -155.69 0 0 -731.17 113.03 0c29.67,0 57.37,13.97 75.03,38l310.66 421.49 0 -459.24 155.7 0 0 731.17 -102.74 0c-29.67,0 -57.63,-14.23 -75.28,-38.26l0 -0.24zm0 0l0 0 0 0z"/>
   </g>
   <g>
    <path class="fil2" d="M1997.41 1918.57c0,-224.84 169.93,-378.09 389.12,-378.09 161.09,0 254.26,87.78 305.76,178.74l-93.91 46.1c-21.57,10.54 -47.08,4.17 -62.28,-14.23 -35.07,-42.41 -89.25,-72.58 -149.81,-72.58 -132.65,0 -229.01,102 -229.01,240.05 0,138.04 96.36,240.05 229.01,240.05 60.56,0 114.76,-29.42 149.81,-72.09 15.45,-18.63 40.95,-25.25 62.77,-14.72l93.42 45.11c-52.72,90.97 -144.66,179.73 -305.76,179.73 -219.2,0 -389.12,-153.49 -389.12,-378.09l0 0.02zm0 0l0 0 0 0z"/>
   </g>
  </g>
 </g>
</svg>
