<?xml version="1.0" encoding="UTF-8"?>
<svg id="Layer_1" data-name="Layer 1" xmlns="http://www.w3.org/2000/svg" viewBox="0 0 234.83 80">
  <defs>
    <style>
      .cls-1 {
        fill: #09c0de;
      }

      .cls-2 {
        fill: #046169;
      }

      .cls-3 {
        fill: #6bbe4a;
      }
    </style>
  </defs>
  <g id="Layer_1-2" data-name="Layer_1">
    <g id="_2217631309168" data-name=" 2217631309168">
      <path class="cls-1" d="M209.29,12.38c-9.09-7.04-17.6-10.06-20.81-6.85-3.23,3.23-.19,11.74,6.85,20.81,1.91-2.45,4.11-4.96,6.57-7.41,2.45-2.45,4.96-4.64,7.41-6.57l-.02.02h0ZM209.29,12.38h0Z"/>
      <path class="cls-1" d="M209.29,40.33c9.09,7.04,17.6,10.06,20.81,6.85,3.23-3.23.19-11.74-6.85-20.81-1.91,2.45-4.11,4.96-6.57,7.42-2.45,2.45-4.96,4.64-7.42,6.57l.02-.02h0ZM209.29,40.33h0Z"/>
      <path class="cls-3" d="M195.31,26.36c-7.04,9.07-10.06,17.6-6.85,20.81,3.23,3.23,11.74.19,20.81-6.85-2.45-1.91-4.96-4.11-7.42-6.57-2.45-2.45-4.64-4.96-6.57-7.41l.02.02h0ZM195.31,26.36h0Z"/>
      <path class="cls-3" d="M230.11,5.53c-3.23-3.23-11.74-.19-20.81,6.85,2.47,1.91,4.96,4.11,7.42,6.57,2.45,2.45,4.64,4.96,6.57,7.41,7.04-9.09,10.06-17.6,6.85-20.81l-.02-.02h0ZM230.11,5.53h0Z"/>
      <path class="cls-2" d="M209.29,12.38c-2.45,1.91-4.96,4.11-7.41,6.57-2.45,2.45-4.64,4.96-6.57,7.41,1.91,2.45,4.11,4.96,6.57,7.42,2.45,2.45,4.96,4.64,7.41,6.57,2.45-1.91,4.96-4.11,7.42-6.57,2.45-2.45,4.64-4.96,6.57-7.42-1.91-2.45-4.11-4.96-6.57-7.41-2.45-2.45-4.96-4.64-7.42-6.57Z"/>
      <path class="cls-2" d="M2.09,69.21V22.18h37.82l-2.22,7.27c-.48,1.57-1.69,2.59-3.25,2.59H13.32v11.12h22.69s-2.22,7.27-2.22,7.27c-.51,1.64-1.69,2.59-3.25,2.59H13.33v11.92h26.6l-2.22,7.27c-.51,1.66-1.69,2.59-3.25,2.59H7.75c-3.11,0-5.61-2.51-5.61-5.61h-.05ZM2.09,69.21h0Z"/>
      <path class="cls-2" d="M93.76,69.21V22.18h37.82l-2.22,7.27c-.48,1.57-1.69,2.59-3.25,2.59h-21.11v11.12h22.69s-2.22,7.27-2.22,7.27c-.51,1.64-1.69,2.59-3.25,2.59h-17.2v11.92h26.6l-2.22,7.27c-.51,1.66-1.69,2.59-3.25,2.59h-26.71c-3.11,0-5.61-2.51-5.61-5.61h-.05ZM93.76,69.21h0Z"/>
      <path class="cls-2" d="M76.92,72.07l-23.09-31.58v34.34h-11.21V22.18h8.14c2.14,0,4.13,1.01,5.4,2.74l22.37,30.35V22.2h11.21v52.64h-7.4c-2.14,0-4.15-1.02-5.42-2.75v-.02h0ZM76.92,72.07h0Z"/>
      <path class="cls-2" d="M130.96,48.54c0-16.19,12.23-27.22,28.02-27.22,11.6,0,18.31,6.32,22.01,12.87l-6.76,3.32c-1.55.76-3.39.3-4.48-1.02-2.53-3.05-6.43-5.23-10.79-5.23-9.55,0-16.49,7.34-16.49,17.28s6.94,17.28,16.49,17.28c4.36,0,8.26-2.12,10.79-5.19,1.11-1.34,2.95-1.82,4.52-1.06l6.73,3.25c-3.8,6.55-10.42,12.94-22.01,12.94-15.78,0-28.02-11.05-28.02-27.22h0s0,0,0,0ZM130.96,48.54h0Z"/>
    </g>
  </g>
</svg>