<?xml version="1.0" encoding="UTF-8"?>
<!DOCTYPE svg PUBLIC "-//W3C//DTD SVG 1.1//EN" "http://www.w3.org/Graphics/SVG/1.1/DTD/svg11.dtd">
<!-- Creator: CorelDRAW (OEM Version) -->
<svg xmlns="http://www.w3.org/2000/svg" xml:space="preserve" width="3.6in" height="3.6in" version="1.1" style="shape-rendering:geometricPrecision; text-rendering:geometricPrecision; image-rendering:optimizeQuality; fill-rule:evenodd; clip-rule:evenodd"
viewBox="0 0 3600 3600"
 xmlns:xlink="http://www.w3.org/1999/xlink"
 xmlns:xodm="http://www.corel.com/coreldraw/odm/2003">
 <defs>
  <style type="text/css">
   <![CDATA[
    .str0 {stroke:#2B2A29;stroke-width:97.22;stroke-miterlimit:10}
    .fil1 {fill:none;fill-rule:nonzero}
    .fil2 {fill:#FEFEFE;fill-rule:nonzero}
    .fil0 {fill:#444342;fill-rule:nonzero}
   ]]>
  </style>
 </defs>
 <g id="Layer_x0020_1">
  <metadata id="CorelCorpID_0Corel-Layer"/>
  <g id="_2217508770832">
   <path class="fil0" d="M3363.44 1800c0,863.46 -699.98,1563.45 -1563.45,1563.45 -863.46,0 -1563.44,-699.99 -1563.44,-1563.45 0,-863.46 699.98,-1563.45 1563.44,-1563.45 863.48,0 1563.45,699.98 1563.45,1563.45z"/>
   <path class="fil1 str0" d="M3363.44 1800c0,863.46 -699.98,1563.45 -1563.45,1563.45 -863.46,0 -1563.44,-699.99 -1563.44,-1563.45 0,-863.46 699.98,-1563.45 1563.44,-1563.45 863.48,0 1563.45,699.98 1563.45,1563.45z"/>
   <path class="fil2" d="M865 1803l0 -2.1c0,-208.65 162.52,-379.56 384.82,-379.56 132.11,0 211.8,35.65 288.33,100.66l-101.7 122.68c-56.61,-47.19 -106.95,-74.45 -191.89,-74.45 -117.43,0 -210.75,103.81 -210.75,228.59l0 2.09c0,134.21 92.28,232.78 222.29,232.78 58.72,0 111.14,-14.69 152.04,-44.04l0 -104.86 -162.52 0 0 -139.46 318.75 0 0 318.76c-75.5,63.96 -179.29,116.39 -313.5,116.39 -228.58,0 -385.86,-160.43 -385.86,-377.47z"/>
   <polygon class="fil2" points="1710.1,1605.87 1869.48,1605.87 1869.48,2167.89 1710.1,2167.89 "/>
   <path class="fil2" d="M2003.67 1803l0 -2.1c0,-208.65 162.53,-379.56 384.81,-379.56 132.11,0 211.8,35.65 288.35,100.66l-101.7 122.68c-56.62,-47.19 -106.96,-74.45 -191.89,-74.45 -117.44,0 -210.75,103.81 -210.75,228.59l0 2.09c0,134.21 92.26,232.78 222.28,232.78 58.72,0 111.15,-14.69 152.05,-44.04l0 -104.86 -162.52 0 0 -139.46 318.75 0 0 318.76c-75.5,63.96 -179.3,116.39 -313.51,116.39 -228.59,0 -385.86,-160.43 -385.86,-377.47z"/>
   <path class="fil2" d="M1880.88 1486.55c0,50.31 -40.78,91.09 -91.09,91.09 -50.31,0 -91.1,-40.78 -91.1,-91.09 0,-50.31 40.79,-91.09 91.1,-91.09 50.31,0 91.09,40.78 91.09,91.09z"/>
   <image x="2656.6" y="1386.71" width="91.14" height="91.14" xlink:href="Gig_Images\Gig_ImgID1.png"/>
  </g>
 </g>
</svg>
