<?xml version="1.0" encoding="UTF-8"?>
<svg id="Layer_1" data-name="Layer 1" xmlns="http://www.w3.org/2000/svg" viewBox="0 0 83.59 80">
  <defs>
    <style>
      .cls-1 {
        fill: none;
        stroke: #2b2a29;
        stroke-miterlimit: 10;
        stroke-width: 7px;
      }

      .cls-2 {
        fill: #fefefe;
      }

      .cls-3 {
        fill: #444342;
      }
    </style>
  </defs>
  <path class="cls-3" d="M77.32,40c0,19.62-15.91,35.53-35.53,35.53S6.27,59.62,6.27,40,22.18,4.47,41.8,4.47s35.53,15.91,35.53,35.53Z"/>
  <path class="cls-1" d="M77.32,40c0,19.62-15.91,35.53-35.53,35.53S6.27,59.62,6.27,40,22.18,4.47,41.8,4.47s35.53,15.91,35.53,35.53Z"/>
  <path class="cls-2" d="M20.55,40.07v-.05c0-4.74,3.69-8.62,8.74-8.62,3,0,4.81.81,6.55,2.29l-2.31,2.79c-1.29-1.07-2.43-1.69-4.36-1.69-2.67,0-4.79,2.36-4.79,5.19v.05c0,3.05,2.1,5.29,5.05,5.29,1.33,0,2.53-.33,3.45-1v-2.38h-3.69v-3.17h7.24v7.24c-1.72,1.45-4.07,2.64-7.12,2.64-5.19,0-8.77-3.65-8.77-8.58h0Z"/>
  <polygon class="cls-2" points="39.75 35.59 43.38 35.59 43.38 48.36 39.75 48.36 39.75 35.59"/>
  <path class="cls-2" d="M46.42,40.07v-.05c0-4.74,3.69-8.62,8.74-8.62,3,0,4.81.81,6.55,2.29l-2.31,2.79c-1.29-1.07-2.43-1.69-4.36-1.69-2.67,0-4.79,2.36-4.79,5.19v.05c0,3.05,2.1,5.29,5.05,5.29,1.33,0,2.53-.33,3.46-1v-2.38h-3.69v-3.17h7.24v7.24c-1.72,1.45-4.07,2.64-7.12,2.64-5.19,0-8.77-3.65-8.77-8.58h0Z"/>
  <path class="cls-2" d="M43.63,32.88c0,1.14-.93,2.07-2.07,2.07s-2.07-.93-2.07-2.07.93-2.07,2.07-2.07,2.07.93,2.07,2.07Z"/>
</svg>