<?xml version="1.0" encoding="UTF-8"?>
<svg id="Layer_1" data-name="Layer 1" xmlns="http://www.w3.org/2000/svg" viewBox="0 0 231.75 80">
  <defs>
    <style>
      .cls-1 {
        fill: #356837;
      }
    </style>
  </defs>
  <g id="Layer_1-2" data-name="Layer_1">
    <g id="_2217734764032" data-name=" 2217734764032">
      <path class="cls-1" d="M210.97,57.44c0-6.47-3.21-13.04-11.65-13.04-9.08,0-13.2,7.31-13.2,13.95,0,8.18,5.09,13.3,13.95,13.3,3.53,0,6.78-.53,9.46-1.66l-1.07-5.49c-2.2.74-4.44,1.12-7.21,1.12-3.81,0-7.17-1.61-7.38-4.97h16.83c.11-.59.27-1.82.27-3.21ZM193.81,55.09c.23-2.14,1.61-5.3,5.03-5.3,3.74,0,4.59,3.31,4.59,5.3h-9.62ZM166.29,33.66c-2.62,0-4.33,1.75-4.33,4.06s1.65,4.06,4.22,4.06c2.73,0,4.38-1.82,4.38-4.06-.05-2.31-1.65-4.06-4.27-4.06ZM162.17,44.99v26.13h8.12v-26.13h-8.12ZM147.48,33.17v37.95h8.11v-37.95h-8.11ZM103.44,44.4c-3.63,0-6.36,1.43-7.92,3.69h-.11v-14.92h-8.11v30.14c0,2.94-.11,6.09-.22,7.8h6.9l.31-3.63h.11c1.82,3.1,4.82,4.23,7.86,4.23,5.98,0,11.92-4.72,11.92-14.12.05-8.01-4.5-13.19-10.74-13.19ZM100.34,65.28c-2.35,0-4.23-1.69-4.76-3.85-.11-.42-.17-.9-.17-1.43v-3.85c0-.53.06-1.02.17-1.5.53-2.35,2.56-4,4.76-4,3.78,0,5.6,3.21,5.6,7.27,0,4.7-2.13,7.36-5.6,7.36ZM81.47,44.35c-2.57,0-5.72,1.59-7.06,5.44h-.21l-.32-4.81h-6.95c.17,2.25.21,4.76.21,8.61v17.52h8.12v-13.25c0-.64.06-1.29.17-1.82.53-2.51,2.56-4.1,5.56-4.1.91,0,1.54.1,2.19.21v-7.65c-.59-.11-.97-.15-1.71-.15ZM62.28,57.44c0-6.47-3.21-13.04-11.65-13.04-9.08,0-13.21,7.31-13.21,13.95,0,8.18,5.09,13.29,13.96,13.29,3.52,0,6.78-.52,9.46-1.65l-1.07-5.49c-2.2.74-4.44,1.12-7.21,1.12-3.81,0-7.17-1.61-7.38-4.97h16.83c.1-.59.27-1.82.27-3.21ZM45.12,55.09c.23-2.14,1.6-5.3,5.03-5.3,3.74,0,4.59,3.31,4.59,5.3h-9.62ZM23.96,35.09v13.85h-13.41v-13.85H2.42v36.02h8.13v-15.07h13.41v15.07h8.12v-36.02h-8.12Z"/>
      <path class="cls-1" d="M146.17,67.68h-4.94c-.69,0-1.03-.38-1.19-.78-.02-.68-.03-1.38-.03-2.09v-9.15c0-6.19-2.73-11.31-11.44-11.31-4.75,0-8.33,1.33-10.15,2.35l1.5,5.24c1.7-1.08,4.53-1.99,7.21-1.99,4,0,4.76,1.99,4.76,3.43v.32c-9.26,0-15.34,3.21-15.34,9.99,0,4.17,3.15,8.02,8.45,8.02,3.09,0,5.77-1.12,7.48-3.21h.15l.49,2.62h7.31s5.78-.01,5.78-.01l-.04-3.43ZM132.15,61.6c0,.49-.05.97-.16,1.4-.53,1.65-2.24,2.98-4.22,2.98-1.82,0-3.21-1.02-3.21-3.09,0-3.11,3.31-4.12,7.59-4.12v2.83Z"/>
      <path class="cls-1" d="M195.84,17.79c.12-.36.95-.45,1.7-.57.99-.13,2.06-.13,3.07-.02,3.93.61,5.57,1.69,7.82,4.05,1.45,1.47,2.52,3.11,3.47,4.99,1.09,2.23,2.67,5.7,3.74,7.69.04.09,0,.11-.08.15-1.89.84-7.26,1.59-10.72-1.37-.62-.52-2.86-2.5-4.58-5.5-.62-1.06-1.18-2.33-1.51-3.34-.12-.38-1.07-2.48-1.61-3.41-.39-.72-.67-1.2-1.03-1.78-.14-.24-.36-.62-.29-.84v-.04s.01,0,.01,0Z"/>
      <path class="cls-1" d="M228.96,8.3c.38.03.66.82.95,1.52.36.93.61,1.97.73,2.98.32,3.96-.34,5.81-2.11,8.55-1.09,1.76-2.44,3.17-4.04,4.54-1.92,1.59-4.91,3.93-6.6,5.43-.08.06-.11.03-.16-.04-1.25-1.64-3.24-6.69-1.17-10.74.36-.73,1.76-3.37,4.28-5.74.89-.85,1.99-1.69,2.89-2.25.34-.2,2.16-1.62,2.94-2.36.61-.55,1.01-.94,1.49-1.42.2-.2.52-.5.75-.48h.04s0,0,0,0Z"/>
      <path class="cls-1" d="M227.89,26.95c.38.02.68.8.98,1.5.38.92.65,1.96.8,2.97.4,3.95-.21,5.82-1.93,8.59-1.05,1.78-2.37,3.22-3.94,4.63-1.88,1.63-4.83,4.03-6.49,5.57-.08.06-.11.03-.17-.04-1.29-1.61-3.38-6.62-1.4-10.72.35-.74,1.69-3.4,4.16-5.83.87-.87,1.96-1.73,2.85-2.31.34-.21,2.12-1.67,2.89-2.42.6-.56.99-.96,1.47-1.45.19-.2.51-.51.74-.49h.04s0,0,0,0Z"/>
      <path class="cls-1" d="M176.33,70.89l-.02-23.6h-4.41v-5.67h4.48l-.03-7.36s.12-6.06,5.68-6.03,9.27,0,9.27,0l.03,6.05-8.51.05v7.25l6.89.02v5.25h-7.34l.05,24.25h-6.08l-.02-.22h0Z"/>
    </g>
  </g>
</svg>