<?xml version="1.0" encoding="UTF-8"?>
<!DOCTYPE svg PUBLIC "-//W3C//DTD SVG 1.1//EN" "http://www.w3.org/Graphics/SVG/1.1/DTD/svg11.dtd">
<!-- Creator: CorelDRAW (OEM Version) -->
<svg xmlns="http://www.w3.org/2000/svg" xml:space="preserve" width="3.6in" height="3.6in" version="1.1" style="shape-rendering:geometricPrecision; text-rendering:geometricPrecision; image-rendering:optimizeQuality; fill-rule:evenodd; clip-rule:evenodd"
viewBox="0 0 3600 3600"
 xmlns:xlink="http://www.w3.org/1999/xlink"
 xmlns:xodm="http://www.corel.com/coreldraw/odm/2003">
 <defs>
  <style type="text/css">
   <![CDATA[
    .fil1 {fill:#356837;fill-rule:nonzero}
    .fil0 {fill:#356837;fill-rule:nonzero}
   ]]>
  </style>
 </defs>
 <g id="Layer_x0020_1">
  <metadata id="CorelCorpID_0Corel-Layer"/>
  <g id="_2217734764032">
   <path class="fil0" d="M270.5 1389.12l0 500.28 112.97 0 0 -209.33 186.19 0 0 209.33 112.76 0 0 -500.28 -112.76 0 0 192.29 -186.19 0 0 -192.29 -112.97 0zm827.63 354.91c1.47,-8.2 3.79,-25.24 3.79,-44.6 0,-89.83 -44.6,-181.13 -161.78,-181.13 -126.22,0 -183.45,101.61 -183.45,193.76 0,113.6 70.69,184.71 193.76,184.71 49.02,0 94.25,-7.36 131.48,-22.93l-14.94 -76.37c-30.5,10.31 -61.64,15.57 -100.14,15.57 -52.81,0 -99.51,-22.3 -102.46,-69l233.73 0zm-234.57 -77.21c3.15,-29.67 22.3,-73.63 69.84,-73.63 51.96,0 63.74,46.07 63.74,73.63l-133.59 0zm305.89 222.58l112.76 0 0 -184.08c0,-8.84 0.84,-17.88 2.31,-25.25 7.36,-34.92 35.56,-57.01 77.21,-57.01 12.62,0 21.46,1.47 30.5,2.94l0 -106.24c-8.2,-1.47 -13.46,-2.1 -23.77,-2.1 -35.76,0 -79.52,22.09 -98.04,75.52l-2.94 0 -4.42 -66.69 -96.56 0c2.31,31.14 2.94,66.06 2.94,119.5l0 243.41zm279.89 -108.34c0,40.81 -1.47,84.57 -2.94,108.34l95.72 0 4.42 -50.49 1.47 0c25.24,43.13 66.9,58.7 109.19,58.7 83.1,0 165.57,-65.43 165.57,-196.07 0.63,-111.29 -62.48,-183.24 -149.16,-183.24 -50.49,0 -88.36,19.99 -110.03,51.33l-1.47 0 0 -207.22 -112.76 0 0 418.65zm112.76 -99.51c0,-7.36 0.84,-14.09 2.31,-20.83 7.36,-32.61 35.56,-55.54 66.06,-55.54 52.59,0 77.84,44.6 77.84,100.98 0,65.22 -29.66,102.24 -77.84,102.24 -32.61,0 -58.7,-23.56 -66.06,-53.44 -1.47,-5.89 -2.31,-12.62 -2.31,-19.98l0 -53.44zm633.24 -6.73c0,-86.04 -37.87,-157.15 -158.83,-157.15 -66.06,0 -115.71,18.51 -140.95,32.61l20.83 72.79c23.56,-14.94 62.9,-27.56 100.14,-27.56 55.54,0 66.06,27.56 66.06,47.55l0 4.42c-128.54,0 -213.11,44.6 -213.11,138.85 0,57.85 43.76,111.29 117.39,111.29 42.92,0 80.15,-15.57 103.93,-44.6l2.11 0 6.73 36.39 101.61 0c-4.42,-19.98 -5.89,-53.44 -5.89,-87.52l0 -127.07zm-109.19 82.47c0,6.73 -0.63,13.46 -2.11,19.35 -7.36,22.93 -31.13,41.44 -58.69,41.44 -25.24,0 -44.6,-14.09 -44.6,-42.92 0,-43.13 46.07,-57.22 105.4,-57.22l0 39.34zm199.02 132.12l112.76 0 0 -527 -112.76 0 0 527zm316.83 0l0 -362.9 -112.76 0 0 362.9 112.76 0zm-55.54 -520.26c-36.4,0 -60.17,24.41 -60.17,56.38 0,31.13 22.93,56.38 58.69,56.38 37.87,0 60.8,-25.25 60.8,-56.38 -0.63,-31.98 -22.93,-56.38 -59.32,-56.38zm616.83 374.89c1.47,-8.2 3.78,-25.24 3.78,-44.6 0,-89.83 -44.6,-181.13 -161.78,-181.13 -126.22,0 -183.45,101.61 -183.45,193.76 0,113.6 70.69,184.71 193.76,184.71 49.02,0 94.25,-7.36 131.48,-22.93l-14.94 -76.37c-30.5,10.31 -61.64,15.57 -100.14,15.57 -52.81,0 -99.51,-22.3 -102.46,-69l233.73 0zm-234.57 -77.21c3.15,-29.67 22.3,-73.63 69.84,-73.63 51.96,0 63.74,46.07 63.74,73.63l-133.59 0z"/>
   <path class="fil0" d="M2956.86 1148.85c1.68,-5.04 13.17,-6.24 23.67,-7.85 13.75,-1.81 28.58,-1.83 42.69,-0.21 54.53,8.54 77.41,23.41 108.55,56.23 20.2,20.46 34.94,43.24 48.25,69.31 15.2,31.02 37.08,79.11 51.92,106.79 0.53,1.25 0.02,1.59 -1.09,2.09 -26.24,11.62 -100.9,22.04 -148.89,-19.04 -8.67,-7.28 -39.76,-34.7 -63.57,-76.45 -8.64,-14.75 -16.33,-32.38 -21.01,-46.39 -1.61,-5.3 -14.88,-34.39 -22.36,-47.43 -5.44,-10.05 -9.35,-16.65 -14.3,-24.79 -1.99,-3.31 -5.04,-8.67 -4.01,-11.7l0.17 -0.56z"/>
   <path class="fil0" d="M3416.92 1016.94c5.3,0.46 9.15,11.34 13.17,21.18 4.97,12.94 8.47,27.35 10.19,41.45 4.44,55.02 -4.67,80.74 -29.3,118.7 -15.16,24.41 -33.87,44.07 -56.11,63.1 -26.61,22.03 -68.24,54.55 -91.68,75.46 -1.09,0.8 -1.55,0.39 -2.29,-0.57 -17.43,-22.79 -45.02,-92.95 -16.3,-149.21 5.04,-10.13 24.44,-46.78 59.47,-79.69 12.32,-11.85 27.67,-23.45 40.19,-31.28 4.77,-2.8 29.96,-22.5 40.89,-32.83 8.5,-7.64 14,-12.99 20.76,-19.7 2.74,-2.71 7.24,-6.92 10.44,-6.64l0.57 0.04z"/>
   <path class="fil0" d="M3402.05 1276.01c5.3,0.34 9.38,11.15 13.61,20.89 5.24,12.84 9.04,27.17 11.06,41.22 5.6,54.91 -2.97,80.83 -26.8,119.28 -14.65,24.73 -32.94,44.78 -54.77,64.27 -26.14,22.59 -67.08,55.97 -90.08,77.36 -1.08,0.83 -1.54,0.43 -2.3,-0.52 -17.91,-22.43 -46.96,-91.98 -19.44,-148.84 4.84,-10.24 23.46,-47.28 57.79,-80.92 12.07,-12.11 27.17,-24.03 39.53,-32.12 4.71,-2.89 29.47,-23.13 40.19,-33.68 8.33,-7.81 13.73,-13.28 20.35,-20.13 2.69,-2.77 7.09,-7.07 10.3,-6.86l0.57 0.03z"/>
   <path class="fil0" d="M2686 1886.28l-0.24 -327.78 -61.25 0 0 -78.72 62.21 0 -0.48 -102.16c0,0 1.67,-84.22 78.95,-83.74 77.28,0.48 128.72,0 128.72,0l0.48 83.98 -118.19 0.72 0 100.73 95.7 0.24 0 72.97 -101.93 0 0.72 336.87 -84.46 0 -0.24 -3.11z"/>
   <path class="fil1" d="M2193.44 1773.99l0 44.02c0,0 -1.2,23.69 18.9,23.69l70.34 0 0.67 47.7 -83.85 0 -6.08 -18.51 -5.85 -48.33 5.87 -48.57z"/>
   <polygon class="fil0" points="2604.54,1483.06 2483.78,1483.06 2483.78,1364.81 2604.54,1364.81 "/>
  </g>
 </g>
</svg>
