<?xml version="1.0" encoding="UTF-8"?>
<svg id="Layer_1" data-name="Layer 1" xmlns="http://www.w3.org/2000/svg" viewBox="0 0 210 80">
  <defs>
    <style>
      .cls-1 {
        fill: #297bc8;
        fill-rule: evenodd;
      }
    </style>
  </defs>
  <g id="Layer_1-2" data-name="Layer_1">
    <g id="_2217647053408" data-name=" 2217647053408">
      <path class="cls-1" d="M77.74,42.73c0-3.27.21-5.56,1.19-8.45,1.29-3.84,3.47-7.35,6.83-9.59,5.14-3.43,11.13-2.43,15.41,1.86,3.65,3.65,5.92,9.66,5.92,14.84,0,3.48-.12,5.56-1.19,8.75-.77,2.3-1.42,3.58-2.7,5.52l-1.33,1.66c-.45.45-.83.96-1.54,1.52-2.43,1.9-4.49,2.94-8.11,2.94-3.31,0-6.5-1.91-8.57-3.98-3.72-3.71-5.92-9.86-5.92-15.06h0ZM59,18.09h-5.82v4.33h5.75v41.74h6.57V22.42h14.41c-.21.31-.6.59-.88.84-.2.17-.29.21-.49.41-7.2,7.24-9.47,18.23-5.58,28.02.55,1.39,1.2,2.66,1.96,3.87,1.38,2.18,2.12,3,3.92,4.81,1.41,1.42,3.32,2.72,5.14,3.59.34.16.65.3.99.43,1.06.44,2.17.85,3.31,1.09,3.12.66,6.82.79,9.96-.23,1.38-.45,2.67-.9,3.91-1.62,1.43-.83,2.85-1.69,4.02-2.85.7-.7,1.44-1.32,2.06-2.12.21-.27.39-.46.61-.74.22-.28.38-.46.59-.76,2.11-3.06,3.37-5.89,4.24-9.57.66-2.77.76-6.35.35-9.26-.04-.25-.12-.65-.14-.91.89,1.02.96,1.39,2.26,2.44.47.38.88.68,1.38,1.01l1.5.88c.5.29,1.04.55,1.57.82l6.6,2.95c1.11.46,2.16,1,3.2,1.58.27.15.48.29.75.45,2.24,1.33,4.53,3.32,4.53,6.22,0,2.68-1.04,4.49-2.81,5.71-.89.61-1.6.95-2.71,1.32-1.6.54-3.31.59-5.09.59-2.68,0-5.59-1.09-7.34-2.07-1.83-1.03-3.58-2.28-5.11-3.7-.15-.14-.15-.17-.32-.28v7.77l1.72.9c5.33,2.59,14.18,2.4,19.44-.12,4.67-2.24,7.81-5.74,7.81-12.12,0-1.94-.43-3.25-1.04-4.56-.29-.64-.66-1.19-1.05-1.71-1.46-1.9-3.42-3.12-5.44-4.34-1.81-1.09-4.68-2.21-6.66-3.2-2.37-1.19-7.16-3.04-8.44-5.52-.39-.77-.52-1.98-.52-2.99,0-7.87,10.62-8.96,15.22-5.96.78.51,1.25,1.1,1.78,1.88,1.02,1.52,4.67,10.5,5.55,12.74l2.16,5.16c1.23,2.99,2.43,6.06,3.75,9.02.44.98,2.69,6.26,2.69,6.5,0,.33-.81,1.96-.98,2.38l-.76,1.7c-1.12,2.41-3.67,8.04-4.69,9.72l-.58,1.06c-.2.38-.39.73-.6,1.12-.11.2-.2.32-.3.52l-.89,1.72h6.42c.03-.32.39-.99.51-1.28.18-.44.37-.81.54-1.25l1.09-2.57c1.09-2.52,2.2-5.06,3.21-7.62l4.26-10.23c.18-.46.34-.81.52-1.27,1.2-3.01,2.51-5.97,3.71-8.98.18-.46.33-.81.52-1.27.19-.46.35-.86.55-1.32.37-.85.72-1.71,1.06-2.53.24-.6.92-2.02,1.05-2.6l.39.81c1.47,3.08,4.47,4.71,7.4,6.19,2.23,1.12,4.61,1.98,6.87,3.06,1.77.85,3.57,1.74,5,3.07l.94.93c1.25,1.43,1.51,2.47,1.51,4.46,0,2.2-1.34,4.03-3,5.14-3.07,2.04-8.02,2.28-11.62,1.13-3.22-1.03-5.72-2.79-8.27-4.94-.51-.43-.9-.89-1.44-1.25v7.91c.28.08.87.59,1.16.78.22.15.39.22.61.36.22.13.39.22.64.33,2.2,1.02,4.5,1.44,6.95,1.79.89.13,1.94.1,2.81.18.42.04.54-.05.89-.07,1.11-.06,1.41,0,2.73-.18,4.03-.56,7.95-1.92,10.84-4.84,1.73-1.75,2.75-4.16,3.1-6.61.03-.19.09-.65.12-.85.14-1.28.02-3.24-.33-4.42-.87-2.89-2.75-4.94-5.19-6.6-1.57-1.07-3.29-1.98-5.04-2.72l-2.68-1.2c-1.79-.9-6.28-2.92-7.62-4.18l-.52-.45c-.49-.49-.88-1.11-1.11-1.8-.32-.96-.38-2.36-.21-3.52.52-3.49,2.62-5.19,5.66-6.06.52-.15,1.06-.21,1.64-.3.37-.05,1.57-.12,1.88-.07.58.09,1.22.06,1.8.14.46.06,1.15.19,1.61.33,1.12.33,1.9.62,2.86,1.1,2.2,1.1,3.83,2.52,4.8,3.04v-6.94c-1.66-.39-2.08-.77-4.44-1.16-6.82-1.14-16.32-.18-19.95,5.75-.77,1.25-1.18,2.65-1.73,4.02l-9.55,24.05c-.08.23-.05.19-.18.34-.67-2.85-1.94-5.48-3.02-8.18-2.13-5.33-4.42-10.6-6.54-15.94l-3.25-7.95c-.11-.27-.17-.38-.26-.63-.14-.37-.09-.35-.51-.46-4.94-1.3-9.51-2.01-14.8-1.28-2.74.38-5.62,1.33-7.81,2.79-1.47.98-2.52,2.05-3.46,3.55-.39.62-.84,1.66-1.05,2.46-.22.86-.43,2.06-.43,3.15,0,.48.07.67.07,1.19l-.08-.14c-.04-.08-.05-.1-.1-.2-.45-.93-.87-1.81-1.41-2.7-.59-.97-1.2-1.85-1.9-2.73l-1.61-1.83c-.95-.95-2.11-1.86-3.19-2.63-1.88-1.34-4.12-2.32-6.37-2.88-1.29-.32-2.53-.53-4.08-.55-.4,0-.6-.11-1.01-.05-.41.06-.74.01-1.15.05-.68.06-1.38.22-2.09.22h-23.82c0-.58-.15-1.09-.15-1.79,0-1.4.08-2.51.49-3.76.89-2.7,3.18-4.08,6-4.08,3.22,0,5.79.6,8.12,2.33.64.47,1.52,1.46,2.04,1.47,0-.62.07-.94.07-1.57v-4.93c0-.29-.48-.36-.68-.44-2.92-1.08-9.07-1.35-12.13-.58-1.06.27-2.1.62-3.02,1.16l-2.89,2.11c-.18.18-.21.29-.41.49-2,2-3.79,6.59-3.79,9.57h0Z"/>
      <path class="cls-1" d="M25.4,24.06l-.07-5.6h-6.35v45.69h6.5V31.38c0-3.72,3.25-6.2,6.27-7.69,3.3-1.63,7.64-1.17,10.54.96,2.01,1.48,3.5,3.86,3.5,6.51v33h6.5V28.46c0-2.11-1.48-4.48-2.71-5.95-.29-.35-1.12-1.18-1.46-1.45-4.03-3.24-8-3.72-13.12-2.79-1.53.27-2.68.68-3.94,1.22-1.07.46-2.56,1.47-3.43,2.24-.48.42-1.62,1.52-1.93,1.95-.16.22-.07.22-.29.38h0Z"/>
      <polygon class="cls-1" points="4.72 64.15 11.96 64.15 11.96 4.5 4.72 4.5 4.72 64.15"/>
      <path class="cls-1" d="M199.22,14.2c-.86,0-1.45-.14-2.11-.43-.67-.29-.98-.57-1.47-.99-.8-.69-1.57-2.19-1.57-3.36,0-1.68.24-2.75,1.44-3.94,1.63-1.61,3.93-2,6-.96,1.81.9,2.79,2.63,2.79,4.68,0,2.66-2.4,5-5.08,5h0ZM198.7,3h.83c1.14.08,2.25.48,3.23,1.16l1.46,1.52c3.65,5.57-2.91,12.09-8.47,8.39-.9-.6-1.58-1.46-2.06-2.42-.48-.95-.6-1.67-.6-2.84,0-1.64.9-3.18,1.74-4.01.56-.56.97-.85,1.7-1.21.7-.35,1.43-.54,2.17-.6Z"/>
      <path class="cls-1" d="M199.52,8.46h-1.42v-1.64c.75,0,2.31-.19,2.31.82,0,.15-.15.49-.24.58-.15.17-.35.24-.66.24h0ZM196.91,12.11h1.19v-2.54c1.47,0,1.23-.27,1.75,1.17.13.36.47,1.06.49,1.37h1.42l-1.19-2.76c1.09-.58,1.05-.82,1.05-1.94,0-2.13-3.24-1.72-4.7-1.72v6.42h0Z"/>
    </g>
  </g>
</svg>