<?xml version="1.0" encoding="UTF-8"?>
<!DOCTYPE svg PUBLIC "-//W3C//DTD SVG 1.1//EN" "http://www.w3.org/Graphics/SVG/1.1/DTD/svg11.dtd">
<!-- Creator: CorelDRAW (OEM Version) -->
<svg xmlns="http://www.w3.org/2000/svg" xml:space="preserve" width="3.6in" height="3.6in" version="1.1" style="shape-rendering:geometricPrecision; text-rendering:geometricPrecision; image-rendering:optimizeQuality; fill-rule:evenodd; clip-rule:evenodd"
viewBox="0 0 3600 3600"
 xmlns:xlink="http://www.w3.org/1999/xlink"
 xmlns:xodm="http://www.corel.com/coreldraw/odm/2003">
 <defs>
  <style type="text/css">
   <![CDATA[
    .fil0 {fill:#297BC8}
   ]]>
  </style>
 </defs>
 <g id="Layer_x0020_1">
  <metadata id="CorelCorpID_0Corel-Layer"/>
  <g id="_2217647053408">
   <path class="fil0" d="M1421.42 1837.85c0,-45.48 2.98,-77.16 16.46,-117.32 17.88,-53.32 48.22,-102.08 94.92,-133.22 71.35,-47.57 154.52,-33.7 213.98,25.77 50.67,50.67 82.18,134.19 82.18,206.11 0,48.34 -1.7,77.16 -16.46,121.46 -10.67,32 -19.7,49.78 -37.46,76.61l-18.43 23.06c-6.23,6.22 -11.53,13.37 -21.42,21.1 -33.8,26.43 -62.41,40.88 -112.6,40.88 -45.95,0 -90.22,-26.52 -119,-55.22 -51.6,-51.47 -82.19,-136.98 -82.19,-209.22zm-260.29 -342.21l-80.89 0 0 60.15 79.85 0 0 579.68 91.26 0 0 -579.68 200.14 0c-2.85,4.26 -8.31,8.23 -12.19,11.66 -2.72,2.4 -3.98,2.92 -6.75,5.69 -99.98,100.5 -131.57,253.25 -77.5,389.15 7.67,19.28 16.62,37 27.16,53.72 19.11,30.33 29.49,41.67 54.5,66.83 19.62,19.73 46.07,37.82 71.45,49.88 4.66,2.21 9.08,4.11 13.69,6.01 14.77,6.05 30.2,11.81 46.04,15.15 43.3,9.13 94.69,11.04 138.31,-3.24 19.19,-6.28 37.05,-12.48 54.26,-22.47 19.8,-11.49 39.65,-23.52 55.81,-39.6 9.77,-9.73 20.02,-18.31 28.68,-29.39 2.9,-3.72 5.46,-6.43 8.44,-10.22 3.06,-3.9 5.3,-6.43 8.13,-10.54 29.24,-42.5 46.78,-81.76 58.9,-132.95 9.11,-38.51 10.56,-88.16 4.8,-128.61 -0.49,-3.43 -1.6,-9.06 -1.89,-12.62 12.31,14.17 13.32,19.24 31.43,33.89 6.46,5.22 12.24,9.38 19.17,14.02l20.9 12.28c7.01,4.05 14.38,7.64 21.82,11.36l91.7 41.04c15.42,6.4 30.04,13.9 44.48,21.88 3.8,2.1 6.6,3.98 10.37,6.23 31.07,18.53 62.93,46.17 62.93,86.4 0,37.19 -14.48,62.31 -38.98,79.24 -12.35,8.53 -22.17,13.21 -37.62,18.38 -22.23,7.44 -46,8.16 -70.65,8.16 -37.16,0 -77.7,-15.13 -101.96,-28.7 -25.47,-14.24 -49.69,-31.63 -70.96,-51.41 -2.03,-1.89 -2.15,-2.38 -4.41,-3.89l0 107.85 23.85 12.44c74.05,35.91 196.97,33.34 269.98,-1.72 64.92,-31.17 108.53,-79.75 108.53,-168.35 0,-26.88 -6.02,-45.15 -14.39,-63.39 -4.04,-8.82 -9.12,-16.55 -14.64,-23.74 -20.23,-26.33 -47.51,-43.37 -75.51,-60.33 -25.07,-15.19 -65,-30.64 -92.5,-44.39 -32.92,-16.46 -99.49,-42.16 -117.21,-76.7 -5.46,-10.63 -7.23,-27.47 -7.23,-41.51 0,-109.28 147.52,-124.46 211.36,-82.78 10.89,7.11 17.37,15.29 24.67,26.15 14.21,21.16 64.88,145.83 77.15,176.92l29.94 71.69c17.04,41.57 33.79,84.11 52.02,125.31 6.05,13.68 37.3,86.91 37.3,90.25 0,4.54 -11.28,27.26 -13.63,33.04l-10.57 23.65c-15.5,33.43 -50.98,111.61 -65.19,134.95l-8.1 14.71c-2.72,5.27 -5.48,10.19 -8.28,15.57 -1.46,2.79 -2.72,4.44 -4.18,7.23l-12.43 23.86 89.18 0c0.37,-4.45 5.47,-13.77 7.11,-17.77 2.52,-6.15 5.07,-11.29 7.55,-17.33l15.12 -35.7c15.08,-34.96 30.56,-70.28 44.59,-105.78l59.11 -142.07c2.52,-6.36 4.7,-11.21 7.26,-17.63 16.63,-41.78 34.86,-82.85 51.55,-124.74 2.56,-6.41 4.56,-11.23 7.26,-17.63 2.7,-6.43 4.8,-11.96 7.57,-18.36 5.09,-11.79 10,-23.69 14.67,-35.1 3.4,-8.3 12.77,-28.08 14.65,-36.16l5.37 11.21c20.41,42.84 62.06,65.37 102.82,85.92 30.96,15.6 64.04,27.44 95.42,42.5 24.57,11.79 49.61,24.23 69.39,42.62l12.99 12.93c17.35,19.88 20.97,34.36 20.97,61.99 0,30.6 -18.61,55.97 -41.68,71.35 -42.57,28.39 -111.41,31.67 -161.45,15.64 -44.75,-14.33 -79.38,-38.74 -114.93,-68.63 -7.02,-5.91 -12.5,-12.3 -20.01,-17.32l0 109.92c3.93,1.05 12.11,8.13 16.16,10.8 3.12,2.06 5.42,3.07 8.53,4.95 2.99,1.81 5.48,3.09 8.83,4.64 30.52,14.13 62.56,20.02 96.53,24.81 12.35,1.74 26.99,1.42 39.06,2.47 5.85,0.51 7.54,-0.75 12.36,-1.01 15.42,-0.83 19.59,0.04 37.94,-2.5 56.04,-7.74 110.48,-26.72 150.56,-67.22 24.06,-24.31 38.21,-57.76 43.07,-91.74 0.38,-2.68 1.3,-8.98 1.61,-11.87 1.91,-17.74 0.28,-44.97 -4.65,-61.42 -12.02,-40.12 -38.2,-68.67 -72.13,-91.71 -21.81,-14.81 -45.76,-27.47 -70.02,-37.83l-37.29 -16.64c-24.83,-12.52 -87.16,-40.5 -105.86,-57.99l-7.28 -6.19c-6.85,-6.84 -12.26,-15.45 -15.43,-25.02 -4.42,-13.29 -5.31,-32.75 -2.91,-48.85 7.24,-48.45 36.35,-72.07 78.68,-84.13 7.28,-2.07 14.68,-2.98 22.8,-4.17 5.13,-0.74 21.75,-1.69 26.11,-1.02 8,1.24 16.88,0.9 25.05,1.92 6.33,0.8 16,2.65 22.43,4.53 15.59,4.57 26.37,8.56 39.72,15.24 30.54,15.27 53.16,35 66.72,42.17l0 -96.44c-23.05,-5.37 -28.88,-10.67 -61.63,-16.15 -94.76,-15.84 -226.63,-2.54 -277.04,79.84 -10.63,17.37 -16.35,36.78 -23.99,55.86l-132.6 334.06c-1.11,3.14 -0.7,2.66 -2.51,4.75 -9.24,-39.65 -26.99,-76.14 -41.93,-113.62 -29.54,-74.08 -61.33,-147.17 -90.81,-221.33l-45.17 -110.37c-1.5,-3.76 -2.3,-5.22 -3.67,-8.78 -2.01,-5.2 -1.29,-4.85 -7.1,-6.38 -68.55,-18.08 -132.04,-27.89 -205.56,-17.76 -38.05,5.24 -78.04,18.42 -108.5,38.76 -20.35,13.59 -35.02,28.48 -48.12,49.35 -5.44,8.68 -11.67,22.99 -14.52,34.21 -3.04,11.93 -6,28.55 -6,43.78 0,6.68 1.04,9.34 1.04,16.59l-1.11 -2c-0.54,-1.07 -0.66,-1.42 -1.33,-2.82 -6.2,-12.98 -12.02,-25.07 -19.53,-37.51 -8.16,-13.52 -16.69,-25.76 -26.44,-37.85l-22.35 -25.35c-13.2,-13.2 -29.25,-25.78 -44.35,-36.54 -26.12,-18.59 -57.26,-32.22 -88.54,-40.04 -17.86,-4.46 -35.17,-7.36 -56.67,-7.62 -5.56,-0.07 -8.35,-1.55 -14.02,-0.67 -5.76,0.89 -10.21,0.2 -15.96,0.68 -9.46,0.77 -19.18,3.06 -29.09,3.06l-330.81 0c0,-8.09 -2.07,-15.2 -2.07,-24.89 0,-19.39 1.11,-34.89 6.86,-52.25 12.39,-37.45 44.16,-56.64 83.35,-56.64 44.73,0 80.35,8.33 112.75,32.43 8.87,6.59 21.18,20.3 28.28,20.46 0,-8.58 1.04,-13 1.04,-21.78l0 -68.44c0,-4.02 -6.61,-5.02 -9.48,-6.07 -40.59,-14.98 -125.96,-18.71 -168.48,-8.04 -14.71,3.69 -29.11,8.68 -41.94,16.13l-40.16 29.32c-2.44,2.44 -2.93,4.05 -5.66,6.78 -27.75,27.73 -52.65,91.46 -52.65,132.98z"/>
   <path class="fil0" d="M694.48 1578.6l-1.04 -77.78 -88.15 0 0 634.65 90.22 0 0 -455.24c0,-51.63 45.13,-86.13 87.09,-106.83 45.8,-22.59 106.12,-16.22 146.39,13.33 27.97,20.53 48.58,53.67 48.58,90.38l0 458.35 90.22 0 0 -495.69c0,-29.35 -20.5,-62.27 -37.63,-82.66 -4.07,-4.84 -15.52,-16.33 -20.28,-20.16 -55.96,-45.06 -111.1,-51.6 -182.23,-38.81 -21.24,3.81 -37.24,9.43 -54.66,16.89 -14.92,6.39 -35.52,20.43 -47.65,31.16 -6.63,5.86 -22.56,21.16 -26.87,27.06 -2.24,3.07 -0.91,3.09 -3.99,5.34z"/>
   <polygon class="fil0" points="407.23,2135.47 507.82,2135.47 507.82,1306.91 407.23,1306.91 "/>
   <path class="fil0" d="M3108.63 1441.71c-11.9,0 -20.1,-1.91 -29.34,-5.91 -9.26,-4.02 -13.63,-7.88 -20.43,-13.8 -11.09,-9.65 -21.79,-30.39 -21.79,-46.66 0,-23.33 3.35,-38.24 19.96,-54.7 22.57,-22.38 54.57,-27.78 83.4,-13.4 25.18,12.56 38.71,36.5 38.71,64.99 0,36.99 -33.34,69.48 -70.52,69.48zm-7.22 -155.55l11.5 0c15.78,1.11 31.3,6.72 44.89,16.15l20.32 21.16c50.7,77.31 -40.36,167.85 -117.62,116.58 -12.46,-8.27 -21.92,-20.27 -28.62,-33.6 -6.67,-13.25 -8.29,-23.15 -8.29,-39.41 0,-22.81 12.44,-44.15 24.11,-55.74 7.83,-7.78 13.43,-11.74 23.59,-16.85 9.67,-4.86 19.86,-7.56 30.12,-8.29z"/>
   <path class="fil0" d="M3112.77 1361.87l-19.7 0 0 -22.81c10.41,0 32.15,-2.68 32.15,11.41 0,2.02 -2.13,6.75 -3.31,8.09 -2.09,2.38 -4.91,3.32 -9.13,3.32zm-36.29 50.81l16.59 0 0 -35.26c20.41,0 17.14,-3.79 24.24,16.2 1.76,4.97 6.51,14.73 6.87,19.05l19.7 0 -16.59 -38.37c15.13,-8 14.52,-11.38 14.52,-26.96 0,-29.65 -45,-23.85 -65.33,-23.85l0 89.18z"/>
  </g>
 </g>
</svg>
