<?xml version="1.0" encoding="UTF-8"?>
<svg id="Layer_1" data-name="Layer 1" xmlns="http://www.w3.org/2000/svg" viewBox="0 0 236.95 80">
  <defs>
    <style>
      .cls-1 {
        fill: #e32124;
      }

      .cls-2 {
        fill: #2b2a29;
      }
    </style>
  </defs>
  <g id="Layer_1-2" data-name="Layer_1">
    <g id="_2217773413440" data-name=" 2217773413440">
      <path class="cls-2" d="M3.45,52.63h5v-8.64l-.12-4.45c2.72,1.89,5.53,2.98,8.25,2.98,6.76,0,12.77-5.08,12.77-13.76,0-7.87-4.07-12.94-11.74-12.94-3.39,0-6.74,1.68-9.43,3.62h-.17l-.43-2.94H3.45v36.13h0ZM15.67,38.96c-1.95,0-4.5-.73-7.17-2.66v-13.36c2.86-2.3,5.36-3.5,7.84-3.5,5.6,0,7.84,3.77,7.84,9.37,0,6.28-3.58,10.05-8.44,10.05l-.07.1h0ZM56.23,42.52c4.02,0,7.19-1.2,9.79-2.67l-1.76-2.82c-2.19,1.26-4.5,2.03-7.36,2.03-5.65,0-9.48-3.5-9.84-8.89h19.87c.12-.64.19-1.53.19-2.42,0-7.27-4.26-11.94-11.81-11.94-6.81,0-13.3,5.08-13.3,13.36s6.26,13.35,14.17,13.35c0,0,.05,0,.05,0ZM46.94,27.13c.6-5.03,4.31-7.91,8.44-7.91,4.62,0,7.29,2.78,7.29,7.87l-15.73.04h0ZM81.47,41.9h5v-16.34c2-4.29,4.98-5.86,7.46-5.86,1.17,0,1.83.16,2.86.42l.91-3.77c-.91-.36-1.83-.52-3.15-.52-3.34,0-6.39,2.05-8.46,5.28h-.17l-.43-4.66h-4.14l.12,25.46h0ZM120.77,42.52c3.52,0,6.86-1.2,9.53-3.24l-2.19-2.88c-1.81,1.41-4.19,2.55-6.86,2.55-5.41,0-9.12-3.92-9.12-9.74s3.95-9.78,9.29-9.78c2.31,0,4.14.89,5.84,2.24l2.55-2.82c-2.07-1.63-4.74-2.98-8.63-2.98-7.53,0-14.22,4.87-14.22,13.35s6.01,13.3,13.86,13.3h-.05ZM154.57,42.52c4.02,0,7.19-1.2,9.79-2.67l-1.76-2.82c-2.19,1.26-4.5,2.03-7.36,2.03-5.65,0-9.48-3.5-9.84-8.89h19.87c.12-.64.19-1.53.19-2.42,0-7.27-4.26-11.94-11.81-11.94-6.81,0-13.3,5.08-13.3,13.36s6.26,13.35,14.17,13.35c0,0,.05,0,.05,0ZM145.28,27.13c.6-5.03,4.31-7.91,8.44-7.91,4.62,0,7.29,2.78,7.29,7.87l-15.73.04h0ZM179.81,52.63h5v-8.64l-.12-4.45c2.72,1.89,5.53,2.98,8.25,2.98,6.76,0,12.77-5.08,12.77-13.76,0-7.87-4.07-12.94-11.74-12.94-3.39,0-6.74,1.68-9.43,3.62h-.17l-.43-2.94h-4.14v36.13h0ZM192.03,38.96c-1.95,0-4.5-.73-7.17-2.66v-13.36c2.86-2.3,5.36-3.5,7.84-3.5,5.6,0,7.84,3.77,7.84,9.37,0,6.28-3.58,10.05-8.44,10.05l-.07.1h0ZM228.88,42.52c1.83,0,3.83-.46,5.48-.94l-.98-3.25c-.97.37-2.31.73-3.34.73-3.39,0-4.57-1.77-4.57-4.87v-14.13h8.03v-3.5h-8.03v-7.13h-4.19l-.6,7.13-4.62.25v3.25h4.38v14.09c0,5.08,2.12,8.54,8.39,8.54l.05-.16h0Z"/>
      <path class="cls-2" d="M143.72,70.53c.99,0,1.73-.4,2.33-1.1l-.53-.6c-.49.53-1.04.85-1.78.85-1.44,0-2.36-1.2-2.36-3.11s.95-3.09,2.39-3.09c.64,0,1.14.29,1.54.72l.54-.63c-.44-.49-1.16-.94-2.09-.94-1.94,0-3.39,1.5-3.39,3.96s1.43,3.94,3.32,3.94h.02s0,0,0,0ZM150.15,70.53c1.38,0,2.61-1.08,2.61-2.95s-1.23-2.96-2.61-2.96-2.61,1.08-2.61,2.96,1.23,2.95,2.61,2.95ZM150.15,69.74c-.97,0-1.64-.87-1.64-2.16s.66-2.17,1.64-2.17,1.64.88,1.64,2.17-.66,2.16-1.64,2.16ZM154.83,70.4h.95v-4.09c.52-.58.98-.87,1.4-.87.72,0,1.06.45,1.06,1.51v3.45h.95v-4.09c.52-.58.97-.87,1.42-.87.72,0,1.06.45,1.06,1.51v3.45h.95v-3.58c0-1.44-.56-2.21-1.72-2.21-.68,0-1.28.44-1.86,1.08-.23-.66-.7-1.08-1.56-1.08-.67,0-1.26.43-1.77.96h-.04l-.08-.81h-.79v5.65h.01s0-.01,0-.01ZM165.03,70.4h.95v-4.09c.52-.58.98-.87,1.4-.87.72,0,1.06.45,1.06,1.51v3.45h.95v-4.09c.52-.58.97-.87,1.42-.87.72,0,1.06.45,1.06,1.51v3.45h.95v-3.58c0-1.44-.56-2.21-1.72-2.21-.68,0-1.28.44-1.86,1.08-.23-.66-.7-1.08-1.56-1.08-.67,0-1.26.43-1.76.96h-.04l-.08-.81h-.79v5.65h.01s0-.01,0-.01ZM176.87,70.53c.78,0,1.35-.4,1.87-1.02h.04l.08.88h.79v-5.65h-.95v4.01c-.53.66-.93.95-1.51.95-.74,0-1.06-.45-1.06-1.51v-3.45h-.95v3.58c0,1.44.53,2.21,1.72,2.21h-.02ZM182.11,70.4h.95v-4.09c.57-.57.96-.86,1.54-.86.74,0,1.06.45,1.06,1.51v3.45h.95v-3.58c0-1.44-.53-2.21-1.72-2.21-.78,0-1.36.43-1.89.96h-.04l-.08-.81h-.79v5.62s.01,0,.01,0ZM189.04,70.4h.95v-5.65h-.95v5.65ZM189.52,63.59c.37,0,.67-.26.67-.62s-.29-.62-.67-.62-.66.24-.66.62.29.62.66.62ZM194.71,70.53c.67,0,1.31-.27,1.82-.72l-.42-.64c-.35.31-.8.57-1.31.57-1.03,0-1.74-.87-1.74-2.16s.75-2.17,1.77-2.17c.44,0,.79.2,1.12.5l.49-.63c-.4-.36-.91-.66-1.65-.66-1.44,0-2.72,1.08-2.72,2.96s1.15,2.95,2.65,2.95h-.01ZM199.53,70.53c.7,0,1.33-.37,1.86-.82h.03l.08.67h.79v-3.46c0-1.41-.58-2.32-1.96-2.32-.91,0-1.7.39-2.22.73l.37.65c.44-.29,1.03-.6,1.68-.6.92,0,1.16.7,1.16,1.43-2.4.27-3.46.88-3.46,2.11,0,1.02.71,1.61,1.65,1.61h.01,0ZM199.78,69.77c-.56,0-.99-.25-.99-.89,0-.72.64-1.19,2.53-1.42v1.57c-.55.47-1,.74-1.54.74h0ZM206.28,70.53c.35,0,.73-.1,1.05-.21l-.19-.72c-.18.08-.44.16-.64.16-.65,0-.87-.39-.87-1.08v-3.13h1.53v-.78h-1.53v-1.58h-.8l-.12,1.58-.88.06v.72h.84v3.12c0,1.13.41,1.89,1.6,1.89v-.04s.01,0,.01,0ZM209,70.4h.95v-5.65h-.95v5.65ZM209.49,63.59c.37,0,.67-.26.67-.62s-.29-.62-.67-.62-.66.24-.66.62.29.62.66.62ZM214.64,70.53c1.38,0,2.61-1.08,2.61-2.95s-1.23-2.96-2.61-2.96-2.61,1.08-2.61,2.96,1.23,2.95,2.61,2.95ZM214.64,69.74c-.97,0-1.64-.87-1.64-2.16s.66-2.17,1.64-2.17,1.64.88,1.64,2.17-.66,2.16-1.64,2.16ZM219.32,70.4h.95v-4.09c.57-.57.96-.86,1.54-.86.74,0,1.06.45,1.06,1.51v3.45h.95v-3.58c0-1.44-.53-2.21-1.72-2.21-.78,0-1.36.43-1.89.96h-.04l-.08-.81h-.79v5.62s0,0,0,0ZM227.72,70.53c1.34,0,2.07-.77,2.07-1.68,0-1.08-.91-1.42-1.72-1.72-.64-.24-1.25-.45-1.25-.99,0-.43.33-.81,1.03-.81.5,0,.9.22,1.28.51l.45-.62c-.44-.35-1.06-.64-1.76-.64-1.22,0-1.94.7-1.94,1.6,0,.95.9,1.35,1.69,1.64.63.23,1.29.49,1.29,1.07,0,.48-.37.87-1.12.87-.67,0-1.17-.28-1.66-.67l-.47.63c.53.44,1.31.78,2.11.78v.03s.01,0,.01,0Z"/>
      <path class="cls-2" d="M96.44,69.96h.96v-3.97c0-.63-.08-1.49-.13-2.13h.05l.66,1.65,1.56,3.74h.69l1.57-3.74.65-1.65h.05c-.05.64-.13,1.51-.13,2.13v3.97h.98v-7.22h-1.27l-1.56,3.86c-.2.5-.38,1-.58,1.51h-.05c-.2-.51-.39-1.01-.59-1.51l-1.59-3.86h-1.27v7.22h0ZM107.99,70.09c.83,0,1.49-.25,2.03-.56l-.37-.59c-.45.26-.93.43-1.53.43-1.17,0-1.97-.74-2.04-1.87h4.12c.03-.13.04-.32.04-.51,0-1.53-.88-2.51-2.45-2.51-1.41,0-2.76,1.07-2.76,2.81s1.3,2.8,2.94,2.8h.01ZM106.06,66.86c.13-1.06.89-1.66,1.75-1.66.96,0,1.51.58,1.51,1.65h-3.27ZM113.84,70.09c.73,0,1.39-.35,1.87-.77h.04l.09.63h.86v-7.83h-1.03v2.06l.04.91c-.54-.38-1.01-.61-1.73-.61-1.4,0-2.65,1.08-2.65,2.82s1,2.8,2.53,2.8h0s0,0,0,0ZM114.07,69.32c-1.07,0-1.68-.76-1.68-2.05,0-1.22.78-2.05,1.77-2.05.5,0,.97.15,1.49.56v2.81c-.52.48-1.01.72-1.58.72h0ZM118.74,69.96h1.04v-5.35h-1.04v5.35ZM119.27,63.51c.4,0,.72-.24.72-.58s-.32-.58-.72-.58-.72.23-.72.58.32.58.72.58ZM123.26,70.09c.76,0,1.44-.35,2.02-.78h.04l.09.64h.86v-3.28c0-1.33-.63-2.2-2.13-2.2-.98,0-1.84.37-2.41.69l.4.61c.48-.27,1.12-.57,1.83-.57,1,0,1.26.66,1.26,1.35-2.61.25-3.76.84-3.76,2,0,.97.77,1.53,1.79,1.53h.01,0ZM123.54,69.37c-.6,0-1.07-.24-1.07-.85,0-.68.69-1.12,2.75-1.34v1.49c-.59.45-1.08.7-1.68.7Z"/>
      <path class="cls-2" d="M2.58,69.83h5.15v-.78H3.68v-2.63h3.31v-.78h-3.31v-2.27h3.92v-.78H2.58v7.24h0ZM9.46,69.83h1.09v-3.88c.65-.54,1.1-.81,1.76-.81.85,0,1.21.43,1.21,1.43v3.27h1.09v-3.39c0-1.36-.61-2.09-1.96-2.09-.89,0-1.55.41-2.16.91h-.04l-.09-.77h-.9v5.33s.01,0,.01,0ZM18.74,69.96c.4,0,.84-.1,1.2-.2l-.21-.68c-.21.08-.5.15-.73.15-.74,0-1-.37-1-1.02v-2.97h1.75v-.74h-1.75v-1.5h-.91l-.13,1.5-1.01.05v.68h.96v2.96c0,1.07.46,1.79,1.83,1.79v-.03s.01,0,.01,0ZM23.62,69.96c.88,0,1.57-.25,2.14-.56l-.38-.59c-.48.27-.98.43-1.61.43-1.23,0-2.07-.74-2.15-1.87h4.34c.03-.13.04-.32.04-.51,0-1.53-.93-2.51-2.58-2.51-1.49,0-2.9,1.07-2.9,2.81s1.37,2.8,3.09,2.8h.01,0ZM21.59,66.72c.13-1.06.94-1.66,1.84-1.66,1.01,0,1.59.58,1.59,1.65h-3.44ZM27.57,69.83h1.09v-3.44c.44-.9,1.09-1.23,1.63-1.23.26,0,.4.03.62.09l.2-.79c-.2-.07-.4-.11-.69-.11-.73,0-1.4.43-1.85,1.11h-.04l-.09-.98h-.9l.03,5.35h0ZM34.21,69.96c.4,0,.84-.1,1.2-.2l-.21-.68c-.21.08-.5.15-.73.15-.74,0-1-.37-1-1.02v-2.97h1.75v-.74h-1.75v-1.5h-.91l-.13,1.5-1.01.05v.68h.96v2.96c0,1.07.46,1.79,1.83,1.79v-.03s.01,0,.01,0ZM37.87,69.96c.8,0,1.52-.35,2.13-.78h.04l.09.64h.9v-3.28c0-1.33-.66-2.2-2.24-2.2-1.03,0-1.94.37-2.54.69l.42.61c.5-.27,1.18-.57,1.92-.57,1.05,0,1.33.66,1.33,1.35-2.75.25-3.95.84-3.95,2,0,.97.81,1.53,1.89,1.53h.01,0ZM38.17,69.23c-.64,0-1.13-.24-1.13-.85,0-.68.73-1.12,2.89-1.34v1.49c-.62.45-1.14.7-1.76.7h0ZM43.08,69.83h1.09v-5.35h-1.09v5.35ZM43.63,63.38c.43,0,.76-.24.76-.58s-.33-.58-.76-.58-.76.23-.76.58.33.58.76.58ZM46.34,69.83h1.09v-3.88c.65-.54,1.1-.81,1.76-.81.85,0,1.21.43,1.21,1.43v3.27h1.09v-3.39c0-1.36-.61-2.09-1.96-2.09-.89,0-1.55.41-2.16.91h-.04l-.09-.77h-.9v5.33s.01,0,.01,0ZM53.59,69.83h1.09v-3.88c.59-.55,1.13-.82,1.6-.82.82,0,1.21.43,1.21,1.43v3.27h1.09v-3.88c.59-.55,1.11-.82,1.62-.82.82,0,1.21.43,1.21,1.43v3.27h1.09v-3.39c0-1.36-.64-2.09-1.96-2.09-.78,0-1.46.42-2.12,1.02-.27-.63-.8-1.02-1.78-1.02-.77,0-1.45.41-2.02.91h-.04l-.09-.77h-.9v5.35h.01s0-.01,0-.01ZM67.2,69.96c.88,0,1.57-.25,2.14-.56l-.38-.59c-.48.27-.98.43-1.61.43-1.23,0-2.07-.74-2.15-1.87h4.34c.03-.13.04-.32.04-.51,0-1.53-.93-2.51-2.58-2.51-1.49,0-2.91,1.07-2.91,2.81s1.37,2.8,3.09,2.8h.01ZM65.17,66.73c.13-1.06.94-1.66,1.84-1.66,1.01,0,1.59.58,1.59,1.65h-3.44s0,0,0,0ZM71.15,69.83h1.09v-3.88c.65-.54,1.1-.81,1.76-.81.85,0,1.21.43,1.21,1.43v3.27h1.09v-3.39c0-1.36-.61-2.09-1.96-2.09-.89,0-1.55.41-2.16.91h-.04l-.09-.77h-.9v5.33s.01,0,.01,0ZM80.43,69.96c.4,0,.84-.1,1.2-.2l-.21-.68c-.21.08-.5.15-.73.15-.74,0-1-.37-1-1.02v-2.97h1.75v-.74h-1.75v-1.5h-.91l-.13,1.5-1.01.05v.68h.96v2.96c0,1.07.46,1.79,1.83,1.79v-.03s.01,0,.01,0Z"/>
      <path class="cls-1" d="M135.07,67.69c0,1.08-.87,1.95-1.95,1.95s-1.95-.87-1.95-1.95.87-1.95,1.95-1.95,1.95.87,1.95,1.95Z"/>
      <path class="cls-1" d="M91.53,67.69c0,1.08-.87,1.95-1.95,1.95s-1.95-.87-1.95-1.95.87-1.95,1.95-1.95,1.95.87,1.95,1.95Z"/>
    </g>
  </g>
</svg>