<?xml version="1.0" encoding="UTF-8"?>
<!DOCTYPE svg PUBLIC "-//W3C//DTD SVG 1.1//EN" "http://www.w3.org/Graphics/SVG/1.1/DTD/svg11.dtd">
<!-- Creator: CorelDRAW (OEM Version) -->
<svg xmlns="http://www.w3.org/2000/svg" xml:space="preserve" width="3.6in" height="3.6in" version="1.1" style="shape-rendering:geometricPrecision; text-rendering:geometricPrecision; image-rendering:optimizeQuality; fill-rule:evenodd; clip-rule:evenodd"
viewBox="0 0 3600 3600"
 xmlns:xlink="http://www.w3.org/1999/xlink"
 xmlns:xodm="http://www.corel.com/coreldraw/odm/2003">
 <defs>
  <style type="text/css">
   <![CDATA[
    .fil0 {fill:#2B2A29;fill-rule:nonzero}
    .fil1 {fill:#E32124;fill-rule:nonzero}
   ]]>
  </style>
 </defs>
 <g id="Layer_x0020_1">
  <metadata id="CorelCorpID_0Corel-Layer"/>
  <g id="_2217773413440">
   <path class="fil0" d="M202.42 1975.41l69.41 0 0 -120 -1.68 -61.85c37.82,26.19 76.83,41.44 114.65,41.44 93.83,0 177.36,-70.51 177.36,-191.13 0,-109.28 -56.48,-179.79 -163,-179.79 -47.15,0 -93.59,23.3 -130.93,50.31l-2.39 0 -5.98 -40.82 -57.44 0 0 501.85zm169.7 -189.89c-27.04,0 -62.47,-10.11 -99.57,-36.91l0 -185.56c39.74,-31.96 74.44,-48.66 108.91,-48.66 77.79,0 108.91,52.37 108.91,130.1 0,87.22 -49.78,139.59 -117.28,139.59l-0.96 1.44zm563.35 49.48c55.77,0 99.81,-16.7 135.95,-37.11l-24.41 -39.17c-30.4,17.52 -62.47,28.24 -102.2,28.24 -78.5,0 -131.64,-48.66 -136.67,-123.5l275.97 0c1.68,-8.87 2.63,-21.24 2.63,-33.61 0,-101.03 -59.12,-165.77 -163.96,-165.77 -94.54,0 -184.78,70.52 -184.78,185.56 0,116.29 86.89,185.36 196.75,185.36l0.72 0zm-129.01 -213.81c8.38,-69.89 59.84,-109.89 117.28,-109.89 64.15,0 101.25,38.56 101.25,109.28l-218.53 0.62zm479.57 205.15l69.41 0 0 -227.01c27.77,-59.59 69.17,-81.44 103.64,-81.44 16.28,0 25.37,2.27 39.73,5.77l12.69 -52.37c-12.69,-4.95 -25.37,-7.22 -43.8,-7.22 -46.43,0 -88.8,28.45 -117.52,73.4l-2.39 0 -5.98 -64.74 -57.44 0 1.68 353.61zm545.8 8.66c48.83,0 95.26,-16.7 132.36,-44.94l-30.4 -40c-25.13,19.59 -58.16,35.46 -95.26,35.46 -75.16,0 -126.62,-54.43 -126.62,-135.26 0,-80.62 54.81,-135.88 129.01,-135.88 32.07,0 57.44,12.37 81.14,31.14l35.42 -39.18c-28.72,-22.68 -65.82,-41.44 -119.91,-41.44 -104.6,0 -197.46,67.63 -197.46,185.36 0,117.11 83.53,184.74 192.44,184.74l-0.72 0zm469.5 0c55.77,0 99.81,-16.7 135.95,-37.11l-24.41 -39.17c-30.4,17.52 -62.47,28.24 -102.2,28.24 -78.51,0 -131.64,-48.66 -136.67,-123.5l275.97 0c1.68,-8.87 2.63,-21.24 2.63,-33.61 0,-101.03 -59.12,-165.77 -163.96,-165.77 -94.54,0 -184.78,70.52 -184.78,185.56 0,116.29 86.89,185.36 196.75,185.36l0.72 0zm-129.01 -213.81c8.38,-69.89 59.83,-109.89 117.28,-109.89 64.15,0 101.24,38.56 101.24,109.28l-218.52 0.62zm479.57 354.22l69.41 0 0 -120 -1.68 -61.85c37.82,26.19 76.83,41.44 114.65,41.44 93.82,0 177.36,-70.51 177.36,-191.13 0,-109.28 -56.49,-179.79 -163,-179.79 -47.15,0 -93.59,23.3 -130.93,50.31l-2.39 0 -5.98 -40.82 -57.44 0 0 501.85zm169.7 -189.89c-27.04,0 -62.47,-10.11 -99.57,-36.91l0 -185.56c39.73,-31.96 74.44,-48.66 108.91,-48.66 77.79,0 108.9,52.37 108.9,130.1 0,87.22 -49.78,139.59 -117.28,139.59l-0.96 1.44zm511.89 49.48c25.37,0 53.14,-6.39 76.11,-12.99l-13.64 -45.15c-13.41,5.15 -32.07,10.1 -46.44,10.1 -47.15,0 -63.43,-24.54 -63.43,-67.63l0 -196.29 111.54 0 0 -48.66 -111.54 0 0 -98.97 -58.16 0 -8.38 98.97 -64.15 3.5 0 45.15 60.8 0 0 195.67c0,70.52 29.44,118.56 116.56,118.56l0.72 -2.27z"/>
   <path class="fil0" d="M2150.66 2224.07c13.72,0 24.06,-5.62 32.42,-15.32l-7.41 -8.37c-6.77,7.41 -14.5,11.76 -24.7,11.76 -19.99,0 -32.75,-16.6 -32.75,-43.22 0,-26.48 13.26,-42.94 33.25,-42.94 8.87,0 15.82,4.07 21.45,10.02l7.45 -8.69c-6.17,-6.81 -16.15,-13.08 -29.04,-13.08 -26.98,0 -47.15,20.81 -47.15,55.02 0,34.35 19.85,54.7 46.15,54.7l0.32 0.13zm89.24 0c19.21,0 36.31,-15 36.31,-40.98 0,-26.11 -17.1,-41.11 -36.31,-41.11 -19.21,0 -36.31,15 -36.31,41.11 0,25.98 17.11,40.98 36.31,40.98zm0 -10.97c-13.54,0 -22.73,-12.07 -22.73,-30 0,-17.88 9.19,-30.14 22.73,-30.14 13.54,0 22.73,12.26 22.73,30.14 0,17.93 -9.19,30 -22.73,30zm65 9.06l13.26 0 0 -56.8c7.23,-8.05 13.68,-12.07 19.48,-12.07 10.02,0 14.68,6.27 14.68,20.95l0 47.93 13.26 0 0 -56.8c7.22,-8.05 13.54,-12.07 19.67,-12.07 10.02,0 14.68,6.27 14.68,20.95l0 47.93 13.22 0 0 -49.71c0,-19.99 -7.73,-30.65 -23.87,-30.65 -9.51,0 -17.74,6.13 -25.79,15 -3.25,-9.19 -9.7,-15 -21.63,-15 -9.33,0 -17.56,5.99 -24.52,13.4l-0.5 0 -1.1 -11.3 -10.98 0 0 78.43 0.14 -0.18zm141.65 0l13.26 0 0 -56.8c7.22,-8.05 13.67,-12.07 19.48,-12.07 10.02,0 14.68,6.27 14.68,20.95l0 47.93 13.26 0 0 -56.8c7.22,-8.05 13.54,-12.07 19.67,-12.07 10.02,0 14.68,6.27 14.68,20.95l0 47.93 13.22 0 0 -49.71c0,-19.99 -7.73,-30.65 -23.87,-30.65 -9.51,0 -17.74,6.13 -25.79,15 -3.25,-9.19 -9.7,-15 -21.63,-15 -9.33,0 -17.56,5.99 -24.51,13.4l-0.5 0 -1.1 -11.3 -10.98 0 0 78.43 0.14 -0.18zm164.57 1.92c10.84,0 18.7,-5.62 25.98,-14.17l0.5 0 1.1 12.26 10.98 0 0 -78.43 -13.22 0 0 55.7c-7.41,9.19 -12.9,13.22 -20.99,13.22 -10.29,0 -14.68,-6.31 -14.68,-20.99l0 -47.93 -13.22 0 0 49.71c0,19.98 7.41,30.64 23.87,30.64l-0.32 0zm72.78 -1.92l13.26 0 0 -56.8c7.87,-7.91 13.35,-11.94 21.45,-11.94 10.34,0 14.68,6.31 14.68,20.99l0 47.93 13.22 0 0 -49.71c0,-19.98 -7.41,-30.64 -23.87,-30.64 -10.8,0 -18.89,5.94 -26.3,13.35l-0.5 0 -1.1 -11.25 -10.98 0 0.14 78.07zm96.15 0l13.26 0 0 -78.43 -13.26 0 0 78.43zm6.77 -94.53c5.17,0 9.24,-3.57 9.24,-8.56 0,-5.17 -4.07,-8.55 -9.24,-8.55 -5.12,0 -9.19,3.39 -9.19,8.55 0,4.99 4.07,8.56 9.19,8.56zm72 96.45c9.33,0 18.2,-3.7 25.29,-9.97l-5.81 -8.87c-4.8,4.35 -11.11,7.87 -18.2,7.87 -14.36,0 -24.19,-12.07 -24.19,-30 0,-17.88 10.47,-30.14 24.65,-30.14 6.13,0 10.98,2.74 15.5,6.91l6.77 -8.69c-5.49,-5.03 -12.57,-9.19 -22.91,-9.19 -19.99,0 -37.73,15 -37.73,41.11 0,25.98 15.96,40.98 36.77,40.98l-0.14 0zm66.93 0c9.7,0 18.43,-5.17 25.84,-11.43l0.46 0 1.14 9.33 10.98 0 0 -48.07c0,-19.53 -8.05,-32.24 -27.26,-32.24 -12.57,0 -23.55,5.48 -30.82,10.15l5.17 9.01c6.13,-4.02 14.36,-8.37 23.37,-8.37 12.76,0 16.15,9.7 16.15,19.85 -33.39,3.7 -48.07,12.26 -48.07,29.36 0,14.18 9.83,22.41 22.91,22.41l0.14 0zm3.57 -10.65c-7.73,0 -13.72,-3.52 -13.72,-12.39 0,-10.02 8.87,-16.46 35.17,-19.71l0 21.81c-7.59,6.59 -13.86,10.29 -21.45,10.29zm90.17 10.65c4.85,0 10.15,-1.42 14.54,-2.88l-2.61 -10.02c-2.56,1.15 -6.13,2.24 -8.87,2.24 -9.01,0 -12.12,-5.44 -12.12,-15l0 -43.54 21.31 0 0 -10.79 -21.31 0 0 -21.96 -11.11 0 -1.6 21.96 -12.26 0.78 0 10.02 11.61 0 0 43.4c0,15.64 5.63,26.3 22.28,26.3l0.14 -0.5zm37.88 -1.92l13.26 0 0 -78.43 -13.26 0 0 78.43zm6.77 -94.53c5.17,0 9.24,-3.57 9.24,-8.56 0,-5.17 -4.07,-8.55 -9.24,-8.55 -5.13,0 -9.19,3.39 -9.19,8.55 0,4.99 4.07,8.56 9.19,8.56zm71.5 96.45c19.2,0 36.31,-15 36.31,-40.98 0,-26.11 -17.11,-41.11 -36.31,-41.11 -19.21,0 -36.31,15 -36.31,41.11 0,25.98 17.11,40.98 36.31,40.98zm0 -10.97c-13.54,0 -22.73,-12.07 -22.73,-30 0,-17.88 9.19,-30.14 22.73,-30.14 13.54,0 22.73,12.26 22.73,30.14 0,17.93 -9.19,30 -22.73,30zm65 9.06l13.26 0 0 -56.8c7.87,-7.91 13.35,-11.94 21.45,-11.94 10.34,0 14.68,6.31 14.68,20.99l0 47.93 13.22 0 0 -49.71c0,-19.98 -7.41,-30.64 -23.87,-30.64 -10.8,0 -18.89,5.94 -26.3,13.35l-0.5 0 -1.09 -11.25 -10.98 0 0.13 78.07zm116.64 1.92c18.57,0 28.72,-10.65 28.72,-23.37 0,-15 -12.58,-19.71 -23.87,-23.87 -8.87,-3.39 -17.43,-6.31 -17.43,-13.72 0,-5.99 4.53,-11.3 14.36,-11.3 6.95,0 12.44,3.06 17.74,7.09l6.31 -8.55c-6.13,-4.85 -14.68,-8.87 -24.51,-8.87 -16.97,0 -26.98,9.7 -26.98,22.27 0,13.22 12.44,18.7 23.42,22.73 8.69,3.25 17.93,6.81 17.93,14.86 0,6.63 -5.17,12.07 -15.51,12.07 -9.37,0 -16.28,-3.84 -23.09,-9.33l-6.59 8.69c7.41,6.13 18.2,10.84 29.36,10.84l0.14 0.46z"/>
   <path class="fil0" d="M1494.01 2216.12l13.31 0 0 -55.2c0,-8.71 -1.09,-20.76 -1.79,-29.64l0.7 0 9.14 22.92 21.71 52 9.64 0 21.76 -52 9.09 -22.92 0.69 0c-0.69,8.88 -1.74,20.93 -1.74,29.64l0 55.2 13.66 0 0 -100.27 -17.69 0 -21.71 53.65c-2.83,6.89 -5.27,13.91 -8.1,20.93l-0.7 0c-2.78,-7.02 -5.42,-14.04 -8.25,-20.93l-22.06 -53.65 -17.69 0 0 100.27zm160.35 1.82c11.58,0 20.72,-3.51 28.22,-7.8l-5.07 -8.23c-6.31,3.68 -12.97,5.94 -21.22,5.94 -16.3,0 -27.33,-10.23 -28.37,-25.96l57.29 0c0.35,-1.86 0.54,-4.46 0.54,-7.06 0,-21.23 -12.27,-34.84 -34.04,-34.84 -19.63,0 -38.36,14.82 -38.36,39 0,24.44 18.04,38.95 40.84,38.95l0.15 0zm-26.78 -44.93c1.74,-14.69 12.43,-23.1 24.35,-23.1 13.31,0 21.02,8.11 21.02,22.97l-45.37 0.13zm108.13 44.93c10.19,0 19.28,-4.89 25.94,-10.7l0.55 0 1.19 8.71 11.93 0 0 -108.81 -14.36 0 0 28.56 0.5 12.7c-7.5,-5.33 -14.01,-8.54 -24,-8.54 -19.43,0 -36.82,14.95 -36.82,39.13 0,24.74 13.86,38.82 35.08,38.82l0 0.13zm3.13 -10.7c-14.86,0 -23.3,-10.53 -23.3,-28.43 0,-16.94 10.88,-28.43 24.54,-28.43 7.01,0 13.52,2.13 20.67,7.8l0 39c-7.16,6.72 -14.01,10.06 -21.91,10.06zm64.84 8.88l14.41 0 0 -74.31 -14.41 0 0 74.31zm7.35 -89.57c5.61,0 10.04,-3.38 10.04,-8.1 0,-4.9 -4.43,-8.1 -10.04,-8.1 -5.56,0 -9.98,3.2 -9.98,8.1 0,4.72 4.42,8.1 9.98,8.1zm55.41 91.39c10.54,0 20.02,-4.89 28.07,-10.83l0.5 0 1.24 8.84 11.93 0 0 -45.54c0,-18.5 -8.74,-30.55 -29.61,-30.55 -13.66,0 -25.59,5.2 -33.49,9.62l5.61 8.54c6.66,-3.81 15.6,-7.93 25.39,-7.93 13.87,0 17.54,9.19 17.54,18.81 -36.28,3.51 -52.22,11.61 -52.22,27.82 0,13.43 10.69,21.23 24.89,21.23l0.15 0zm3.88 -10.09c-8.4,0 -14.91,-3.34 -14.91,-11.74 0,-9.49 9.64,-15.6 38.21,-18.68l0 20.67c-8.25,6.24 -15.06,9.75 -23.3,9.75z"/>
   <path class="fil0" d="M190.41 2214.29l71.5 0 0 -10.83 -56.24 0 0 -36.57 45.94 0 0 -10.83 -45.94 0 0 -31.5 54.41 0 0 -10.83 -69.67 0 0 100.57zm95.48 0l15.15 0 0 -53.82c8.99,-7.5 15.26,-11.31 24.51,-11.31 11.81,0 16.78,5.98 16.78,19.89l0 45.41 15.1 0 0 -47.1c0,-18.93 -8.46,-29.03 -27.28,-29.03 -12.33,0 -21.58,5.63 -30.05,12.65l-0.57 0 -1.25 -10.66 -12.54 0 0.16 73.97zm128.88 1.82c5.54,0 11.6,-1.34 16.62,-2.73l-2.98 -9.49c-2.93,1.08 -7,2.12 -10.14,2.12 -10.3,0 -13.85,-5.16 -13.85,-14.21l0 -41.25 24.35 0 0 -10.23 -24.35 0 0 -20.8 -12.7 0 -1.83 20.8 -14.01 0.74 0 9.49 13.28 0 0 41.12c0,14.82 6.43,24.92 25.45,24.92l0.16 -0.48zm67.81 0c12.18,0 21.8,-3.51 29.69,-7.8l-5.33 -8.23c-6.64,3.69 -13.64,5.94 -22.31,5.94 -17.14,0 -28.74,-10.22 -29.84,-25.96l60.26 0c0.37,-1.86 0.57,-4.46 0.57,-7.06 0,-21.23 -12.91,-34.84 -35.8,-34.84 -20.64,0 -40.34,14.82 -40.34,39 0,24.44 18.97,38.95 42.96,38.95l0.16 0zm-28.17 -44.93c1.83,-14.69 13.07,-23.09 25.61,-23.09 14,0 22.11,8.1 22.11,22.96l-47.72 0.13zm83.1 43.11l15.16 0 0 -47.71c6.06,-12.52 15.1,-17.11 22.63,-17.11 3.56,0 5.54,0.48 8.68,1.21l2.77 -11.01c-2.77,-1.04 -5.54,-1.52 -9.56,-1.52 -10.14,0 -19.39,5.98 -25.66,15.43l-0.52 0 -1.31 -13.61 -12.54 0 0.37 74.31zm92.19 1.82c5.54,0 11.6,-1.34 16.62,-2.73l-2.98 -9.49c-2.93,1.08 -7,2.12 -10.14,2.12 -10.3,0 -13.85,-5.16 -13.85,-14.21l0 -41.25 24.35 0 0 -10.23 -24.35 0 0 -20.8 -12.7 0 -1.83 20.8 -14.01 0.74 0 9.49 13.28 0 0 41.12c0,14.82 6.43,24.92 25.45,24.92l0.16 -0.48zm50.85 0c11.08,0 21.06,-4.89 29.53,-10.83l0.52 0 1.3 8.84 12.55 0 0 -45.54c0,-18.5 -9.2,-30.55 -31.15,-30.55 -14.37,0 -26.92,5.2 -35.22,9.62l5.9 8.54c7.01,-3.81 16.41,-7.93 26.71,-7.93 14.58,0 18.45,9.19 18.45,18.8 -38.15,3.51 -54.93,11.61 -54.93,27.82 0,13.43 11.24,21.23 26.19,21.23l0.16 0zm4.07 -10.09c-8.83,0 -15.68,-3.33 -15.68,-11.74 0,-9.49 10.14,-15.6 40.19,-18.67l0 20.67c-8.68,6.24 -15.83,9.75 -24.51,9.75zm68.2 8.28l15.15 0 0 -74.31 -15.15 0 0 74.31zm7.73 -89.57c5.91,0 10.56,-3.38 10.56,-8.1 0,-4.9 -4.65,-8.1 -10.56,-8.1 -5.85,0 -10.5,3.2 -10.5,8.1 0,4.72 4.65,8.1 10.5,8.1zm37.63 89.57l15.16 0 0 -53.82c8.99,-7.5 15.26,-11.31 24.51,-11.31 11.81,0 16.78,5.98 16.78,19.89l0 45.41 15.1 0 0 -47.1c0,-18.93 -8.46,-29.03 -27.28,-29.03 -12.33,0 -21.59,5.63 -30.05,12.65l-0.57 0 -1.26 -10.66 -12.54 0 0.16 73.97zm100.66 0l15.16 0 0 -53.82c8.26,-7.63 15.63,-11.44 22.26,-11.44 11.44,0 16.78,5.94 16.78,19.85l0 45.41 15.16 0 0 -53.82c8.26,-7.63 15.47,-11.44 22.47,-11.44 11.44,0 16.78,5.94 16.78,19.85l0 45.41 15.11 0 0 -47.1c0,-18.93 -8.83,-29.03 -27.28,-29.03 -10.87,0 -20.28,5.81 -29.48,14.21 -3.71,-8.71 -11.08,-14.21 -24.72,-14.21 -10.66,0 -20.07,5.68 -28.01,12.7l-0.57 0 -1.26 -10.7 -12.54 0 0 74.31 0.16 -0.17zm188.98 1.82c12.18,0 21.79,-3.51 29.69,-7.8l-5.33 -8.23c-6.64,3.69 -13.64,5.94 -22.32,5.94 -17.14,0 -28.74,-10.22 -29.84,-25.96l60.26 0c0.37,-1.86 0.57,-4.46 0.57,-7.06 0,-21.23 -12.91,-34.84 -35.8,-34.84 -20.64,0 -40.35,14.82 -40.35,39 0,24.44 18.97,38.95 42.96,38.95l0.16 0zm-28.17 -44.93c1.83,-14.69 13.06,-23.09 25.61,-23.09 14.01,0 22.11,8.1 22.11,22.96l-47.71 0.13zm83.09 43.11l15.16 0 0 -53.82c8.99,-7.5 15.26,-11.31 24.51,-11.31 11.81,0 16.78,5.98 16.78,19.89l0 45.41 15.1 0 0 -47.1c0,-18.93 -8.46,-29.03 -27.28,-29.03 -12.33,0 -21.58,5.63 -30.05,12.65l-0.57 0 -1.25 -10.66 -12.54 0 0.15 73.97zm128.88 1.82c5.54,0 11.6,-1.34 16.62,-2.73l-2.98 -9.49c-2.93,1.08 -7,2.12 -10.14,2.12 -10.3,0 -13.85,-5.16 -13.85,-14.21l0 -41.25 24.35 0 0 -10.23 -24.35 0 0 -20.8 -12.7 0 -1.83 20.8 -14.01 0.74 0 9.49 13.28 0 0 41.12c0,14.82 6.43,24.92 25.45,24.92l0.16 -0.48z"/>
   <path class="fil1" d="M2030.57 2184.55c0,14.98 -12.14,27.13 -27.13,27.13 -14.98,0 -27.12,-12.15 -27.12,-27.13 0,-14.98 12.14,-27.12 27.12,-27.12 14.98,0 27.13,12.14 27.13,27.12z"/>
   <path class="fil1" d="M1425.75 2184.55c0,14.98 -12.14,27.13 -27.12,27.13 -14.98,0 -27.13,-12.15 -27.13,-27.13 0,-14.98 12.14,-27.12 27.13,-27.12 14.98,0 27.12,12.14 27.12,27.12z"/>
  </g>
 </g>
</svg>
