<?xml version="1.0" encoding="UTF-8"?>
<svg id="Layer_1" data-name="Layer 1" xmlns="http://www.w3.org/2000/svg" viewBox="0 0 163.67 80">
  <defs>
    <style>
      .cls-1 {
        fill: gray;
      }

      .cls-1, .cls-2, .cls-3, .cls-4 {
        fill-rule: evenodd;
      }

      .cls-2 {
        fill: #fff;
      }

      .cls-3 {
        fill: #b2b3b6;
      }
    </style>
  </defs>
  <g id="Layer_1-2" data-name="Layer_1">
    <g id="_2217810951008" data-name=" 2217810951008">
      <path class="cls-4" d="M112.43,47.65h1.2v4.57h-1.2v-4.57ZM96.68,47.65h1.2v4.57h-1.19v-4.57ZM87.07,47.67l.4-.03h.43s.37.04.37.04v3.49s1.76,0,1.76,0l.05.4v.64s-3.01,0-3.01,0v-4.54ZM70.66,47.65h1.2v4.57h-1.19v-4.57h0ZM38.92,47.65h1.2v4.57h-1.2v-4.57ZM83.56,52.21h-1.23s1.53-4.56,1.53-4.56h1.24s1.54,4.56,1.54,4.56h-1.26s-.26-.93-.26-.93h-1.26s-.3.93-.3.93h0ZM63.48,52.22h-1.23l1.53-4.56c1.57,0,1.14-.17,1.56.99.15.42.27.76.41,1.19.23.7.65,1.7.79,2.38l-1.24-.02-.27-.9c-1.34,0-1.29-.3-1.55.93h0ZM24.15,52.18l-1.2.04,1.54-4.56h1.25s1.53,4.55,1.53,4.55h-1.09c-.46-.26-.17-.92-.64-.92-1.61,0-.91-.01-1.38.9h0ZM107.65,47.65h1.2c0,1.83-.33,3.52.72,3.53.85,0,.72-.67.72-1.4,0-.71,0-1.42,0-2.13h1.2c0,2.1.55,4.66-1.91,4.65-2.45-.01-1.91-2.57-1.91-4.65h0ZM72.65,50.62c-.95-3.25,3.97-4.18,4.61-1.26.68,3.16-3.81,3.99-4.61,1.26ZM28.88,52.16l-1.19.05v-4.54l1.23-.02c.27.53,1.08,2.04,1.43,2.33l.03-2.28,1.19-.05v4.54c-1.48.04-1.05.29-2.2-1.68l-.47-.66s-.01,2.31-.01,2.31ZM20.78,50.86v1.35h-1.2v-4.57c1.4,0,2.91-.29,3.33,1.02.21.66.04,1.35-.35,1.75-.53.54-1,.37-1.79.45ZM59.13,52.22h-1.2v-4.57h1.21l1.42,2.46.03-2.46h1.2v4.57h-1.21l-1.44-2.48s0,2.48,0,2.48ZM42.32,52.22h-1.19v-4.57h1.21l1.44,2.49v-2.49h1.21v4.57h-1.21l-1.41-2.43s-.03,2.43-.03,2.43ZM79.21,52.22h-1.19v-4.57h1.22l1.4,2.43.04-2.43,1.22.02v4.5s-1.23.06-1.23.06c-.29-.67-1.28-1.95-1.43-2.51l-.03,2.5h0ZM101.6,50.46l1.02,1.74-1.37.02c-.47-1.21-.62-1.47-1.19-1.49v1.43l-1.2.05v-4.54c.94-.09,2.38-.17,2.95.4.44.44.55,1.28.18,1.87-.19.29-.21.21-.38.51h0ZM56.35,50.46l1.01,1.75h-1.36c-.5-1.22-.62-1.46-1.19-1.47v1.43l-1.2.05v-4.54c.94-.09,2.38-.17,2.95.4,1.03,1.03-.09,2.18-.21,2.38h0ZM114.13,47.65l3.9.02v1.02s-1.36.03-1.36.03v3.51h-1.2v-3.48l-1.35-.03v-1.06h0ZM66.25,47.67l3.9-.03v1.06l-1.36.02v3.49s-1.2,0-1.2,0v-3.51s-1.35,0-1.35,0v-1.03h0ZM52.44,49.45v.98h-1.32l-.04.74h1.75l.04,1.04h-2.98v-4.54l2.9-.02v1l-1.65.05v.64c.4,0,.95-.09,1.3.11h0ZM45.48,47.65l3.91.04v.97s-1.36.05-1.36.05v3.48h-1.2s0-3.48,0-3.48h-1.35v-1.06h0ZM17.06,49.36l1.3.04.05,1.03h-1.33s-.02.71-.02.71l1.78.04.03,1.03h-3v-4.57h2.87l.03,1.06h-1.7v.65h0ZM107.08,51.47c-1,1.48-4.11.96-4.21-1.38-.1-2.29,2.45-3.25,4.04-1.91-.04.4-.27.59-.42.96-.48-.24-.85-.59-1.57-.41-.54.14-.84.64-.81,1.25.06,1.05,1.09,1.68,2.37.68.28.23.43.55.6.81h0ZM95.44,49.14c-3.62-1.88-2.74,3.73,0,1.52.28.23.43.55.6.81-.94,1.43-4,1.01-4.21-1.28-.21-2.34,2.49-3.39,4.04-2.01-.04.4-.27.61-.43.96h0ZM36.64,52.22c-1.39,0-.8-.26-1.47-.04-1.39.45-2.88-.47-2.9-2.2-.02-2.25,2.54-3.12,4.15-1.75l-.46.85s-2.44-1.23-2.46.8c-.01,1.37,1.9,1.79,2.07.74h-.64l.05-1.04h1.65v2.63s0,0,0,0ZM13.94,51.05c-.1-.93-2.47-.67-1.91-2.46.39-1.26,2.12-1.25,3.05-.47-.14.34-.33.71-.52.97-.35-.31-.79-.48-1.36-.3.03.49.11.44.59.62,3.22,1.24.23,4.14-1.86,2.27.06-.36.3-.65.54-.93.42.17.89.57,1.47.3h0ZM120.19,41.78c4.79.01,9.55.14,14.34.13,2.07,0,5.22-.13,7.14.08,3.81.41,3.85,4.89,1.21,6.04-1.06.46-8.19.94-9.62,1.08-4.39.41-8.84.9-13.23,1.22v-1.99c3.85-.25,7.81-.71,11.69-1.07l8.75-.81c.95-.09,1.93-.05,2.17-.9.57-2.08-2.59-1.63-4.6-1.63l-18.87-.16s.62-1.91,1.02-1.99h0ZM11.91,43.03c.14-.47.37-.92.6-1.27h-.15l105.59.02-.53,1.26H11.91ZM91.95,36.89c.14-.67,1.05-2.61,1.38-3.36l2.84-6.72c1.31-3.07.54-2.95,4.69-2.79.26.96.92,2.26,1.34,3.26.53,1.3,3.9,8.98,3.99,9.61l-3.8-.03-.87-2.18c-1.36,0-2.72-.01-4.08,0-1.47,0-1.13,1.23-1.78,2.21h-3.72s0,0,0,0ZM68.63,23.79c4.08-.41,7.27,2.35,7.63,5.97.39,3.98-2.56,7-6.11,7.36-4.14.42-7.36-2.32-7.71-5.96-.4-4.04,2.55-7,6.19-7.37h0ZM78.19,36.85c-.15-2.52-.01-7.49-.01-10.45,0-1.28-.3-2.39,1.12-2.39,2.71,0,1.93-.41,3.56,1.7l2.65,3.4c.41.53.83,1.09,1.28,1.61.09-1.19.02-2.67.02-3.89,0-3.08-.48-2.82,3.53-2.82,0,2.31.1,11.29-.03,12.88-.66,0-1.33,0-1.99,0-.9,0-1,.16-1.46-.43l-5.12-6.52-.03,6.95-3.52-.04h0ZM11.9,36.85c-.21-3.52,0-7.61-.01-11.2,0-2.01.3-1.65,3.98-1.65,2.7,0,6.83-.17,7.3,3.91.45,3.93-2.6,5.29-5.91,5.31-1.2,0-1.79-.37-1.78.92,0,.83.07,1.95-.03,2.74,0,0-3.54-.04-3.54-.04ZM49.68,25.13c0-.78.35-1.12,1.12-1.12h5.02c5.48,0,5.97,5.02,4.45,7.15-.68.96-.98.9-1.64,1.44l2.89,4.28h-3.89c-.38.01-.56-.49-.77-.79l-1.93-2.86c-2.59-.07-1.34.18-1.69,3.66l-3.54-.02c-.12-3.06-.01-8.44-.01-11.75h0ZM36.61,27.14c0-1.02-.31-2.74.61-3.07.39-.14,10.05-.08,10.7-.04v3.11c-.91.11-3.03-.14-3.69.11-.52.7-.02,8.06-.22,9.64l-3.55-.04-.04-9.68-3.81-.04h0ZM24.71,36.89c-.11-1.07-.05-9.95-.03-11.67.01-1.2.59-1.22,1.7-1.22,2.58.01,6.4-.12,8.68.01v3.01c-1.16.14-4.46-.01-6.03.03-.94.02-.84.41-.76,1.95h5.97v2.82s-4.56,0-4.56,0c-1.58,0-1.43-.16-1.43,2.02l6.83.03-.02,3.03h-10.34s0,0,0,0ZM107.44,27.78c0-4.65,7.01-4.98,10.21-2.34-.06.35-.86,1.45-1.12,1.76-.66.78-1.08.46-1.98.07-2.88-1.23-4.18.15-3.19.95.49.4,3.31.95,4.28,1.35,1.29.53,2.43,1.45,2.43,3.21,0,6.06-9.01,4.76-11.21,2.2,2.22-3.13,2.2-1.84,4.13-1.18,2.94,1.01,4.41-.52,2.89-1.3-2.15-1.1-6.43-.51-6.43-4.72h0ZM88.47,21.89c.27-.57,1.82-1.91,2.53-2.37,2.35-1.54,4.81-1.8,7.53-2.45,3.72-.9,8.2-2.07,11.77-3.21,1.23-.39,2.56-.78,3.77-1.22,2.27-.83,5.82-2.91,6.18,1.25.33,3.83.77,10.13,1.5,13.52,1.02,4.75,7.12,6.74,10.68,3.05,3.71-3.85,8.28-3.16,11.48.92,1.82,2.31,4.54,6.16,6.34,8.64,4.27,5.87,4.94,5.34,2.44,9.64-.61,1.05-1.1,2.4-2.07,2.93-1.23.68-2.89.49-4.4.44-3.97-.12-23.44-.05-24.57.57.13.23-.03.02.15.19,1.46,1.38,4.5,2.39,5.35,5.18,1.46,4.83-3.38,15.32-7.71,12.39-.47-.32-1.04-.88-1.41-1.25-.49-.5-.94-.84-1.4-1.37-.86-.98-1.83-1.79-2.75-2.67-.91-.88-1.85-1.79-2.74-2.68l-2.73-2.68c-.71-.71-1.79-2-3.51-1.86-2.1.17-6.9,4.31-12.74,1.54-2.06-.98-4.51-3.18-4.88-5.9l2.02-.03c.22,1.35,1.74,2.91,2.55,3.48,3.04,2.18,6.21,1.51,9.44.14,1.49-.63,2.83-1.53,4.84-1.14,1.93.37,2.67,1.48,3.66,2.39l3.07,2.99c1.06.93,2.04,1.91,3.07,2.99l4.7,4.44c2.04.91,5.63-6.58,4.64-10.06-.89-3.12-6.18-3.62-5.61-6.5.37-1.85,2.36-1.72,4.22-1.83,7.06-.42,16.75-.48,23.83-.3,2.42.06,1.89-.05,3.39-2.67,1.65-2.87,1.63-1.44-2.6-7.37l-5.12-6.99c-.95-1.22-1.64-2.38-2.89-3.27-2.12-1.51-4.67-.82-6.44.89-.57.55-.92.9-1.68,1.41-2.72,1.83-6.76,1.61-9.32-.26-2.66-1.95-3.2-4.08-3.75-8.35l-1.18-11.05c-.26-.06-6.3,2.07-7.12,2.32-4.62,1.43-10.34,2.97-15.1,4.01-3.81.83-4.24,2.12-5.03,2.19-.56.05-1.82.02-2.4-.02h0ZM1.53,78.88h160.62V1.12H1.53s0,77.76,0,77.76Z"/>
      <path class="cls-3" d="M88.47,21.89c.57.05,1.84.07,2.4.02.79-.07,1.22-1.36,5.03-2.19,4.76-1.04,10.47-2.58,15.1-4.01.82-.25,6.86-2.38,7.12-2.32l1.18,11.05c.55,4.27,1.08,6.4,3.75,8.35,2.56,1.87,6.6,2.09,9.32.26.76-.51,1.11-.85,1.68-1.41,1.77-1.71,4.31-2.39,6.44-.89,1.25.89,1.94,2.04,2.89,3.27l5.12,6.99c4.23,5.93,4.25,4.5,2.6,7.37-1.5,2.62-.98,2.73-3.39,2.67-7.08-.19-16.78-.12-23.83.3-1.86.11-3.85-.02-4.22,1.83-.57,2.87,4.72,3.37,5.61,6.5.99,3.48-2.6,10.97-4.64,10.06l-4.7-4.44c-1.02-1.08-2.01-2.06-3.07-2.99l-3.07-2.99c-.98-.91-1.73-2.02-3.66-2.39-2.01-.39-3.36.51-4.84,1.14-3.23,1.37-6.41,2.03-9.44-.14-.81-.58-2.33-2.13-2.55-3.48l-2.02.03c.37,2.73,2.82,4.92,4.88,5.9,5.84,2.78,10.64-1.37,12.74-1.54,1.71-.14,2.8,1.15,3.51,1.86l2.73,2.68c.88.89,1.83,1.8,2.74,2.68.91.89,1.89,1.7,2.75,2.67.46.52.91.87,1.4,1.37.37.37.94.93,1.41,1.25,4.33,2.93,9.17-7.56,7.71-12.39-.84-2.79-3.88-3.8-5.35-5.18-.18-.17-.03.04-.15-.19,1.13-.63,20.6-.7,24.57-.57,1.51.05,3.17.24,4.4-.44.97-.53,1.45-1.88,2.07-2.93,2.5-4.3,1.83-3.77-2.44-9.64-1.8-2.47-4.52-6.32-6.34-8.64-3.2-4.07-7.78-4.77-11.48-.92-3.56,3.7-9.65,1.7-10.68-3.05-.73-3.39-1.16-9.69-1.5-13.52-.36-4.16-3.91-2.08-6.18-1.25-1.21.44-2.54.83-3.77,1.22-3.57,1.14-8.05,2.31-11.77,3.21-2.72.66-5.18.92-7.53,2.45-.71.46-2.25,1.8-2.53,2.37h0Z"/>
      <path class="cls-3" d="M11.91,43.03h105.51l.53-1.26-105.59-.02h.15c-.23.36-.46.81-.6,1.27h0Z"/>
      <path class="cls-2" d="M78.19,36.85l3.52.04.03-6.95,5.12,6.52c.46.59.55.43,1.46.43.66,0,1.33,0,1.99,0,.13-1.59.03-10.57.03-12.88-4.01,0-3.53-.27-3.53,2.82,0,1.22.07,2.7-.02,3.89-.46-.52-.88-1.08-1.28-1.61l-2.65-3.4c-1.63-2.11-.85-1.7-3.56-1.7-1.41,0-1.12,1.11-1.12,2.39,0,2.96-.13,7.93.01,10.45h0Z"/>
      <path class="cls-2" d="M53.26,27.89c0-1.05.37-.85,2.12-.85,2.23,0,2.27,1.78,1.79,2.53-.7,1.11-2.35.84-3.9.84l-.02-2.52ZM49.68,25.13c0,3.3-.1,8.69.01,11.75l3.54.02c.34-3.47-.91-3.72,1.69-3.66l1.93,2.86c.2.3.39.8.77.8h3.89s-2.89-4.29-2.89-4.29c.66-.54.95-.48,1.64-1.44,1.52-2.14,1.03-7.15-4.45-7.15h-5.02c-.76,0-1.12.34-1.12,1.12h0Z"/>
      <path class="cls-2" d="M72.53,31.29c-.38,1.66-1.85,3.05-3.95,2.53-1.58-.39-2.87-2.13-2.41-4.18.98-4.42,7.39-2.84,6.36,1.65ZM68.63,23.79c-3.65.37-6.59,3.33-6.19,7.37.36,3.64,3.57,6.38,7.71,5.96,3.55-.36,6.5-3.38,6.11-7.36-.36-3.62-3.55-6.38-7.63-5.97h0Z"/>
      <path class="cls-2" d="M24.71,36.89h10.34s.02-3.03.02-3.03l-6.83-.03c0-2.18-.14-2.03,1.43-2.02h4.57s-.01-2.82-.01-2.82h-5.97c-.07-1.54-.18-1.92.76-1.95,1.57-.04,4.87.12,6.04-.03v-3.01c-2.29-.13-6.1,0-8.69-.01-1.11,0-1.69.02-1.7,1.22-.02,1.71-.07,10.59.03,11.67h0Z"/>
      <path class="cls-3" d="M119.16,43.77l18.87.16c2.01,0,5.17-.45,4.6,1.63-.23.85-1.22.81-2.17.9l-8.75.81c-3.87.36-7.84.83-11.69,1.07v1.99c4.39-.32,8.83-.81,13.23-1.22,1.44-.13,8.56-.61,9.62-1.08,2.64-1.15,2.6-5.64-1.21-6.04-1.93-.21-5.07-.08-7.14-.08-4.8,0-9.55-.12-14.34-.13-.4.08-1.02,1.95-1.02,1.99h0Z"/>
      <path class="cls-2" d="M99.05,28.43l1.38,3.47-2.8-.02,1.41-3.46h0ZM91.95,36.89h3.72c.65-.98.31-2.21,1.78-2.21,1.36,0,2.72,0,4.08,0l.87,2.18,3.8.03c-.1-.63-3.46-8.31-3.99-9.61-.41-1-1.08-2.3-1.34-3.26-4.15-.15-3.38-.28-4.69,2.79l-2.84,6.72c-.33.75-1.24,2.69-1.38,3.36h0Z"/>
      <path class="cls-2" d="M15.47,27.78c0-.61.21-.74.82-.74,1.3,0,3.44-.22,3.31,1.8-.12,1.82-2.48,1.65-4.12,1.55v-2.61s-.01,0-.01,0ZM11.9,36.85l3.54.04c.1-.8.03-1.92.03-2.74,0-1.29.58-.92,1.78-.92,3.31-.01,6.36-1.37,5.91-5.31-.46-4.08-4.59-3.91-7.3-3.91-3.68,0-3.99-.36-3.98,1.65.02,3.59-.19,7.67.01,11.2Z"/>
      <path class="cls-2" d="M107.44,27.78c0,4.21,4.29,3.62,6.43,4.72,1.52.78.05,2.31-2.89,1.3-1.93-.66-1.92-1.95-4.13,1.18,2.21,2.55,11.21,3.85,11.21-2.2,0-1.75-1.14-2.67-2.43-3.21-.96-.4-3.79-.96-4.28-1.35-.99-.8.3-2.18,3.19-.95.9.39,1.33.71,1.98-.07.26-.31,1.06-1.41,1.12-1.76-3.2-2.64-10.21-2.32-10.21,2.34h0Z"/>
      <path class="cls-2" d="M36.61,27.14l3.81.04.04,9.68,3.55.04c.2-1.59-.3-8.94.22-9.64.66-.25,2.77,0,3.69-.11v-3.11c-.65-.04-10.32-.1-10.7.04-.92.33-.61,2.05-.61,3.07h0Z"/>
      <path class="cls-4" d="M72.53,31.29c1.02-4.5-5.39-6.08-6.36-1.65-.45,2.05.84,3.8,2.41,4.18,2.1.51,3.57-.88,3.95-2.53Z"/>
      <path class="cls-2" d="M79.24,49.71c.15.56,1.14,1.84,1.43,2.51l1.23-.06v-4.5s-1.22-.02-1.22-.02l-.04,2.43-1.4-2.43h-1.21v4.57s1.19,0,1.19,0l.03-2.5h0Z"/>
      <polygon class="cls-2" points="42.35 49.79 43.76 52.22 44.98 52.22 44.98 47.65 43.78 47.65 43.77 50.13 42.33 47.65 41.13 47.65 41.13 52.22 42.32 52.22 42.35 49.79"/>
      <polygon class="cls-2" points="59.14 49.73 60.58 52.22 61.79 52.22 61.79 47.65 60.59 47.65 60.56 50.11 59.14 47.65 57.94 47.65 57.94 52.22 59.13 52.22 59.14 49.73"/>
      <path class="cls-2" d="M28.9,49.85l.47.66c1.15,1.97.72,1.73,2.2,1.68v-4.54l-1.19.05-.03,2.28c-.35-.29-1.16-1.81-1.43-2.33l-1.23.02v4.54l1.19-.05s.01-2.31.01-2.31Z"/>
      <path class="cls-2" d="M74.53,48.8c1.37-.64,2.21,1.67.85,2.28-1.33.61-2.37-1.57-.85-2.28ZM72.65,50.62c.8,2.73,5.29,1.91,4.61-1.26-.63-2.93-5.56-2-4.61,1.26Z"/>
      <path class="cls-2" d="M36.64,52.22v-2.63h-1.66l-.05,1.04h.64c-.16,1.04-2.08.63-2.07-.74.02-2.03,2.46-.8,2.46-.8l.46-.85c-1.6-1.37-4.17-.5-4.15,1.75.01,1.72,1.5,2.65,2.9,2.2.67-.22.07.04,1.47.04h0Z"/>
      <path class="cls-4" d="M53.26,27.89l.02,2.52c1.54,0,3.2.26,3.9-.84.47-.75.44-2.53-1.79-2.53-1.75,0-2.12-.2-2.12.85Z"/>
      <path class="cls-4" d="M15.47,27.78v2.61c1.66.1,4.02.28,4.13-1.55.13-2.02-2.01-1.8-3.31-1.8-.61,0-.82.13-.82.74h0Z"/>
      <path class="cls-2" d="M54.8,48.71c.46,0,.98-.1.93.53-.03.51-.44.42-.93.42v-.96ZM56.35,50.46c.12-.21,1.24-1.35.21-2.38-.57-.57-2.01-.49-2.95-.4v4.54s1.2-.05,1.2-.05v-1.43c.58.02.7.25,1.19,1.49h1.36s-1.01-1.76-1.01-1.76h0Z"/>
      <path class="cls-2" d="M100.06,48.71c.47,0,.98-.11.93.53-.04.52-.43.42-.93.42v-.96ZM101.6,50.46c.17-.3.19-.22.38-.51.38-.59.27-1.43-.18-1.87-.57-.57-2.01-.49-2.95-.4v4.54s1.2-.05,1.2-.05v-1.43c.57.02.72.27,1.19,1.49l1.37-.02-1.02-1.74h0Z"/>
      <path class="cls-2" d="M107.65,47.65c0,2.08-.54,4.63,1.91,4.65,2.46.01,1.91-2.55,1.91-4.65h-1.2c0,.71,0,1.42,0,2.13,0,.74.14,1.41-.72,1.4-1.05,0-.72-1.7-.72-3.53h-1.2Z"/>
      <path class="cls-2" d="M64.42,49.11l.32,1.2-.7-.06.38-1.15ZM63.48,52.22c.26-1.23.21-.93,1.55-.93l.27.9,1.24.02c-.14-.68-.56-1.69-.79-2.38-.14-.42-.25-.77-.41-1.19-.42-1.15.01-1-1.56-.99l-1.53,4.56h1.24Z"/>
      <path class="cls-2" d="M24.75,50.3c.09-.44.14-.78.4-1.1l.29,1.1h-.7ZM24.15,52.18c.47-.91-.23-.9,1.38-.9.47,0,.18.66.64.93h1.09s-1.53-4.56-1.53-4.56h-1.25s-1.54,4.57-1.54,4.57l1.2-.04h0Z"/>
      <path class="cls-2" d="M84.44,49.08c.16.33.3.82.38,1.22h-.71s.33-1.22.33-1.22ZM83.86,51.29h1.26s.26.91.26.91h1.26s-1.54-4.54-1.54-4.54h-1.24s-1.53,4.56-1.53,4.56h1.23s.3-.92.3-.92h0Z"/>
      <path class="cls-2" d="M20.78,48.74c.48-.05.93-.14,1,.42.05.44-.25.69-.71.64l-.29-.04v-1.03h0ZM20.78,50.86c.78-.08,1.26.09,1.79-.45.39-.39.56-1.09.35-1.75-.42-1.31-1.93-1.02-3.33-1.02v4.57h1.2v-1.35Z"/>
      <polygon class="cls-2" points="17.06 48.72 18.76 48.71 18.74 47.65 15.87 47.65 15.87 52.22 18.87 52.22 18.84 51.18 17.06 51.15 17.08 50.45 18.42 50.44 18.37 49.41 17.06 49.36 17.06 48.72"/>
      <path class="cls-2" d="M95.44,49.14c.16-.35.39-.56.43-.96-1.55-1.38-4.24-.33-4.04,2.01.2,2.29,3.26,2.71,4.21,1.28-.17-.26-.32-.58-.6-.81-2.74,2.21-3.61-3.4,0-1.52Z"/>
      <path class="cls-2" d="M107.09,51.47c-.17-.25-.32-.58-.6-.81-1.28,1-2.32.37-2.37-.68-.03-.6.27-1.11.81-1.25.72-.18,1.09.17,1.57.41.15-.37.39-.56.42-.96-1.59-1.34-4.14-.38-4.04,1.91.1,2.34,3.21,2.86,4.21,1.38h0Z"/>
      <path class="cls-2" d="M52.44,49.45l-1.36-.05c-.04-.17-.07-.17-.06-.37.02-.58-.01-.12.11-.32l1.65-.05v-1l-2.9.02v4.54h2.98s-.04-1.03-.04-1.03h-1.75l.04-.74h1.32s0-.98,0-.98Z"/>
      <path class="cls-2" d="M13.94,51.05c-.58.27-1.06-.13-1.47-.3-.24.28-.49.58-.54.93,2.09,1.86,5.08-1.03,1.86-2.27-.48-.18-.56-.13-.59-.62.57-.18,1.01,0,1.36.3.18-.26.38-.63.52-.97-.93-.77-2.65-.78-3.05.47-.56,1.79,1.81,1.53,1.91,2.46h0Z"/>
      <polygon class="cls-2" points="114.13 48.71 115.49 48.74 115.49 52.22 116.68 52.22 116.68 48.71 118.04 48.68 118.04 47.67 114.13 47.65 114.13 48.71"/>
      <polygon class="cls-2" points="66.25 48.7 67.6 48.71 67.6 52.22 68.8 52.22 68.8 48.73 70.15 48.71 70.15 47.65 66.25 47.67 66.25 48.7"/>
      <polygon class="cls-2" points="45.48 48.71 46.83 48.71 46.83 52.18 48.03 52.19 48.03 48.71 49.38 48.66 49.39 47.69 45.48 47.65 45.48 48.71"/>
      <polygon class="cls-2" points="87.07 52.21 90.07 52.22 90.08 51.58 90.03 51.18 88.27 51.18 88.27 47.69 87.89 47.65 87.47 47.64 87.07 47.67 87.07 52.21"/>
      <polygon class="cls-2" points="112.43 52.22 113.63 52.22 113.63 47.65 112.43 47.65 112.43 52.22"/>
      <polygon class="cls-2" points="38.92 52.22 40.12 52.22 40.12 47.65 38.92 47.65 38.92 52.22"/>
      <polygon class="cls-2" points="96.69 52.22 97.88 52.22 97.88 47.65 96.68 47.65 96.69 52.22"/>
      <polygon class="cls-2" points="70.66 52.22 71.85 52.22 71.85 47.65 70.66 47.65 70.66 52.22"/>
      <polygon class="cls-4" points="97.63 31.88 100.43 31.9 99.05 28.43 97.63 31.88"/>
      <path class="cls-4" d="M74.53,48.8c-1.51.71-.48,2.89.85,2.28,1.35-.62.52-2.93-.85-2.28Z"/>
      <path class="cls-4" d="M20.78,49.77l.29.04c.45.05.76-.2.71-.64-.07-.57-.52-.47-1-.42v1.03h0Z"/>
      <path class="cls-4" d="M100.06,49.67c.51,0,.9.1.93-.42.04-.64-.47-.53-.93-.53v.96Z"/>
      <path class="cls-4" d="M54.8,49.67c.49,0,.9.09.93-.42.04-.63-.48-.53-.93-.53v.96Z"/>
      <path class="cls-4" d="M84.11,50.3h.71c-.08-.4-.22-.89-.38-1.22,0,0-.33,1.22-.33,1.22Z"/>
      <path class="cls-4" d="M24.75,50.3h.7l-.29-1.1c-.26.32-.31.66-.4,1.1Z"/>
      <polygon class="cls-4" points="64.04 50.26 64.73 50.31 64.42 49.11 64.04 50.26"/>
      <path class="cls-1" d="M52.44,49.45c-.35-.19-.9-.11-1.3-.11v-.64c-.12.19-.09-.26-.11.32,0,.2.02.21.06.37l1.36.05h0Z"/>
    </g>
  </g>
</svg>