<?xml version="1.0" encoding="UTF-8"?>
<!DOCTYPE svg PUBLIC "-//W3C//DTD SVG 1.1//EN" "http://www.w3.org/Graphics/SVG/1.1/DTD/svg11.dtd">
<!-- Creator: CorelDRAW (OEM Version) -->
<svg xmlns="http://www.w3.org/2000/svg" xml:space="preserve" width="3.6in" height="3.6in" version="1.1" style="shape-rendering:geometricPrecision; text-rendering:geometricPrecision; image-rendering:optimizeQuality; fill-rule:evenodd; clip-rule:evenodd"
viewBox="0 0 3600 3600"
 xmlns:xlink="http://www.w3.org/1999/xlink"
 xmlns:xodm="http://www.corel.com/coreldraw/odm/2003">
 <defs>
  <style type="text/css">
   <![CDATA[
    .fil0 {fill:black}
    .fil3 {fill:gray}
    .fil1 {fill:#B2B3B6}
    .fil2 {fill:white}
   ]]>
  </style>
 </defs>
 <g id="Layer_x0020_1">
  <metadata id="CorelCorpID_0Corel-Layer"/>
  <g id="_2217810951008">
   <path class="fil0" d="M2406.21 1951.55l23.68 0 0 90.51 -23.71 0 0.03 -90.51zm-312.05 0l23.68 0 0 90.51 -23.66 0 -0.02 -90.51zm-190.5 0.53l7.89 -0.63 8.43 0.1 7.41 0.76 -0.04 69.23 34.98 0 0.95 7.88 -0.16 12.65 -59.46 -0.1 0 -89.89zm-325.2 -0.53l23.68 0 0 90.51 -23.61 0 -0.06 -90.51zm-628.84 0l23.68 0 -0 90.51 -23.68 0 0 -90.51zm884.43 90.43l-24.32 0.08 30.24 -90.43 24.63 0.16 30.46 90.15 -24.95 -0.13 -5.11 -18.26 -25.02 0.19 -5.94 18.23zm-397.81 0.08l-24.47 0 30.31 -90.41c31.14,-0.16 22.52,-3.31 30.9,19.56 3.06,8.34 5.33,15.09 8.1,23.51 4.54,13.78 12.84,33.66 15.68,47.2l-24.48 -0.37 -5.35 -17.93c-26.52,0.01 -25.62,-5.89 -30.68,18.43zm-779.21 -0.65l-23.81 0.74 30.45 -90.44 24.67 -0.06 30.31 90.3 -21.56 0.11c-9.04,-5.31 -3.45,-18.42 -12.69,-18.42 -32,0 -18.11,-0.25 -27.37,17.76zm1654.45 -89.86l23.68 0c0,36.22 -6.56,69.83 14.21,69.95 16.91,0.1 14.32,-13.25 14.23,-27.83 -0.09,-14.04 -0.02,-28.09 -0.02,-42.13l23.68 0c0,41.58 10.87,92.28 -37.88,92.06 -48.63,-0.22 -37.9,-50.93 -37.9,-92.06zm-693.63 58.94c-18.91,-64.46 78.75,-82.89 91.31,-24.88 13.57,62.69 -75.42,79.02 -91.31,24.88zm-867.17 30.53l-23.66 1 -0 -89.94 24.34 -0.46c5.28,10.42 21.33,40.49 28.28,46.24l0.58 -45.27 23.63 -1 0 89.94c-29.36,0.89 -20.78,5.83 -43.53,-33.3l-9.35 -13 -0.29 45.79zm-160.48 -25.8l0 26.84 -23.68 0 0 -90.51c27.79,0 57.57,-5.77 65.98,20.26 4.19,13 0.77,26.77 -6.92,34.58 -10.44,10.61 -19.83,7.3 -35.38,8.83zm759.9 26.84l-23.71 0 0 -90.51 23.91 0 28.09 48.78 0.62 -48.78 23.68 0 0 90.51 -24.01 0 -28.44 -49.19 -0.14 49.19zm-333.14 0l-23.67 0 0 -90.51 23.91 0 28.51 49.26 0.19 -49.26 23.7 0 0 90.51 -24.07 0 -27.94 -48.09 -0.63 48.09zm730.88 0l-23.65 0 0.04 -90.51 24.07 0 27.81 48.17 0.72 -48.17 24.25 0.39 -0.02 89.08 -24.34 1.16c-5.73,-13.18 -25.27,-38.67 -28.29,-49.71l-0.59 49.6zm443.8 -34.87l20.13 34.57 -27.1 0.3c-9.38,-24.07 -12.28,-29.12 -23.67,-29.47l0 28.43 -23.69 1 -0.01 -89.94c18.54,-1.83 47.21,-3.36 58.44,7.87 8.78,8.78 10.98,25.41 3.47,37.11 -3.72,5.79 -4.13,4.13 -7.57,10.14zm-896.69 0l20.06 34.62 -27.03 0.25c-9.86,-24.45 -12.19,-29.12 -23.67,-29.47l0 28.43 -23.68 1 -0.01 -89.94c18.54,-1.83 47.21,-3.36 58.44,7.87 20.5,20.49 -1.78,43.13 -4.11,47.25zm1144.93 -55.64l77.36 0.4 -0.01 20.12 -26.84 0.53 0 69.46 -23.68 0 0 -68.94 -26.84 -0.52 0 -21.05zm-948.78 0.53l77.35 -0.53 0 21.05 -26.85 0.4 0.01 69.06 -23.71 0 0.04 -69.46 -26.84 -0.19 0 -20.33zm-273.64 35.26l0 19.47 -26.11 0 -0.71 14.73 34.62 0 0.74 20.52 -59.06 -0.09 0 -89.89 57.37 -0.38 -0 19.86 -32.63 1.04 0 12.63c7.88,0 18.91,-1.75 25.78,2.1zm-137.87 -35.78l77.4 0.76 -0.04 19.25 -26.85 1.04 0 68.93 -23.73 -0.23 0.04 -68.7 -26.83 0 0 -21.05zm-563.06 33.94l25.79 0.89 1.05 20.43 -26.45 0.29 -0.47 13.79 35.2 0.74 0.66 20.44 -59.46 0 0 -90.51 56.83 0 0.52 21.05 -33.68 0.16 0 12.73zm1783.71 41.84c-19.85,29.26 -81.52,18.96 -83.47,-27.41 -1.91,-45.34 48.64,-64.3 80.11,-37.84 -0.77,8 -5.38,11.75 -8.41,19.07 -9.45,-4.69 -16.9,-11.63 -31.11,-8.05 -10.66,2.69 -16.71,12.78 -16.05,24.75 1.15,20.89 21.65,33.37 47.03,13.48 5.61,4.46 8.45,10.94 11.91,15.99zm-230.69 -46.18c-71.67,-37.33 -54.35,73.98 -0.13,30.13 5.61,4.47 8.54,10.87 11.97,16.05 -18.67,28.39 -79.33,20.04 -83.35,-25.39 -4.1,-46.33 49.27,-67.23 79.99,-39.86 -0.83,7.99 -5.36,12.16 -8.48,19.07zm-1165.19 60.91c-27.57,0 -15.78,-5.12 -29.04,-0.8 -27.56,8.97 -57.1,-9.41 -57.38,-43.53 -0.37,-44.62 50.41,-61.83 82.18,-34.77l-9.05 16.87c-0.07,-0.02 -48.35,-24.35 -48.73,15.94 -0.26,27.2 37.68,35.4 40.93,14.72l-12.74 0 0.93 -20.52 32.72 0 0.17 52.1zm-449.66 -23.02c-2.03,-18.46 -48.97,-13.37 -37.87,-48.76 7.82,-24.94 42.02,-24.7 60.37,-9.39 -2.7,6.74 -6.63,13.99 -10.26,19.21 -7,-6.11 -15.61,-9.49 -26.97,-5.92 0.57,9.7 2.13,8.68 11.61,12.33 63.79,24.62 4.59,81.97 -36.8,45.02 1.09,-7.04 5.9,-12.91 10.72,-18.49 8.23,3.33 17.68,11.33 29.2,5.99zm2105.16 -183.78c94.97,0.2 189.15,2.75 284.16,2.63 41.06,-0.05 103.41,-2.54 141.56,1.56 75.42,8.11 76.19,96.93 23.94,119.77 -21.02,9.19 -162.27,18.7 -190.71,21.35 -87.06,8.13 -175.21,17.79 -262.11,24.13l0 -39.47c76.31,-4.87 154.78,-14.04 231.56,-21.23l173.37 -16c18.81,-1.74 38.33,-0.95 42.94,-17.82 11.29,-41.28 -51.26,-32.32 -91.09,-32.3l-373.89 -3.15c0.04,-0.86 12.32,-37.84 20.26,-39.48zm-2145.42 24.73c2.72,-9.3 7.37,-18.22 11.84,-25.26l-2.89 0 2092.29 0.34 -10.54 24.92 -2090.69 0zm1585.91 -121.55c2.74,-13.24 20.81,-51.64 27.26,-66.55l56.37 -133.06c25.86,-60.81 10.67,-58.38 92.93,-55.35 5.15,19.03 18.31,44.76 26.51,64.65 10.59,25.7 77.19,177.93 79.13,190.34l-75.33 -0.52 -17.15 -43.19c-26.91,0 -53.88,-0.2 -80.78,-0.12 -29.12,0.09 -22.44,24.34 -35.26,43.72l-73.67 0.08zm-462.02 -259.55c80.84,-8.2 144.07,46.52 151.15,118.3 7.78,78.89 -50.74,138.67 -121.05,145.83 -82.04,8.36 -145.78,-46.02 -152.84,-118.1 -7.83,-79.96 50.51,-138.7 122.74,-146.04zm189.29 258.77c-2.93,-49.95 -0.26,-148.41 -0.26,-207.08 0,-25.34 -5.9,-47.36 22.11,-47.36 53.65,0 38.33,-8.04 70.56,33.68l52.54 67.35c8.09,10.48 16.35,21.51 25.43,31.84 1.85,-23.66 0.39,-52.83 0.39,-77.09 0,-61.12 -9.46,-55.78 69.98,-55.78 0.02,45.81 2,223.64 -0.52,255.22 -13.15,0 -26.33,-0.07 -39.48,0.01 -17.89,0.11 -19.82,3.22 -28.87,-8.47l-101.53 -129.15 -0.61 137.67 -69.74 -0.83zm-1313.46 0c-4.09,-69.79 0.06,-150.69 -0.27,-221.84 -0.19,-39.77 5.97,-32.6 78.95,-32.6 53.54,0 135.35,-3.3 144.55,77.47 8.88,77.93 -51.52,104.88 -117.19,105.15 -23.87,0.1 -35.47,-7.31 -35.36,18.26 0.07,16.41 1.39,38.61 -0.55,54.39l-70.13 -0.83zm748.56 -232.34c0,-15.43 6.97,-22.1 22.1,-22.1l99.46 0c108.5,0 118.27,99.41 88.08,141.77 -13.52,18.96 -19.36,17.78 -32.43,28.46l57.23 84.79 -77.09 0.2c-7.55,0 -11.14,-9.97 -15.2,-15.85l-38.21 -56.57c-51.35,-1.31 -26.65,3.62 -33.42,72.45l-70.22 -0.42c-2.33,-60.61 -0.29,-167.26 -0.29,-232.73zm-258.9 39.86c0,-20.2 -6.15,-54.24 12.08,-60.84 7.7,-2.79 199.18,-1.61 211.96,-0.87l0.13 61.71c-18.18,2.24 -60.07,-2.8 -73.15,2.24 -10.35,13.86 -0.47,159.61 -4.34,191.07l-70.35 -0.83 -0.82 -191.77 -75.52 -0.7zm-235.75 193.26c-2.1,-21.29 -1.02,-197.23 -0.63,-231.14 0.28,-23.8 11.69,-24.22 33.74,-24.1 51.16,0.27 126.75,-2.33 171.98,0.28l0.14 59.61c-23.03,2.83 -88.44,-0.22 -119.61,0.5 -18.6,0.43 -16.58,8.03 -15.11,38.57l118.2 -0 0.2 55.79 -90.52 -0.01c-31.22,-0.18 -28.4,-3.22 -28.4,39.98l135.26 0.55 -0.43 59.97 -204.83 0.02zm1639.19 -180.5c0,-92.2 138.93,-98.66 202.26,-46.31 -1.16,6.91 -17.13,28.7 -22.23,34.78 -12.98,15.45 -21.33,9.03 -39.26,1.35 -57.08,-24.44 -82.82,2.88 -63.12,18.79 9.69,7.83 65.66,18.92 84.74,26.79 25.57,10.56 48.1,28.78 48.1,63.54 0,120.02 -178.48,94.27 -222.2,43.68 43.96,-61.97 43.6,-36.47 81.92,-23.34 58.27,19.97 87.41,-10.23 57.27,-25.72 -42.53,-21.86 -127.48,-10.2 -127.48,-93.55zm-375.85 -116.69c5.38,-11.39 36.09,-37.89 50.06,-47.04 46.53,-30.46 95.38,-35.62 149.19,-48.61 73.7,-17.8 162.5,-41.05 233.17,-63.67 24.4,-7.81 50.72,-15.46 74.68,-24.2 44.96,-16.4 115.3,-57.59 122.48,24.86 6.61,75.79 15.18,200.74 29.67,267.83 20.3,94.02 141.09,133.64 211.54,60.41 73.43,-76.32 164.1,-62.52 227.51,18.2 36.03,45.86 89.92,122.15 125.6,171.17 84.61,116.28 97.92,105.81 48.32,190.94 -12.15,20.86 -21.79,47.55 -40.92,58.15 -24.33,13.47 -57.19,9.67 -87.16,8.74 -78.7,-2.44 -464.44,-1.01 -486.82,11.38 2.5,4.58 -0.54,0.35 3.02,3.72 28.94,27.33 89.18,47.34 105.91,102.66 28.94,95.7 -66.94,303.56 -152.83,245.46 -9.28,-6.28 -20.59,-17.42 -27.88,-24.78 -9.73,-9.82 -18.55,-16.68 -27.67,-27.06 -16.97,-19.32 -36.29,-35.41 -54.42,-52.95 -18,-17.41 -36.74,-35.51 -54.2,-53.14l-54.17 -53.17c-14.01,-14.1 -35.54,-39.53 -69.47,-36.85 -41.64,3.29 -136.65,85.46 -252.44,30.45 -40.88,-19.42 -89.33,-62.96 -96.73,-116.98l39.99 -0.59c4.37,26.83 34.48,57.61 50.44,69.05 60.14,43.11 123.12,29.98 187.11,2.81 29.46,-12.51 56.13,-30.41 95.98,-22.66 38.16,7.43 52.97,29.34 72.48,47.4l60.74 59.19c20.98,18.44 40.49,37.8 60.78,59.24l93.11 88.07c40.37,18.01 111.48,-130.47 91.92,-199.35 -17.58,-61.91 -122.46,-71.82 -111.15,-128.76 7.28,-36.61 46.71,-34.1 83.52,-36.28 139.81,-8.3 331.89,-9.57 472.24,-5.9 47.93,1.25 37.46,-0.99 67.26,-52.84 32.69,-56.87 32.21,-28.58 -51.59,-146.04l-101.5 -138.48c-18.86,-24.27 -32.5,-47.13 -57.31,-64.72 -42.09,-29.85 -92.59,-16.26 -127.58,17.59 -11.35,10.98 -18.17,17.76 -33.25,27.88 -53.98,36.22 -133.97,31.92 -184.7,-5.19 -52.77,-38.6 -63.35,-80.89 -74.23,-165.46l-23.32 -218.88c-5.15,-1.09 -124.87,41 -141.17,46.05 -91.64,28.41 -204.81,58.92 -299.19,79.48 -75.49,16.44 -83.97,41.93 -99.57,43.3 -11.07,0.98 -36.14,0.47 -47.46,-0.44zm-1722.73 1129.15l3182.61 0 0 -1540.79 -3182.61 0 0 1540.79z"/>
   <path class="fil1" d="M1931.43 1441.25c11.32,0.91 36.39,1.41 47.46,0.44 15.6,-1.37 24.09,-26.86 99.57,-43.3 94.37,-20.56 207.54,-51.07 299.19,-79.48 16.3,-5.05 136.01,-47.13 141.17,-46.05l23.32 218.88c10.88,84.57 21.46,126.87 74.23,165.46 50.74,37.11 130.73,41.41 184.7,5.19 15.08,-10.12 21.91,-16.9 33.25,-27.88 34.99,-33.85 85.49,-47.44 127.58,-17.59 24.81,17.59 38.44,40.45 57.31,64.72l101.5 138.48c83.8,117.46 84.28,89.17 51.59,146.04 -29.8,51.85 -19.34,54.09 -67.26,52.84 -140.35,-3.67 -332.43,-2.4 -472.24,5.9 -36.81,2.19 -76.24,-0.32 -83.52,36.28 -11.31,56.94 93.56,66.85 111.15,128.76 19.56,68.88 -51.55,217.36 -91.92,199.35l-93.11 -88.07c-20.29,-21.43 -39.79,-40.79 -60.78,-59.24l-60.74 -59.19c-19.51,-18.06 -34.32,-39.97 -72.48,-47.4 -39.85,-7.75 -66.52,10.15 -95.98,22.66 -64,27.17 -126.97,40.3 -187.11,-2.81 -15.96,-11.44 -46.07,-42.22 -50.44,-69.05l-39.99 0.59c7.4,54.02 55.85,97.56 96.73,116.98 115.8,55.01 210.81,-27.17 252.44,-30.45 33.93,-2.68 55.46,22.75 69.47,36.85l54.17 53.17c17.46,17.63 36.2,35.73 54.2,53.14 18.13,17.54 37.45,33.63 54.42,52.95 9.12,10.38 17.94,17.24 27.67,27.06 7.29,7.36 18.6,18.5 27.88,24.78 85.88,58.1 181.77,-149.75 152.83,-245.46 -16.73,-55.32 -76.97,-75.33 -105.91,-102.66 -3.57,-3.37 -0.52,0.85 -3.02,-3.72 22.37,-12.39 408.12,-13.83 486.82,-11.38 29.97,0.93 62.83,4.74 87.16,-8.74 19.13,-10.6 28.77,-37.28 40.92,-58.15 49.6,-85.14 36.28,-74.67 -48.32,-190.94 -35.68,-49.03 -89.57,-125.31 -125.6,-171.17 -63.41,-80.72 -154.08,-94.52 -227.51,-18.2 -70.45,73.22 -191.24,33.61 -211.54,-60.41 -14.48,-67.09 -23.06,-192.04 -29.67,-267.83 -7.19,-82.45 -77.52,-41.26 -122.48,-24.86 -23.95,8.73 -50.28,16.39 -74.68,24.2 -70.68,22.62 -159.47,45.87 -233.17,63.67 -53.81,12.99 -102.65,18.15 -149.19,48.61 -13.97,9.15 -44.68,35.65 -50.06,47.04z"/>
   <path class="fil1" d="M414.45 1859.98l2090.69 0 10.54 -24.92 -2092.29 -0.34 2.89 0c-4.47,7.04 -9.12,15.96 -11.84,25.26z"/>
   <path class="fil2" d="M1727.63 1737.65l69.74 0.83 0.61 -137.67 101.53 129.15c9.05,11.69 10.98,8.58 28.87,8.47 13.15,-0.08 26.33,-0.01 39.48,-0.01 2.53,-31.58 0.54,-209.41 0.52,-255.22 -79.44,0 -69.98,-5.34 -69.98,55.78 0,24.26 1.45,53.44 -0.39,77.09 -9.08,-10.33 -17.34,-21.37 -25.43,-31.84l-52.54 -67.35c-32.22,-41.72 -16.91,-33.68 -70.56,-33.68 -28.01,0 -22.11,22.02 -22.11,47.36 0.01,58.67 -2.66,157.13 0.26,207.08z"/>
   <path class="fil2" d="M1233.78 1560.04c0,-20.81 7.34,-16.84 42.1,-16.84 44.24,0 44.89,35.31 35.5,50.14 -13.86,21.9 -46.65,16.7 -77.2,16.7l-0.4 -50zm-71.04 -54.73c0,65.46 -2.04,172.12 0.29,232.73l70.22 0.42c6.77,-68.83 -17.94,-73.76 33.42,-72.45l38.21 56.57c4.06,5.88 7.65,15.85 15.2,15.85l77.09 -0.2 -57.23 -84.79c13.07,-10.69 18.91,-9.5 32.43,-28.46 30.19,-42.37 20.42,-141.77 -88.08,-141.77l-99.46 0c-15.13,0 -22.1,6.68 -22.1,22.1z"/>
   <path class="fil2" d="M1615.62 1627.4c-7.48,32.84 -36.72,60.36 -78.31,50.19 -31.22,-7.64 -56.79,-42.26 -47.8,-82.9 19.39,-87.67 146.39,-56.37 126.11,32.71zm-77.28 -148.52c-72.23,7.33 -130.57,66.07 -122.74,146.04 7.06,72.08 70.8,126.46 152.84,118.1 70.3,-7.17 128.82,-66.94 121.05,-145.83 -7.08,-71.78 -70.31,-126.5 -151.15,-118.3z"/>
   <path class="fil2" d="M668.09 1738.43l204.83 -0.02 0.43 -59.97 -135.26 -0.55c0,-43.2 -2.83,-40.16 28.4,-39.98l90.52 0.01 -0.2 -55.79 -118.2 0c-1.48,-30.54 -3.5,-38.14 15.11,-38.57 31.17,-0.71 96.57,2.34 119.61,-0.5l-0.14 -59.61c-45.22,-2.6 -120.81,-0 -171.98,-0.28 -22.05,-0.11 -33.46,0.3 -33.74,24.1 -0.39,33.91 -1.47,209.85 0.63,231.14z"/>
   <path class="fil1" d="M2539.6 1874.73l373.89 3.15c39.84,-0.02 102.38,-8.98 91.09,32.3 -4.61,16.87 -24.13,16.08 -42.94,17.82l-173.37 16c-76.78,7.19 -155.25,16.36 -231.56,21.23l0 39.47c86.91,-6.34 175.05,-16.01 262.11,-24.13 28.44,-2.65 169.69,-12.16 190.71,-21.35 52.25,-22.85 51.47,-111.66 -23.94,-119.77 -38.15,-4.1 -100.51,-1.61 -141.56,-1.56 -95.01,0.11 -189.19,-2.44 -284.16,-2.63 -7.94,1.64 -20.22,38.61 -20.26,39.48z"/>
   <path class="fil2" d="M2140.99 1570.7l27.37 68.81 -55.39 -0.31 28.02 -68.49zm-140.63 167.74l73.67 -0.08c12.81,-19.38 6.14,-43.63 35.26,-43.72 26.89,-0.08 53.87,0.12 80.78,0.12l17.15 43.19 75.33 0.52c-1.94,-12.41 -68.54,-164.64 -79.13,-190.34 -8.2,-19.9 -21.36,-45.62 -26.51,-64.65 -82.26,-3.03 -67.07,-5.46 -92.93,55.35l-56.37 133.06c-6.44,14.91 -24.52,53.31 -27.26,66.55z"/>
   <path class="fil2" d="M484.96 1557.94c0,-12.13 4.14,-14.74 16.31,-14.74 25.67,0 68.11,-4.32 65.55,35.74 -2.3,36.16 -49.07,32.7 -81.58,30.7l-0.29 -51.71zm-70.79 179.72l70.13 0.83c1.94,-15.78 0.62,-37.98 0.55,-54.39 -0.11,-25.57 11.49,-18.16 35.36,-18.26 65.67,-0.28 126.07,-27.22 117.19,-105.15 -9.2,-80.76 -91.01,-77.47 -144.55,-77.47 -72.98,0 -79.14,-7.17 -78.95,32.6 0.33,71.16 -3.81,152.05 0.27,221.84z"/>
   <path class="fil2" d="M2307.28 1557.94c0,83.34 84.95,71.69 127.48,93.55 30.14,15.49 1,45.69 -57.27,25.72 -38.32,-13.13 -37.96,-38.63 -81.92,23.34 43.72,50.59 222.2,76.34 222.2,-43.68 0,-34.76 -22.52,-52.98 -48.1,-63.54 -19.08,-7.87 -75.05,-18.96 -84.74,-26.79 -19.7,-15.91 6.04,-43.23 63.12,-18.79 17.93,7.68 26.28,14.11 39.26,-1.35 5.1,-6.07 21.07,-27.87 22.23,-34.78 -63.33,-52.35 -202.26,-45.89 -202.26,46.31z"/>
   <path class="fil2" d="M903.84 1545.18l75.52 0.7 0.82 191.77 70.35 0.83c3.87,-31.46 -6.01,-177.22 4.34,-191.07 13.07,-5.03 54.96,0 73.15,-2.24l-0.13 -61.71c-12.78,-0.74 -204.26,-1.92 -211.96,0.87 -18.23,6.6 -12.08,40.65 -12.08,60.84z"/>
   <path class="fil0" d="M1615.62 1627.4c20.29,-89.07 -106.71,-120.38 -126.11,-32.71 -8.99,40.64 16.58,75.26 47.8,82.9 41.59,10.17 70.83,-17.35 78.31,-50.19z"/>
   <path class="fil2" d="M1748.43 1992.46c3.02,11.05 22.56,36.53 28.29,49.71l24.34 -1.16 0.02 -89.08 -24.25 -0.39 -0.72 48.17 -27.81 -48.17 -24.07 0 -0.04 90.51 23.65 0 0.59 -49.6z"/>
   <polygon class="fil2" points="1017.59,1993.97 1045.53,2042.06 1069.6,2042.06 1069.6,1951.55 1045.91,1951.55 1045.72,2000.81 1017.21,1951.55 993.3,1951.55 993.3,2042.06 1016.96,2042.06 "/>
   <polygon class="fil2" points="1350.25,1992.87 1378.69,2042.06 1402.7,2042.06 1402.7,1951.55 1379.02,1951.55 1378.4,2000.33 1350.31,1951.55 1326.4,1951.55 1326.4,2042.06 1350.11,2042.06 "/>
   <path class="fil2" d="M750.98 1995.23l9.35 13c22.75,39.13 14.17,34.19 43.53,33.3l-0 -89.94 -23.63 1 -0.58 45.27c-6.95,-5.75 -23,-35.82 -28.28,-46.24l-24.34 0.46 0 89.94 23.66 -1 0.29 -45.79z"/>
   <path class="fil2" d="M1655.16 1974.31c27.17,-12.75 43.7,33.04 16.93,45.23 -26.38,12 -46.91,-31.16 -16.93,-45.23zm-37.3 36.18c15.89,54.14 104.87,37.81 91.31,-24.88 -12.56,-58.01 -110.22,-39.59 -91.31,24.88z"/>
   <path class="fil2" d="M904.37 2042.06l-0.17 -52.1 -32.72 0 -0.93 20.52 12.74 0c-3.26,20.68 -41.19,12.48 -40.93,-14.72 0.38,-40.28 48.66,-15.95 48.73,-15.94l9.05 -16.87c-31.78,-27.06 -82.55,-9.85 -82.18,34.77 0.28,34.11 29.81,52.5 57.38,43.53 13.26,-4.32 1.47,0.8 29.04,0.8z"/>
   <path class="fil0" d="M1233.78 1560.04l0.4 50c30.56,-0.01 63.34,5.19 77.2,-16.7 9.39,-14.83 8.73,-50.14 -35.5,-50.14 -34.76,0 -42.1,-3.97 -42.1,16.84z"/>
   <path class="fil0" d="M484.96 1557.94l0.29 51.71c32.51,2 79.28,5.46 81.58,-30.7 2.56,-40.07 -39.89,-35.74 -65.55,-35.74 -12.18,0 -16.31,2.61 -16.31,14.74z"/>
   <path class="fil2" d="M1264.31 1972.6c9.07,0.02 19.34,-2.06 18.48,10.52 -0.69,10.2 -8.79,8.4 -18.48,8.42l0 -18.94zm30.65 34.59c2.33,-4.12 24.61,-26.76 4.11,-47.25 -11.23,-11.23 -39.91,-9.69 -58.44,-7.87l0.01 89.94 23.68 -1 0 -28.43c11.48,0.35 13.81,5.02 23.67,29.47l27.03 -0.25 -20.06 -34.62z"/>
   <path class="fil2" d="M2161 1972.6c9.25,0.02 19.35,-2.1 18.49,10.52 -0.7,10.32 -8.46,8.4 -18.49,8.42l0 -18.94zm30.64 34.59c3.45,-6 3.86,-4.35 7.57,-10.14 7.52,-11.7 5.31,-28.33 -3.47,-37.11 -11.23,-11.23 -39.91,-9.69 -58.44,-7.87l0.01 89.94 23.69 -1 0 -28.43c11.39,0.35 14.29,5.39 23.67,29.47l27.1 -0.3 -20.13 -34.57z"/>
   <path class="fil2" d="M2311.49 1951.55c0,41.12 -10.73,91.83 37.9,92.06 48.75,0.22 37.88,-50.48 37.88,-92.06l-23.68 0c0,14.04 -0.07,28.09 0.02,42.13 0.09,14.57 2.68,27.93 -14.23,27.83 -20.77,-0.13 -14.21,-33.74 -14.21,-69.95l-23.68 0z"/>
   <path class="fil2" d="M1454.85 1980.49l6.25 23.87 -13.79 -1.1 7.54 -22.77zm-18.61 61.57c5.06,-24.31 4.16,-18.42 30.68,-18.43l5.35 17.93 24.48 0.37c-2.84,-13.54 -11.14,-33.43 -15.68,-47.2 -2.77,-8.42 -5.05,-15.17 -8.1,-23.51 -8.38,-22.87 0.24,-19.72 -30.9,-19.56l-30.31 90.41 24.47 0z"/>
   <path class="fil2" d="M668.88 2004.17c1.77,-8.78 2.87,-15.52 7.97,-21.81l5.84 21.81 -13.81 0zm-11.84 37.24c9.26,-18.01 -4.63,-17.76 27.37,-17.76 9.24,0 3.66,13.1 12.69,18.42l21.56 -0.11 -30.31 -90.3 -24.67 0.06 -30.45 90.44 23.81 -0.74z"/>
   <path class="fil2" d="M1851.58 1979.96c3.09,6.51 5.98,16.22 7.49,24.21l-14.03 -0.06 6.54 -24.15zm-11.59 43.79l25.02 -0.19 5.11 18.26 24.95 0.13 -30.46 -90.15 -24.63 -0.16 -30.24 90.43 24.32 -0.08 5.94 -18.23z"/>
   <path class="fil2" d="M590.21 1973.13c9.44,-0.93 18.45,-2.85 19.81,8.38 1.06,8.74 -5.03,13.72 -14.04,12.78l-5.78 -0.76 0 -20.39zm0 42.1c15.55,-1.53 24.93,1.78 35.38,-8.83 7.69,-7.81 11.11,-21.58 6.92,-34.58 -8.4,-26.04 -38.19,-20.26 -65.98,-20.26l0 90.51 23.68 0 0 -26.84z"/>
   <polygon class="fil2" points="516.54,1972.76 550.22,1972.6 549.69,1951.55 492.86,1951.55 492.86,2042.06 552.32,2042.06 551.67,2021.62 516.46,2020.88 516.93,2007.09 543.38,2006.81 542.33,1986.38 516.54,1985.49 "/>
   <path class="fil2" d="M2069.56 1981.15c3.12,-6.91 7.65,-11.09 8.48,-19.07 -30.72,-27.37 -84.09,-6.47 -79.99,39.86 4.02,45.43 64.69,53.78 83.35,25.39 -3.43,-5.18 -6.36,-11.58 -11.97,-16.05 -54.22,43.85 -71.54,-67.46 0.13,-30.13z"/>
   <path class="fil2" d="M2300.25 2027.33c-3.46,-5.04 -6.31,-11.52 -11.91,-15.99 -25.38,19.88 -45.88,7.41 -47.03,-13.48 -0.66,-11.97 5.39,-22.06 16.05,-24.75 14.21,-3.59 21.66,3.35 31.11,8.05 3.03,-7.32 7.64,-11.08 8.41,-19.07 -31.47,-26.46 -82.02,-7.5 -80.11,37.84 1.95,46.38 63.62,56.67 83.47,27.41z"/>
   <path class="fil2" d="M1217.47 1987.33l-26.85 -1.04c-0.72,-3.29 -1.3,-3.44 -1.13,-7.43 0.49,-11.47 -0.22,-2.46 2.2,-6.27l32.63 -1.04 0 -19.86 -57.37 0.38 -0 89.89 59.06 0.09 -0.74 -20.52 -34.62 0 0.71 -14.73 26.11 0 0 -19.47z"/>
   <path class="fil2" d="M454.71 2019.04c-11.52,5.35 -20.97,-2.65 -29.2,-5.99 -4.82,5.58 -9.63,11.45 -10.72,18.49 41.38,36.94 100.58,-20.4 36.8,-45.02 -9.48,-3.66 -11.04,-2.64 -11.61,-12.33 11.36,-3.57 19.97,-0.19 26.97,5.92 3.64,-5.22 7.57,-12.47 10.26,-19.21 -18.34,-15.32 -52.55,-15.55 -60.37,9.39 -11.1,35.39 35.84,30.3 37.87,48.76z"/>
   <polygon class="fil2" points="2439.89,1972.6 2466.73,1973.13 2466.73,2042.06 2490.41,2042.06 2490.41,1972.6 2517.24,1972.07 2517.25,1951.95 2439.89,1951.55 "/>
   <polygon class="fil2" points="1491.1,1972.41 1517.94,1972.6 1517.91,2042.06 1541.62,2042.06 1541.61,1973 1568.46,1972.6 1568.46,1951.55 1491.11,1952.08 "/>
   <polygon class="fil2" points="1079.6,1972.6 1106.43,1972.6 1106.39,2041.3 1130.12,2041.54 1130.12,1972.6 1156.96,1971.56 1157,1952.31 1079.6,1951.55 "/>
   <polygon class="fil2" points="1903.67,2041.96 1963.13,2042.06 1963.29,2029.42 1962.34,2021.54 1927.35,2021.54 1927.39,1952.31 1919.98,1951.55 1911.55,1951.45 1903.67,1952.08 "/>
   <polygon class="fil2" points="2406.18,2042.06 2429.89,2042.06 2429.89,1951.55 2406.21,1951.55 "/>
   <polygon class="fil2" points="949.62,2042.06 973.3,2042.06 973.3,1951.55 949.62,1951.55 "/>
   <polygon class="fil2" points="2094.18,2042.06 2117.84,2042.06 2117.84,1951.55 2094.16,1951.55 "/>
   <polygon class="fil2" points="1578.52,2042.06 1602.14,2042.06 1602.14,1951.55 1578.46,1951.55 "/>
   <polygon class="fil0" points="2112.97,1639.19 2168.36,1639.5 2140.99,1570.7 "/>
   <path class="fil0" d="M1655.16 1974.31c-29.98,14.07 -9.45,57.23 16.93,45.23 26.78,-12.19 10.24,-57.98 -16.93,-45.23z"/>
   <path class="fil0" d="M590.21 1993.52l5.78 0.76c9,0.94 15.09,-4.03 14.04,-12.78 -1.36,-11.22 -10.38,-9.31 -19.81,-8.38l0 20.39z"/>
   <path class="fil0" d="M2161 1991.55c10.03,-0.02 17.79,1.9 18.49,-8.42 0.86,-12.62 -9.24,-10.51 -18.49,-10.52l0 18.94z"/>
   <path class="fil0" d="M1264.31 1991.55c9.69,-0.02 17.79,1.78 18.48,-8.42 0.85,-12.58 -9.42,-10.51 -18.48,-10.52l0 18.94z"/>
   <path class="fil0" d="M1845.04 2004.11l14.03 0.06c-1.5,-8 -4.4,-17.7 -7.49,-24.21l-6.54 24.15z"/>
   <path class="fil0" d="M668.88 2004.17l13.81 0 -5.84 -21.81c-5.09,6.3 -6.2,13.03 -7.97,21.81z"/>
   <polygon class="fil0" points="1447.31,2003.26 1461.1,2004.36 1454.85,1980.49 "/>
   <path class="fil3" d="M1217.47 1987.33c-6.87,-3.85 -17.9,-2.1 -25.78,-2.1l0 -12.63c-2.42,3.81 -1.71,-5.2 -2.2,6.27 -0.17,3.98 0.42,4.14 1.13,7.43l26.85 1.04z"/>
  </g>
 </g>
</svg>
