<?xml version="1.0" encoding="UTF-8"?>
<!DOCTYPE svg PUBLIC "-//W3C//DTD SVG 1.1//EN" "http://www.w3.org/Graphics/SVG/1.1/DTD/svg11.dtd">
<!-- Creator: CorelDRAW (OEM Version) -->
<svg xmlns="http://www.w3.org/2000/svg" xml:space="preserve" width="3.6in" height="3.6in" version="1.1" style="shape-rendering:geometricPrecision; text-rendering:geometricPrecision; image-rendering:optimizeQuality; fill-rule:evenodd; clip-rule:evenodd"
viewBox="0 0 3600 3600"
 xmlns:xlink="http://www.w3.org/1999/xlink"
 xmlns:xodm="http://www.corel.com/coreldraw/odm/2003">
 <defs>
  <style type="text/css">
   <![CDATA[
    .fil0 {fill:#E32124;fill-rule:nonzero}
   ]]>
  </style>
 </defs>
 <g id="Layer_x0020_1">
  <metadata id="CorelCorpID_0Corel-Layer"/>
  <path class="fil0" d="M392.48 1613.29l0 143.63 48.83 0c29.84,0 49.13,-5.33 58.18,-15.8 9.34,-10.46 13.87,-29.75 13.87,-57.45 0,-9.85 -0.91,-18.46 -2.41,-25.85 -1.51,-7.59 -3.31,-13.74 -5.43,-18.88 -2.11,-5.13 -5.43,-9.23 -10.55,-12.51 -5.12,-3.28 -9.34,-5.75 -13.26,-7.59 -3.92,-1.85 -10.25,-3.07 -18.99,-3.9 -8.74,-0.82 -15.67,-1.23 -21.4,-1.44 -5.73,-0.2 -14.47,-0.2 -26.53,-0.2l-22.31 0zm-195.63 475.81l0 -578.19 209.2 0c32.56,0 60.89,0.61 84.7,1.85 23.81,1.02 47.02,3.28 69.33,6.57 22.31,3.07 41,7.59 56.07,13.13 15.07,5.54 28.94,12.72 41.3,21.34 12.36,8.62 22.3,19.29 29.54,31.8 7.23,12.52 12.66,27.08 16.58,43.7 3.92,16.62 5.72,35.7 5.72,57.25 0,15.39 -1.2,29.54 -3.31,42.47 -2.11,12.93 -5.73,26.06 -11.15,39.81 -5.13,13.74 -12.96,25.85 -22.91,36.31 -9.95,10.46 -22.61,20.11 -37.38,28.52 -14.77,8.41 -33.16,14.98 -55.46,19.49 -22.31,4.31 -47.63,6.57 -75.96,6.57l-110.63 0 0 229.39 -195.63 0zm590.82 0l0 -578.19 195.63 0 0 216.26 112.74 0 0 -216.26 195.63 0 0 578.19 -195.63 0 0 -246.01 -112.74 0 0 246.01 -195.63 0zm554.34 0l157.35 -578.19 259.54 0 159.46 578.19 -204.98 0 -18.39 -102.8 -136.85 0 -20.2 102.8 -195.94 0zm286.07 -488.53l-49.74 282.73 97.67 0 -45.82 -282.73 -2.11 0zm317.62 292.38l189 0 0 42.68c0,8.41 0.91,16 2.41,22.78 1.81,6.56 5.12,12.93 9.65,18.87 4.52,5.95 11.45,10.67 20.5,13.75 9.04,3.08 20.2,4.72 33.16,4.72 21.4,0 38.28,-4.11 50.04,-12.52 12.06,-8.41 18.09,-19.08 18.09,-32.42 0,-10.87 -3.31,-21.34 -9.95,-31.39 -6.33,-10.06 -17.78,-20.52 -34.06,-30.98 -15.98,-10.67 -29.54,-19.08 -40.7,-25.03 -11.15,-5.95 -28.94,-14.98 -53.35,-27.09 -2.41,-1.02 -4.22,-2.05 -5.73,-2.67 -1.51,-0.82 -3.31,-1.64 -5.43,-2.67 -2.11,-1.02 -4.22,-2.05 -6.03,-3.07 -5.73,-3.08 -15.37,-8.21 -29.24,-15.8 -13.57,-7.59 -23.51,-13.13 -29.24,-16.42 -5.72,-3.28 -14.17,-8.41 -25.62,-15.59 -11.46,-7.18 -19.59,-13.13 -24.72,-17.85 -5.13,-4.72 -11.45,-11.08 -18.99,-19.08 -7.53,-8 -13.26,-15.8 -16.58,-22.98 -3.31,-7.39 -6.33,-16 -9.04,-25.65 -2.71,-9.85 -3.92,-20.11 -3.92,-30.98 0,-108.13 83.2,-162.3 249.89,-162.3 82.59,0 144.09,12.72 184.18,38.17 40.09,25.44 60.29,61.35 60.29,107.51l0 51.91 -182.67 0 0 -30.98c0,-8.41 -0.61,-16 -2.11,-22.37 -1.51,-6.57 -4.22,-13.33 -8.14,-20.11 -3.92,-6.77 -10.25,-12.11 -18.99,-15.59 -8.74,-3.69 -19.59,-5.54 -32.56,-5.54 -20.8,0 -37.37,3.9 -49.43,11.7 -11.76,7.59 -17.79,18.26 -17.79,31.8 0,7.59 3.62,15.8 11.15,24.21 7.54,8.41 19.3,17.65 35.87,27.91 16.58,10.26 31.35,18.87 44.31,25.85 13.26,6.77 31.95,16.42 55.76,28.72 7.24,3.49 12.66,6.16 15.98,8 7.24,4.51 17.79,10.46 31.35,18.06 13.87,7.39 25.02,13.54 33.16,18.26 8.14,4.72 18.09,11.08 29.54,19.08 11.45,8 20.8,16 27.73,24 6.93,8 13.87,17.24 20.8,28.11 6.94,10.67 11.76,22.78 15.07,36.32 3.32,13.54 4.82,28.31 4.82,44.52 0,12.11 -2.71,24.42 -7.83,37.14 -5.13,12.52 -14.17,25.65 -27.13,38.98 -12.96,13.34 -28.94,25.44 -48.53,35.91 -19.29,10.46 -44.61,19.08 -76.26,25.85 -31.65,6.77 -66.92,10.06 -106.11,10.06 -37.08,0 -70.24,-3.08 -100.08,-9.24 -29.84,-6.15 -53.95,-14.16 -72.65,-23.8 -18.69,-9.85 -34.06,-21.34 -46.42,-34.26 -12.36,-12.93 -20.8,-25.85 -25.92,-38.37 -5.13,-12.52 -7.54,-25.24 -7.54,-37.96l0 -62.17zm598.05 196.15l0 -578.19 434.98 0 0 111.41 -239.34 0 0 115.11 209.2 0 0 111.41 -209.2 0 0 128.85 248.69 0 0 111.41 -444.32 0zm541.98 -426.97l0 -81.25c22,-0.61 42.8,-2.87 62.7,-6.77 20.2,-3.9 39.19,-10.67 57.57,-19.9 18.39,-9.23 31.05,-20.72 37.68,-34.06l159.46 0 0 568.96 -183.27 0 0 -426.97 -134.14 0z"/>
 </g>
</svg>
