<?xml version="1.0" encoding="UTF-8"?>
<svg id="Layer_1" data-name="Layer 1" xmlns="http://www.w3.org/2000/svg" viewBox="0 0 235.42 80">
  <defs>
    <style>
      .cls-1 {
        fill: #e32124;
      }
    </style>
  </defs>
  <g id="Layer_1-2" data-name="Layer_1">
    <path class="cls-1" d="M16.37,26.56v10.34h3.52c2.15,0,3.54-.38,4.19-1.14.67-.75,1-2.14,1-4.14,0-.71-.07-1.33-.17-1.86-.11-.55-.24-.99-.39-1.36-.15-.37-.39-.66-.76-.9s-.67-.41-.95-.55c-.28-.13-.74-.22-1.37-.28-.63-.06-1.13-.09-1.54-.1-.41-.01-1.04-.01-1.91-.01h-1.61ZM2.28,60.82V19.19h15.06c2.34,0,4.38.04,6.1.13,1.71.07,3.39.24,4.99.47,1.61.22,2.95.55,4.04.95s2.08.92,2.97,1.54,1.61,1.39,2.13,2.29c.52.9.91,1.95,1.19,3.15.28,1.2.41,2.57.41,4.12,0,1.11-.09,2.13-.24,3.06-.15.93-.41,1.88-.8,2.87-.37.99-.93,1.86-1.65,2.61-.72.75-1.63,1.45-2.69,2.05s-2.39,1.08-3.99,1.4c-1.61.31-3.43.47-5.47.47h-7.97v16.52H2.28ZM44.82,60.82V19.19h14.09v15.57h8.12v-15.57h14.09v41.63h-14.09v-17.71h-8.12v17.71h-14.09ZM84.74,60.82l11.33-41.63h18.69l11.48,41.63h-14.76l-1.32-7.4h-9.85l-1.45,7.4h-14.11,0ZM105.33,25.64l-3.58,20.36h7.03l-3.3-20.36h-.15ZM128.2,46.69h13.61v3.07c0,.61.07,1.15.17,1.64.13.47.37.93.69,1.36.33.43.82.77,1.48.99.65.22,1.45.34,2.39.34,1.54,0,2.76-.3,3.6-.9.87-.61,1.3-1.37,1.3-2.33,0-.78-.24-1.54-.72-2.26-.46-.72-1.28-1.48-2.45-2.23-1.15-.77-2.13-1.37-2.93-1.8-.8-.43-2.08-1.08-3.84-1.95-.17-.07-.3-.15-.41-.19-.11-.06-.24-.12-.39-.19-.15-.07-.3-.15-.43-.22-.41-.22-1.11-.59-2.11-1.14-.98-.55-1.69-.95-2.11-1.18-.41-.24-1.02-.61-1.84-1.12-.83-.52-1.41-.95-1.78-1.29s-.82-.8-1.37-1.37c-.54-.58-.95-1.14-1.19-1.65-.24-.53-.46-1.15-.65-1.85-.2-.71-.28-1.45-.28-2.23,0-7.79,5.99-11.69,17.99-11.69,5.95,0,10.37.92,13.26,2.75,2.89,1.83,4.34,4.42,4.34,7.74v3.74h-13.15v-2.23c0-.61-.04-1.15-.15-1.61-.11-.47-.3-.96-.59-1.45-.28-.49-.74-.87-1.37-1.12-.63-.27-1.41-.4-2.34-.4-1.5,0-2.69.28-3.56.84-.85.55-1.28,1.31-1.28,2.29,0,.55.26,1.14.8,1.74.54.61,1.39,1.27,2.58,2.01,1.19.74,2.26,1.36,3.19,1.86.95.49,2.3,1.18,4.01,2.07.52.25.91.44,1.15.58.52.32,1.28.75,2.26,1.3,1,.53,1.8.97,2.39,1.31s1.3.8,2.13,1.37,1.5,1.15,2,1.73,1,1.24,1.5,2.02c.5.77.85,1.64,1.09,2.62.24.97.35,2.04.35,3.21,0,.87-.2,1.76-.56,2.67-.37.9-1.02,1.85-1.95,2.81-.93.96-2.08,1.83-3.49,2.59-1.39.75-3.21,1.37-5.49,1.86s-4.82.72-7.64.72c-2.67,0-5.06-.22-7.21-.67-2.15-.44-3.88-1.02-5.23-1.71-1.35-.71-2.45-1.54-3.34-2.47-.89-.93-1.5-1.86-1.87-2.76-.37-.9-.54-1.82-.54-2.73v-4.48h0ZM171.26,60.82V19.19h31.32v8.02h-17.23v8.29h15.06v8.02h-15.06v9.28h17.91v8.02h-31.99ZM210.28,30.07v-5.85c1.58-.04,3.08-.21,4.51-.49,1.45-.28,2.82-.77,4.15-1.43,1.32-.66,2.24-1.49,2.71-2.45h11.48v40.97h-13.2v-30.74h-9.66Z"/>
  </g>
</svg>