<?xml version="1.0" encoding="UTF-8"?>
<svg id="Layer_1" data-name="Layer 1" xmlns="http://www.w3.org/2000/svg" viewBox="0 0 122.12 80">
  <defs>
    <style>
      .cls-1 {
        fill: #252422;
      }

      .cls-2 {
        fill: #fefefe;
      }
    </style>
  </defs>
  <polygon class="cls-1" points="120.77 79.56 1.07 79.56 1.07 .44 120.77 .44 120.77 79.56"/>
  <path class="cls-2" d="M65.53,59.81v2.65c0,.96.46,1.57,1.39,1.57.49,0,.86-.12,1.54-.43v-.28c-.25.09-.43.15-.65.15-.62,0-.86-.4-.86-.96v-3.09h1.33l.09-.37h-1.42v-1.05l-1.64.68c.15.37.22.56.22,1.11h0ZM71.18,64.04c1.3,0,2.53-.83,2.53-2.56s-1.23-2.53-2.53-2.53-2.53.83-2.53,2.53c.03,1.73,1.26,2.56,2.53,2.56ZM70.16,61.48c0-1.7.53-2.22,1.05-2.22s1.05.52,1.05,2.22-.52,2.22-1.05,2.22c-.56,0-1.05-.49-1.05-2.22ZM76.42,63.94h1.51c-.22-.49-.28-1.36-.06-2.19h2.31l.43,1.17c.22.56.15.77-.03,1.02h2.28c-.22-.19-.43-.49-.62-1.02l-2.13-5.62-1.36.59c.09.56-.06,1.2-.68,2.53l-1.67,3.52h0ZM78.03,61.41s.03-.06.03-.09l1.11-2.44.93,2.53h-2.07ZM83.4,63.94h1.94c-.22-.37-.25-.56-.25-1.11v-1.91c.37-.56.9-.77,1.82-.77v-1.17c-1.08,0-1.48.59-1.82,1.54v-1.54l-1.64.68c.19.37.25.56.25,1.11v2.07c-.06.56-.12.74-.31,1.11h0ZM89.72,60.46v.19l-1.7.74c-.8.34-1.2.77-1.2,1.39,0,.77.56,1.26,1.3,1.26.37,0,.62-.06,1.73-.56.12.4.43.56.93.56.28,0,.52-.09.68-.19-.15-.12-.28-.34-.28-.71v-2.47c0-1.11-.59-1.7-1.6-1.7-.56,0-1.02.15-2.01.59v.37c.49-.22.86-.37,1.26-.37.59-.03.9.28.9.89h0ZM88.21,62.52c0-.56.34-1.02.99-1.3l.52-.22v1.91c0,.09,0,.22.03.28-.37.15-.56.22-.74.22-.52-.03-.8-.4-.8-.9h0ZM92.28,58.51v5.52l1.2-.34c.34.22.56.34,1.05.34.93,0,2.44-.68,2.44-2.99,0-1.42-.74-2.1-1.51-2.1-.4,0-.62.06-1.73.56v-2.81l-1.64.68c.12.4.19.59.19,1.14h0ZM93.67,63.11v-3.24c.43-.19.59-.22.77-.22.52,0,.99.56.99,1.82s-.43,2.25-1.14,2.25c-.34-.06-.62-.25-.62-.62h0ZM97.9,60.77v2.25c0,.68.25,1.05.86,1.05.34,0,.65-.12.8-.31-.15-.12-.28-.25-.28-.93v-3.86l-1.64.68c.19.34.25.52.25,1.11h0ZM98.55,56.51l-1.02.99,1.02,1.02.99-1.02-.99-.99ZM102.96,60.46v.19l-1.7.74c-.8.34-1.2.77-1.2,1.39,0,.77.56,1.26,1.3,1.26.37,0,.62-.06,1.73-.56.12.4.43.56.93.56.28,0,.52-.09.68-.19-.15-.12-.28-.34-.28-.71v-2.47c0-1.11-.59-1.7-1.6-1.7-.56,0-1.02.15-2.01.59v.37c.49-.22.86-.37,1.27-.37.59-.03.89.28.89.89h0ZM101.48,62.52c0-.56.34-1.02.99-1.3l.52-.22v1.91c0,.09,0,.22.03.28-.37.15-.56.22-.74.22-.53-.03-.8-.4-.8-.9h0Z"/>
  <path class="cls-2" d="M49.33,50.18l1.91,5.52h.8l1.33-4.07,1.36,4.07h.8l2.31-6.66h-1.36c.4.49.46,1.36.03,2.62l-.83,2.41-1.63-5.12-1.39.59c.4,1.11.34,2.04.03,2.93l-.52,1.6-1.33-4.07c-.12-.43-.09-.71.15-.93h-2.38c.31.15.49.52.71,1.11h0ZM59.7,53.48l-.62.25c-.06-.25-.09-.52-.09-.86,0-1.11.43-1.79,1.08-1.79.49,0,.74.37.74.96,0,.68-.34,1.11-1.11,1.45h0ZM57.54,53.42c0,1.45.96,2.44,2.41,2.44,1.17,0,2.01-.62,2.31-1.7l-.15-.03c-.22.49-.77.77-1.51.77-.68,0-1.14-.28-1.39-.83l.96-.4c1.42-.59,1.91-1.02,1.91-1.6,0-.77-.74-1.3-1.85-1.3-1.57-.03-2.68,1.08-2.68,2.65h0ZM63.03,50.31v4.47c0,.68.25,1.05.86,1.05.34,0,.65-.12.8-.31-.15-.12-.28-.25-.28-.93v-6.11l-1.64.68c.19.4.25.59.25,1.14h0ZM67.75,55.83c1.11,0,1.88-.59,2.16-1.7l-.15-.03c-.22.49-.71.77-1.36.77-.99,0-1.54-.71-1.54-2.07,0-1.08.56-1.76,1.39-1.76.52,0,.93.31,1.2.96h.12v-1.05c-.56-.15-.96-.25-1.39-.25-1.7,0-2.81,1.02-2.81,2.59.03,1.54.96,2.53,2.38,2.53h0ZM72.87,55.83c1.3,0,2.53-.83,2.53-2.56s-1.23-2.53-2.53-2.53-2.53.83-2.53,2.53,1.26,2.56,2.53,2.56ZM71.82,53.27c0-1.7.52-2.22,1.05-2.22s1.05.52,1.05,2.22-.52,2.22-1.05,2.22c-.53.03-1.05-.49-1.05-2.22ZM82.41,52.09v2.68c0,.68.25,1.05.86,1.05.34,0,.65-.12.8-.31-.15-.12-.28-.25-.28-.93v-2.53c0-.62-.31-1.33-1.33-1.33-.37,0-.62.06-1.82.56-.22-.28-.59-.56-1.23-.56-.37,0-.62.06-1.73.53v-.53l-1.64.68c.19.37.25.56.25,1.11v2.07c0,.56-.06.74-.25,1.11h1.94c-.22-.37-.25-.56-.25-1.11v-2.99c.52-.22.68-.28.96-.28.43,0,.68.25.68.77v2.53c0,.56-.06.74-.25,1.11h1.94c-.22-.37-.25-.56-.25-1.11v-2.99c.53-.22.68-.28.96-.28.37-.03.62.25.62.74h0ZM86.85,53.48l-.62.25c-.06-.25-.09-.52-.09-.86,0-1.11.43-1.79,1.08-1.79.49,0,.74.37.74.96,0,.68-.34,1.11-1.11,1.45h0ZM84.69,53.42c0,1.45.96,2.44,2.41,2.44,1.17,0,2.01-.62,2.31-1.7l-.15-.03c-.22.49-.77.77-1.51.77-.68,0-1.14-.28-1.39-.83l.96-.4c1.42-.59,1.91-1.02,1.91-1.6,0-.77-.74-1.3-1.85-1.3-1.57-.03-2.68,1.08-2.68,2.65h0Z"/>
  <path class="cls-2" d="M64.91,42.05c-.38.44-.76.71-1.02.87-.43.27-1.22.76-2.18.6-.41-.07-.73-.23-.91-.34-.23-.16-.53-.39-.81-.74-.44-.54-.63-1.09-.72-1.42l-.31-1.54c-.33.22-.87.58-1.53,1.04-1.99,1.38-2.52,1.86-3.58,2.25-.43.15-1.08.35-1.95.41-.18.03-.98.12-1.72-.4-.93-.65-1.01-1.71-1.02-1.85-.08-.73-.14-1.85.09-3.18.49-2.83,1.97-4.7,2.74-5.65.46-.57,1.59-1.88,3.43-3.05.76-.49,1.49-.85,2.12-1.12.39-.17.59-.26.85-.33.39-.11,1.3-.34,2.34.02.25.09,1.32.46,1.85,1.51.3.6.29,1.16.28,1.95-.01.74-.14,1.35-.25,1.76-1,.74-1.99,1.48-2.99,2.22-.04-.85-.15-1.56-.25-2.07-.22-1.1-.38-1.33-.53-1.46-.62-.56-1.67-.3-1.93-.22-.71.34-2.01,1.1-3.03,2.58-.3.43-1.16,1.73-1.29,3.54-.04.57-.09,1.43.38,2.33.21.4.45.69.63.87.26.11.65.23,1.12.19.58-.05.97-.31,1.76-.93,1.09-.85,1.94-1.57,2.35-1.91.64-.53.57-.47,1.48-1.23.09-.08,1-.83,1.72-1.44.05-.05.57-.48.57-.48-.06.37-.14.92-.21,1.59-.14,1.23-.22,2.05-.13,3.05.08.87.2,2.13.89,2.37.22.08.43.04.59-.01.27-.52.54-1.11.78-1.76.14-.38.27-.76.37-1.11.03-.06.77-3.45.77-3.55,0-.09.03-.2.03-.3,0,.67.28,4.44.43,4.65-.4.77-.81,1.53-1.21,2.3Z"/>
  <path class="cls-2" d="M98.55,39.35l-.02.03s-.01-.06-.01-.06c0,0,0-.03-.03-.09-.02-.07-.04-.18-.08-.32.06.19.1.34.14.44Z"/>
  <path class="cls-2" d="M39.58,16.86l.03-.03.28-.9c-1.67.62-7.5,2.68-9.63,3.39l-.06.03-.22.93.22-.06c2.22-.74,7.74-2.72,9.38-3.36h0Z"/>
  <path class="cls-2" d="M98.41,29.88c.22.07.74.2,1.32,0,.76-.25,1.11-.88,1.29-1.18.47-.83.4-1.65.36-1.97-.04-.22-.23-1.17-1.12-1.87-.92-.71-1.93-.64-2.14-.61-.12,0-1.28,0-2.01,1-.69.93-.44,1.97-.4,2.1.08.31.23.73.53,1.14.74,1.02,1.84,1.31,2.18,1.39Z"/>
  <path class="cls-2" d="M104.47,43.11c-.08.46-.64.7-1.08.89-.27.11-.69.25-1.23.29-.21.04-.46.07-.74.03-1.16-.15-1.82-1.18-1.94-1.39-.14-.36-.28-.77-.41-1.2-.15-.51-.26-.98-.34-1.42-.05-.28-.2-.97-.2-.93-.01.04-.03.09-.04.13-.09.24-.31.64-.3.64-.06.12-1.05,1.69-1.92,2.21-.49.29-1.15.68-1.78.46-.43-.15-.64-.51-1.05-1.21-.3-.51-.5-1-.8-1.89-.18-.57-.41-1.33-.64-2.25,0-.09-.95-2.68-.95-2.68-.44.9-.87,1.71-1.27,2.42-.89,1.61-1.55,2.53-2.19,3.31-.41.5-.84.97-1.5,1.39-.39.26-.84.54-1.49.62-.67.08-1.22-.09-1.52-.21-.76-.31-1.18-.85-1.35-1.08-.6.64-1.2,1.02-1.6,1.23-.44.23-.98.51-1.76.57-.31.03-.96.04-1.7-.26-.26-.1-.75-.31-1.2-.78-.36-.38-.53-.76-.7-1.18-.22-.57-.51-1.32-.8-2.24-.16.49-.35.89-.52,1.18-.14.25-.45.75-.98,1.29-.21.22-.41.39-.56.5-.17.17-.43.38-.77.61-.37.25-.78.52-1.39.67-.21.05-.93.23-1.61,0-.12-.04-.62-.21-1.06-.7-.54-.58-.67-1.23-.7-1.49-.08-.35-.15-.7-.23-1.05-.1-.79-.2-1.62-.27-2.47-.07-.79-.12-1.55-.16-2.28-.06-.71-.12-1.42-.19-2.13.47-.4,3.55-2.13,3.55-2.13v.55c.01.76.03,1.41.06,2.01.05.95.11,1.59.22,2.75.09.92.18,1.76.43,2.79.05.22.21.83.68,1.39.22.27.49.59.84.58.32-.01.55-.29.81-.61.23-.28.34-.53.57-1.03.16-.35.36-.85.5-1.49.1-.69.19-1.43.26-2.22.05-.55.07-1.09.08-1.6-.03-.44-.07-.88-.1-1.32-.04-.5-.08-1.01-.12-1.51l3.42-1.79c-.05.44-.12,1.09-.14,1.88-.01.72.01,1.45.49,4.97.13.95.25,1.78.57,2.83.19.61.5,1.46,1.19,1.98.16.12.47.34.92.38.33.02.59-.06.74-.12.06-.02.39-.26.43-.32-.22-.49-.48-1.19-.65-2.05-.1-.5-.27-1.45-.15-2.69.13-1.19.48-2.09.68-2.54.5-1.13,1.16-1.93,1.64-2.42.31-.37.94-1.01,1.95-1.42.72-.3,1.37-.38,1.8-.39.4.01.8.03,1.21.05.23.04.71.14,1.18.34.32.14.5.26.61.36.08.07.15.13.19.18-.22,2.28-1.02,4.72-1.95,7.19.06-.44.11-1.07.07-1.82-.07-1.35-.12-2.5-.89-3.03-.16-.11-.76-.48-1.94-.13-.46.23-1.19.68-1.75,1.51-.78,1.16-.75,2.39-.74,3.41.01.65.1,1.67.53,2.87.46.93,1.2,1.47,1.82,1.35.13-.02.3-.08.49-.25.47-.43,2.16-3.11,2.19-3.17.04-.04.34-.75.34-.78.93-2.46,1.73-4.9,1.95-7.19,0-.03.02-.06.03-.09.15-.57.31-1.33.44-2.22.25-1.74.23-3.08.22-3.49-.03-.94-.13-2.12-.41-3.45,1.28-.74,2.57-1.48,3.85-2.22-.01.68-.02,1.59,0,2.68.02,1.2.06,2.27.15,3.75.05.82.11,1.8.19,2.92.1,1.41.19,2.45.28,3.54.21,2.37.31,3.56.44,4.52.18,1.3.4,2.47.61,3.48.13.61.59,1,1.02.98.3-.02.52-.25.59-.33.15-.29.31-.67.43-1.11.13-.46.19-.87.21-1.2.05-.72.09-1.46.12-2.21.03-.61.05-1.21.06-1.8,0-.11.01-.5-.26-.82-.11-.13-.24-.21-.33-.26l3.61-1.48c.15,1.03.29,2.06.44,3.09.14,1.1.28,2.11.41,3.01.46,3.19.68,4.18,1.51,4.79.46.34.96.45,1.26.49.06.12.13.3.1.49Z"/>
  <path class="cls-2" d="M98.55,39.35l-.02.03s-.01-.06-.01-.06c0,0,0-.03-.03-.09-.02-.07-.04-.18-.08-.32.06.19.1.34.14.44Z"/>
  <path class="cls-2" d="M81.54,46.42l-.22.8.22-.06c1.91-.62,6.6-2.31,7.99-2.87l.03-.03.22-.8c-1.42.53-6.36,2.28-8.21,2.9,0,0-.03.06-.03.06Z"/>
  <path class="cls-2" d="M72.63,26.02l-.03.06h-.06c-1.3-.25-2.01-.71-2.01-1.23,0-.36.51-.7.96-.71.61,0,1.23.61,1.23,1.48-.01.08-.03.17-.05.27-.01.05-.02.09-.03.14ZM73.71,26.3c-.09-.03-.37-.12-.49-.15h-.06l.03-.06c.06-.19.09-.4.09-.62,0-1.54-.68-2.07-1.23-2.07-.46,0-.96.22-1.33.59-.43.4-.65.9-.65,1.42,0,.8.56,1.27,1.76,1.48l.12.03-.09.06c-.8.62-2.96,1.48-4.32,2.04l-.37.15.37.09c.31.06.86.12,1.14.12h.06c.56-.19,3.05-1.17,3.95-2.28l.03-.03h.03c.06.03.31.12.4.15l.09.03.65-.9-.19-.06h0Z"/>
  <path class="cls-2" d="M47.61,38.78c-.36.57-1.44,2.23-3.9,4.33-1.48,1.26-3.8,2.96-7.06,4.36-.27.03-.34-.19-.58-.16-.93.44-4.66,1.76-5.37,1.92-1.07.18-2.4.31-3.93.26-1.34-.05-2.51-.23-3.48-.45-1.06-.26-1.85-.45-2.15-.52-.08-.02-.26-.06-.46,0-.11.03-.18.08-.23.11l-.33-.21c-4.16-3.17-3.33-8.48-1.11-12.55.28-.41,1.24-1.92,1.52-1.52-.41.62-.78,1.21-1.08,1.85-.14.3-2.31,5.42.47,8.89,1.37,1.71,3.35,2.28,4.44,2.59,1.47.42,2.76.43,3.61.38,1.28-.13,2.81-.41,4.46-.99.65-.23,1.25-.48,1.8-.73-.93-.93-2.66,1.01-3.55-.07.68-.52,3.42-1.14,3.92-1.35,1.29-.54,3.19-1.22,5.46-2.41,4.72-2.47,5.47-3.99,5.67-4.46.23-.52.66-1.56.34-2.76-.51-1.85-2.42-2.61-2.71-2.72-1.59-.6-3.42-1.16-5.47-1.58-5.21-1.05-9.74-.72-12.95-.18-.34-.18,2.22-6.35,2.43-6.44.59-.1,10.06-3.37,10.68-3.49,1.79-.62,8.52-3.21,8.92-3.24-.22,1.6-1.95,5.49-2.75,6.85,0,0-.37-.28-.58-.59-.13-.77-2.69.77-3.24.84-1.53.63-2.5.91-3.72,1.43,2.66.47,4.87,1.02,6.55,1.5,1.61.46,2.89.9,4.14,1.99.66.58,1.11,1.17,1.39,1.59.19.36.42.91.55,1.59.46,2.41-.77,4.48-1.69,5.95Z"/>
</svg>