<?xml version="1.0" encoding="UTF-8"?>
<!DOCTYPE svg PUBLIC "-//W3C//DTD SVG 1.1//EN" "http://www.w3.org/Graphics/SVG/1.1/DTD/svg11.dtd">
<!-- Creator: CorelDRAW (OEM Version) -->
<svg xmlns="http://www.w3.org/2000/svg" xml:space="preserve" width="3.6in" height="3.6in" version="1.1" style="shape-rendering:geometricPrecision; text-rendering:geometricPrecision; image-rendering:optimizeQuality; fill-rule:evenodd; clip-rule:evenodd"
viewBox="0 0 3600 3600"
 xmlns:xlink="http://www.w3.org/1999/xlink"
 xmlns:xodm="http://www.corel.com/coreldraw/odm/2003">
 <defs>
  <style type="text/css">
   <![CDATA[
    .fil1 {fill:#FEFEFE;fill-rule:nonzero}
    .fil0 {fill:#252422;fill-rule:nonzero}
   ]]>
  </style>
 </defs>
 <g id="Layer_x0020_1">
  <metadata id="CorelCorpID_0Corel-Layer"/>
  <g id="_2217810912512">
   <polygon class="fil0" points="3394.85,2854.21 205.15,2854.21 205.15,745.79 3394.85,745.79 "/>
   <g>
    <path class="fil1" d="M1922.8 2327.86l0 70.71c0,25.49 12.33,41.92 36.99,41.92 13.16,0 23.02,-3.28 41.12,-11.5l0 -7.4c-6.59,2.47 -11.52,4.11 -17.27,4.11 -16.44,0 -23.02,-10.69 -23.02,-25.49l0 -82.23 35.35 0 2.47 -9.86 -37.82 0 0 -27.96 -43.58 18.09c4.11,9.87 5.76,14.8 5.76,29.61zm150.45 112.63c34.54,0 67.43,-22.19 67.43,-68.24 0,-46.04 -32.89,-67.41 -67.43,-67.41 -34.52,0 -67.41,22.19 -67.41,67.41 0.81,46.05 33.7,68.24 67.41,68.24zm-27.13 -68.24c0,-45.22 13.99,-59.2 27.96,-59.2 13.97,0 27.94,13.98 27.94,59.2 0,46.05 -13.97,59.2 -27.94,59.2 -14.8,0 -27.96,-13.15 -27.96,-59.2zm166.92 65.78l40.29 0c-5.76,-13.16 -7.4,-36.18 -1.64,-58.38l61.65 0 11.52 31.25c5.76,14.8 4.11,20.55 -0.81,27.13l60.84 0c-5.76,-4.93 -11.52,-13.16 -16.44,-27.13l-56.74 -149.64 -36.18 15.61c2.47,14.8 -1.64,32.06 -18.09,67.43l-44.39 93.73zm42.75 -67.43c0,-0.81 0.83,-1.65 0.83,-2.47l29.59 -64.95 24.67 67.43 -55.09 0zm143.07 67.43l51.8 0c-5.74,-9.87 -6.57,-14.8 -6.57,-29.61l0 -50.98c9.87,-14.79 23.85,-20.54 48.51,-20.54l0 -31.25c-28.78,0 -39.46,15.63 -48.51,41.11l0 -41.11 -43.58 18.09c4.93,9.87 6.59,14.8 6.59,29.61l0 55.08c-1.66,14.8 -3.3,19.73 -8.23,29.61zm168.56 -92.92l0 4.93 -45.22 19.75c-21.38,9.04 -32.06,20.55 -32.06,36.99 0,20.56 14.79,33.7 34.52,33.7 9.87,0 16.44,-1.64 46.05,-14.79 3.28,10.69 11.52,14.79 24.66,14.79 7.4,0 13.97,-2.46 18.09,-4.93 -4.11,-3.29 -7.4,-9.04 -7.4,-18.9l0 -65.78c0,-29.59 -15.61,-45.22 -42.75,-45.22 -14.8,0 -27.13,4.12 -53.44,15.63l0 9.86c13.14,-5.76 23.02,-9.86 33.7,-9.86 15.62,-0.83 23.85,7.39 23.85,23.83zm-40.29 55.1c0,-14.8 9.04,-27.13 26.32,-34.54l13.97 -5.76 0 50.98c0,2.46 0,5.76 0.81,7.4 -9.86,4.11 -14.79,5.76 -19.73,5.76 -13.97,-0.83 -21.37,-10.7 -21.37,-23.85zm108.53 -106.89l0 147.17 32.06 -9.04c9.04,5.76 14.8,9.04 27.96,9.04 24.66,0 64.96,-18.07 64.96,-79.74 0,-37.82 -19.73,-55.91 -40.3,-55.91 -10.69,0 -16.44,1.64 -46.04,14.79l0 -74.81 -43.58 18.09c3.29,10.69 4.93,15.62 4.93,30.42zm36.99 122.51l0 -86.33c11.52,-4.93 15.63,-5.76 20.56,-5.76 13.97,0 26.3,14.8 26.3,48.51 0,34.54 -11.5,60.02 -30.42,60.02 -9.04,-1.64 -16.44,-6.57 -16.44,-16.44zm112.65 -62.48l0 60.01c0,18.09 6.59,27.96 23.02,27.96 9.05,0 17.28,-3.29 21.38,-8.22 -4.1,-3.3 -7.39,-6.59 -7.39,-24.68l0 -102.78 -43.58 18.09c4.93,9.04 6.57,13.97 6.57,29.61zm17.27 -113.48l-27.13 26.32 27.13 27.13 26.31 -27.13 -26.31 -26.32zm117.56 105.24l0 4.93 -45.22 19.75c-21.37,9.04 -32.06,20.55 -32.06,36.99 0,20.56 14.8,33.7 34.54,33.7 9.87,0 16.44,-1.64 46.05,-14.79 3.29,10.69 11.5,14.79 24.66,14.79 7.4,0 13.97,-2.46 18.09,-4.93 -4.11,-3.29 -7.4,-9.04 -7.4,-18.9l0 -65.78c0,-29.59 -15.61,-45.22 -42.75,-45.22 -14.8,0 -27.13,4.12 -53.45,15.63l0 9.86c13.16,-5.76 23.03,-9.86 33.72,-9.86 15.62,-0.83 23.83,7.39 23.83,23.83zm-39.46 55.1c0,-14.8 9.04,-27.13 26.32,-34.54l13.97 -5.76 0 50.98c0,2.46 0,5.76 0.83,7.4 -9.87,4.11 -14.8,5.76 -19.73,5.76 -13.99,-0.83 -21.39,-10.7 -21.39,-23.85z"/>
    <path class="fil1" d="M1491.11 2071.3l50.98 147.19 21.38 0 35.36 -108.54 36.18 108.54 21.37 0 61.67 -177.59 -36.18 0c10.69,13.15 12.33,36.17 0.81,69.89l-22.2 64.13 -43.56 -136.48 -37.01 15.62c10.69,29.61 9.04,54.27 0.81,78.11l-13.98 42.75 -35.35 -108.54c-3.29,-11.5 -2.47,-18.9 4.11,-24.66l-63.31 0c8.22,4.11 13.15,13.97 18.9,29.59zm276.26 87.99l-16.44 6.57c-1.65,-6.57 -2.46,-13.97 -2.46,-23.02 0,-29.61 11.5,-47.7 28.78,-47.7 13.15,0 19.73,9.87 19.73,25.49 0,18.09 -9.05,29.61 -29.61,38.65zm-57.55 -1.65c0,38.64 25.49,64.96 64.12,64.96 31.25,0 53.45,-16.44 61.67,-45.22l-4.1 -0.83c-5.76,13.16 -20.56,20.56 -40.3,20.56 -18.09,0 -30.42,-7.4 -37,-22.2l25.49 -10.69c37.82,-15.62 50.98,-27.13 50.98,-42.75 0,-20.56 -19.73,-34.53 -49.34,-34.53 -41.92,-0.83 -71.52,28.78 -71.52,70.71zm146.35 -83.04l0 119.22c0,18.09 6.57,27.94 23.02,27.94 9.04,0 17.28,-3.28 21.37,-8.21 -4.1,-3.29 -7.39,-6.59 -7.39,-24.66l0 -162.8 -43.58 18.09c4.93,10.69 6.57,15.62 6.57,30.42zm125.79 147.17c29.61,0 50.17,-15.61 57.55,-45.22l-4.1 -0.81c-5.76,13.16 -18.92,20.55 -36.18,20.55 -26.32,0 -41.11,-18.91 -41.11,-55.08 0,-28.78 14.79,-46.86 36.99,-46.86 13.98,0 24.66,8.21 32.06,25.49l3.29 0 0 -27.96c-14.79,-4.12 -25.48,-6.57 -36.99,-6.57 -45.22,0 -74.83,27.13 -74.83,69.07 0.83,41.11 25.49,67.41 63.31,67.41zm136.5 0c34.54,0 67.41,-22.2 67.41,-68.24 0,-46.04 -32.87,-67.43 -67.41,-67.43 -34.54,0 -67.43,22.2 -67.43,67.43 0,46.04 33.7,68.24 67.43,68.24zm-27.96 -68.24c0,-45.22 13.98,-59.19 27.96,-59.19 13.97,0 27.94,13.97 27.94,59.19 0,46.04 -13.97,59.2 -27.94,59.2 -13.99,0.83 -27.96,-13.16 -27.96,-59.2zm282.02 -31.25l0 71.54c0,18.09 6.57,27.94 23.02,27.94 9.04,0 17.28,-3.28 21.39,-8.21 -4.11,-3.29 -7.4,-6.59 -7.4,-24.66l0 -67.43c0,-16.44 -8.23,-35.36 -35.36,-35.36 -9.86,0 -16.44,1.64 -48.51,14.8 -5.76,-7.4 -15.62,-14.8 -32.89,-14.8 -9.86,0 -16.44,1.64 -46.04,13.99l0 -13.99 -43.58 18.09c4.93,9.87 6.57,14.8 6.57,29.6l0 55.1c0,14.79 -1.65,19.73 -6.57,29.59l51.8 0c-5.76,-9.86 -6.57,-14.8 -6.57,-29.59l0 -79.76c13.98,-5.76 18.09,-7.4 25.49,-7.4 11.5,0 18.09,6.57 18.09,20.55l0 67.43c0,14.8 -1.65,19.73 -6.59,29.61l51.81 0c-5.76,-9.87 -6.59,-14.8 -6.59,-29.61l0 -79.76c13.99,-5.76 18.09,-7.4 25.49,-7.4 9.87,-0.81 16.45,6.59 16.45,19.73zm118.39 37.01l-16.43 6.57c-1.65,-6.57 -2.47,-13.97 -2.47,-23.02 0,-29.61 11.52,-47.7 28.78,-47.7 13.16,0 19.73,9.87 19.73,25.49 0,18.09 -9.04,29.61 -29.61,38.65zm-57.55 -1.65c0,38.64 25.49,64.96 64.14,64.96 31.25,0 53.44,-16.44 61.67,-45.22l-4.11 -0.83c-5.76,13.16 -20.56,20.56 -40.3,20.56 -18.09,0 -30.42,-7.4 -36.99,-22.2l25.49 -10.69c37.82,-15.62 50.96,-27.13 50.96,-42.75 0,-20.56 -19.73,-34.53 -49.32,-34.53 -41.93,-0.83 -71.54,28.78 -71.54,70.71z"/>
    <path class="fil1" d="M1926.87 1669.28c0,2.46 -0.81,5.76 -0.81,8.22 0,2.47 -0.83,5.76 -0.83,8.23 -0.81,11.5 -1.64,23.02 -5.74,34.52 -2.47,5.76 -3.3,10.7 -4.11,15.63 -0.83,4.93 -2.47,10.69 -4.93,17.26 0,0 0,0.83 -0.83,2.47 -0.83,1.64 -0.83,4.93 -1.65,8.22 0,0.83 0,1.64 -0.83,1.64 0,0.83 0,0.83 0,1.66 -0.81,1.65 -0.81,3.29 -1.65,4.93 -2.46,8.22 -5.76,18.09 -9.86,29.59 -5.76,17.28 -12.33,32.89 -20.56,46.87 14.8,-2.46 26.3,-8.22 41.11,-21.37 7.4,-10.69 14.8,-21.37 22.2,-33.7 -4.11,-5.76 -11.52,-106.06 -11.52,-124.15z"/>
    <path class="fil1" d="M1824.91 1485.07c-9.05,-5.76 -18.91,-10.7 -28.78,-13.99 -43.57,-0.81 -85.5,51.81 -110.99,83.87 19.73,3.29 41.11,17.26 50.98,29.59 5.74,6.59 9.86,13.99 15.62,20.56 3.28,3.28 4.11,7.4 5.76,11.52 4.1,9.86 0,19.73 2.46,29.59 0.83,3.3 0.83,6.59 0.83,10.7 0.81,3.29 1.64,10.67 1.64,13.15l2.47 -1.64c27.13,-18.09 54.27,-39.46 79.74,-59.2 0,-0.83 0,-0.83 0,-1.65 2.47,-14.8 4.11,-30.42 6.59,-45.22 2.46,-13.97 0.81,-27.96 -2.47,-40.29 -2.46,-14.8 -10.69,-27.95 -23.85,-36.99z"/>
    <path class="fil1" d="M2524.65 1513.89l-4.11 -2.47c-3.29,-2.47 -13.16,-4.93 -20.56,-6.57 -21.37,4.1 -57.55,59.2 -62.48,75.64 13.16,5.76 25.49,14.8 32.89,24.66 1.64,2.47 4.11,4.93 5.76,7.4 3.28,4.93 6.57,9.04 9.86,13.16 3.28,4.11 4.93,7.4 6.59,11.5l0 0.83c2.46,5.76 2.46,12.33 1.64,18.09 0,4.11 0,8.21 0.81,11.5 0.83,3.3 0.83,5.76 0.83,9.06 1.64,1.64 2.46,3.29 3.28,5.74 0,1.64 0,4.11 -0.83,5.76 0.83,3.28 2.47,11.52 4.94,24.66 0.81,4.94 1.64,9.87 3.28,14.8 24.66,-65.77 46.04,-130.72 51.8,-191.57 -3.29,-3.29 -6.57,-6.57 -10.69,-9.04 -6.57,-5.74 -15.61,-10.69 -23.02,-13.15z"/>
    <path class="fil1" d="M2783.65 1707.08c-1.64,4.93 -2.46,9.86 -3.28,14.8 -0.83,4.1 -4.12,19.73 -4.12,19.73 -0.81,4.1 -2.46,7.4 -3.28,11.5 -2.47,9.05 -4.93,18.09 -6.57,27.96 -0.83,4.11 -1.64,8.22 -2.47,11.5 -0.81,3.3 -4.11,24.68 -9.87,27.13 5.76,-0.81 31.25,-6.57 40.29,-17.26 0.83,-1.64 4.11,-9.04 6.59,-15.61 0,-0.83 0.81,-2.47 0.81,-2.47l0.83 -1.65c-4.11,-11.52 -14.8,-51.81 -18.92,-75.64z"/>
    <path class="fil1" d="M2132.48 1599.37c-1.64,26.3 -4.11,52.61 -7.4,63.3 -2.47,7.4 -3.28,13.99 -4.93,18.92 -0.83,6.57 -2.47,12.33 -4.94,21.37 0,0.83 0,1.65 0,2.47 0,8.22 0.83,30.42 -9.04,59.2 -4.93,26.3 -15.62,50.98 -31.23,64.13 7.4,2.47 21.37,1.64 38.63,-14.79 4.11,-7.4 7.4,-13.99 9.87,-17.28 5.76,-8.22 9.04,-12.33 21.37,-36.18l0.83 -2.46c-6.59,-62.5 -11.52,-120.87 -13.16,-158.69z"/>
    <path class="fil1" d="M1328.32 1471.11c-60.01,-22.2 -115.11,-30.42 -175.94,-40.29 -84.69,38.65 -169.38,77.3 -234.33,115.12 30.43,-1.64 92.91,-0.83 123.33,-2.47 12.33,1.65 25.49,3.29 38.65,3.29 12.33,4.11 20.56,2.47 31.24,1.64 28.78,1.65 54.26,10.69 84.69,11.52 11.5,-0.83 21.37,7.4 32.06,9.86 4.93,-1.65 18.09,4.11 23.02,4.11 6.57,-1.65 12.33,5.76 19.73,5.76 11.52,2.47 21.37,5.76 32.06,11.52 9.87,3.28 20.56,3.28 28.79,10.69 27.95,18.91 55.9,41.11 72.34,72.36 9.04,18.9 15.63,33.7 15.63,50.96 31.24,-28.78 49.32,-51.8 63.31,-74 6.57,-29.59 7.4,-57.55 0.81,-74 -34.54,-47.68 -101.13,-80.57 -155.4,-106.06z"/>
    <path class="fil1" d="M2074.88 1829.61c-0.83,0 -0.83,0 -0.83,0 -3.29,-1.66 -6.57,-3.3 -9.86,-5.76 0,0 -0.83,-0.83 -1.64,-0.83 -10.69,-7.4 -17.28,-53.44 -18.09,-55.91 -0.83,-2.47 -0.83,-5.76 -1.64,-8.22 -3.3,-13.99 -7.4,-32.08 -12.35,-50.17 -0.81,-1.65 -0.81,-3.29 -1.64,-4.93 -0.81,-2.46 -1.65,-4.93 -1.65,-6.57 0.83,-16.44 -0.81,-32.89 -3.28,-48.51 -0.81,-8.23 -1.65,-16.44 -2.46,-24.68 -0.83,-5.76 -0.83,-2.46 -0.83,-5.76 -0.83,-6.57 -0.83,-10.69 -0.83,-22.19 0,-8.23 0,-16.45 0,-25.49 0,-4.11 0,-8.23 0,-11.52l0 -3.29c0,0 -23.83,10.69 -28.78,13.16 -1.64,0.81 -3.28,1.64 -4.93,2.46 -9.04,4.11 -10.69,4.94 -13.16,7.4 -1.65,1.64 -3.29,3.29 -9.05,6.59 0,0 -26.3,16.44 -38.63,27.13l0 0.81 0 0.83c0,0.81 0,0.81 0,1.65 0,0.81 0,1.64 0,2.46 0,3.3 0,7.4 0.81,12.35 0,2.46 0,5.74 0.83,9.04 0,4.1 0.81,8.21 0.81,13.15 0.83,4.94 0.83,2.47 1.65,7.4 0,3.28 0.83,5.76 0.83,9.04 0,0 0,0.83 0,2.47 0,18.09 7.4,118.39 11.52,124.15l1.65 0c0.81,9.04 4.1,16.44 7.4,23.02 1.64,2.47 3.28,5.76 4.1,8.23 4.94,8.22 9.04,16.44 10.69,26.3 0,1.65 0.83,3.29 0.83,4.93 3.29,4.94 4.93,9.87 9.87,13.99 2.46,2.46 4.1,4.1 6.57,5.76 4.93,2.46 10.69,3.29 16.44,4.1 6.57,0.83 12.33,1.65 18.09,2.47 1.65,0 4.12,-0.83 5.76,-1.64 0.81,0 2.46,-0.83 3.29,-0.83 24.66,-6.57 57.55,-19.73 74,-41.11l7.4 -9.86c0,-0.83 0.81,-0.83 0.81,-1.64 1.64,-2.47 5.76,-9.87 7.4,-13.16 -19.73,14.8 -33.7,14.8 -41.11,13.16z"/>
    <path class="fil1" d="M1875.06 1848.54c-0.83,0 -7.4,0.81 -7.4,0.81 -4.93,0 -7.4,-1.64 -7.4,-1.64 -6.59,-5.76 -12.33,-22.19 -13.97,-33.7 -0.83,-6.59 -4.94,-36.18 -4.94,-37.01 -0.81,-4.11 -0.81,-11.5 -1.64,-21.37 0.83,-9.86 1.64,-18.09 1.64,-25.49 0.83,-10.69 0.83,-13.97 3.3,-26.3 0.81,-4.93 1.64,-20.56 1.64,-33.72l0 -8.22 -1.64 0 -2.47 0.81c0,0 -4.11,2.47 -4.93,3.3 -1.65,0.81 -4.11,2.46 -5.76,3.29 -7.4,4.11 -15.63,9.04 -23.03,13.98 -10.67,7.4 -20.55,14.8 -29.59,22.2 -3.29,2.46 -5.76,4.93 -9.05,7.4 -9.87,8.22 -19.73,16.44 -27.96,26.31 -3.29,3.28 -11.5,12.33 -11.5,12.33 -34.54,32.07 -58.38,52.62 -89.63,61.67 -5.74,1.65 -9.05,3.29 -9.86,5.76 -0.83,0 -2.47,0 -4.93,0 -0.83,0 -0.83,0 -1.65,0 -2.47,0 -5.76,0 -7.4,0.83 -1.66,0 -4.11,0.81 -5.76,0.81 -2.47,0 -4.12,-0.81 -5.76,-1.64 -4.93,-4.11 -8.22,-9.04 -9.87,-13.16l-0.81 -1.64c-4.11,-10.69 -8.23,-21.37 -9.04,-32.06 -1.64,-22.2 0.81,-42.75 6.57,-60.84 7.4,-22.2 15.63,-46.05 28.78,-67.43 12.33,-22.2 27.13,-41.94 43.58,-63.31 4.11,-4.93 8.23,-9.86 12.33,-13.98 1.64,-2.47 4.11,-5.76 5.76,-8.23l0.83 -1.64c25.49,-32.06 67.41,-84.69 110.99,-83.86 -6.57,-1.65 -13.97,-3.3 -20.54,-4.11 -3.3,0 -16.44,-1.65 -20.56,-1.65l-0.81 0c-7.4,-0.83 -14.8,-1.64 -20.56,2.46 -25.49,5.76 -46.87,21.39 -64.95,35.37 -25.49,19.73 -52.63,41.11 -77.29,64.95 -34.53,33.7 -57.55,65.78 -71.54,101.13 -0.81,2.47 -2.46,5.76 -4.1,8.22 -0.83,1.66 -1.66,3.3 -2.47,5.76 -1.64,4.11 -4.11,8.23 -5.76,12.35 -6.57,13.14 -13.16,27.94 -17.26,42.75 -0.83,4.1 -1.65,8.22 -2.47,12.33 -0.83,3.29 -0.83,6.57 -1.64,9.87 -2.47,11.5 -5.76,23.02 -8.22,33.7 -2.47,8.22 0,15.62 5.74,20.55 2.47,2.47 4.11,4.11 4.11,8.23 3.29,20.56 11.52,35.35 27.13,49.34 0.83,0.81 1.64,1.64 2.47,1.64 0.81,0 1.64,0.81 1.64,1.65 3.29,6.57 9.04,9.04 16.44,9.04 2.46,0 4.93,0 9.05,-0.83l2.46 -0.81c3.28,-3.3 4.11,-8.23 2.47,-13.99 1.64,0 -1.65,-3.29 -0.83,-3.29 4.94,0 14.8,3.29 18.92,3.29l0.81 0c3.29,0.83 7.4,0.83 10.7,0.83 6.57,0 11.5,-1.64 16.43,-4.93 0,0 0.83,0 3.3,0l1.65 0c0.81,0 1.64,0 1.64,0 13.15,-0.83 26.3,-7.4 37.82,-13.16 7.4,-3.29 14.8,-7.4 21.38,-9.05 3.28,-0.83 5.76,-2.47 8.21,-4.11 0.83,-0.81 1.66,-1.64 3.3,-1.64 5.74,-3.29 10.69,-8.22 15.62,-13.15 4.93,-4.94 10.69,-10.7 16.44,-13.16 5.76,-3.3 12.33,-7.4 19.73,-13.16 1.64,-1.65 3.28,-3.29 4.93,-4.93 1.64,-0.83 2.47,-2.47 4.11,-3.3 4.93,-2.46 9.86,-4.1 15.62,-4.93l0 0.83c2.47,13.16 8.23,40.29 8.23,40.29 0.81,4.1 1.65,8.22 1.65,11.5l0.81 3.28c0.83,4.12 1.65,9.05 7.4,13.16 4.93,4.11 9.05,10.69 12.33,19.73 2.47,8.23 11.52,16.44 23.85,16.44 5.76,1.64 12.33,2.47 18.92,2.47 6.57,0 13.97,-0.83 22.19,-2.47 4.11,-0.81 32.07,-8.22 50.17,-32.06 2.46,-2.47 4.93,-4.94 6.57,-8.23 4.93,-8.22 9.87,-14.8 14.8,-21.38 -12.33,10.69 -24.68,16.45 -39.46,18.92z"/>
    <path class="fil1" d="M1231.32 1183.33l0.81 -0.81 7.4 -23.85c-44.39,16.45 -199.8,71.53 -256.53,90.44l-1.65 0.83 -5.75 24.66 5.75 -1.65c59.2,-19.73 206.38,-72.35 249.96,-89.63z"/>
    <path class="fil1" d="M2751.57 1478.54c11.5,9.05 31.23,23.83 41.93,33.71 9.03,8.21 -0.83,-0.81 9.86,4.93 2.47,1.64 4.93,3.28 6.57,5.76 8.23,9.05 12.35,14.8 20.56,6.57 3.29,-3.29 4.12,-14.79 2.47,-18.91 -9.04,-18.9 -1.64,-18.9 14.79,-13.97 10.7,3.29 10.7,-6.59 11.52,-20.56 0,-1.64 -0.81,-9.04 0,-9.86 5.76,-4.11 18.09,-9.87 14.8,-13.99 -2.47,-4.1 -0.83,-4.93 -3.29,-9.86 -3.29,-2.47 -18.92,-10.69 -18.92,-16.44 -0.81,-4.11 -3.29,-8.23 -5.76,-11.52 -9.04,-9.04 -29.59,-22.19 -40.28,-28.78 -1.65,-1.65 -4.12,-2.46 -5.76,-4.93 -1.64,-2.47 -5.76,-4.12 -6.57,-6.57 -8.23,2.46 -9.06,5.74 -14.8,10.69 -13.99,13.97 -23.85,32.06 -37.01,46.87 -4.11,4.93 -7.4,10.69 -12.33,15.61 -2.47,2.47 -3.29,5.76 -4.93,8.22 0,3.3 -4.94,6.59 -4.11,9.87 7.4,1.64 18.09,4.93 23.85,9.04 2.46,0.83 4.93,2.47 7.4,4.11z"/>
    <path class="fil1" d="M2736.77 1811.52c-1.64,-1.64 -2.47,-4.93 -3.29,-7.4 0,-0.83 -0.83,-2.47 -0.83,-3.28 -0.81,-4.12 -2.46,-7.4 -3.29,-11.52 -3.29,-9.04 -6.57,-12.33 -8.22,-21.37 -3.29,-12.33 -4.93,-25.49 -7.4,-38.65 -0.83,-6.57 -2.47,-12.33 -3.28,-18.9l-1.65 -6.59c-4.11,-23.02 -9.04,-46.04 -10.69,-69.89l0 -1.64c0,-3.29 -0.83,-6.57 -2.47,-9.87 -1.65,-4.1 -2.47,-8.22 -3.29,-13.15l0 -0.83c-0.83,-4.1 -1.64,-9.05 -1.64,-13.15 -0.83,-7.4 -2.47,-14.8 -2.47,-22.2 -0.83,-7.4 -3.29,-26.3 -5.76,-42.75 -1.64,-10.7 -3.28,-19.74 -3.28,-23.03 0,-0.81 0,-1.64 0,-2.46 0,-4.94 -0.83,-9.87 -2.47,-13.16 -1.65,-3.28 -2.46,-9.04 -3.29,-18.09 -0.81,-6.57 -0.81,-13.97 -0.81,-20.56 -0.83,-10.69 -0.83,-22.19 -2.47,-32.87 -0.83,-9.05 0.83,-91.28 1.65,-119.22 0.83,-19.75 1.64,-37.01 1.64,-42.77 0,-4.93 -0.81,-10.69 -1.64,-15.61 -0.81,-2.47 0,-13.16 0,-13.16l-6.57 2.47c-7.4,0.81 -18.09,8.22 -27.96,14.8 -4.93,3.29 -9.86,7.4 -12.33,8.22 -4.93,2.47 -12.33,7.4 -19.73,12.33 -9.87,6.59 -21.37,13.97 -26.32,15.63 -2.46,0.81 -9.86,5.74 -9.86,5.74 0,0 6.57,4.11 9.86,7.4 2.47,2.47 4.94,5.76 4.94,8.23 -0.83,8.22 -1.65,23.02 -1.65,39.46 0.81,8.22 0,48.51 0.81,59.2 -1.64,9.87 -3.29,40.29 -6.57,55.09 -5.76,28.78 -12.33,60.84 -13.98,74.81 0,0.83 0,1.64 -0.83,2.47 -5.76,60.84 -27.13,125.79 -51.8,191.57 0,0.81 -0.83,1.64 -0.83,2.46 -0.81,1.64 -1.64,4.11 -2.46,5.76 -0.83,2.47 -2.47,4.94 -3.3,8.23 -0.81,1.64 -1.65,3.29 -2.46,4.1 -0.83,1.64 -1.65,4.11 -3.29,5.76 -0.83,0.83 -0.83,2.47 -1.66,3.29l-1.65 3.3c-19.73,38.64 -39.46,60.84 -51.79,72.34l-1.65 1.66c-4.11,3.29 -8.21,4.93 -11.52,4.93 -9.04,0 -17.26,-10.69 -22.19,-17.28 -0.83,-1.64 -2.47,-2.46 -3.3,-4.1 -4.1,-4.12 -7.39,-9.05 -9.86,-15.63 -6.57,-17.26 -9.05,-35.35 -8.23,-54.26 1.66,-32.06 9.06,-64.13 20.56,-95.37 4.93,-13.16 11.52,-30.42 19.73,-46.87 0.83,-0.81 0.83,-2.47 1.64,-3.29l0.83 -2.47c0,-0.81 0.81,-0.81 0.81,-1.64 0,-0.81 0.83,-1.64 0.83,-2.46 0.81,-0.83 0.81,-1.64 1.64,-3.3 0.83,-0.81 0.83,-1.64 1.64,-2.46 0.83,-1.64 1.65,-3.28 3.29,-4.93l1.64 -2.47c0.83,-1.64 1.65,-3.28 2.47,-4.11l0.83 -0.83c4.93,-15.62 41.11,-71.53 62.48,-75.63 0,0 -3.28,-0.83 -4.93,-0.83 -1.64,0 -3.3,0 -3.3,0 -9.04,0 -16.43,1.64 -23.02,4.93 -5.76,2.47 -14.79,4.11 -23.85,6.57 -12.33,2.47 -25.49,4.94 -33.7,10.7 -10.69,7.4 -21.37,13.97 -32.06,19.73l-4.93 2.46c-13.99,8.23 -26.32,20.56 -35.36,35.36 -7.4,12.33 -14.8,26.3 -13.15,43.58 0.81,4.93 -0.83,10.69 -2.47,15.62 -2.47,8.21 -4.93,16.44 -7.4,24.66 -2.47,9.04 -5.76,18.09 -8.22,27.13 -0.83,4.11 -1.66,9.04 -2.47,13.16 0,1.64 -0.83,4.11 -0.83,5.76l0 1.64 0.83 0.81c4.12,5.76 2.46,12.35 0,19.73 -0.83,1.66 -0.83,4.11 -1.64,5.76l0 0.83c-0.83,4.11 -1.64,9.04 0.81,13.16 -6.57,6.57 -3.29,13.98 -0.81,18.09l0.81 2.46c1.64,4.11 1.64,8.23 2.47,12.33 0.83,4.94 0.81,9.87 2.47,14.8 2.46,5.76 13.14,13.16 15.61,14.8 0.83,0.81 2.47,1.64 4.11,3.29 -0.83,0.83 -4.11,5.76 -5.76,5.76 -1.64,0.83 -9.04,4.93 -12.33,5.76 -6.59,0.81 -13.16,0 -18.92,-2.47 -0.83,0 -1.65,-0.81 -2.47,-1.64 -0.81,0 -0.81,-0.81 -1.64,-0.81 -0.81,-0.83 -1.65,-0.83 -2.46,-1.66 -0.83,0 -0.83,-0.81 -1.64,-0.81 -0.83,-0.83 -1.64,-1.65 -2.47,-2.47 0,-0.81 -0.81,-0.81 -0.81,-1.64 -0.83,-1.65 -2.47,-2.47 -3.3,-4.12 -0.81,-0.81 -1.64,-1.64 -3.29,-2.46 -4.93,-4.93 -9.04,-10.69 -11.5,-16.44 -0.83,-2.47 -0.83,-4.11 -0.83,-6.57 -3.29,-4.94 -4.93,-9.87 -6.57,-15.63 -1.66,-9.04 -4.11,-17.26 -6.59,-25.49 -3.29,-10.69 -5.76,-20.55 -7.4,-32.06 -0.81,-6.57 -1.65,-12.33 -2.46,-18.09 -0.83,-8.22 -1.65,-15.62 -3.29,-25.49 -0.83,-3.29 -0.83,-5.76 -1.66,-8.22 -0.81,-3.29 -1.64,-7.4 -2.46,-13.97 -0.83,-6.59 -1.65,-11.52 -2.47,-18.09 -0.81,-5.76 -1.65,-11.52 -3.29,-21.39 0,-0.81 -0.83,-6.57 -1.64,-10.69l-0.83 -4.1c-0.81,-3.3 -0.81,-5.76 -1.64,-9.04 -1.64,-7.4 -2.46,-15.63 -2.46,-23.04 0,-3.28 0,-6.57 0,-10.69 0,-11.5 0,-23.85 -0.83,-32.89l-0.81 -10.69c0,0 -23.85,11.52 -29.6,15.63 -1.65,0.81 -2.47,1.64 -4.12,2.46 -13.97,8.23 -19.73,11.52 -33.7,17.28l-4.93 2.47c-9.87,4.93 -15.63,7.39 -17.28,9.03l-1.64 0.83 0 1.64c0,0 0,0.83 0,1.65 0,0.83 0,0.83 0,1.64 0,1.64 0.83,3.29 0.83,4.94l0.81 5.74c0,1.65 0.83,3.29 0.83,4.93 0,0.83 0,1.66 0,3.3 0,1.64 0.81,13.16 0.81,16.44 1.64,36.99 6.59,96.19 13.16,158.69 0,0.81 0,1.64 0,2.46 3.29,24.68 3.29,25.49 4.11,26.32 1.65,2.47 3.29,4.93 4.93,7.4 0.83,0.81 0.83,1.65 1.65,2.46 4.11,7.4 9.04,16.45 19.73,19.73 0,0 1.64,0.83 2.47,2.47 5.76,9.87 11.5,20.56 15.61,29.61 5.76,10.69 13.98,19.73 24.68,27.95 2.46,1.64 4.93,2.47 7.39,2.47l0.83 0c1.64,0 3.28,0 4.93,0 1.64,0 2.47,0 4.11,0 0.81,0 1.64,0 1.64,0 0.83,0 2.47,0.81 3.29,1.64 1.64,1.64 4.11,2.46 7.4,2.46 0.83,0 1.64,0 1.64,0 3.29,0 5.76,0 9.05,0.83 3.28,0 6.59,0.83 9.87,0.83 4.1,0 7.4,0 10.69,-0.83 13.15,-2.47 23.85,-8.22 31.25,-15.62 4.93,-4.94 10.69,-9.04 16.43,-13.16 0.83,-0.81 1.66,-0.81 2.47,-1.64 2.47,-1.64 4.93,-3.29 6.57,-4.93 1.64,-1.64 4.11,-2.47 6.59,-4.11 2.46,-1.65 4.1,-2.47 6.57,-4.11 1.64,-1.65 2.47,-3.29 4.11,-4.93 4.93,3.29 8.21,6.57 9.04,9.05 2.46,8.23 7.4,11.52 13.16,14.8 5.74,3.28 13.14,5.76 19.73,8.21 2.46,0.83 13.98,0.83 15.62,0.83 9.86,0 13.16,-0.83 14.8,-1.65l1.64 0c11.5,-1.64 24.66,-7.4 26.31,-8.23 23.85,-9.86 42.76,-29.59 55.91,-41.94 4.11,-4.1 7.4,-7.39 9.87,-9.86 1.64,-1.64 4.11,-3.28 5.76,-5.76 15.62,-18.09 32.06,-38.64 45.22,-61.67 0.81,-1.64 1.64,-2.46 2.46,-4.11 3.28,-5.74 7.4,-13.15 8.23,-20.55 4.93,-1.64 6.57,-4.93 6.57,-7.4 0,-2.47 0.83,-5.76 0.83,-8.22 0,-2.47 0.81,-4.94 0.81,-8.23 0.83,-1.64 6.57,-13.97 12.33,-27.13l0.83 0.83c0,0.81 0,2.46 0,3.29 -0.83,4.11 0.81,7.4 1.64,10.69 0.83,1.64 0.83,3.29 1.64,4.93 0.83,3.29 13.16,25.49 13.98,27.96 0.83,4.93 1.64,9.86 4.11,14.8 0.83,0.81 1.64,2.46 1.64,3.29 0.83,1.64 1.64,3.29 1.64,5.74 0.83,4.11 2.47,9.06 5.76,12.34 -1.64,3.29 -0.81,5.74 0,7.4l0 0.81c3.29,12.33 6.57,23.02 9.86,33.72 0.83,2.46 1.66,4.93 2.47,7.39 1.64,5.76 3.29,11.52 4.11,17.28 0.83,10.69 4.12,19.73 7.4,28.78 3.29,0.81 4.93,3.29 4.93,8.22 0,0.83 0,0.83 0,1.66 4.93,5.74 10.69,12.33 17.26,17.26 0.83,0.81 1.66,1.65 2.47,1.65 3.29,0.83 7.4,1.64 10.69,2.47 2.47,0.81 4.11,0.81 6.59,1.65 6.57,0 13.15,-1.65 20.55,-1.65l4.93 -1.64 0 -0.83c2.47,-0.83 6.59,-3.29 14.8,-6.57 0.83,-0.83 2.47,-0.83 2.47,-0.83 4.93,-4.12 9.86,-7.4 14.8,-9.86 9.05,-5.76 25.49,-32.89 27.95,-34.54 1.64,-1.66 5.76,-5.76 5.76,-7.4 0,-3.29 1.64,-5.76 3.28,-7.4l0.83 -0.83c-9.04,11.52 -34.54,17.28 -40.29,17.28 -7.4,1.64 -16.45,-4.94 -18.09,-7.4z"/>
    <path class="fil1" d="M2964.52 1873.19c-0.81,-0.81 -1.64,-1.65 -3.28,-2.46 -0.81,0 -1.65,0 -3.29,-0.83 -12.33,0.83 -27.96,-6.57 -33.7,-13.16 -5.76,-6.57 -29.61,-94.55 -33.72,-106.88 -1.65,-4.94 -4.1,-21.39 -5.76,-24.67 -2.46,-4.1 -4.1,-8.22 -4.93,-13.15 0,-3.3 -6.57,-35.37 -6.57,-40.3 0,-4.11 -0.83,-7.4 -0.83,-11.52 -0.81,-9.04 -6.57,-50.96 -7.4,-60.02 -0.81,-4.93 -1.64,-10.67 -1.64,-16.43 0,0 0,-0.83 0,-1.66 0.83,-9.03 0.83,-12.33 -0.81,-13.97l-0.83 -1.64 -1.65 0c-2.47,0 -7.4,2.47 -20.56,9.04 -4.1,2.47 -9.86,4.93 -11.5,5.76 -11.52,3.29 -26.3,9.05 -35.36,13.16 -4.93,2.46 -27.12,11.5 -27.12,11.5 3.29,3.3 14.79,11.52 14.79,11.52 3.3,8.21 2.47,86.33 2.47,87.97 4.11,23.85 15.62,64.14 18.09,74 0.83,1.65 0.83,2.47 0.83,2.47 0,0 4.1,17.26 5.74,26.3 1.64,1.66 2.47,3.3 3.29,4.12 3.3,5.76 4.94,27.13 6.59,33.7 3.28,10.69 8.21,20.56 9.86,32.08 13.99,17.26 28.78,33.7 51.81,36.99 4.93,0.83 9.86,0.83 14.8,0.83 1.65,-0.83 3.29,-0.83 4.93,-1.64 13.16,-4.12 24.66,-9.05 36.18,-14.8 6.57,-3.29 12.33,-6.57 17.26,-10.69 0.83,-0.83 2.47,-1.64 3.29,-3.29 5.76,-1.66 8.23,-5.76 9.04,-12.34 0,0.83 0,0.83 0,0z"/>
    <path class="fil1" d="M2264.83 1797.53l-0.83 -6.59c0,1.66 0,4.11 0.83,6.59z"/>
    <path class="fil1" d="M2349.47 1971l-5.76 21.37 5.76 -1.64c50.98,-16.44 175.96,-61.67 212.95,-76.47l0.83 -0.83 5.74 -21.37c-37.82,13.99 -169.37,60.85 -218.71,77.3l-0.81 1.64z"/>
    <path class="fil1" d="M2111.87 1427.55l-0.81 1.64 -1.66 0c-34.52,-6.57 -53.44,-18.9 -53.44,-32.88 0,-9.04 13.16,-18.92 25.49,-18.92 13.97,0 30.42,18.09 30.42,42.75 1.64,2.47 0.83,4.94 0,7.4zm28.78 7.4c-2.46,-0.81 -9.86,-3.29 -13.16,-4.12l-1.64 0 0.83 -1.64c1.64,-4.93 2.47,-10.69 2.47,-16.44 0,-41.11 -18.09,-55.08 -32.89,-55.08 -12.33,0 -25.49,5.76 -35.36,15.62 -11.5,10.69 -17.26,23.85 -17.26,37.82 0,21.39 14.8,33.72 46.86,39.46l3.29 0.83 -2.46 1.64c-21.39,16.44 -78.94,39.46 -115.12,54.27l-9.86 4.11 9.86 2.46c8.23,1.66 23.02,3.3 30.42,3.3l0.83 0 0.83 0c14.79,-4.94 81.39,-31.25 105.23,-60.85l0.83 -0.81 0.81 0c1.66,0.81 8.23,3.29 10.69,4.1l2.47 0.83 17.28 -23.85 -4.94 -1.64z"/>
    <path class="fil1" d="M840.73 1554.97c10.69,-2.47 22.2,-4.11 32.89,-4.94 4.93,-0.81 9.87,-0.81 14.8,-0.81 2.46,0 19.73,-4.11 29.6,-2.47 64.95,-38.63 149.64,-77.28 234.33,-115.11 32.89,-13.97 59.19,-21.37 100.3,-38.65 14.8,-1.65 83.04,-42.75 86.34,-22.19 5.74,8.22 15.62,15.62 15.62,15.62 21.37,-36.18 27.13,-51.8 37.82,-84.69 12.33,-38.65 29.59,-55.09 35.35,-97.85 -10.69,0.83 -27.13,11.52 -34.54,15.62 -18.09,8.23 -38.63,17.27 -58.37,27.13 -47.7,19.73 -97.03,27.13 -144.71,43.58 -16.44,3.28 -21.37,9.04 -36.18,11.52 -4.11,4.93 -15.63,7.4 -22.2,7.4 -13.98,4.93 -24.67,8.22 -38.65,16.44 -10.69,-1.64 -21.38,11.5 -35.35,9.04 -16.44,8.22 -64.95,32.06 -88.8,33.71 -11.52,0.81 -47.69,12.33 -63.31,14.8 -5.75,2.46 -3.29,7.4 -7.4,11.5 -11.51,46.05 -32.07,74 -50.16,119.22 -1.64,17.28 -16.44,36.18 -7.4,41.12z"/>
    <path class="fil1" d="M1478.78 1665.99c0.81,-4.12 2.47,-8.23 3.29,-12.35 0,-0.81 0,-0.81 0,-1.64 -13.97,21.37 -32.06,44.41 -63.31,73.19l0 0.81c-3.29,3.3 -6.57,6.59 -9.86,9.87 -32.08,34.54 -67.43,61.67 -105.25,88.8 -17.27,18.09 -37,31.23 -60.02,41.92 -46.04,27.13 -96.2,44.41 -145.53,64.14 -13.16,5.76 -23.85,1.65 -30.43,16.44 -0.82,-0.83 -1.64,-1.64 -2.46,-1.64 -22.2,2.46 -53.44,7.4 -71.54,21.37 23.85,28.78 69.89,-23.02 94.56,1.65 -9.04,10.69 -23.02,12.33 -34.53,19.73 -7.4,-2.46 -13.98,2.47 -20.56,4.11 -11.51,3.29 -31.24,6.57 -42.76,9.86 -40.29,1.64 -79.76,10.69 -120.04,8.23 -180.89,-11.52 -240.08,-152.93 -175.95,-311.62 8.22,-17.26 18.09,-32.88 28.78,-49.32 -7.4,-10.69 -32.89,29.59 -40.29,40.28 -59.2,108.54 -81.4,249.96 29.6,334.65 3.29,1.64 8.22,3.29 10.69,4.93 3.29,-2.46 5.76,-4.1 6.57,-4.93 3.29,-2.47 3.29,-1.65 18.09,5.76 60.02,28.78 136.48,31.24 203.91,20.56 4.94,0 9.05,-0.83 13.98,-0.83 6.58,2.47 13.15,-0.83 18.91,-2.47 2.46,-0.81 5.75,-0.81 9.04,-1.64l0.82 0c18.91,-4.11 37.82,-6.57 49.33,-23.85 6.58,1.66 12.34,4.94 18.09,0 26.31,-5.74 50.98,-15.62 75.65,-27.13 6.57,-0.81 8.22,4.94 15.62,4.11 135.67,-56.72 262.29,-153.76 310.8,-298.46l0 -0.81c2.47,-5.76 4.93,-11.52 6.57,-17.28l0 -0.81c0,-0.83 0,-1.64 0.83,-1.64 4.12,-4.94 5.76,-9.04 7.4,-13.97 -0.83,0.81 -0.83,0 0,0z"/>
   </g>
  </g>
 </g>
</svg>
