<?xml version="1.0" encoding="UTF-8"?>
<svg id="Layer_1" data-name="Layer 1" xmlns="http://www.w3.org/2000/svg" viewBox="0 0 226.45 80">
  <defs>
    <style>
      .cls-1 {
        fill: #fcdc4a;
      }

      .cls-1, .cls-2, .cls-3, .cls-4 {
        fill-rule: evenodd;
      }

      .cls-2 {
        fill: #b42369;
      }

      .cls-3 {
        fill: #d95040;
      }
    </style>
  </defs>
  <g id="Layer_1-2" data-name="Layer_1">
    <g id="_2217640305856" data-name=" 2217640305856">
      <path class="cls-4" d="M121.8,26.99v9.1c0,2.6,1.04,4.31,2.98,5.77,6.89,5.16,12.67.08,13.91-.21.6-.14,1.23.23,1.7.59,3.05,2.29,6.48,2.61,9.99,1.19,2.6-1.05,5.03-4.15,5.03-7.46v-8.99c0-1.39-.53-1.75-2.33-1.75-2.18,0-1.87.71-1.87,3.5,0,1.19.14,7.03-.15,7.9-.23.69-.58,1.19-1.04,1.64-2.19,2.18-5.52,2.25-7.71.06-2.54-2.55-.77-10.03-1.53-12.01-.43-1.12-1.51-1.1-2.4-1.1-2.53,0-2.1,1.95-2.1,4.67,0,2.06.33,4.82-.14,6.52-.24.87-.73,1.58-1.41,2.09-2.68,1.99-7.09.9-7.84-2.49-.3-1.38-.18-5.92-.18-7.52,0-3.48-.49-3.27-3.73-3.27-.47,0-.81.06-.98.42-.11.25-.19.97-.19,1.33h0Z"/>
      <path class="cls-1" d="M28.55,23.3c0-2.96-.35-3.97,1.25-5.57,1.45-1.44,3.03-1.14,5.75-1.14,1.51,0,8.87-.13,10.01.14,3.63.86,3.06,4.89,3.06,7.21,0,1.6.19,8.81-.24,10.03-1.33,3.79-5.53,2.34-7.69,2.75h-1.98c-3.55-.58-7.36,1.04-9.27-1.52-1.11-1.49-.88-2.09-.88-4.49,0-1.4.15-4.12-.05-5.37-.07-.48-.18-1.65.05-2.05h0ZM25.04,23.25v2.1c0,2.37,0,4.75,0,7.12,0,2.2.56,3.62,1.9,5.22,1.06,1.26,2.96,2.23,4.66,2.46,1.28.17,5.71.11,7.09,0h1.98c.97.09,3.69.11,4.65,0,3.58-.38,6.58-3.42,6.79-7.45.1-1.95.18-12.02-.28-13.85-.56-2.21-2.2-4.26-4.34-5.12-1.48-.59-2.14-.65-4.14-.65h-9.45c-3.39,0-4.66.31-6.92,2.54-2.28,2.26-1.95,4.74-1.96,7.62h0Z"/>
      <path class="cls-4" d="M67.3,21.5c0,1.76-.15,2.84.42,4.48.27.78.56,1.11,1.07,1.62,1.09,1.09,1.98,1.39,4,1.49,1.59.08,3.13.51,4.24,1.13,1.46.8,1.95,1.8,1.95,3.54,0,3.79-2.36,5.49-6.07,5.49-1.83,0-3.29-1.33-3.69-2.85-.49-1.86.49-1.97-1.33-1.94l-3.27-.12c0,2.8,1.12,4.99,2.38,6.61,2.18,2.8,4.68,3.12,8.01,3.09.63,0,1.38-.15,1.91-.31,1.22-.37,2.15-.83,2.96-1.59.93-.86,1.33-1.42,1.93-2.62,1.29-2.57,1.05-6.72.24-9.07-1.11-3.2-4.3-4.39-7.37-5-.41-.08-.76-.15-1.3-.22-2.87-.39-2.83-5.59.1-5.59,3.3,0,2.18,2.05,2.84,2.87.58.71,3.45.29,4.04.28.04-.46.12-.28.12-.58,0-7.89-8.76-7.4-11.18-4.99-1.14,1.13-2.01,2.5-2.01,4.29h0Z"/>
      <path class="cls-2" d="M40.68,49.05h22.41c3.98,0,9.65-1.09,10.26,4.68.15,1.4.02,12.48.02,14.92,0,2.77.27,4.96-.98,6.61-1.56,2.06-3.43,1.91-5.56,1.91h-33.73c-2.15.02-3.74-1.1-4.55-2.92-.43-.97-.35-2.01-.35-3.39v-7.59h-2.1c0,2.72,0,5.45,0,8.17,0,3.71,1.67,6.54,4.9,7.47,1.07.31,1.86.34,3.02.35h34.04c2.58-.03,4.5-1.02,5.64-2.47,1.65-2.09,1.65-2.95,1.65-6.52v-16.58c0-2.4-1.47-4.36-2.88-5.4-2.02-1.48-3.61-1.25-6.92-1.25h-24.86v1.98h0Z"/>
      <path class="cls-3" d="M26.09,63.29h2.1c4.12,0,9.19,1.02,11.59-3.35.85-1.54.9-2.18.9-4.12v-15.67h-1.98s.03,6.92.03,6.92v1.98c-.3,3.84.68,8.11-1.01,10.34-2.12,2.8-5.57,1.71-9.53,1.93h-2.1c-4.54-.15-10.29-.02-15.06-.02-2.71,0-5.88.38-7.32-2.72-.65-1.39-.5-2.59-.5-4.52,0-3.16-.18-23.46.15-25.07.16-.77.74-1.71,1.32-2.3l.12-.11c1.56-1.45,2.72-1.24,5.06-1.24h15.17v-2.1H8.47c-3.25-.02-5.53,1.58-6.77,4.32-.31.69-.43,1.5-.47,2.37v26.03c0,1.5.09,2.46.74,3.66.63,1.18,1.65,2.18,2.77,2.83,1.38.81,2.51.82,4.67.82h16.69Z"/>
      <path class="cls-4" d="M83.4,17.18v25.21c0,.69,1.56.47,2.57.47,1.97,0,1.88-1.12,1.99-3.03.17-3.1-.65-6.27,1.23-8.81,2.33-3.14,8.81-2.18,8.81,4.84,0,.9-.11,4.94.11,5.73.54,1.93,4.09,1.99,4.09-.36v-7.47c0-2.45-1.11-4.2-2.65-5.75-3.85-3.87-10.1-1.47-11.38-2.5-.96-.77.46-7.85-.82-8.63-.68-.42-2.59-.18-3.12-.16-.47.02-.81,0-.81.47Z"/>
      <path class="cls-4" d="M175.96,27.8v-2.57h-3.03v17.86c0,.59,1.07.35,2.68.35.57,0,.35-1.19.35-2.33v-8.17c-.01-1.67.6-2.45,1.84-3.65,2.39-2.32,7.28-1.91,9.74,1.18.26.33,1.03,1.41,1.03,1.89v11.09c2.74,0,2.22.46,2.22-2.33v-8.29c-.02-2.52,3.25-5.25,5.72-5.25,2.15,0,3.15.24,4.85,1.56.51.4.89.88,1.26,1.42.67.97.43.88.54,2.26.19,2.37.15,5.64.34,7.95.23,2.73-.9,2.44,2.11,2.44.27,0,.35-.08.35-.35v-10.62c0-1.51-1.61-3.66-2.77-4.7-2.71-2.41-7.87-2.78-10.98-.88-2.21,1.35-1.92,1.75-2.94,2.43-.21-.78-2.02-2.22-2.71-2.66-2.47-1.59-5.23-1.59-7.93-.62-.62.22-1.04.43-1.54.8-1.01.73-.62.83-1.13,1.2h0Z"/>
      <path class="cls-4" d="M112.7,39.94c-3.39,0-5.72-2.45-5.72-5.6s2.6-5.5,5.59-5.44c2.25.05,4.21,1.42,4.99,3.27,1.05,2.5.33,5.07-1.74,6.69-.8.62-2,1.09-3.12,1.09h0ZM103.48,34.46c0,2.63,1.23,4.92,2.6,6.27,3.57,3.56,8.82,3.59,12.61.29.38-.33.49-.57.82-.93.54-.6.95-1.29,1.29-2.1,1.48-3.49.73-7.26-1.99-9.99-2.41-2.42-6.11-3.41-10.02-1.79-1.45.6-2.81,1.91-3.69,3.08-.85,1.15-1.62,3.16-1.62,5.15h0Z"/>
      <path class="cls-4" d="M210.04,35.74c-.22-.81-1.49-2.33-.35-4.79.75-1.62,2.91-3.15,4.9-3.15,1.32,0,2.86.97,3.39,1.75l-7.94,6.19h0ZM206.54,33.17c0,5,4.6,9.8,8.87,9.8,2.68,0,4.7-.88,6.27-2.48.78-.79,1.25-1.24,1.82-2.27.81-1.45,1.15-3.91.78-5.52l-2.52.17c-.36.21-.05.13-.05.65,0,2.12.01,3.47-1.59,5.07-1.86,1.86-4.34,2.23-6.65.84-.6-.36-1.74-1.29-1.91-1.94.5-.13,6.55-5.06,7.65-5.89.48-.36,2.23-1.83,2.62-1.93-.07-.85-2.08-2.6-2.68-3.04-3.44-2.49-7.1-1.69-10.07.91-1.48,1.29-2.54,3.54-2.54,5.63h0Z"/>
      <path class="cls-3" d="M55.62,10.06v-4.08c0-1.4,1.09-2.68,2.45-2.68h3.62c1.27,0,2.45,1.18,2.45,2.45v4.44c0,1.17-1.16,2.33-2.33,2.33h-3.85c-1.23,0-2.33-1.25-2.33-2.45h0ZM58.89.72h2.15c1.47.05,2.79.31,4.07,1.49,1.06.97,1.6,2.58,1.6,4.12,0,2.76.36,5.3-1.49,7.15-.82.83-2.05,1.6-3.65,1.6-2.82,0-4.83.36-6.8-1.37-.7-.62-1.6-2.02-1.6-3.3v-4.9c0-.69.33-1.66.58-2.1.97-1.7,2.81-2.69,5.13-2.69Z"/>
      <path class="cls-4" d="M165.92,42.86v-2.57c-1.61,0-2.67-.11-3.75-.68-.84-.45-1.63-1.55-1.74-2.81-.06-2.96-.23-5.77-.23-8.76h5.72v-2.8h-6.19v-3.03h-2.68c-.06,2.89-.13,4.6-.07,7.43.07,3-.19,8.26,1.05,10.38,1.69,2.53,4.58,2.86,7.23,3.18.39.05.66.06.66-.33h0Z"/>
      <polygon class="cls-4" points="174.79 58.15 184.83 58.15 184.83 56.28 177.13 56.28 177.13 52.43 182.97 52.43 182.97 50.56 177.13 50.56 177.13 46.59 184.83 46.59 184.83 44.73 174.79 44.73 174.79 58.15"/>
      <path class="cls-4" d="M166.86,25.59v17.27c0,.58.99.35,2.57.35.27,0,.35-.08.35-.35v-17.62c-1.68,0-2.92-.26-2.92.35Z"/>
      <path class="cls-4" d="M207.01,58.15h1.87v-7.94s.04.03.04.07l2.51,5.78c.27.66.67,1.4.83,2.08h2.33v-10.5h-1.75v7.94c-.39-.29-1.62-3.49-1.84-4-.31-.71-.58-1.35-.87-2.05-.13-.32-.26-.6-.42-.98-.48-1.16.05-.9-2.72-.9v10.5h0Z"/>
      <path class="cls-2" d="M26.09,61.31h2.1v-5.61c0-2.37-.09-3.31.98-4.74.77-1.02,2.11-1.87,3.8-1.92,1.88-.05,3.85,0,5.75,0v-1.98c-1.79,0-5.02-.19-6.65.03-2.6.35-4.7,2.22-5.53,4.51-.71,1.97-.45,7.25-.45,9.71h0Z"/>
      <path class="cls-4" d="M197.2,58.15h7.94v-1.4h-6.07v-3.03h4.2c.5,0,.35-.45.35-1.52h-4.55v-3.03h6.07v-1.52h-7.94v10.5h0Z"/>
      <path class="cls-3" d="M28.5,25.35c1.81,0,3.61,0,5.42,0,1.42,0,2.87.62,3.67,1.7,1.03,1.39,1.11,1.94,1.11,4.25v5.42h1.98c0-2.11,0-4.23,0-6.35,0-1.88-.41-3.42-1.66-4.76-1.07-1.15-2.26-1.94-4.15-2.26-.99-.17-5.17-.24-6.32-.05-.22.41-.12,1.57-.05,2.05Z"/>
      <path class="cls-4" d="M189.5,58.15h2.68l3.38-10.5h-1.87l-1.42,4.65c-.24.75-.45,1.55-.7,2.33-.11.36-.22.77-.35,1.17-.34,1.1-.08.79-.45,1.06-.07-.82-2.63-8.57-2.68-9.22h-1.87c.04.51,1.36,4.43,1.62,5.27.27.87.55,1.7.82,2.57.21.68.78,2.02.83,2.67h0Z"/>
      <polygon class="cls-4" points="216.46 49.16 219.96 49.16 219.96 58.15 221.83 58.15 221.83 49.16 225.22 49.16 225.22 47.65 216.46 47.65 216.46 49.16"/>
      <path class="cls-4" d="M165.69,20.45c0,3.29,5.02,3.6,5.02-.12,0-3.09-5.02-3.15-5.02.12Z"/>
    </g>
  </g>
</svg>