<?xml version="1.0" encoding="UTF-8"?>
<!DOCTYPE svg PUBLIC "-//W3C//DTD SVG 1.1//EN" "http://www.w3.org/Graphics/SVG/1.1/DTD/svg11.dtd">
<!-- Creator: CorelDRAW (OEM Version) -->
<svg xmlns="http://www.w3.org/2000/svg" xml:space="preserve" width="3.6in" height="3.6in" version="1.1" style="shape-rendering:geometricPrecision; text-rendering:geometricPrecision; image-rendering:optimizeQuality; fill-rule:evenodd; clip-rule:evenodd"
viewBox="0 0 3600 3600"
 xmlns:xlink="http://www.w3.org/1999/xlink"
 xmlns:xodm="http://www.corel.com/coreldraw/odm/2003">
 <defs>
  <style type="text/css">
   <![CDATA[
    .fil0 {fill:black}
    .fil2 {fill:#B42369}
    .fil3 {fill:#D95040}
    .fil1 {fill:#FCDC4A}
   ]]>
  </style>
 </defs>
 <g id="Layer_x0020_1">
  <metadata id="CorelCorpID_0Corel-Layer"/>
  <g id="_2217640305856">
   <path class="fil0" d="M1922.85 1613.63l0 130.37c0,37.28 14.83,61.74 42.72,82.65 98.64,73.95 181.38,1.17 199.27,-2.96 8.57,-1.98 17.6,3.36 24.3,8.39 43.62,32.75 92.84,37.31 143.04,17.03 37.27,-15.06 72.07,-59.5 72.07,-106.78l0 -128.7c0,-19.87 -7.61,-25.07 -33.43,-25.07 -31.19,0 -26.74,10.1 -26.74,50.15 0,17 2.02,100.62 -2.2,113.13 -3.35,9.93 -8.32,16.99 -14.91,23.54 -31.38,31.25 -79.08,32.26 -110.38,0.84 -36.43,-36.57 -11.03,-143.65 -21.94,-171.96 -6.17,-16 -21.61,-15.7 -34.44,-15.7 -36.3,0 -30.09,27.88 -30.09,66.86 0,29.46 4.76,69.04 -1.94,93.33 -3.45,12.5 -10.42,22.66 -20.22,29.93 -38.44,28.54 -101.59,12.92 -112.28,-35.63 -4.34,-19.73 -2.63,-84.73 -2.63,-107.69 0.02,-49.87 -7.08,-46.8 -53.48,-46.8 -6.78,0 -11.62,0.93 -13.98,6.08 -1.64,3.59 -2.74,13.87 -2.74,18.99z"/>
   <path class="fil1" d="M587.33 1560.84c0,-42.43 -4.96,-56.9 17.94,-79.71 20.75,-20.68 43.37,-16.26 82.35,-16.26 21.66,0 126.99,-1.85 143.39,2.04 51.97,12.32 43.82,70.09 43.82,103.27 0,22.98 2.65,126.16 -3.5,143.59 -19.11,54.22 -79.17,33.54 -110.16,39.42l-28.41 -0.12c-50.87,-8.22 -105.41,15.02 -132.82,-21.66 -15.95,-21.34 -12.61,-29.92 -12.61,-64.28 0,-20.12 2.19,-59.07 -0.69,-76.89 -1.07,-6.89 -2.51,-23.58 0.69,-29.39zm-50.15 -0.7l0 30.09c0.09,33.98 0.09,67.99 0.01,101.96 -0.07,31.46 7.96,51.88 27.23,74.73 15.16,17.98 42.45,31.89 66.77,35.19 18.28,2.48 81.73,1.58 101.57,0.07l28.41 -0.09c13.96,1.34 52.91,1.66 66.65,0.21 51.3,-5.42 94.19,-48.92 97.17,-106.76 1.44,-27.97 2.59,-172.15 -3.99,-198.28 -7.98,-31.69 -31.51,-61.02 -62.13,-73.26 -21.18,-8.46 -30.63,-9.28 -59.26,-9.28 -45.13,0 -90.26,0 -135.39,0 -48.57,0 -66.67,4.37 -99.04,36.35 -32.72,32.32 -27.89,67.95 -28,109.07z"/>
   <path class="fil0" d="M1142.26 1535.07c0,25.14 -2.12,40.62 6.02,64.18 3.84,11.11 7.95,15.84 15.28,23.17 15.55,15.56 28.38,19.95 57.23,21.33 22.74,1.09 44.83,7.34 60.76,16.13 20.86,11.51 27.86,25.84 27.86,50.7 0,54.34 -33.83,78.56 -86.92,78.56 -26.16,0 -47.16,-19.09 -52.8,-40.8 -6.95,-26.7 7.05,-28.24 -19.05,-27.75l-46.82 -1.65c0,40.13 16.07,71.43 34.11,94.59 31.22,40.09 67,44.65 114.72,44.2 9.02,-0.09 19.72,-2.17 27.3,-4.46 17.52,-5.28 30.73,-11.86 42.44,-22.75 13.25,-12.33 19.09,-20.39 27.71,-37.48 18.52,-36.74 15.1,-96.27 3.43,-129.93 -15.86,-45.78 -61.61,-62.8 -105.55,-71.63 -5.94,-1.2 -10.93,-2.11 -18.58,-3.15 -41.08,-5.54 -40.59,-80.01 1.45,-80.01 47.31,0 31.2,29.35 40.74,41.16 8.24,10.2 49.42,4.15 57.88,3.97 0.56,-6.64 1.67,-4.03 1.67,-8.36 0,-112.93 -125.38,-106 -160.08,-71.49 -16.26,16.17 -28.8,35.74 -28.8,61.46z"/>
   <path class="fil2" d="M761.17 1929.54l320.93 0c57.04,0 138.24,-15.54 146.87,67.08 2.1,20.11 0.22,178.78 0.22,213.73 0,39.68 3.87,70.96 -14.03,94.62 -22.35,29.54 -49.15,27.4 -79.57,27.4l-483.09 0.02c-30.81,0.2 -53.5,-15.78 -65.2,-41.78 -6.22,-13.83 -4.98,-28.81 -4.98,-48.5 0,-36.22 0,-72.43 0,-108.65l-30.09 0c0,39 0.09,78.01 -0,117 -0.12,53.11 23.96,93.7 70.19,107 15.28,4.39 26.6,4.94 43.32,4.99l9.66 0 2.2 0 475.63 0c36.88,-0.45 64.38,-14.56 80.76,-35.31 23.59,-29.89 23.61,-42.2 23.61,-93.39l0.06 -237.41c-0,-34.31 -21.04,-62.49 -41.33,-77.35 -28.97,-21.2 -51.75,-17.87 -99.13,-17.87l-356.03 0 0 28.42z"/>
   <path class="fil3" d="M552.23 2133.46l30.09 0c58.93,0 131.64,14.63 166.03,-47.93 12.11,-22.04 12.82,-31.16 12.82,-59.05 -0,-32.32 0,-64.63 0,-96.94l0 -28.42 0 -99.03 -28.41 0.09 0.41 98.94 -0.08 28.42c-4.28,55.04 9.78,116.2 -14.36,148.11 -30.37,40.15 -79.78,24.44 -136.41,27.64l-30.09 -0.11c-65.05,-2.03 -147.39,-0.13 -215.62,-0.13 -38.75,0 -84.18,5.43 -104.8,-38.95 -9.25,-19.91 -7.2,-37.06 -7.2,-64.68 0,-45.32 -2.62,-336 2.08,-358.96 2.26,-11.02 10.61,-24.52 18.95,-32.87l1.71 -1.63c22.41,-20.77 38.94,-17.73 72.53,-17.73 72.43,0 144.86,0 217.28,0l0 -30.09 -237.36 -0.02c-46.5,-0.27 -79.26,22.67 -96.94,61.85 -4.47,9.92 -6.13,21.42 -6.67,34l0 372.74c0.12,21.42 1.3,35.16 10.55,52.41 9.08,16.93 23.7,31.26 39.64,40.59 19.83,11.6 35.92,11.75 66.81,11.75l239.02 0z"/>
   <path class="fil0" d="M1372.93 1473.22l0 361.04c0,9.85 22.37,6.69 36.77,6.69 28.28,0 26.94,-16.04 28.43,-43.45 2.4,-44.44 -9.34,-89.8 17.62,-126.13 33.39,-44.98 126.12,-31.16 126.12,69.29 0,12.9 -1.57,70.77 1.56,82.01 7.71,27.59 58.61,28.49 58.61,-5.12l0 -106.98c0,-35.15 -15.95,-60.17 -38,-82.34 -55.11,-55.42 -144.57,-20.98 -163.04,-35.87 -13.7,-11.05 6.65,-112.35 -11.76,-123.64 -9.74,-5.97 -37.07,-2.62 -44.71,-2.28 -6.69,0.3 -11.6,0.14 -11.6,6.78z"/>
   <path class="fil0" d="M2698.43 1625.33l0 -36.77 -43.46 0 0 255.74c0,8.49 15.35,5.02 38.45,5.02 8.19,0 5.01,-17.06 5.01,-33.43l-0.01 -117.02c-0.15,-23.98 8.62,-35.06 26.3,-52.26 34.22,-33.28 104.31,-27.39 139.47,16.89 3.74,4.72 14.76,20.24 14.76,27.03l0 158.8c39.26,0 31.76,6.62 31.76,-33.43l-0.04 -118.72c-0.25,-36.03 46.62,-75.18 81.94,-75.18 30.81,0 45.13,3.42 69.52,22.41 7.34,5.71 12.76,12.56 18.11,20.34 9.59,13.96 6.16,12.65 7.74,32.38 2.71,34.01 2.1,80.73 4.84,113.84 3.23,39.07 -12.93,35.01 30.17,35.01 3.85,0 5.02,-1.16 5.02,-5.01l0 -152.11c0,-21.56 -23.04,-52.45 -39.71,-67.27 -38.87,-34.56 -112.66,-39.77 -157.23,-12.66 -31.69,19.27 -27.55,25.06 -42.09,34.8 -2.97,-11.13 -28.93,-31.82 -38.75,-38.14 -35.31,-22.71 -74.87,-22.72 -113.57,-8.88 -8.91,3.19 -14.84,6.17 -22.03,11.4 -14.44,10.5 -8.82,11.83 -16.2,17.23z"/>
   <path class="fil0" d="M1792.48 1799.17c-48.54,0 -81.9,-35.07 -81.9,-80.23 0,-43.09 37.23,-78.77 80.03,-77.87 32.21,0.68 60.32,20.38 71.41,46.78 15.06,35.85 4.76,72.61 -24.89,95.79 -11.45,8.94 -28.68,15.54 -44.65,15.54zm-132.05 -78.56c0,37.68 17.68,70.41 37.17,89.86 51.1,50.98 126.34,51.48 180.54,4.16 5.44,-4.75 7.06,-8.16 11.72,-13.35 7.75,-8.63 13.59,-18.51 18.46,-30.01 21.19,-49.98 10.39,-103.95 -28.51,-143.01 -34.48,-34.63 -87.5,-48.81 -143.48,-25.63 -20.83,8.63 -40.31,27.34 -52.78,44.17 -12.23,16.51 -23.13,45.27 -23.13,73.81z"/>
   <path class="fil0" d="M3186.51 1738.99c-3.08,-11.54 -21.36,-33.38 -5.04,-68.56 10.73,-23.13 41.71,-45.11 70.23,-45.11 18.93,0 40.96,13.85 48.48,25.07l-113.66 88.59zm-50.15 -36.78c0,71.63 65.94,140.41 127.03,140.41 38.44,0 67.28,-12.67 89.86,-35.5 11.12,-11.25 17.85,-17.82 26.04,-32.46 11.59,-20.74 16.54,-55.96 11.14,-79.12l-36.02 2.46c-5.2,2.99 -0.76,1.85 -0.76,9.24 0,30.41 0.16,49.69 -22.72,72.56 -26.64,26.63 -62.14,32 -95.29,12.02 -8.61,-5.19 -24.94,-18.48 -27.41,-27.75 7.22,-1.93 93.84,-72.46 109.59,-84.31 6.93,-5.21 31.89,-26.19 37.5,-27.68 -1.02,-12.21 -29.79,-37.22 -38.43,-43.47 -49.3,-35.7 -101.61,-24.2 -144.18,12.97 -21.15,18.46 -36.36,50.7 -36.36,80.64z"/>
   <path class="fil3" d="M975.11 1371.26l0 -58.5c0,-20.11 15.65,-38.44 35.1,-38.44l51.82 0c18.19,0 35.1,16.91 35.1,35.1l0 63.52c0,16.77 -16.66,33.43 -33.43,33.43l-55.16 0c-17.59,0 -33.43,-17.94 -33.43,-35.1zm46.8 -133.72l30.78 0c21.11,0.71 39.99,4.48 58.25,21.29 15.17,13.96 22.96,37 22.96,58.94 0,39.52 5.2,75.83 -21.28,102.41 -11.79,11.83 -29.31,22.95 -52.27,22.95 -40.44,0 -69.1,5.2 -97.36,-19.64 -10.05,-8.83 -22.98,-28.91 -22.98,-47.22l0 -70.2c0,-9.93 4.78,-23.75 8.37,-30.07 13.83,-24.35 40.27,-38.46 73.53,-38.46z"/>
   <path class="fil0" d="M2554.68 1840.95l0 -36.77c-22.99,0 -38.28,-1.58 -53.74,-9.78 -12.04,-6.39 -23.33,-22.15 -24.92,-40.26 -0.89,-42.33 -3.24,-82.59 -3.24,-125.46l81.91 0 0 -40.12 -88.59 0 0 -43.46 -38.44 0c-0.9,41.41 -1.88,65.91 -1,106.37 0.96,42.91 -2.77,118.26 15.1,148.64 24.16,36.28 65.53,40.94 103.54,45.59 5.61,0.69 9.39,0.88 9.39,-4.74z"/>
   <polygon class="fil0" points="2681.71,2059.92 2825.46,2059.92 2825.46,2033.17 2715.14,2033.17 2715.14,1978.02 2798.72,1978.02 2798.72,1951.27 2715.14,1951.27 2715.14,1894.44 2825.46,1894.44 2825.46,1867.7 2681.71,1867.7 "/>
   <path class="fil0" d="M2568.05 1593.57l0 247.38c0,8.37 14.24,5.01 36.78,5.01 3.85,0 5.01,-1.16 5.01,-5.01l0 -252.4c-24.09,0 -41.79,-3.7 -41.79,5.02z"/>
   <path class="fil0" d="M3143.05 2059.92l26.74 0 0 -113.66c0.23,0.33 0.52,0.49 0.61,1.06l35.93 82.75c3.88,9.41 9.65,20.04 11.94,29.85l33.43 0 0 -150.43 -25.07 0 0 113.66c-5.63,-4.12 -23.15,-50 -26.28,-57.3 -4.37,-10.2 -8.24,-19.29 -12.4,-29.39 -1.89,-4.57 -3.72,-8.66 -5.98,-14.08 -6.94,-16.63 0.74,-12.9 -38.91,-12.9l0 150.43z"/>
   <path class="fil2" d="M552.23 2105.18l30.09 0.11c0,-26.83 0,-53.65 0,-80.48 0,-33.87 -1.36,-47.45 14.04,-67.86 10.97,-14.54 30.23,-26.85 54.43,-27.47 26.99,-0.7 55.17,0.06 82.3,0.06l0.08 -28.42c-25.78,0 -71.98,-2.72 -95.3,0.39 -37.26,4.98 -67.35,31.82 -79.2,64.55 -10.22,28.19 -6.44,103.79 -6.44,139.11z"/>
   <path class="fil0" d="M3002.64 2059.92l113.66 0 0 -20.06 -86.92 0 0 -43.46 60.17 0c7.13,0 5.02,-6.42 5.02,-21.73l-65.19 0 0 -43.46 86.92 0 0 -21.73 -113.66 0 0 150.43z"/>
   <path class="fil3" d="M586.63 1590.23c25.87,0 51.76,0.1 77.62,-0.04 20.37,-0.11 41.07,8.91 52.54,24.35 14.81,19.96 15.96,27.74 15.96,60.93 -0,25.86 0,51.72 0,77.59l28.41 0.12c0,-30.36 -0.07,-60.72 0,-91.08 0.06,-26.89 -5.92,-48.91 -23.8,-68.13 -15.3,-16.44 -32.4,-27.83 -59.5,-32.43 -14.15,-2.41 -74.05,-3.38 -90.54,-0.7 -3.2,5.81 -1.76,22.49 -0.69,29.39z"/>
   <path class="fil0" d="M2892.32 2059.92l38.44 0 48.47 -150.43 -26.74 0 -20.27 66.65c-3.41,10.69 -6.42,22.13 -10.03,33.43 -1.63,5.09 -3.21,10.98 -5.01,16.72 -4.93,15.69 -1.13,11.33 -6.48,15.25 -0.98,-11.77 -37.67,-122.79 -38.44,-132.05l-26.74 0c0.61,7.34 19.52,63.44 23.19,75.43 3.82,12.49 7.89,24.31 11.7,36.77 3,9.8 11.14,28.97 11.91,38.23z"/>
   <polygon class="fil0" points="3278.44,1931.21 3328.58,1931.21 3328.58,2059.92 3355.33,2059.92 3355.33,1931.21 3403.8,1931.21 3403.8,1909.48 3278.44,1909.48 "/>
   <path class="fil0" d="M2551.34 1520.02c0,47.15 71.87,51.57 71.87,-1.67 0,-44.3 -71.87,-45.1 -71.87,1.67z"/>
  </g>
 </g>
</svg>
