<?xml version="1.0" encoding="UTF-8"?>
<!DOCTYPE svg PUBLIC "-//W3C//DTD SVG 1.1//EN" "http://www.w3.org/Graphics/SVG/1.1/DTD/svg11.dtd">
<!-- Creator: CorelDRAW (OEM Version) -->
<svg xmlns="http://www.w3.org/2000/svg" xml:space="preserve" width="3.6in" height="3.6in" version="1.1" style="shape-rendering:geometricPrecision; text-rendering:geometricPrecision; image-rendering:optimizeQuality; fill-rule:evenodd; clip-rule:evenodd"
viewBox="0 0 3600 3600"
 xmlns:xlink="http://www.w3.org/1999/xlink"
 xmlns:xodm="http://www.corel.com/coreldraw/odm/2003">
 <defs>
  <style type="text/css">
   <![CDATA[
    .fil0 {fill:#3C78BB}
   ]]>
  </style>
 </defs>
 <g id="Layer_x0020_1">
  <metadata id="CorelCorpID_0Corel-Layer"/>
  <g id="_2217810932624">
   <path class="fil0" d="M558.64 1992.74l149.13 0 73.12 -213.59c3.35,-10.04 2.33,-12.09 6.7,-13.26 0.56,6.66 7.14,21.9 9.32,28.49 3.25,9.81 6.52,18.46 9.72,28.09l58.68 170.27 151.23 0c-0.55,-6.6 -86.33,-224.85 -92.87,-241.1l-56.26 -145.38 -162.79 0 -18.24 47.92c-15.25,42.88 -35.28,89.76 -50.41,132.33 -18.15,51.03 -40.69,105.51 -59.35,157 -2.9,8 -17.55,44.1 -17.98,49.24z"/>
   <path class="fil0" d="M1314.8 1992.74l147.03 0c3.43,0 3.23,-2.46 4.13,-5.32l66.36 -194.09c1.52,-4.57 3.02,-9.08 4.72,-14.18 0.94,-2.83 1.56,-4.85 2.36,-7.1l3.29 -7.21 73.65 213.06c1.57,4.73 3.98,9.96 5.12,14.84l151.23 0c-0.33,-4.03 -6.7,-19.41 -8.55,-24 -22.2,-55.28 -43.68,-114.27 -65.86,-169.39 -12.91,-32.07 -24.39,-63.71 -37.36,-96.02l-37.36 -97.07 -162.78 0c-3.38,7.04 -5.83,15.71 -9,23.56l-132.94 350.17c-1.38,3.74 -3.93,7.82 -4.04,12.76z"/>
   <path class="fil0" d="M980.83 1719.68l110.28 0 0 269.91c0,2.42 0.73,3.15 3.15,3.15l150.18 0c2.42,0 3.15,-0.73 3.15,-3.15l0 -269.91 106.07 0 0 -113.42 -372.83 0 0 113.42z"/>
   <path class="fil0" d="M224.67 1719.68c37.89,0 72.35,1.05 110.27,1.05l0 272.01 155.43 0 0 -269.91c0,-2.42 0.73,-3.15 3.15,-3.15l103.97 0 0 -113.42 -372.83 0 0 113.42z"/>
   <path class="fil0" d="M2841.82 1608.35l0 384.38 173.29 0c21.19,0 38.72,-1.05 59.86,-1.05l0 -57.76 -112.37 0c-17.73,0 -31.7,-1.05 -49.36,-1.05l0 -110.28 91.37 0c19.11,0 34.51,-1.05 53.56,-1.05l0 -54.61c0,-2.42 -0.73,-3.15 -3.15,-3.15l-141.78 0 0 -97.67 153.33 0 0 -57.76c-41.16,0 -78.98,-1.05 -119.72,-1.05 -35.86,0 -68.76,1.05 -105.02,1.05z"/>
   <path class="fil0" d="M2537.26 1992.74l160.68 0c25.37,0 47.15,-1.05 72.47,-1.05 0,-10.21 0.08,-19.81 -0.9,-28.51 -1.18,-10.52 0.9,-20.2 0.9,-29.25l-96.62 0c-23.28,0 -42.93,-1.05 -66.16,-1.05l0 -110.28 144.93 0 0 -58.81 -144.93 0 0 -73.52c0,-9.55 1.05,-14.78 1.05,-24.15l152.28 0 0 -57.76 -223.7 -1.05 0 385.43z"/>
   <path class="fil0" d="M1951.23 1712.33c0,12.6 3.34,26.56 7.04,36.02 11.11,28.45 39.23,50.29 66.11,63.07 34.82,16.55 99.09,28.73 99.09,74.2 0,18.98 -6.99,31.22 -19.31,40.55 -30.93,23.4 -92.15,11.24 -124.13,-2.13 -6.06,-2.53 -13.73,-7.71 -19.34,-9.02 -0.67,8.02 -14.7,49.34 -14.7,59.86 3.74,0.87 22.41,11.1 43.14,15.68 56.28,12.43 118.94,12.41 165.42,-22.41 36.65,-27.46 50.57,-76.28 34.97,-123.37 -1.74,-5.24 -3.87,-9.5 -6.52,-14.48 -7.39,-13.86 -24.28,-29.67 -37.52,-38.09l-20.66 -11.89c-10.19,-4.9 -19.29,-8.57 -30.15,-12.91 -10.64,-4.26 -20.31,-7.86 -30.37,-12.69 -10.28,-4.93 -18.6,-9.87 -26.78,-17.33l-1.64 -1.51c-19,-18.8 -16.18,-50.09 8.6,-65.78 22.57,-14.29 58.87,-11.02 84.05,-4.82 16.69,4.11 28.13,10.84 34.85,12.41l16.8 -56.71c-37.28,-19.72 -106.95,-25.79 -150.04,-10.36 -7.54,2.7 -13.25,5.39 -20.45,8.95 -26.29,13.02 -47.52,37.1 -54.86,65.92 -1.57,6.17 -3.6,20.1 -3.6,26.86z"/>
   <path class="fil0" d="M2202.24 1610.46l0 56.71 109.22 0 0 322.42c0,2.42 0.73,3.15 3.15,3.15l65.12 0c2.42,0 3.15,-0.73 3.15,-3.15l0 -322.42 110.27 0 0 -59.86 -287.76 0c-2.42,0 -3.15,0.73 -3.15,3.15z"/>
   <path class="fil0" d="M3146.39 1610.46l0 379.13c0,2.42 0.73,3.15 3.15,3.15l225.8 0 0 -59.86 -157.53 0 0 -324.52c-11.84,0 -34.28,0.48 -43.35,-0.76 -5.01,-0.69 -10.36,-0.26 -15.47,-0.29 -5.15,-0.03 -12.6,-1.63 -12.6,3.16z"/>
  </g>
 </g>
</svg>
