<?xml version="1.0" encoding="UTF-8"?>
<svg id="Layer_1" data-name="Layer 1" xmlns="http://www.w3.org/2000/svg" viewBox="0 0 228.88 80">
  <defs>
    <style>
      .cls-1 {
        fill: #3c78bb;
        fill-rule: evenodd;
      }
    </style>
  </defs>
  <g id="Layer_1-2" data-name="Layer_1">
    <g id="_2217810932624" data-name=" 2217810932624">
      <path class="cls-1" d="M25.06,53.88h10.74l5.26-15.38c.24-.72.17-.87.48-.95.04.48.51,1.58.67,2.05.23.71.47,1.33.7,2.02l4.22,12.26h10.89c-.04-.48-6.22-16.19-6.69-17.36l-4.05-10.47h-11.72l-1.31,3.45c-1.1,3.09-2.54,6.46-3.63,9.53-1.31,3.67-2.93,7.6-4.27,11.3-.21.58-1.26,3.18-1.29,3.55h0Z"/>
      <path class="cls-1" d="M79.51,53.88h10.59c.25,0,.23-.18.3-.38l4.78-13.97c.11-.33.22-.65.34-1.02.07-.2.11-.35.17-.51l.24-.52,5.3,15.34c.11.34.29.72.37,1.07h10.89c-.02-.29-.48-1.4-.62-1.73-1.6-3.98-3.14-8.23-4.74-12.2-.93-2.31-1.76-4.59-2.69-6.91l-2.69-6.99h-11.72c-.24.51-.42,1.13-.65,1.7l-9.57,25.21c-.1.27-.28.56-.29.92h0Z"/>
      <path class="cls-1" d="M55.46,34.22h7.94v19.43c0,.17.05.23.23.23h10.81c.17,0,.23-.05.23-.23v-19.43h7.64v-8.17h-26.84s0,8.17,0,8.17Z"/>
      <path class="cls-1" d="M1.02,34.22c2.73,0,5.21.08,7.94.08v19.58h11.19v-19.43c0-.17.05-.23.23-.23h7.49v-8.17H1.02v8.17h0Z"/>
      <path class="cls-1" d="M189.45,26.2v27.68h12.48c1.53,0,2.79-.08,4.31-.08v-4.16h-8.09c-1.28,0-2.28-.08-3.55-.08v-7.94h6.58c1.38,0,2.48-.08,3.86-.08v-3.93c0-.17-.05-.23-.23-.23h-10.21v-7.03h11.04v-4.16c-2.96,0-5.69-.08-8.62-.08-2.58,0-4.95.08-7.56.08h0Z"/>
      <path class="cls-1" d="M167.52,53.88h11.57c1.83,0,3.39-.08,5.22-.08,0-.74,0-1.43-.06-2.05-.08-.76.06-1.45.06-2.11h-6.96c-1.68,0-3.09-.08-4.76-.08v-7.94h10.43v-4.23h-10.43v-5.29c0-.69.08-1.06.08-1.74h10.96v-4.16l-16.11-.08v27.75h0Z"/>
      <path class="cls-1" d="M125.33,33.69c0,.91.24,1.91.51,2.59.8,2.05,2.82,3.62,4.76,4.54,2.51,1.19,7.13,2.07,7.13,5.34,0,1.37-.5,2.25-1.39,2.92-2.23,1.68-6.63.81-8.94-.15-.44-.18-.99-.56-1.39-.65-.05.58-1.06,3.55-1.06,4.31.27.06,1.61.8,3.11,1.13,4.05.89,8.56.89,11.91-1.61,2.64-1.98,3.64-5.49,2.52-8.88-.13-.38-.28-.68-.47-1.04-.53-1-1.75-2.14-2.7-2.74l-1.49-.86c-.73-.35-1.39-.62-2.17-.93-.77-.31-1.46-.57-2.19-.91-.74-.35-1.34-.71-1.93-1.25l-.12-.11c-1.37-1.35-1.16-3.61.62-4.74,1.63-1.03,4.24-.79,6.05-.35,1.2.3,2.03.78,2.51.89l1.21-4.08c-2.68-1.42-7.7-1.86-10.8-.75-.54.19-.95.39-1.47.64-1.89.94-3.42,2.67-3.95,4.75-.11.44-.26,1.45-.26,1.93h0Z"/>
      <path class="cls-1" d="M143.4,26.35v4.08h7.86v23.21c0,.17.05.23.23.23h4.69c.17,0,.23-.05.23-.23v-23.21h7.94v-4.31h-20.72c-.17,0-.23.05-.23.23Z"/>
      <path class="cls-1" d="M211.38,26.35v27.3c0,.17.05.23.23.23h16.26v-4.31h-11.34v-23.37c-.85,0-2.47.03-3.12-.05-.36-.05-.75-.02-1.11-.02-.37,0-.91-.12-.91.23h0Z"/>
    </g>
  </g>
</svg>