<?xml version="1.0" encoding="UTF-8"?>
<svg id="Layer_1" data-name="Layer 1" xmlns="http://www.w3.org/2000/svg" viewBox="0 0 231.83 80">
  <defs>
    <style>
      .cls-1 {
        fill: #4d4d4f;
      }

      .cls-1, .cls-2 {
        fill-rule: evenodd;
      }

      .cls-2 {
        fill: #e31837;
      }
    </style>
  </defs>
  <g id="Layer_1-2" data-name="Layer_1">
    <g id="_2217818765984" data-name=" 2217818765984">
      <path class="cls-2" d="M1.37,69.44h5.07c0-1.28-.07-15.13.02-15.67.16-1.03,1.13-.82,2.32-.82h6.27c.8,0,2.44-.14,3.03.11.65.27.43,1.43.43,2.71v12.55c0,.79-.11,1.05.2,1.13h4.95v-15.45c0-.58.1-.79.49-.95.52-.22,4.58-.09,5.54-.09,2.17,0,3.57-.22,4.84.79,1.44,1.14,1.19,2.66,1.19,4.44v11.26h5.15v-11.18c0-2.55.4-4.39-1.01-6.47-.51-.76-1.16-1.34-1.93-1.85-1.82-1.2-3.66-1.01-6.55-1.01H1.37v20.51h0Z"/>
      <path class="cls-2" d="M173.59,65.42h-15.52c-.54,0-.97-.28-.97-.8v-8.61c0-.77.4-1.51.87-2.02.94-1.04,2.33-1.03,3.79-1.03h7.8c.13-.56,1.69-3.34,1.85-4.02-4.29,0-8.58.02-12.87,0-3.58-.02-6.59,2.75-6.59,6.28v10.38c0,2.11,1.84,3.86,3.94,3.86h22.76v-27.91h-5.07v23.89h0Z"/>
      <path class="cls-2" d="M48.59,53.03c1.84,0,15.07-.13,16.24.09,1.24.23,2.58,1.41,2.58,2.89v9.49h-16.25c-.58,0-1.05-.32-1.05-.88v-3.54c0-1.19,1.01-.97,1.85-.97h8.61c.17-.72,1.24-2.42,1.29-2.98h-10.3c-1.96,0-3.29-.18-4.58.57-1.06.61-1.77,1.77-1.77,3.46,0,1.38-.15,4.58.25,5.7.21.58.39.8.75,1.26.24.31.76.68,1.13.88.34.19,1.08.43,1.58.43h23.65v-14.56c0-2.55-2.18-5.04-4.78-5.68-1.13-.28-2.08-.19-3.35-.19h-14l-.91,1.99c-.21.42-.85,1.67-.94,2.04h0Z"/>
      <path class="cls-2" d="M230.46,69.44v-14.76c-.03-.37-.08-.71-.16-1.01-.65-2.54-3.25-4.68-5.95-4.67h-16.01s-1.85,4.02-1.85,4.02h7.8c2.54,0,5.38-.12,7.88,0,1.15.06,1.98.64,2.55,1.31.68.8.67,1.83.67,3.28v7.88c-1.15,0-15.77.08-16.47-.02-.27-.04-.5-.12-.66-.3-.29-.33-.16-2.47-.16-2.98,0-2.24-.17-2.09,2.09-2.09h8.29c.1-.44,1.25-2.47,1.37-2.98-2.03,0-12.8-.15-13.87.13-.88.23-1.65.71-2.1,1.36-.65.94-.69,1.34-.69,2.85v3.54c0,.69-.04,1.07.13,1.64.08.25.13.43.24.64.92,1.69,2.22,2.07,3.67,2.14h23.22Z"/>
      <path class="cls-1" d="M26.63,31.39h20.11c.19,0,.24-.06.24-.24v-4.26h-14.56v-3.94h13.03v-4.18h-13.03v-3.46h13.84v-4.5h-19.63v20.59h0Z"/>
      <path class="cls-1" d="M74.89,11.04v20.11c0,.19.06.24.24.24h5.47c.19,0,.24-.06.24-.24v-6.76h11.1v6.76c0,.19.06.24.24.24h5.47c.19,0,.24-.06.24-.24V11.04c0-.19-.06-.24-.24-.24h-5.47c-.19,0-.24.06-.24.24v8.53h-11.1v-8.53c0-.19-.06-.24-.24-.24h-5.47c-.19,0-.24.06-.24.24Z"/>
      <path class="cls-2" d="M121.3,69.44h5.15v-16.41h12.31c1.47,0,3.06,1.43,3.06,2.9v13.51h5.15v-14.08c0-3.46-2.94-6.35-6.11-6.35h-19.55s0,20.43,0,20.43Z"/>
      <path class="cls-1" d="M49.39,20.7c0,4.29.78,7.27,4.04,9.24,4.06,2.44,11.84,2.01,16.36,1.03l2.04-.53c-.32-1.38-.73-2.74-1.05-4.1l-3.42.6c-2.89.42-7.8.72-10.14-1.03-2.56-1.93-2.28-7.49-.02-9.29,2.64-2.1,8.09-1.5,11.18-.99.49.08,1.2.25,1.68.25.15-.65,1.12-3.78,1.13-4.26-.65-.01-3.7-1.05-7.48-1.05-4.74,0-8.23.33-11.37,2.95-.17.15-.25.16-.39.33-.55.66-1.08,1.26-1.49,2.13-.55,1.18-1.07,3.03-1.07,4.72h0Z"/>
      <path class="cls-1" d="M1.37,11.04v4.58h8.37v15.69h5.87v-15.69h8.29v-4.58c0-.19-.06-.24-.24-.24H1.61c-.18,0-.24.05-.24.23h0s0,0,0,0Z"/>
      <path class="cls-2" d="M84.7,52.95h8.53c1.56,0,2.76-.13,3.81.46.48.27.8.56,1.11.98.25.34.55,1.05.55,1.62v13.43h5.15v-14.32c0-3.15-2.52-5.69-5.55-6.11-1.44-.2-9.53-.08-11.66-.08l-1.93,4.02h0Z"/>
      <path class="cls-2" d="M185.81,55.04v14.4h5.07v-12.95c0-1.23.45-2.15,1.17-2.69,1.05-.78,1.44-.77,3.17-.77h7.8l.91-1.98c.22-.44.84-1.63.94-2.04-4.18,0-8.37,0-12.55,0-1.82,0-3.32.54-4.52,1.75-.63.63-.96.91-1.37,1.77-.3.61-.62,1.64-.62,2.52h0Z"/>
      <polygon class="cls-2" points="77.79 69.44 82.85 69.44 82.85 41.53 77.79 41.53 77.79 69.44"/>
      <path class="cls-2" d="M109.96,50.46v18.74c0,.18.05.24.23.24h4.92v-22.04c-.28.07-.44.2-.65.32-.23.13-.42.25-.67.38-.47.26-.88.49-1.34.76-.42.24-.85.48-1.28.74-.37.22-1.22.6-1.22.87h0Z"/>
      <path class="cls-2" d="M110.04,47.48l3.85-2.19c.22-.13.46-.27.66-.38.21-.12.56-.2.56-.49v-2.9h-5.07v5.95h0Z"/>
    </g>
  </g>
</svg>