<?xml version="1.0" encoding="UTF-8"?>
<!DOCTYPE svg PUBLIC "-//W3C//DTD SVG 1.1//EN" "http://www.w3.org/Graphics/SVG/1.1/DTD/svg11.dtd">
<!-- Creator: CorelDRAW (OEM Version) -->
<svg xmlns="http://www.w3.org/2000/svg" xml:space="preserve" width="3.6in" height="3.6in" version="1.1" style="shape-rendering:geometricPrecision; text-rendering:geometricPrecision; image-rendering:optimizeQuality; fill-rule:evenodd; clip-rule:evenodd"
viewBox="0 0 3600 3600"
 xmlns:xlink="http://www.w3.org/1999/xlink"
 xmlns:xodm="http://www.corel.com/coreldraw/odm/2003">
 <defs>
  <style type="text/css">
   <![CDATA[
    .fil1 {fill:#4D4D4F}
    .fil0 {fill:#E31837}
   ]]>
  </style>
 </defs>
 <g id="Layer_x0020_1">
  <metadata id="CorelCorpID_0Corel-Layer"/>
  <g id="_2217818765984">
   <path class="fil0" d="M209.13 2208.89l70.39 0c0,-17.77 -0.94,-210.17 0.23,-217.62 2.27,-14.36 15.7,-11.41 32.17,-11.41 29.05,0 58.09,0 87.14,0 11.06,0 33.94,-1.98 42.1,1.47 8.98,3.8 5.94,19.84 5.94,37.63l0 174.28c-0.02,11.03 -1.56,14.62 2.8,15.64l25.13 0c14.52,0 29.05,0 43.57,0l-0.06 -214.56c-0.06,-8.11 1.46,-10.97 6.85,-13.26 7.19,-3.04 63.66,-1.21 76.99,-1.21 30.08,0 49.63,-3 67.22,10.98 19.98,15.87 16.57,36.97 16.57,61.64 0,52.13 0,104.27 0,156.41l71.5 0 0 -155.29c0,-35.36 5.5,-61.02 -14.06,-89.85 -7.15,-10.53 -16.13,-18.68 -26.81,-25.69 -25.28,-16.6 -50.89,-14.06 -90.96,-14.06 -138.9,0 -277.8,0 -416.71,0l0 284.88z"/>
   <path class="fil0" d="M2601.02 2153.03l-215.62 0c-7.44,0 -13.41,-3.85 -13.41,-11.17l0 -119.54c0,-10.65 5.62,-20.93 12.13,-28.09 13.09,-14.43 32.31,-14.36 52.67,-14.36 36.12,0 72.24,0 108.37,0 1.8,-7.75 23.5,-46.44 25.69,-55.86 -59.56,0 -119.21,0.33 -178.76,-0.02 -49.7,-0.29 -91.59,38.13 -91.59,87.16l0 144.11c0,29.35 25.54,53.63 54.74,53.63l316.16 0 0 -387.66 -70.38 0 0 331.8z"/>
   <path class="fil0" d="M864.92 1980.98c25.59,0 209.31,-1.81 225.56,1.22 17.28,3.23 35.86,19.6 35.86,40.11l0 131.82 -225.67 0c-8.08,0 -14.52,-4.47 -14.52,-12.29l0 -49.15c0,-16.48 14.08,-13.41 25.69,-13.41l119.54 0c2.32,-9.98 17.23,-33.56 17.87,-41.33 -47.67,0 -95.33,0 -143,0 -27.23,0 -45.67,-2.46 -63.65,7.85 -14.78,8.47 -24.61,24.53 -24.61,48.01 0,19.16 -2.06,63.65 3.49,79.18 2.87,8.02 5.38,11.12 10.37,17.56 3.37,4.35 10.56,9.48 15.64,12.29 4.78,2.64 15.03,6.04 21.89,6.04l328.45 0 0 -202.21c0,-35.37 -30.33,-69.98 -66.35,-78.89 -15.75,-3.9 -28.88,-2.67 -46.49,-2.67 -64.8,0 -129.59,0 -194.39,0l-12.65 27.57c-2.91,5.83 -11.87,23.25 -13.05,28.29z"/>
   <path class="fil0" d="M3390.87 2208.89l0 -2.31 0 -2.3 0 -2.3 0 -2.31 0 -2.3 0 -2.3 0 -2.31 0 -2.3 0 -2.31 0 -2.3 0 -2.31 0 -2.31 0 -2.3 0 -2.31 0 -2.31 0 -2.3 0 -2.31 0 -2.3 0 -2.3 0 -2.31 0 -2.3 0 -2.31 0 -2.31 0 -2.3 0 -2.31 0 -2.3 0 -2.3 0 -2.31 0 -2.3 0 -2.3 0 -2.31 0 -2.3 0 -2.31 0 -2.3 0 -2.3 0 -2.31 0 -2.3 0 -2.3 0 -2.31 0 -2.3 0 -2.3 0 -2.31 0 -2.3 0 -2.3 0 -2.3 0 -2.31 0 -2.3 0 -2.3 0 -2.3 0 -2.31 0 -2.3 0 -2.3 0 -2.31 0 -2.3 0 -2.3 0 -2.3 0 -2.3 0 -2.3 0 -2.31 0 -2.3 0 -2.3 0 -2.31 0 -2.3 0 -2.3 0 -57.54c-0.45,-5.09 -1.15,-9.82 -2.21,-13.98 -9.01,-35.26 -45.11,-64.96 -82.67,-64.8l-222.35 0.02 -25.69 55.86c36.12,0 72.24,0 108.37,0 35.3,0 74.72,-1.67 109.5,-0.02 16.03,0.77 27.48,8.84 35.43,18.2 9.46,11.13 9.24,25.46 9.24,45.49 0,36.5 0,72.99 0,109.48 -16.02,0 -219,1.13 -228.79,-0.23 -3.76,-0.52 -6.93,-1.6 -9.2,-4.2 -3.96,-4.56 -2.2,-34.31 -2.2,-41.37 0,-31.1 -2.31,-29.05 29.05,-29.05 38.35,0 76.71,0 115.07,0 1.43,-6.13 17.36,-34.33 18.99,-41.33 -28.15,0 -177.73,-2.04 -192.57,1.82 -12.21,3.17 -22.85,9.87 -29.11,18.93 -8.99,13.02 -9.58,18.58 -9.58,39.57 0,16.39 0,32.77 0,49.16 0,9.61 -0.57,14.87 1.81,22.76 1.06,3.53 1.8,5.94 3.4,8.89 12.72,23.53 30.83,28.8 50.96,29.79l28.73 0c97.94,0 195.88,0 293.82,0z"/>
   <path class="fil1" d="M559.93 1680.46l279.3 0c2.57,0 3.35,-0.78 3.35,-3.35l0 -59.21 -202.21 0 0 -54.74 180.98 0 0 -58.09 -180.98 0 0 -48.04 192.16 0 0 -62.56 -272.59 0 0 286z"/>
   <path class="fil1" d="M1230.24 1397.81l0 279.3c0,2.57 0.78,3.35 3.35,3.35l75.97 0c2.57,0 3.35,-0.78 3.35,-3.35l0 -93.84 154.17 0 0 93.84c0,2.57 0.78,3.35 3.35,3.35l75.97 0c2.57,0 3.35,-0.78 3.35,-3.35l0 -279.3c0,-2.57 -0.78,-3.35 -3.35,-3.35l-75.97 0c-2.57,0 -3.35,0.78 -3.35,3.35l0 118.42 -154.17 0 0 -118.42c0,-2.57 -0.78,-3.35 -3.35,-3.35l-75.97 0c-2.57,0 -3.35,0.78 -3.35,3.35z"/>
   <path class="fil0" d="M1874.85 2208.89l71.5 0 0 -227.91 170.93 0c20.37,0 42.45,19.89 42.45,40.22l0 187.69 71.5 0 0 -195.51c0,-48.1 -40.86,-88.26 -84.91,-88.26l-271.47 0 0 283.77z"/>
   <path class="fil1" d="M876.09 1531.88c0,59.62 10.81,101.02 56.06,128.28 56.33,33.94 164.49,27.89 227.24,14.25l28.4 -7.35c-4.48,-19.2 -10.1,-38 -14.52,-56.98l-47.54 8.31c-40.1,5.81 -108.33,10.04 -140.81,-14.35 -35.61,-26.74 -31.73,-104.04 -0.31,-129.01 36.73,-29.18 112.36,-20.85 155.31,-13.7 6.77,1.12 16.68,3.5 23.3,3.5 2.1,-8.99 15.49,-52.44 15.64,-59.2 -9.02,-0.2 -51.4,-14.53 -103.9,-14.53 -65.87,0 -114.35,4.53 -157.86,41 -2.43,2.03 -3.41,2.17 -5.44,4.62 -7.65,9.22 -15.06,17.44 -20.68,29.6 -7.59,16.44 -14.89,42.11 -14.89,65.55z"/>
   <path class="fil1" d="M209.13 1397.81l0 63.68 116.19 0 0 217.85 81.56 0 0 -217.85 115.07 0 0 -63.68c0,-2.57 -0.78,-3.35 -3.35,-3.35l-306.11 0c-2.54,0 -3.32,0.75 -3.35,3.23l0 0.12z"/>
   <path class="fil0" d="M1366.54 1979.87c39.47,0 78.94,0 118.42,0 21.6,0 38.37,-1.76 52.89,6.33 6.63,3.69 11.15,7.79 15.44,13.61 3.48,4.7 7.65,14.53 7.65,22.52l0 186.57 71.5 0 0 -198.86c0,-43.75 -35.06,-79.08 -77.14,-84.85 -19.99,-2.74 -132.3,-1.17 -161.94,-1.17l-26.81 55.86z"/>
   <path class="fil0" d="M2770.83 2008.91l0 199.98 70.38 0 0 -179.87c0,-17.1 6.2,-29.88 16.26,-37.37 14.62,-10.88 19.99,-10.67 44.07,-10.67 36.12,0 72.24,0 108.37,0l12.66 -27.56c3.08,-6.17 11.72,-22.65 13.04,-28.31 -58.09,0 -116.19,0.07 -174.28,0 -25.28,-0.03 -46.08,7.44 -62.84,24.3 -8.76,8.81 -13.29,12.68 -19.03,24.55 -4.11,8.49 -8.63,22.84 -8.63,34.94z"/>
   <polygon class="fil0" points="1270.45,2208.89 1340.84,2208.89 1340.84,1821.23 1270.45,1821.23 "/>
   <path class="fil0" d="M1717.33 1945.24l0 260.3c0,2.54 0.75,3.33 3.23,3.35l0.12 0 68.15 0 0 -306.11c-3.94,0.92 -6.08,2.72 -9,4.41 -3.16,1.83 -5.88,3.41 -9.26,5.26 -6.59,3.61 -12.26,6.87 -18.55,10.5 -5.78,3.33 -11.74,6.61 -17.72,10.21 -5.11,3.07 -16.97,8.36 -16.97,12.07z"/>
   <path class="fil0" d="M1718.44 1903.9l53.41 -30.38c3.08,-1.85 6.39,-3.72 9.22,-5.31 2.91,-1.63 7.76,-2.8 7.76,-6.76l0 -40.22 -70.38 0 0 82.67z"/>
  </g>
 </g>
</svg>
