<?xml version="1.0" encoding="UTF-8"?>
<svg id="Layer_1" data-name="Layer 1" xmlns="http://www.w3.org/2000/svg" viewBox="0 0 135.52 80">
  <defs>
    <style>
      .cls-1 {
        fill: #fff;
      }

      .cls-2 {
        fill: #d03c3c;
      }
    </style>
  </defs>
  <path class="cls-2" d="M133.3,56.66c-.31-6.6-3.85-13.3-8.85-17.72,4.81-4.27,7.8-10.21,8.26-16.61.49-6.73-2.66-12.83-8.37-16.39-6.63-4.14-15.21-4.67-22.29-1.28-3.54,1.69-6.39,4.39-8.15,7.83-1.36,2.64-.9,6.83-3.63,10.02h-49.16c-.85-7.79-4.75-13.54-12.34-15.96-6.38-1.79-13.32-.61-18.73,3.2-5.14,3.62-8.03,9.37-7.85,15.63.13,4.45.45,7.16,3.61,10.38,1.75,1.78,3.35,3.61,4.49,5.87-3.54,2.79-6.32,6.08-7.49,10.51-1.03,3.91-.64,7.91.97,11.65,4.18,9.73,15.41,16.64,25.64,12.6,3.6-1.42,6.71-3.91,8.85-7.1,1.79-2.68,2.93-8.25,4.88-11.24h48.48c.05,8.61,4.91,15.05,12.91,17.77,7.78,2.5,16.95,1.06,22.98-4.64,4.02-3.8,6.12-9,5.77-14.53Z"/>
  <path class="cls-1" d="M77.33,36.3l.04,4.31c1.35-1.4,1.61-2.72,3.52-2.24l-1.92,2.2,2.04,2.88c-2.17.48-1.8-.86-2.95-1.89-.23-.2-.67.26-.68.55-.02.5.03.89-.04,1.35-.44.08-.85.09-1.33,0l-.03-7.09c.45-.12.9-.09,1.38-.05Z"/>
  <path class="cls-1" d="M43.94,37.84l-1.69.1-.03,5.49c-.47.14-.89.1-1.37.02l-.03-5.53-1.79-.06c-.1-.38-.11-.73-.01-1.15h4.99c.07.34.19,1.01-.07,1.12Z"/>
  <path class="cls-1" d="M48.56,43.45l-.05-3.11c0-.53-.29-.99-.8-1.01-1.75-.1-1,3-1.21,4.11-.43.08-.85.09-1.32,0l-.03-7.09c.44-.11.89-.09,1.36-.06l.06,2.63c.49-.55,1.01-.72,1.7-.69.91.04,1.63.63,1.63,1.57l.03,3.62c-.48.13-.88.09-1.36.03Z"/>
  <path class="cls-1" d="M55.8,41.24c.16-.88.05-1.93-.74-2.54-.82-.63-2.23-.71-3.08.03-1.22,1.06-1.25,3.24-.02,4.28.96.81,2.43.73,3.46.22.28-.14.12-.72.09-1.02-.58.17-1.14.4-1.87.33-.7-.07-1.21-.69-1.03-1.28l3.18-.03ZM52.58,40.27c0-.62.41-1.01.92-1.05.47-.03.97.27,1.04,1.01-.72.21-1.31.11-1.96.04Z"/>
  <path class="cls-1" d="M70.15,39.85c-.03-.75-.47-1.35-1.19-1.51-.98-.23-2-.14-2.86.34.09.3.2.83.46.85.32.02,1.68-.66,2.08.06.87,1.58-2.73-.17-3.07,2.09-.1.66.12,1.46.83,1.77.91.39,1.8.06,2.49-.6.21.39.3.65.52.65.23,0,.6.05.74-.1.04-1.17.04-2.34,0-3.54ZM68.46,42.29c-.29.25-.81.42-1.21.17-.25-.16-.28-.45-.21-.71.16-.68,1.32-.72,1.65-.56.3.16,0,.89-.23,1.09Z"/>
  <path class="cls-1" d="M74.78,39.46l-1.2.3c-.83.21-.42,3.01-.57,3.68-.46.09-.86.09-1.33,0l-.04-5.03c.17-.02.34-.03.53-.05.17-.01.34-.02.5-.02,0,.11.01.28.09.48.06.16.14.27.2.35.08-.14.34-.53.85-.76.53-.23,1.01-.14,1.16-.11.03.15.06.41-.01.71-.04.19-.12.34-.18.44Z"/>
  <path class="cls-1" d="M86.35,41.23c.12-.83.07-1.87-.67-2.48-.87-.72-2.38-.77-3.24.07-1.08,1.05-1.12,3.06-.03,4.1.98.94,2.53.81,3.64.3.15-.28.06-.7.03-.99-.59.14-1.04.31-1.67.32-.79.02-1.44-.62-1.26-1.28l3.2-.04ZM84.02,39.22c.56-.05,1.1.39,1.05,1.06-.71.11-1.21.08-1.9.02-.07-.55.33-1.04.85-1.09Z"/>
  <path class="cls-1" d="M88.19,54.33c-.1.25-.29.45-.51.44-1.12-.08-1.67-6.22-2.09-7.31-.6,2.34-.58,5.37-.33,7.96-.52-.33-.43-.96-.45-1.55-.05-2.31.04-4.52.52-6.76.03-.14.13-.23.2-.26.84-.34,1.22,7.47,2.16,7.64.14.03.29-.18.34-.36.57-2.2.77-4.42.6-6.69-.06-.78-.49-1.46-.33-2.3,1.1,2.2.76,7-.12,9.19Z"/>
  <path class="cls-1" d="M93.08,45.41c-.58.38-1.22.29-1.48-.05-.19-.25-.13-.59-.1-.7.46-.06.88.04,1.23-.29.24-.22.58-.67.38-1.18l-1.89-4.84c.51-.06.94-.07,1.46-.03l1.21,3.65,1.17-3.6c.47-.11.95-.09,1.44,0l-1.91,5.29c-.07.24-.24.64-.58,1.04-.33.38-.69.59-.91.7Z"/>
  <path class="cls-1" d="M89.02,43.52l-1.42-.05v-5.07c.33-.14.66-.1,1.02-.06,0,.1,0,.28.08.48.06.16.15.27.21.33.5-.6,1.09-1.11,1.97-.85.03.28.11,1.07-.19,1.19-.44.17-.83,0-1.25.34-.33.26-.37.71-.45,1.54-.05.54-.03.99,0,1.3,0,.28.02.56.03.84Z"/>
  <path class="cls-1" d="M89.1,44.93c.11.34.44.57.48,1.03l.43,5.45c.12,1.53.1,3.14,1.07,4.56l1.9-8.65.38-.05-1.8,8.29c-.06.28-.24.57-.46.62-.25.05-.48-.19-.6-.44-1.27-2.61-.9-7.55-1.44-10.61l.05-.18Z"/>
  <path class="cls-1" d="M102.98,46.05c.24-.25.47-.33.75-.28.23.05.41.24.53.66.19.68-.31,1.8-1.06,1.56-.81-.26-.68-1.45-.22-1.94Z"/>
  <path class="cls-1" d="M101.15,45.81c.49-.12.87.41.98.73.16.44.2,1.19-.37,1.45-.57.27-1.02-.43-1.15-.84-.16-.49-.06-1.19.54-1.34Z"/>
  <path class="cls-1" d="M99.48,49.2c-.26-.44-.39-1.12.15-1.4.47-.25.9.21,1.07.49.22.37.38,1.05-.04,1.36-.51.37-.98-.11-1.18-.45Z"/>
  <path class="cls-1" d="M104.54,51.69c-.43.74-1.25-.69-3.02.12-.25.11-.63.05-.82-.1-.59-.5.2-1.89.77-2.37.62-.53,1.51-.5,2.09.06.54.52,1.38,1.61.98,2.29Z"/>
  <path class="cls-1" d="M105.55,48.85c-.2.56-.72,1.06-1.26.71-.37-.24-.35-.85-.18-1.24.12-.28.39-.67.85-.71.29-.03.49.18.58.33.16.27.14.54,0,.91Z"/>
  <path class="cls-1" d="M81.3,50.94c-.28-.37-.06-2.23-.46-2.41-.31-.14-.93,2.09-1.53,2.45l-.07-1.27c-.39.66-.67,1.3-1.36,1.55-.21-.25-.18-.68-.43-.86-.51-.35-.76.21-1.21.64-.11-1.1-.05-2.08.16-3.14.03-.13-.18-.03-.24.02-.35.29-.41,3.57-.08,4.3.49-.48.32-1.46,1.05-1.6.35-.06.46.96.03,1.15-.47.21-1.75,1.06-1.13,1.51.14.1.33.14.53.07,1.09-.39.67-1.7,2.27-2.39.64,1.45,1.46-1.63,1.93-1.91,0,.72.33,1.68-.05,2.28-.67,1.03-1.78,1.75-2.03,3.01-.08.4.08.89.37,1.01.39.17.76-.01,1.07-.32,1.46-1.48.37-3.47,1.69-4.2.37-.21.79-.42.99-.87-.63.15-.91.67-1.5.96ZM79.45,55.17c-1.43.29.12-2.75,1.3-3.31.01,1.01-.26,3.1-1.3,3.31Z"/>
  <path class="cls-1" d="M63.54,39.93c.85-.47,1.02-1.21.86-1.97-.33-1.63-3.42-1.2-4.8-1.23l.02,6.72c1.62.03,4.67.53,4.99-1.6.13-.9-.22-1.54-1.07-1.93ZM61.11,37.91c.55-.06,1.07-.08,1.58.15.41.19.43.94-.02,1.16-.52.26-1.05.2-1.56.12-.11-.52-.11-.93,0-1.44ZM62.66,42.19c-.53.2-1.04.18-1.57.09-.09-.61-.11-1.13,0-1.71.81-.08,1.92-.14,2.03.71.04.32-.03.74-.46.91Z"/>
</svg>