<?xml version="1.0" encoding="UTF-8"?>
<!DOCTYPE svg PUBLIC "-//W3C//DTD SVG 1.1//EN" "http://www.w3.org/Graphics/SVG/1.1/DTD/svg11.dtd">
<!-- Creator: CorelDRAW (OEM Version) -->
<svg xmlns="http://www.w3.org/2000/svg" xml:space="preserve" width="3.6in" height="3.6in" version="1.1" style="shape-rendering:geometricPrecision; text-rendering:geometricPrecision; image-rendering:optimizeQuality; fill-rule:evenodd; clip-rule:evenodd"
viewBox="0 0 3600 3600"
 xmlns:xlink="http://www.w3.org/1999/xlink"
 xmlns:xodm="http://www.corel.com/coreldraw/odm/2003">
 <defs>
  <style type="text/css">
   <![CDATA[
    .fil3 {fill:#F39450}
    .fil2 {fill:#BC3D28}
    .fil5 {fill:#8896AF}
    .fil4 {fill:#40434E}
    .fil1 {fill:#787473;fill-rule:nonzero}
    .fil0 {fill:#292826;fill-rule:nonzero}
   ]]>
  </style>
 </defs>
 <g id="Layer_x0020_1">
  <metadata id="CorelCorpID_0Corel-Layer"/>
  <g id="_2217831811200">
   <path class="fil0" d="M1442.59 1381.44l-48.76 12.3 0 62.02 -42.54 0 0 35.82 42.54 0 0 141.15c0,30.48 5.1,53.46 19.28,67.37 11.9,12.83 30.62,19.79 53.87,19.79 19.28,0 34.59,-2.67 44.24,-6.41l-2.28 -35.3c-6.23,1.6 -15.88,3.2 -28.92,3.2 -27.78,0 -37.42,-18.18 -37.42,-50.26l0 -139.55 71.46 0 0 -35.82 -71.46 0 0 -74.32z"/>
   <path class="fil0" d="M1707.97 1449.88c-18.72,0 -36.3,5.34 -51.04,13.36 -15.31,8.03 -27.78,19.79 -35.73,33.15l-1.13 0 0 -161.46 -49.9 0 0 379.61 49.9 0 0 -156.12c0,-9.09 0.57,-16.04 3.41,-22.46 9.07,-25.67 34.59,-47.06 66.91,-47.06 47.06,0 63.52,35.29 63.52,77l0 148.63 49.9 0 0 -153.99c0,-89.28 -58.98,-110.67 -95.84,-110.67z"/>
   <polygon class="fil0" points="1884.89,1714.53 1934.79,1714.53 1934.79,1455.76 1884.89,1455.76 "/>
   <path class="fil0" d="M1909.83 1353.64c-18.14,0 -31.19,12.83 -31.19,29.41 0,16.04 12.48,28.88 30.06,28.88 19.85,0 32.32,-12.84 31.76,-28.88 0,-16.57 -11.9,-29.41 -30.62,-29.41z"/>
   <path class="fil0" d="M2154.24 1449.88c-45.37,0 -77.12,24.06 -90.73,48.65l-1.14 0 -2.83 -42.78 -44.23 0c1.7,21.39 2.26,43.31 2.26,70.04l0 188.74 49.9 0 0 -155.59c0,-8.02 1.14,-16.04 3.4,-21.92 8.52,-26.2 34.03,-48.12 66.92,-48.12 47.06,0 63.5,34.76 63.5,76.46l0 149.18 49.9 0 0 -154.52c0,-88.75 -58.96,-110.14 -96.96,-110.14z"/>
   <path class="fil0" d="M2441.73 1562.16l106.04 -106.39 -60.11 0 -80.52 89.29c-7.94,9.09 -17.58,20.32 -24.39,29.41l-1.13 0 0 -239.54 -49.34 0 0 379.61 49.34 0 0 -97.31 25.52 -26.74 94.7 124.04 60.67 0 -120.78 -152.38z"/>
   <path class="fil0" d="M2727.52 1669.63c-29.48,0 -54.44,-19.25 -61.24,-45.98 -1.7,-5.89 -2.26,-11.76 -2.26,-18.18l0 -40.11c0,-5.35 1.12,-11.22 2.83,-16.56 6.8,-28.88 33.45,-48.67 62.37,-48.67 44.8,0 68.62,37.43 68.62,83.42 0,51.32 -26.09,86.07 -70.32,86.07zm24.96 -221.35c-41.96,0 -74.29,16.57 -94.7,45.98l-1.14 0 -3.4 -40.09 -61.25 0c1.13,24.59 2.27,52.39 2.27,86.61l0 279.63 69.76 0 0 -134.73 1.12 0c14.18,20.85 43.1,34.75 77.69,34.75 62.95,0 125.9,-45.45 125.9,-139.55 0,-81.27 -52.74,-132.6 -116.24,-132.6z"/>
   <path class="fil0" d="M2988.93 1503.88l-2.28 0 -2.26 -49.73 -60.68 0c1.7,23.53 2.27,48.65 2.27,83.94l0 176.44 69.75 0 0 -134.73c0,-7.49 1.14,-14.45 2.27,-20.32 6.23,-29.41 28.91,-49.73 62.37,-49.73 8.52,0 14.74,1.06 20.42,2.13l0 -62.02c-5.67,-1.07 -9.64,-1.6 -16.44,-1.6 -29.49,0 -61.81,18.7 -75.42,55.6z"/>
   <path class="fil0" d="M3245.8 1672.83c-42.54,0 -68.62,-37.96 -68.62,-88.22 0,-43.31 19.85,-88.22 69.18,-88.22 47.64,0 66.92,46.51 66.92,87.15 0,52.4 -27.78,89.29 -67.48,89.29zm2.28 -224.56c-83.36,0 -142.91,52.4 -142.91,137.94 0,83.41 60.12,134.2 138.37,134.2 70.31,0 141.77,-42.77 141.77,-138.47 0,-79.13 -55,-133.67 -137.23,-133.67z"/>
   <path class="fil0" d="M1513.81 2044.91c0,4.7 -1.1,9.94 -2.77,14.64 -7.76,21.44 -29.96,42.36 -64.9,42.36 -24.97,0 -46.05,-14.12 -46.05,-43.93 0,-49.16 60.47,-58.05 113.72,-57.01l0 43.94zm47.15 -70.07c0,-50.74 -19.97,-103.56 -102.07,-103.56 -33.83,0 -66.01,8.89 -88.19,22.48l11.09 30.33c18.86,-11.51 44.93,-18.83 69.89,-18.83 54.91,0 61.02,37.65 61.02,58.58l0 5.22c-103.74,-0.52 -161.42,32.95 -161.42,94.15 0,36.61 27.74,72.69 82.1,72.69 38.28,0 67.12,-17.79 82.09,-37.65l1.66 0 3.88 31.9 44.38 0c-3.33,-17.26 -4.44,-38.7 -4.44,-60.67l0 -94.66z"/>
   <path class="fil0" d="M1758.98 1908.41c26.62,0 44.93,5.75 56.58,12.02l11.09 -35.56c-13.31,-6.28 -38.83,-13.07 -67.67,-13.07 -87.65,0 -144.22,56.48 -144.22,134.41 0,77.39 52.7,129.18 133.68,129.18 36.06,0 64.33,-8.37 77.1,-14.65l-8.33 -34.52c-13.87,5.75 -32.17,12.56 -59.91,12.56 -53.25,0 -93.19,-36.09 -93.19,-94.67 0,-52.81 33.28,-95.7 94.85,-95.7z"/>
   <path class="fil0" d="M2018.57 2044.91c0,4.7 -1.1,9.94 -2.77,14.64 -7.76,21.44 -29.96,42.36 -64.9,42.36 -24.97,0 -46.05,-14.12 -46.05,-43.93 0,-49.16 60.47,-58.05 113.72,-57.01l0 43.94zm47.15 -70.07c0,-50.74 -19.98,-103.56 -102.06,-103.56 -33.83,0 -66.02,8.89 -88.2,22.48l11.1 30.33c18.86,-11.51 44.93,-18.83 69.89,-18.83 54.91,0 61.02,37.65 61.02,58.58l0 5.22c-103.74,-0.52 -161.42,32.95 -161.42,94.15 0,36.61 27.74,72.69 82.1,72.69 38.27,0 67.11,-17.79 82.09,-37.65l1.66 0 3.89 31.9 44.38 0c-3.33,-17.26 -4.44,-38.7 -4.44,-60.67l0 -94.66z"/>
   <path class="fil0" d="M2321.98 2023.99c0,7.32 -0.56,13.59 -2.22,19.87 -8.88,34.52 -38.83,54.92 -71.56,54.92 -52.7,0 -79.32,-42.36 -79.32,-93.62 0,-55.96 29.96,-97.8 80.44,-97.8 36.6,0 63.23,24.06 70.44,53.35 1.67,5.75 2.22,13.6 2.22,19.36l0 43.93zm48.82 -265.16l-48.82 0 0 151.14 -1.11 0c-12.21,-20.39 -39.94,-38.69 -80.99,-38.69 -65.45,0 -120.93,51.77 -120.37,135.97 0,76.89 49.92,128.67 114.83,128.67 43.81,0 76.54,-21.44 91.52,-49.69l1.11 0 2.22 43.93 43.83 0c-1.67,-17.24 -2.22,-42.87 -2.22,-65.37l0 -305.95z"/>
   <path class="fil0" d="M2616.52 1979.01l-142.56 0c3.89,-31.9 25.52,-74.79 74.89,-74.79 54.92,0 68.22,45.51 67.67,74.79zm-63.8 -107.73c-78.2,0 -125.91,60.14 -125.91,136.5 0,76.36 49.36,127.61 132.02,127.61 42.7,0 72.11,-8.37 89.3,-15.69l-8.32 -32.95c-18.31,7.32 -39.39,13.07 -74.34,13.07 -48.81,0 -90.96,-25.62 -92.07,-87.85l188.6 0c0.55,-4.72 1.67,-12.04 1.67,-21.44 0,-46.55 -23.3,-119.24 -110.94,-119.24z"/>
   <path class="fil0" d="M3013.66 1871.28c-25.52,0 -43.26,6.27 -59.35,17.78 -11.1,7.85 -21.63,18.83 -29.95,32.95l-1.11 0c-11.64,-29.81 -39.38,-50.73 -76,-50.73 -44.37,0 -69.33,22.48 -84.31,46.54l-1.66 0 -2.22 -40.79 -42.71 0c1.67,20.92 2.22,42.36 2.22,68.51l0 184.62 47.7 0 0 -152.72c0,-7.84 1.1,-15.68 3.87,-22.48 7.78,-23.01 29.96,-46.03 60.47,-46.03 37.16,0 56.02,29.29 56.02,69.56l0 151.67 47.7 0 0 -156.37c0,-8.37 1.66,-16.74 3.89,-23.01 8.31,-22.49 29.95,-41.84 57.69,-41.84 39.38,0 58.24,29.29 58.24,77.93l0 143.3 47.7 0 0 -149.05c0,-87.87 -52.7,-109.83 -88.2,-109.83z"/>
   <path class="fil0" d="M3333.71 1877.02l-53.24 148.54c-6.66,18.3 -12.2,37.66 -17.2,52.82l-1.11 0c-4.44,-15.16 -11.08,-35.04 -17.19,-51.78l-58.81 -149.57 -53.25 0 99.29 233.25c2.22,5.76 3.33,9.43 3.33,12.04 0,2.61 -1.67,6.27 -3.89,10.98 -11.09,23.54 -27.73,41.32 -41.05,51.26 -14.42,11.51 -30.51,18.83 -42.71,22.48l12.2 38.7c12.2,-2.09 36.06,-9.94 59.91,-29.81 33.28,-27.19 57.14,-71.65 92.09,-158.46l73.21 -180.44 -51.58 0z"/>
   <path class="fil1" d="M1397.27 2203.57l6.25 22.65c1.37,4.98 2.64,9.57 3.51,14.18l0.3 0c1.07,-4.51 2.63,-9.3 4.2,-14.08l7.72 -22.74 7.22 0 7.33 22.28c1.76,5.34 3.13,10.04 4.2,14.54l0.29 0c0.78,-4.51 2.06,-9.2 3.62,-14.46l6.74 -22.37 8.49 0 -15.23 44.57 -7.82 0 -7.23 -21.27c-1.66,-4.98 -3.02,-9.4 -4.2,-14.64l-0.2 0c-1.16,5.35 -2.63,9.94 -4.28,14.73l-7.62 21.19 -7.82 0 -14.26 -44.57 8.79 0z"/>
   <path class="fil1" d="M1475.51 2182.76l8.59 0 0 27.81 0.2 0c1.37,-2.3 3.51,-4.33 6.15,-5.71 2.54,-1.37 5.57,-2.29 8.79,-2.29 6.35,0 16.51,3.67 16.51,19.06l0 26.51 -8.6 0 0 -25.6c0,-7.18 -2.83,-13.26 -10.93,-13.26 -5.57,0 -9.96,3.69 -11.53,8.11 -0.48,1.1 -0.58,2.31 -0.58,3.86l0 26.89 -8.59 0 0 -65.37z"/>
   <path class="fil1" d="M1569.46 2221.53c0.1,-5.16 -2.24,-13.16 -11.91,-13.16 -8.69,0 -12.5,7.54 -13.19,13.16l25.1 0zm-25.2 5.8c0.2,10.96 7.62,15.47 16.21,15.47 6.16,0 9.87,-1 13.09,-2.3l1.47 5.8c-3.02,1.29 -8.2,2.76 -15.72,2.76 -14.54,0 -23.24,-9.02 -23.24,-22.46 0,-13.45 8.4,-24.04 22.17,-24.04 15.43,0 19.53,12.8 19.53,20.99 0,1.67 -0.2,2.95 -0.3,3.78l-33.2 0z"/>
   <path class="fil1" d="M1598.19 2217.48c0,-5.24 -0.1,-9.76 -0.39,-13.9l7.52 0 0.29 8.74 0.39 0c2.15,-5.98 7.33,-9.76 13.09,-9.76 0.97,0 1.66,0.09 2.44,0.28l0 7.64c-0.88,-0.18 -1.77,-0.28 -2.94,-0.28 -6.05,0 -10.35,4.33 -11.52,10.4 -0.2,1.11 -0.4,2.4 -0.4,3.78l0 23.76 -8.49 0 0 -30.67z"/>
   <path class="fil1" d="M1668.89 2221.53c0.1,-5.16 -2.24,-13.16 -11.92,-13.16 -8.69,0 -12.5,7.54 -13.18,13.16l25.1 0zm-25.2 5.8c0.2,10.96 7.62,15.47 16.21,15.47 6.16,0 9.87,-1 13.09,-2.3l1.47 5.8c-3.03,1.29 -8.2,2.76 -15.72,2.76 -14.54,0 -23.25,-9.02 -23.25,-22.46 0,-13.45 8.41,-24.04 22.18,-24.04 15.43,0 19.54,12.8 19.54,20.99 0,1.67 -0.2,2.95 -0.3,3.78l-33.2 0z"/>
   <path class="fil1" d="M1758.07 2221.53c0.1,-5.16 -2.24,-13.16 -11.91,-13.16 -8.69,0 -12.5,7.54 -13.19,13.16l25.1 0zm-25.2 5.8c0.2,10.96 7.62,15.47 16.21,15.47 6.16,0 9.87,-1 13.09,-2.3l1.47 5.8c-3.02,1.29 -8.2,2.76 -15.72,2.76 -14.54,0 -23.24,-9.02 -23.24,-22.46 0,-13.45 8.41,-24.04 22.17,-24.04 15.43,0 19.53,12.8 19.53,20.99 0,1.67 -0.2,2.95 -0.3,3.78l-33.2 0z"/>
   <path class="fil1" d="M1819.02 2221.71c0,-1.02 -0.1,-2.4 -0.39,-3.41 -1.27,-5.15 -5.96,-9.39 -12.41,-9.39 -8.88,0 -14.16,7.37 -14.16,17.22 0,9.02 4.69,16.48 13.97,16.48 5.76,0 11.03,-3.59 12.6,-9.67 0.29,-1.11 0.39,-2.21 0.39,-3.5l0 -7.73zm8.59 -38.95l0 53.87c0,3.95 0.1,8.47 0.39,11.51l-7.72 0 -0.39 -7.73 -0.2 0c-2.64,4.97 -8.41,8.75 -16.11,8.75 -11.43,0 -20.22,-9.12 -20.22,-22.65 -0.1,-14.83 9.67,-23.94 21.19,-23.94 7.24,0 12.11,3.21 14.26,6.81l0.2 0 0 -26.61 8.59 0z"/>
   <path class="fil1" d="M1891.2 2235.98c0,4.6 0.1,8.66 0.4,12.16l-7.62 0 -0.48 -7.28 -0.2 0c-2.25,3.59 -7.23,8.28 -15.63,8.28 -7.42,0 -16.31,-3.87 -16.31,-19.52l0 -26.06 8.59 0 0 24.68c0,8.47 2.74,14.18 10.55,14.18 5.76,0 9.76,-3.78 11.33,-7.37 0.49,-1.2 0.79,-2.67 0.79,-4.15l0 -27.34 8.59 0 0 32.41z"/>
   <path class="fil1" d="M1948.92 2246.48c-2.25,1.11 -7.23,2.57 -13.57,2.57 -14.26,0 -23.55,-9.11 -23.55,-22.74 0,-13.72 9.96,-23.66 25.4,-23.66 5.07,0 9.56,1.19 11.92,2.3l-1.96 6.26c-2.05,-1.1 -5.28,-2.11 -9.96,-2.11 -10.84,0 -16.7,7.54 -16.7,16.84 0,10.31 7.04,16.67 16.41,16.67 4.88,0 8.11,-1.2 10.54,-2.21l1.47 6.07z"/>
   <path class="fil1" d="M1993.66 2225.39c-9.37,-0.19 -20.02,1.38 -20.02,10.04 0,5.24 3.71,7.73 8.1,7.73 6.15,0 10.06,-3.68 11.43,-7.46 0.29,-0.83 0.48,-1.76 0.48,-2.58l0 -7.73zm1.27 22.75l-0.69 -5.62 -0.3 0c-2.63,3.5 -7.71,6.63 -14.46,6.63 -9.56,0 -14.44,-6.35 -14.44,-12.8 0,-10.77 10.15,-16.66 28.41,-16.57l0 -0.92c0,-3.69 -1.07,-10.31 -10.74,-10.31 -4.39,0 -8.98,1.29 -12.3,3.31l-1.95 -5.33c3.91,-2.39 9.57,-3.96 15.53,-3.96 14.45,0 17.98,9.3 17.98,18.23l0 16.67c0,3.88 0.19,7.64 0.77,10.69l-7.81 0z"/>
   <path class="fil1" d="M2035.56 2190.77l0 12.8 12.3 0 0 6.17 -12.3 0 0 24.03c0,5.52 1.66,8.66 6.45,8.66 2.24,0 3.9,-0.28 4.98,-0.55l0.39 6.07c-1.66,0.64 -4.3,1.11 -7.62,1.11 -4,0 -7.22,-1.19 -9.27,-3.41 -2.44,-2.39 -3.33,-6.36 -3.33,-11.6l0 -24.31 -7.32 0 0 -6.17 7.32 0 0 -10.68 8.41 -2.12z"/>
   <path class="fil1" d="M2067.31 2203.57l8.59 0 0 44.57 -8.59 0 0 -44.57zm9.57 -12.52c0.1,2.76 -2.06,4.98 -5.48,4.98 -3.02,0 -5.17,-2.22 -5.17,-4.98 0,-2.85 2.24,-5.06 5.37,-5.06 3.22,0 5.28,2.21 5.28,5.06z"/>
   <path class="fil1" d="M2105.2 2225.94c0,9.76 5.95,17.13 14.36,17.13 8.2,0 14.35,-7.28 14.35,-17.31 0,-7.54 -4.01,-17.13 -14.15,-17.13 -10.16,0 -14.56,8.85 -14.56,17.31zm37.5 -0.46c0,16.49 -12.11,23.67 -23.54,23.67 -12.79,0 -22.65,-8.83 -22.65,-22.92 0,-14.92 10.35,-23.67 23.43,-23.67 13.57,0 22.76,9.3 22.76,22.92z"/>
   <path class="fil1" d="M2163.32 2215.63c0,-4.61 -0.1,-8.38 -0.39,-12.06l7.61 0 0.5 7.37 0.19 0c2.35,-4.24 7.82,-8.38 15.63,-8.38 6.55,0 16.71,3.69 16.71,18.97l0 26.6 -8.6 0 0 -25.68c0,-7.18 -2.83,-13.17 -10.93,-13.17 -5.67,0 -10.06,3.78 -11.53,8.28 -0.39,1.02 -0.59,2.4 -0.59,3.78l0 26.79 -8.59 0 0 -32.5z"/>
   <path class="fil1" d="M2257.77 2215.63c0,-4.61 -0.1,-8.38 -0.39,-12.06l7.52 0 0.39 7.18 0.29 0c2.64,-4.24 7.04,-8.19 14.85,-8.19 6.43,0 11.33,3.69 13.37,8.93l0.2 0c1.46,-2.48 3.33,-4.42 5.28,-5.8 2.83,-2.03 5.95,-3.14 10.44,-3.14 6.25,0 15.52,3.87 15.52,19.33l0 26.24 -8.41 0 0 -25.22c0,-8.57 -3.31,-13.72 -10.24,-13.72 -4.89,0 -8.69,3.41 -10.16,7.37 -0.38,1.1 -0.69,2.58 -0.69,4.05l0 27.53 -8.39 0 0 -26.7c0,-7.09 -3.33,-12.24 -9.87,-12.24 -5.37,0 -9.28,4.05 -10.64,8.11 -0.49,1.2 -0.68,2.58 -0.68,3.96l0 26.87 -8.4 0 0 -32.5z"/>
   <path class="fil1" d="M2378.98 2221.53c0.09,-5.16 -2.24,-13.16 -11.92,-13.16 -8.69,0 -12.5,7.54 -13.19,13.16l25.1 0zm-25.2 5.8c0.2,10.96 7.62,15.47 16.21,15.47 6.17,0 9.87,-1 13.09,-2.3l1.47 5.8c-3.02,1.29 -8.2,2.76 -15.72,2.76 -14.54,0 -23.24,-9.02 -23.24,-22.46 0,-13.45 8.41,-24.04 22.17,-24.04 15.43,0 19.54,12.8 19.54,20.99 0,1.67 -0.2,2.95 -0.3,3.78l-33.2 0z"/>
   <path class="fil1" d="M2437.68 2221.53c0.1,-5.16 -2.24,-13.16 -11.91,-13.16 -8.69,0 -12.5,7.54 -13.19,13.16l25.1 0zm-25.2 5.8c0.2,10.96 7.62,15.47 16.21,15.47 6.16,0 9.87,-1 13.09,-2.3l1.46 5.8c-3.02,1.29 -8.2,2.76 -15.72,2.76 -14.54,0 -23.24,-9.02 -23.24,-22.46 0,-13.45 8.4,-24.04 22.17,-24.04 15.43,0 19.53,12.8 19.53,20.99 0,1.67 -0.2,2.95 -0.3,3.78l-33.21 0z"/>
   <path class="fil1" d="M2476.75 2190.77l0 12.8 12.3 0 0 6.17 -12.3 0 0 24.03c0,5.52 1.65,8.66 6.45,8.66 2.24,0 3.9,-0.28 4.98,-0.55l0.39 6.07c-1.66,0.64 -4.3,1.11 -7.62,1.11 -4,0 -7.22,-1.19 -9.28,-3.41 -2.44,-2.39 -3.32,-6.36 -3.32,-11.6l0 -24.31 -7.32 0 0 -6.17 7.32 0 0 -10.68 8.41 -2.12z"/>
   <path class="fil1" d="M2507.32 2239.85c2.54,1.57 7.04,3.22 11.33,3.22 6.25,0 9.17,-2.95 9.17,-6.63 0,-3.87 -2.44,-5.98 -8.79,-8.2 -8.49,-2.85 -12.5,-7.26 -12.5,-12.61 0,-7.18 6.15,-13.07 16.31,-13.07 4.79,0 8.99,1.29 11.63,2.76l-2.15 5.9c-1.86,-1.11 -5.28,-2.58 -9.67,-2.58 -5.07,0 -7.91,2.76 -7.91,6.08 0,3.68 2.84,5.33 8.99,7.54 8.2,2.95 12.4,6.81 12.4,13.45 0,7.83 -6.45,13.35 -17.68,13.35 -5.18,0 -9.96,-1.2 -13.29,-3.04l2.15 -6.17z"/>
   <path class="fil1" d="M2587.42 2203.57l8.59 0 0 44.57 -8.59 0 0 -44.57zm9.56 -12.52c0.1,2.76 -2.05,4.98 -5.47,4.98 -3.02,0 -5.18,-2.22 -5.18,-4.98 0,-2.85 2.25,-5.06 5.38,-5.06 3.22,0 5.27,2.21 5.27,5.06z"/>
   <path class="fil1" d="M2620.04 2215.63c0,-4.61 -0.1,-8.38 -0.39,-12.06l7.61 0 0.5 7.37 0.19 0c2.35,-4.24 7.82,-8.38 15.63,-8.38 6.55,0 16.71,3.69 16.71,18.97l0 26.6 -8.61 0 0 -25.68c0,-7.18 -2.83,-13.17 -10.93,-13.17 -5.67,0 -10.06,3.78 -11.53,8.28 -0.39,1.02 -0.58,2.4 -0.58,3.78l0 26.79 -8.59 0 0 -32.5z"/>
   <path class="fil1" d="M2684.02 2215.63c0,-4.61 -0.1,-8.38 -0.39,-12.06l7.61 0 0.48 7.37 0.2 0c2.35,-4.24 7.81,-8.38 15.63,-8.38 6.55,0 16.7,3.69 16.7,18.97l0 26.6 -8.6 0 0 -25.68c0,-7.18 -2.83,-13.17 -10.93,-13.17 -5.66,0 -10.06,3.78 -11.53,8.28 -0.39,1.02 -0.59,2.4 -0.59,3.78l0 26.79 -8.59 0 0 -32.5z"/>
   <path class="fil1" d="M2753.27 2225.94c0,9.76 5.95,17.13 14.35,17.13 8.2,0 14.35,-7.28 14.35,-17.31 0,-7.54 -4.01,-17.13 -14.16,-17.13 -10.16,0 -14.55,8.85 -14.55,17.31zm37.5 -0.46c0,16.49 -12.11,23.67 -23.54,23.67 -12.79,0 -22.65,-8.83 -22.65,-22.92 0,-14.92 10.35,-23.67 23.43,-23.67 13.58,0 22.76,9.3 22.76,22.92z"/>
   <path class="fil1" d="M2814.02 2203.57l9.27 25.04c1.57,4.05 2.84,7.74 3.81,11.41l0.3 0c1.07,-3.68 2.44,-7.36 4,-11.41l9.19 -25.04 8.98 0 -18.55 44.57 -8.2 0 -17.97 -44.57 9.18 0z"/>
   <path class="fil1" d="M2891.96 2225.39c-9.37,-0.19 -20.02,1.38 -20.02,10.04 0,5.24 3.71,7.73 8.11,7.73 6.15,0 10.06,-3.68 11.43,-7.46 0.29,-0.83 0.48,-1.76 0.48,-2.58l0 -7.73zm1.27 22.75l-0.69 -5.62 -0.3 0c-2.63,3.5 -7.71,6.63 -14.46,6.63 -9.56,0 -14.44,-6.35 -14.44,-12.8 0,-10.77 10.15,-16.66 28.41,-16.57l0 -0.92c0,-3.69 -1.07,-10.31 -10.75,-10.31 -4.39,0 -8.98,1.29 -12.3,3.31l-1.96 -5.33c3.91,-2.39 9.58,-3.96 15.53,-3.96 14.46,0 17.98,9.3 17.98,18.23l0 16.67c0,3.88 0.19,7.64 0.78,10.69l-7.81 0z"/>
   <path class="fil1" d="M2933.86 2190.77l0 12.8 12.3 0 0 6.17 -12.3 0 0 24.03c0,5.52 1.66,8.66 6.45,8.66 2.24,0 3.9,-0.28 4.98,-0.55l0.39 6.07c-1.66,0.64 -4.3,1.11 -7.62,1.11 -4,0 -7.22,-1.19 -9.28,-3.41 -2.44,-2.39 -3.33,-6.36 -3.33,-11.6l0 -24.31 -7.32 0 0 -6.17 7.32 0 0 -10.68 8.41 -2.12z"/>
   <path class="fil1" d="M2965.6 2203.57l8.59 0 0 44.57 -8.59 0 0 -44.57zm9.57 -12.52c0.1,2.76 -2.05,4.98 -5.46,4.98 -3.04,0 -5.18,-2.22 -5.18,-4.98 0,-2.85 2.24,-5.06 5.37,-5.06 3.22,0 5.28,2.21 5.28,5.06z"/>
   <path class="fil1" d="M3003.5 2225.94c0,9.76 5.95,17.13 14.35,17.13 8.2,0 14.35,-7.28 14.35,-17.31 0,-7.54 -4,-17.13 -14.15,-17.13 -10.16,0 -14.56,8.85 -14.56,17.31zm37.5 -0.46c0,16.49 -12.11,23.67 -23.54,23.67 -12.79,0 -22.65,-8.83 -22.65,-22.92 0,-14.92 10.34,-23.67 23.43,-23.67 13.57,0 22.76,9.3 22.76,22.92z"/>
   <path class="fil1" d="M3061.62 2215.63c0,-4.61 -0.09,-8.38 -0.39,-12.06l7.61 0 0.49 7.37 0.2 0c2.35,-4.24 7.82,-8.38 15.62,-8.38 6.55,0 16.71,3.69 16.71,18.97l0 26.6 -8.61 0 0 -25.68c0,-7.18 -2.83,-13.17 -10.93,-13.17 -5.67,0 -10.06,3.78 -11.53,8.28 -0.39,1.02 -0.58,2.4 -0.58,3.78l0 26.79 -8.59 0 0 -32.5z"/>
   <path class="fil2" d="M792.08 1508.02c-50.74,0 -91.86,-38.75 -91.87,-86.55 0,-47.8 41.13,-86.56 91.87,-86.56 50.74,0 91.88,38.75 91.88,86.56 -0.01,47.8 -41.13,86.55 -91.88,86.55zm-311.24 -173.11l147.01 0c-1.67,10.23 -32.56,211.94 120.05,258.44 42.62,-52.59 109.87,-86.53 185.55,-86.53 0.25,0 3.81,-0.24 4.06,-0.24 59.49,-0.53 108.57,-75.07 116.34,-171.67l146.32 0c-4.72,117.43 -107.28,211.27 -233.11,211.27 -1.98,0 -2.28,0.24 -3.43,0.24 -59.86,0 -109.31,74.94 -117,172.07l-0.03 21.02 -147.04 0.01 0 -18.06c0.86,-34.33 10.76,-66.91 26.49,-95.61 -265.84,-27.91 -246.22,-279.65 -245.2,-290.95z"/>
   <path class="fil3" d="M398.59 1719.64c0,47.83 -41.08,86.61 -91.74,86.61 -50.67,-0.01 -91.74,-38.78 -91.74,-86.61 0,-47.83 41.07,-86.61 91.74,-86.61 50.67,0 91.74,38.77 91.74,86.61zm-183.89 293.37l0 -138.61c3.06,0.46 224.11,33.47 274.33,-113.12 -55.74,-40.17 -91.71,-103.58 -91.71,-174.92 -0.01,-0.23 -0.26,-3.59 -0.26,-3.81 -0.56,-56.16 -79.78,-102.46 -182.36,-109.71l0 -137.92c124.66,4.26 224.33,101.01 224.35,219.77 -0.01,1.87 0.26,2.15 0.26,3.23 0,56.43 79.43,103.05 182.39,110.3l22.27 0.03 0 138.59 -19.13 0c-36.38,-0.8 -70.92,-10.13 -101.34,-24.96 -30.11,254.96 -305.75,231.39 -308.8,231.13z"/>
   <path class="fil4" d="M1016.62 1880.12c0,-47.86 41.1,-86.67 91.79,-86.67 50.7,0 91.8,38.8 91.8,86.67 0,47.85 -41.1,86.66 -91.8,86.66 -50.69,0 -91.79,-38.79 -91.79,-86.66zm183.99 -293.57l0 138.7c-2.4,-0.37 -224.16,-33.71 -274.48,113.2 55.78,40.2 91.75,103.65 91.76,175.04 0,0.23 0.25,3.59 0.25,3.82 0.56,56.19 79.82,102.53 182.46,109.78l0 138.01c-124.72,-4.25 -224.45,-101.07 -224.45,-219.91 0,-1.87 -0.27,-2.15 -0.27,-3.22 0.01,-56.47 -79.47,-103.11 -182.48,-110.38l-22.28 -0.03 -0.02 -138.7 19.15 0.01c36.41,0.8 70.95,10.13 101.38,24.98 30.16,-255.44 306.58,-231.49 308.97,-231.28z"/>
   <path class="fil5" d="M622.93 2090.78c50.76,0 91.92,38.75 91.92,86.54 0,47.8 -41.16,86.55 -91.92,86.55 -50.76,0 -91.92,-38.75 -91.92,-86.55 0,-47.8 41.16,-86.54 91.92,-86.54zm-408.23 173.47l0 -1.4c5.28,-116.93 107.63,-210.23 233.17,-210.23 1.98,0 2.29,-0.24 3.41,-0.24 59.9,0 109.38,-74.94 117.07,-172.06l0.03 -21.02 147.11 0 -0.01 18.05c-0.85,34.33 -10.75,66.89 -26.49,95.59 272.09,28.56 245.29,291.37 245.29,291.37l-147.11 0c0,0 36.61,-211.16 -120.04,-258.86 -42.65,52.59 -109.94,86.52 -185.65,86.52 -0.24,0 -3.81,0.24 -4.06,0.24 -59.59,0.53 -108.74,75.26 -116.42,172.03l-146.31 0z"/>
  </g>
 </g>
</svg>
