<?xml version="1.0" encoding="UTF-8"?>
<svg id="Layer_1" data-name="Layer 1" xmlns="http://www.w3.org/2000/svg" viewBox="0 0 231.83 80">
  <defs>
    <style>
      .cls-1 {
        fill: #292826;
      }

      .cls-2 {
        fill: #40434e;
      }

      .cls-2, .cls-3, .cls-4, .cls-5 {
        fill-rule: evenodd;
      }

      .cls-3 {
        fill: #f39450;
      }

      .cls-6 {
        fill: #787473;
      }

      .cls-4 {
        fill: #bc3d28;
      }

      .cls-5 {
        fill: #8896af;
      }
    </style>
  </defs>
  <g id="Layer_1-2" data-name="Layer_1">
    <g id="_2217831811200" data-name=" 2217831811200">
      <path class="cls-1" d="M90.18,9.86l-3.51.89v4.47h-3.06v2.58h3.06v10.16c0,2.19.37,3.85,1.39,4.85.86.92,2.2,1.42,3.88,1.42,1.39,0,2.49-.19,3.19-.46l-.16-2.54c-.45.12-1.14.23-2.08.23-2,0-2.69-1.31-2.69-3.62v-10.05h5.15v-2.58h-5.15v-5.35h0Z"/>
      <path class="cls-1" d="M109.29,14.79c-1.35,0-2.61.38-3.67.96-1.1.58-2,1.42-2.57,2.39h-.08V6.51h-3.59v27.33h3.59v-11.24c0-.65.04-1.15.25-1.62.65-1.85,2.49-3.39,4.82-3.39,3.39,0,4.57,2.54,4.57,5.54v10.7h3.59v-11.09c0-6.43-4.25-7.97-6.9-7.97h0Z"/>
      <polygon class="cls-1" points="122.03 33.85 125.62 33.85 125.62 15.21 122.03 15.21 122.03 33.85"/>
      <path class="cls-1" d="M123.82,7.86c-1.31,0-2.25.92-2.25,2.12s.9,2.08,2.16,2.08c1.43,0,2.33-.92,2.29-2.08,0-1.19-.86-2.12-2.2-2.12h0Z"/>
      <path class="cls-1" d="M141.42,14.79c-3.27,0-5.55,1.73-6.53,3.5h-.08l-.2-3.08h-3.18c.12,1.54.16,3.12.16,5.04v13.59h3.59v-11.2c0-.58.08-1.15.24-1.58.61-1.89,2.45-3.46,4.82-3.46,3.39,0,4.57,2.5,4.57,5.51v10.74h3.59v-11.13c0-6.39-4.25-7.93-6.98-7.93h0Z"/>
      <path class="cls-1" d="M162.12,22.88l7.63-7.66h-4.33l-5.8,6.43c-.57.65-1.27,1.46-1.76,2.12h-.08V6.51h-3.55v27.33h3.55v-7.01l1.84-1.93,6.82,8.93h4.37l-8.7-10.97h0Z"/>
      <path class="cls-1" d="M182.69,30.61c-2.12,0-3.92-1.39-4.41-3.31-.12-.42-.16-.85-.16-1.31v-2.89c0-.39.08-.81.2-1.19.49-2.08,2.41-3.5,4.49-3.5,3.23,0,4.94,2.69,4.94,6.01,0,3.7-1.88,6.2-5.06,6.2h0ZM184.49,14.68c-3.02,0-5.35,1.19-6.82,3.31h-.08l-.24-2.89h-4.41c.08,1.77.16,3.77.16,6.24v20.13h5.02v-9.7h.08c1.02,1.5,3.1,2.5,5.59,2.5,4.53,0,9.06-3.27,9.06-10.05,0-5.85-3.8-9.55-8.37-9.55h0Z"/>
      <path class="cls-1" d="M201.52,18.68h-.16l-.16-3.58h-4.37c.12,1.69.16,3.5.16,6.04v12.7h5.02v-9.7c0-.54.08-1.04.16-1.46.45-2.12,2.08-3.58,4.49-3.58.61,0,1.06.08,1.47.15v-4.47c-.41-.08-.69-.12-1.18-.12-2.12,0-4.45,1.35-5.43,4h0Z"/>
      <path class="cls-1" d="M220.01,30.84c-3.06,0-4.94-2.73-4.94-6.35,0-3.12,1.43-6.35,4.98-6.35s4.82,3.35,4.82,6.27c0,3.77-2,6.43-4.86,6.43h0ZM220.18,14.68c-6,0-10.29,3.77-10.29,9.93s4.33,9.66,9.96,9.66c5.06,0,10.21-3.08,10.21-9.97,0-5.7-3.96-9.62-9.88-9.62Z"/>
      <path class="cls-1" d="M95.31,57.63c0,.34-.08.72-.2,1.05-.56,1.54-2.16,3.05-4.67,3.05-1.8,0-3.32-1.02-3.32-3.16,0-3.54,4.35-4.18,8.19-4.1,0,0,0,3.16,0,3.16ZM98.7,52.59c0-3.65-1.44-7.46-7.35-7.46-2.44,0-4.75.64-6.35,1.62l.8,2.18c1.36-.83,3.23-1.36,5.03-1.36,3.95,0,4.39,2.71,4.39,4.22v.38c-7.47-.04-11.62,2.37-11.62,6.78,0,2.64,2,5.23,5.91,5.23,2.76,0,4.83-1.28,5.91-2.71h.12l.28,2.3h3.2c-.24-1.24-.32-2.79-.32-4.37v-6.82h0Z"/>
      <path class="cls-1" d="M112.96,47.81c1.92,0,3.23.41,4.07.87l.8-2.56c-.96-.45-2.8-.94-4.87-.94-6.31,0-10.38,4.07-10.38,9.68s3.79,9.3,9.62,9.3c2.6,0,4.63-.6,5.55-1.05l-.6-2.49c-1,.41-2.32.9-4.31.9-3.83,0-6.71-2.6-6.71-6.82,0-3.8,2.4-6.89,6.83-6.89h0Z"/>
      <path class="cls-1" d="M131.65,57.63c0,.34-.08.72-.2,1.05-.56,1.54-2.16,3.05-4.67,3.05-1.8,0-3.32-1.02-3.32-3.16,0-3.54,4.35-4.18,8.19-4.1,0,0,0,3.16,0,3.16ZM135.05,52.59c0-3.65-1.44-7.46-7.35-7.46-2.44,0-4.75.64-6.35,1.62l.8,2.18c1.36-.83,3.23-1.36,5.03-1.36,3.95,0,4.39,2.71,4.39,4.22v.38c-7.47-.04-11.62,2.37-11.62,6.78,0,2.64,2,5.23,5.91,5.23,2.76,0,4.83-1.28,5.91-2.71h.12l.28,2.3h3.2c-.24-1.24-.32-2.79-.32-4.37v-6.82h0Z"/>
      <path class="cls-1" d="M153.5,56.13c0,.53-.04.98-.16,1.43-.64,2.49-2.8,3.95-5.15,3.95-3.79,0-5.71-3.05-5.71-6.74,0-4.03,2.16-7.04,5.79-7.04,2.64,0,4.55,1.73,5.07,3.84.12.41.16.98.16,1.39v3.16h0ZM157.01,37.04h-3.52v10.88h-.08c-.88-1.47-2.88-2.79-5.83-2.79-4.71,0-8.71,3.73-8.67,9.79,0,5.54,3.59,9.26,8.27,9.26,3.15,0,5.51-1.54,6.59-3.58h.08l.16,3.16h3.16c-.12-1.24-.16-3.09-.16-4.71v-22.03h0Z"/>
      <path class="cls-1" d="M174.7,52.89h-10.26c.28-2.3,1.84-5.38,5.39-5.38,3.95,0,4.91,3.28,4.87,5.38h0ZM170.11,45.13c-5.63,0-9.07,4.33-9.07,9.83s3.55,9.19,9.51,9.19c3.07,0,5.19-.6,6.43-1.13l-.6-2.37c-1.32.53-2.84.94-5.35.94-3.51,0-6.55-1.84-6.63-6.33h13.58c.04-.34.12-.87.12-1.54,0-3.35-1.68-8.59-7.99-8.59h0Z"/>
      <path class="cls-1" d="M203.3,45.13c-1.84,0-3.11.45-4.27,1.28-.8.57-1.56,1.36-2.16,2.37h-.08c-.84-2.15-2.84-3.65-5.47-3.65-3.19,0-4.99,1.62-6.07,3.35h-.12l-.16-2.94h-3.08c.12,1.51.16,3.05.16,4.93v13.29h3.43v-11c0-.56.08-1.13.28-1.62.56-1.66,2.16-3.31,4.35-3.31,2.68,0,4.03,2.11,4.03,5.01v10.92h3.43v-11.26c0-.6.12-1.21.28-1.66.6-1.62,2.16-3.01,4.15-3.01,2.84,0,4.19,2.11,4.19,5.61v10.32h3.43v-10.73c0-6.33-3.79-7.91-6.35-7.91h0Z"/>
      <path class="cls-1" d="M226.34,45.55l-3.83,10.69c-.48,1.32-.88,2.71-1.24,3.8h-.08c-.32-1.09-.8-2.52-1.24-3.73l-4.23-10.77h-3.83l7.15,16.79c.16.41.24.68.24.87s-.12.45-.28.79c-.8,1.69-2,2.98-2.96,3.69-1.04.83-2.2,1.36-3.08,1.62l.88,2.79c.88-.15,2.6-.72,4.31-2.15,2.4-1.96,4.11-5.16,6.63-11.41l5.27-12.99h-3.71Z"/>
      <path class="cls-6" d="M86.92,69.06l.45,1.63c.1.36.19.69.25,1.02h.02c.08-.32.19-.67.3-1.01l.56-1.64h.52l.53,1.6c.13.38.23.72.3,1.05h.02c.06-.32.15-.66.26-1.04l.49-1.61h.61l-1.1,3.21h-.56l-.52-1.53c-.12-.36-.22-.68-.3-1.05h-.01c-.08.39-.19.72-.31,1.06l-.55,1.53h-.56l-1.03-3.21h.63,0Z"/>
      <path class="cls-6" d="M92.55,67.56h.62v2h.01c.1-.17.25-.31.44-.41.18-.1.4-.16.63-.16.46,0,1.19.26,1.19,1.37v1.91h-.62v-1.84c0-.52-.2-.95-.79-.95-.4,0-.72.27-.83.58-.03.08-.04.17-.04.28v1.94h-.62v-4.71h0Z"/>
      <path class="cls-6" d="M99.31,70.35c0-.37-.16-.95-.86-.95-.63,0-.9.54-.95.95h1.81ZM97.5,70.77c.01.79.55,1.11,1.17,1.11.44,0,.71-.07.94-.17l.11.42c-.22.09-.59.2-1.13.2-1.05,0-1.67-.65-1.67-1.62s.6-1.73,1.6-1.73c1.11,0,1.41.92,1.41,1.51,0,.12-.01.21-.02.27h-2.39Z"/>
      <path class="cls-6" d="M101.38,70.06c0-.38,0-.7-.03-1h.54l.02.63h.03c.15-.43.53-.7.94-.7.07,0,.12,0,.18.02v.55c-.06-.01-.13-.02-.21-.02-.44,0-.75.31-.83.75-.01.08-.03.17-.03.27v1.71h-.61v-2.21h0Z"/>
      <path class="cls-6" d="M106.47,70.35c0-.37-.16-.95-.86-.95-.63,0-.9.54-.95.95h1.81ZM104.66,70.77c.01.79.55,1.11,1.17,1.11.44,0,.71-.07.94-.17l.11.42c-.22.09-.59.2-1.13.2-1.05,0-1.67-.65-1.67-1.62s.61-1.73,1.6-1.73c1.11,0,1.41.92,1.41,1.51,0,.12-.01.21-.02.27h-2.39Z"/>
      <path class="cls-6" d="M112.89,70.35c0-.37-.16-.95-.86-.95-.63,0-.9.54-.95.95h1.81ZM111.08,70.77c.01.79.55,1.11,1.17,1.11.44,0,.71-.07.94-.17l.11.42c-.22.09-.59.2-1.13.2-1.05,0-1.67-.65-1.67-1.62s.61-1.73,1.6-1.73c1.11,0,1.41.92,1.41,1.51,0,.12-.01.21-.02.27h-2.39Z"/>
      <path class="cls-6" d="M117.28,70.36c0-.07,0-.17-.03-.25-.09-.37-.43-.68-.89-.68-.64,0-1.02.53-1.02,1.24,0,.65.34,1.19,1.01,1.19.41,0,.79-.26.91-.7.02-.08.03-.16.03-.25v-.56h0ZM117.9,67.56v3.88c0,.28,0,.61.03.83h-.56l-.03-.56h-.01c-.19.36-.61.63-1.16.63-.82,0-1.46-.66-1.46-1.63,0-1.07.7-1.72,1.53-1.72.52,0,.87.23,1.03.49h.01v-1.92h.62Z"/>
      <path class="cls-6" d="M122.48,71.39c0,.33,0,.62.03.88h-.55l-.03-.52h-.01c-.16.26-.52.6-1.13.6-.53,0-1.17-.28-1.17-1.41v-1.88h.62v1.78c0,.61.2,1.02.76,1.02.41,0,.7-.27.82-.53.04-.09.06-.19.06-.3v-1.97h.62v2.33h0Z"/>
      <path class="cls-6" d="M126.64,72.15c-.16.08-.52.19-.98.19-1.03,0-1.7-.66-1.7-1.64s.72-1.7,1.83-1.7c.37,0,.69.09.86.17l-.14.45c-.15-.08-.38-.15-.72-.15-.78,0-1.2.54-1.2,1.21,0,.74.51,1.2,1.18,1.2.35,0,.58-.09.76-.16l.11.44h0Z"/>
      <path class="cls-6" d="M129.86,70.63c-.67-.01-1.44.1-1.44.72,0,.38.27.56.58.56.44,0,.72-.26.82-.54.02-.06.03-.13.03-.19v-.56h0ZM129.95,72.27l-.05-.4h-.02c-.19.25-.56.48-1.04.48-.69,0-1.04-.46-1.04-.92,0-.78.73-1.2,2.05-1.19v-.07c0-.27-.08-.74-.77-.74-.32,0-.65.09-.89.24l-.14-.38c.28-.17.69-.29,1.12-.29,1.04,0,1.29.67,1.29,1.31v1.2c0,.28.01.55.06.77h-.56Z"/>
      <path class="cls-6" d="M132.87,68.14v.92h.89v.44h-.89v1.73c0,.4.12.62.46.62.16,0,.28-.02.36-.04l.03.44c-.12.05-.31.08-.55.08-.29,0-.52-.09-.67-.25-.18-.17-.24-.46-.24-.84v-1.75h-.53v-.44h.53v-.77l.61-.15h0Z"/>
      <path class="cls-6" d="M135.16,69.06h.62v3.21h-.62v-3.21ZM135.85,68.16c0,.2-.15.36-.39.36-.22,0-.37-.16-.37-.36s.16-.36.39-.36.38.16.38.36h0Z"/>
      <path class="cls-6" d="M137.89,70.67c0,.7.43,1.23,1.03,1.23s1.03-.52,1.03-1.25c0-.54-.29-1.23-1.02-1.23s-1.05.64-1.05,1.25h0ZM140.59,70.63c0,1.19-.87,1.7-1.69,1.7-.92,0-1.63-.64-1.63-1.65,0-1.07.75-1.7,1.69-1.7s1.64.67,1.64,1.65Z"/>
      <path class="cls-6" d="M142.07,69.93c0-.33,0-.6-.03-.87h.55l.04.53h.01c.17-.31.56-.6,1.13-.6.47,0,1.2.27,1.2,1.37v1.92h-.62v-1.85c0-.52-.2-.95-.79-.95-.41,0-.72.27-.83.6-.03.07-.04.17-.04.27v1.93h-.62v-2.34h0Z"/>
      <path class="cls-6" d="M148.87,69.93c0-.33,0-.6-.03-.87h.54l.03.52h.02c.19-.31.51-.59,1.07-.59.46,0,.82.27.96.64h.01c.11-.18.24-.32.38-.42.2-.15.43-.23.75-.23.45,0,1.12.28,1.12,1.39v1.89h-.61v-1.82c0-.62-.24-.99-.74-.99-.35,0-.63.25-.73.53-.03.08-.05.19-.05.29v1.98h-.6v-1.92c0-.51-.24-.88-.71-.88-.39,0-.67.29-.77.58-.04.09-.05.19-.05.29v1.93h-.6v-2.34h0Z"/>
      <path class="cls-6" d="M157.6,70.35c0-.37-.16-.95-.86-.95-.63,0-.9.54-.95.95h1.81ZM155.79,70.77c.01.79.55,1.11,1.17,1.11.44,0,.71-.07.94-.17l.11.42c-.22.09-.59.2-1.13.2-1.05,0-1.67-.65-1.67-1.62s.61-1.73,1.6-1.73c1.11,0,1.41.92,1.41,1.51,0,.12-.01.21-.02.27h-2.39Z"/>
      <path class="cls-6" d="M161.83,70.35c0-.37-.16-.95-.86-.95-.63,0-.9.54-.95.95h1.81,0ZM160.01,70.77c.01.79.55,1.11,1.17,1.11.44,0,.71-.07.94-.17l.11.42c-.22.09-.59.2-1.13.2-1.05,0-1.67-.65-1.67-1.62s.6-1.73,1.6-1.73c1.11,0,1.41.92,1.41,1.51,0,.12-.01.21-.02.27h-2.39,0Z"/>
      <path class="cls-6" d="M164.64,68.14v.92h.89v.44h-.89v1.73c0,.4.12.62.46.62.16,0,.28-.02.36-.04l.03.44c-.12.05-.31.08-.55.08-.29,0-.52-.09-.67-.25-.18-.17-.24-.46-.24-.84v-1.75h-.53v-.44h.53v-.77l.61-.15h0Z"/>
      <path class="cls-6" d="M166.84,71.67c.18.11.51.23.82.23.45,0,.66-.21.66-.48,0-.28-.18-.43-.63-.59-.61-.21-.9-.52-.9-.91,0-.52.44-.94,1.17-.94.34,0,.65.09.84.2l-.15.42c-.13-.08-.38-.19-.7-.19-.37,0-.57.2-.57.44,0,.26.2.38.65.54.59.21.89.49.89.97,0,.56-.46.96-1.27.96-.37,0-.72-.09-.96-.22l.15-.44h0Z"/>
      <path class="cls-6" d="M172.61,69.06h.62v3.21h-.62v-3.21ZM173.3,68.16c0,.2-.15.36-.39.36-.22,0-.37-.16-.37-.36s.16-.36.39-.36.38.16.38.36Z"/>
      <path class="cls-6" d="M174.96,69.93c0-.33,0-.6-.03-.87h.55l.04.53h.01c.17-.31.56-.6,1.13-.6.47,0,1.2.27,1.2,1.37v1.92h-.62v-1.85c0-.52-.2-.95-.79-.95-.41,0-.72.27-.83.6-.03.07-.04.17-.04.27v1.93h-.62v-2.34h0Z"/>
      <path class="cls-6" d="M179.56,69.93c0-.33,0-.6-.03-.87h.55l.03.53h.01c.17-.31.56-.6,1.13-.6.47,0,1.2.27,1.2,1.37v1.92h-.62v-1.85c0-.52-.2-.95-.79-.95-.41,0-.72.27-.83.6-.03.07-.04.17-.04.27v1.93h-.62v-2.34h0Z"/>
      <path class="cls-6" d="M184.55,70.67c0,.7.43,1.23,1.03,1.23s1.03-.52,1.03-1.25c0-.54-.29-1.23-1.02-1.23s-1.05.64-1.05,1.25h0ZM187.25,70.63c0,1.19-.87,1.7-1.69,1.7-.92,0-1.63-.64-1.63-1.65,0-1.07.75-1.7,1.69-1.7s1.64.67,1.64,1.65Z"/>
      <path class="cls-6" d="M188.92,69.06l.67,1.8c.11.29.2.56.27.82h.02c.08-.26.18-.53.29-.82l.66-1.8h.65l-1.34,3.21h-.59l-1.29-3.21h.66,0Z"/>
      <path class="cls-6" d="M194.53,70.63c-.67-.01-1.44.1-1.44.72,0,.38.27.56.58.56.44,0,.72-.26.82-.54.02-.06.03-.13.03-.19v-.56ZM194.63,72.27l-.05-.4h-.02c-.19.25-.56.48-1.04.48-.69,0-1.04-.46-1.04-.92,0-.78.73-1.2,2.05-1.19v-.07c0-.27-.08-.74-.77-.74-.32,0-.65.09-.89.24l-.14-.38c.28-.17.69-.29,1.12-.29,1.04,0,1.29.67,1.29,1.31v1.2c0,.28.01.55.06.77h-.56,0Z"/>
      <path class="cls-6" d="M197.55,68.14v.92h.89v.44h-.89v1.73c0,.4.12.62.46.62.16,0,.28-.02.36-.04l.03.44c-.12.05-.31.08-.55.08-.29,0-.52-.09-.67-.25-.18-.17-.24-.46-.24-.84v-1.75h-.53v-.44h.53v-.77l.61-.15h0Z"/>
      <path class="cls-6" d="M199.84,69.06h.62v3.21h-.62v-3.21ZM200.53,68.16c0,.2-.15.36-.39.36-.22,0-.37-.16-.37-.36s.16-.36.39-.36.38.16.38.36h0Z"/>
      <path class="cls-6" d="M202.57,70.67c0,.7.43,1.23,1.03,1.23s1.03-.52,1.03-1.25c0-.54-.29-1.23-1.02-1.23s-1.05.64-1.05,1.25h0ZM205.27,70.63c0,1.19-.87,1.7-1.69,1.7-.92,0-1.63-.64-1.63-1.65,0-1.07.74-1.7,1.69-1.7s1.64.67,1.64,1.65Z"/>
      <path class="cls-6" d="M206.75,69.93c0-.33,0-.6-.03-.87h.55l.04.53h.01c.17-.31.56-.6,1.12-.6.47,0,1.2.27,1.2,1.37v1.92h-.62v-1.85c0-.52-.2-.95-.79-.95-.41,0-.72.27-.83.6-.03.07-.04.17-.04.27v1.93h-.62v-2.34h0Z"/>
      <path class="cls-4" d="M43.34,18.98c-3.65,0-6.61-2.79-6.61-6.23,0-3.44,2.96-6.23,6.61-6.23s6.62,2.79,6.62,6.23c0,3.44-2.96,6.23-6.62,6.23ZM20.93,6.51h10.58c-.12.74-2.34,15.26,8.64,18.61,3.07-3.79,7.91-6.23,13.36-6.23.02,0,.27-.02.29-.02,4.28-.04,7.82-5.41,8.38-12.36h10.54c-.34,8.45-7.72,15.21-16.78,15.21-.14,0-.16.02-.25.02-4.31,0-7.87,5.4-8.42,12.39v1.51s-10.59,0-10.59,0v-1.3c.06-2.47.77-4.82,1.91-6.88C19.45,25.45,20.86,7.33,20.93,6.51h0Z"/>
      <path class="cls-3" d="M15.01,34.21c0,3.44-2.96,6.24-6.61,6.24-3.65,0-6.61-2.79-6.61-6.24s2.96-6.24,6.61-6.24,6.61,2.79,6.61,6.24ZM1.77,55.34v-9.98c.22.03,16.14,2.41,19.75-8.14-4.01-2.89-6.6-7.46-6.6-12.59,0-.02-.02-.26-.02-.27-.04-4.04-5.74-7.38-13.13-7.9V6.51c8.98.31,16.15,7.27,16.15,15.82,0,.13.02.15.02.23,0,4.06,5.72,7.42,13.13,7.94h1.6v9.98h-1.38c-2.62-.06-5.11-.73-7.3-1.8C21.84,57.05,1.99,55.36,1.77,55.34Z"/>
      <path class="cls-2" d="M59.51,45.77c0-3.45,2.96-6.24,6.61-6.24s6.61,2.79,6.61,6.24-2.96,6.24-6.61,6.24-6.61-2.79-6.61-6.24ZM72.76,24.63v9.99c-.17-.03-16.14-2.43-19.76,8.15,4.02,2.89,6.61,7.46,6.61,12.6,0,.02.02.26.02.28.04,4.05,5.75,7.38,13.14,7.9v9.94c-8.98-.31-16.16-7.28-16.16-15.83,0-.13-.02-.15-.02-.23,0-4.07-5.72-7.42-13.14-7.95h-1.6s0-9.99,0-9.99h1.38c2.62.06,5.11.73,7.3,1.8,2.17-18.39,22.07-16.67,22.25-16.65h0Z"/>
      <path class="cls-5" d="M31.16,60.94c3.65,0,6.62,2.79,6.62,6.23s-2.96,6.23-6.62,6.23-6.62-2.79-6.62-6.23,2.96-6.23,6.62-6.23ZM1.77,73.43v-.1c.38-8.42,7.75-15.14,16.79-15.14.14,0,.16-.02.25-.02,4.31,0,7.88-5.4,8.43-12.39v-1.51h10.59v1.3c-.06,2.47-.77,4.82-1.91,6.88,19.59,2.06,17.66,20.98,17.66,20.98h-10.59s2.64-15.2-8.64-18.64c-3.07,3.79-7.92,6.23-13.37,6.23-.02,0-.27.02-.29.02-4.29.04-7.83,5.42-8.38,12.39H1.77h0Z"/>
    </g>
  </g>
</svg>