<?xml version="1.0" encoding="UTF-8"?>
<!DOCTYPE svg PUBLIC "-//W3C//DTD SVG 1.1//EN" "http://www.w3.org/Graphics/SVG/1.1/DTD/svg11.dtd">
<!-- Creator: CorelDRAW (OEM Version) -->
<svg xmlns="http://www.w3.org/2000/svg" xml:space="preserve" width="3.6in" height="3.6in" version="1.1" style="shape-rendering:geometricPrecision; text-rendering:geometricPrecision; image-rendering:optimizeQuality; fill-rule:evenodd; clip-rule:evenodd"
viewBox="0 0 3600 3600"
 xmlns:xlink="http://www.w3.org/1999/xlink"
 xmlns:xodm="http://www.corel.com/coreldraw/odm/2003">
 <defs>
  <style type="text/css">
   <![CDATA[
    .fil0 {fill:#2E2C2B;fill-rule:nonzero}
   ]]>
  </style>
 </defs>
 <g id="Layer_x0020_1">
  <metadata id="CorelCorpID_0Corel-Layer"/>
  <path class="fil0" d="M3231.27 1675.81c-109.64,0 -167.87,54.7 -167.87,123.33 0,69.58 56.07,125.05 168.5,125.05 112.4,0 167.87,-55.47 167.87,-125.05 0,-68.63 -58.85,-123.33 -168.5,-123.33zm-1.22 210.81c-40.04,-0.72 -57.63,-44.98 -56.87,-88.94 0.8,-45.54 22.59,-85.24 60.09,-84.59 37.51,0.66 57.3,41.13 56.5,86.64 -0.76,42.94 -18.48,87.65 -59.72,86.89zm-872.43 -169.54l110.11 200.07 127.51 0.1 108.24 -200.2 54.25 0.03 0 -36.28 -163.2 0 0 36.25 47.14 0 -78.81 145.74 -79.88 -145.71 57.28 -0.03 -0.01 -36.25 -236.78 0 -0.05 36.28 54.19 0zm-1229.61 -41.27c-109.63,0 -167.86,54.7 -167.86,123.33 0,69.58 56.07,125.05 168.5,125.05 112.39,0 167.87,-55.47 167.87,-125.05 0,-68.63 -58.85,-123.33 -168.5,-123.33zm-1.21 210.81c-40.04,-0.72 -57.64,-44.98 -56.87,-88.94 0.8,-45.54 22.59,-85.24 60.09,-84.59 37.51,0.66 57.31,41.13 56.51,86.64 -0.77,42.94 -18.49,87.65 -59.72,86.89zm530.66 -169.64l-0.03 -36.19 218.34 0.03 0 36.16 -54.38 0 0 163.31 50.42 0c46.72,0 77.35,-30.85 77.35,-72.72l36.02 0 0 109.36 -327.74 0.03 0 -36.61 55.04 0 -0.07 -163.37 -54.94 0zm-1403.03 0.09l110.12 200.07 127.51 0.1 108.24 -200.2 54.26 0.03 0 -36.28 -163.2 0 0 36.25 47.13 0 -78.82 145.74 -79.88 -145.71 57.28 -0.03 -0.01 -36.25 -236.78 0 -0.05 36.28 54.19 0z"/>
 </g>
</svg>
