<?xml version="1.0" encoding="UTF-8"?>
<svg id="Layer_1" data-name="Layer 1" xmlns="http://www.w3.org/2000/svg" viewBox="0 0 235.67 80">
  <defs>
    <style>
      .cls-1 {
        fill: #2e2c2b;
      }
    </style>
  </defs>
  <g id="Layer_1-2" data-name="Layer_1">
    <path class="cls-1" d="M220.89,31.06c-7.89,0-12.09,3.94-12.09,8.88s4.04,9,12.13,9,12.09-3.99,12.09-9-4.24-8.88-12.13-8.88ZM220.8,46.24c-2.88-.05-4.15-3.24-4.09-6.4.06-3.28,1.63-6.14,4.33-6.09,2.7.05,4.13,2.96,4.07,6.24-.05,3.09-1.33,6.31-4.3,6.26ZM157.99,34.03l7.93,14.41h9.18s7.79-14.41,7.79-14.41h3.91s0-2.61,0-2.61h-11.75v2.61h3.39l-5.67,10.49-5.75-10.49h4.12s0-2.61,0-2.61h-17.05v2.61s3.9,0,3.9,0h0ZM69.45,31.06c-7.89,0-12.09,3.94-12.09,8.88s4.04,9,12.13,9,12.09-3.99,12.09-9-4.24-8.88-12.13-8.88h0ZM69.37,46.24c-2.88-.05-4.15-3.24-4.09-6.4.06-3.28,1.63-6.14,4.33-6.09,2.7.05,4.13,2.96,4.07,6.24-.06,3.09-1.33,6.31-4.3,6.26h0ZM107.57,34.02v-2.61s15.72,0,15.72,0v2.6h-3.92v11.76h3.63c3.36,0,5.57-2.22,5.57-5.24h2.59v7.87h-23.6s0-2.63,0-2.63h3.96v-11.76h-3.96ZM6.56,34.03l7.93,14.41h9.18s7.79-14.41,7.79-14.41h3.91s0-2.61,0-2.61h-11.75v2.61h3.39l-5.68,10.49-5.75-10.49h4.12s0-2.61,0-2.61H2.66v2.61s3.9,0,3.9,0h0Z"/>
  </g>
</svg>