<?xml version="1.0" encoding="UTF-8"?>
<!DOCTYPE svg PUBLIC "-//W3C//DTD SVG 1.1//EN" "http://www.w3.org/Graphics/SVG/1.1/DTD/svg11.dtd">
<!-- Creator: CorelDRAW (OEM Version) -->
<svg xmlns="http://www.w3.org/2000/svg" xml:space="preserve" width="3.6in" height="3.6in" version="1.1" style="shape-rendering:geometricPrecision; text-rendering:geometricPrecision; image-rendering:optimizeQuality; fill-rule:evenodd; clip-rule:evenodd"
viewBox="0 0 3600 3600"
 xmlns:xlink="http://www.w3.org/1999/xlink"
 xmlns:xodm="http://www.corel.com/coreldraw/odm/2003">
 <defs>
  <style type="text/css">
   <![CDATA[
    .fil1 {fill:#FEFEFE;fill-rule:nonzero}
    .fil2 {fill:#2B2A29;fill-rule:nonzero}
    .fil0 {fill:#00A9E3;fill-rule:nonzero}
   ]]>
  </style>
 </defs>
 <g id="Layer_x0020_1">
  <metadata id="CorelCorpID_0Corel-Layer"/>
  <g id="_2217264105136">
   <path class="fil0" d="M2897.47 1613.22c0,615.28 -498.78,1114.06 -1114.06,1114.06 -615.28,0 -1114.06,-498.78 -1114.06,-1114.06 0,-615.28 498.78,-1114.06 1114.06,-1114.06 615.28,0 1114.06,498.78 1114.06,1114.06z"/>
   <path class="fil1" d="M1483.7 1970.76c0,0 266.32,-451.32 727.8,-701.37l187.8 -98.35c0,0 10.67,-149.42 -48.79,-147.9 -59.46,1.52 -582.44,12.2 -806.58,-51.84l1.52 240.91c0,0 88.44,-47.27 286.65,-47.27l324.76 0c0,0 -631.23,434.55 -890.43,817.26l-94.54 108.25c0,0 -24.39,93 33.54,164.67 0,0 204.31,-125.02 472.67,-125.02l414.72 -12.2c0,0 6.1,-173.81 -38.12,-234.81 0,0 -74.71,62.52 -300.37,70.13l-270.64 17.54z"/>
   <path class="fil2" d="M204.23 3093.3l0 -53.94 127.54 -161.18 -122.61 0 0 -54.26 201.89 0 0 54.26 -127.54 161.18 127.54 0 0 53.94 -206.81 0zm240.1 0l0 -269.37 189.78 0 0 55.21 -125.86 0 0 47.57 115.03 0 0 53.94 -115.03 0 0 57.65 130 0 0 55 -193.91 0zm293.28 -164.04l51.41 0c10.83,0 18.91,-2.12 24.22,-6.48 5.32,-4.35 7.98,-10.83 7.98,-19.64 0,-8.18 -2.46,-14.44 -7.48,-18.58 -5.02,-4.25 -12.31,-6.37 -22.06,-6.37l-54.06 0 0 51.07zm0 110.43l48.35 0c15.26,0 25.9,-2.23 32,-6.8 6.11,-4.57 9.16,-12.32 9.16,-23.15 0,-9.77 -2.95,-17.09 -8.77,-22.09 -5.81,-4.99 -14.48,-7.43 -26,-7.43l-54.76 0 0 59.46zm-61.26 53.62l0 -269.37 121.24 0c29.05,0 50.52,5.63 64.41,16.88 13.89,11.26 20.78,28.56 20.78,52.03 0,14.54 -3.05,26.54 -9.26,35.99 -6.2,9.45 -15.56,16.67 -28.26,21.77 14.48,4.04 25.61,11.26 33.29,21.76 7.68,10.41 11.52,23.36 11.52,38.86 0,15.08 -3.15,28.78 -9.55,40.98 -6.4,12.21 -15.36,21.56 -26.89,28.24 -7.78,4.67 -17.24,7.96 -28.36,9.98 -11.13,1.91 -28.17,2.87 -51.21,2.87l-97.7 0zm316.52 -153.96l47.67 0c12.9,0 22.46,-2.55 28.46,-7.65 6.01,-5.2 9.06,-13.38 9.06,-24.63 0,-9.88 -2.95,-17.2 -8.87,-21.98 -5.81,-4.78 -14.77,-7.22 -26.88,-7.22l-49.44 0 0 61.48zm-63.62 153.96l0 -269.37 119.66 0c31.61,0 54.95,6.05 69.92,18.26 15.07,12.21 22.55,31.11 22.55,56.7 0,15.19 -3.25,28.14 -9.65,38.86 -6.4,10.73 -16.25,19.86 -29.74,27.19 10.93,4.56 18.72,10.62 23.24,18.37 4.53,7.75 7.09,21.34 7.78,40.88 0.3,5.42 0.69,12.85 0.99,22.09 0.78,21.76 4.23,34.3 10.43,37.69l0 9.34 -67.06 0c-3.25,-9.45 -5.12,-22.51 -5.61,-39.07 -0.49,-16.67 -0.89,-27.07 -1.38,-31.32 -0.98,-10.51 -4.24,-18.16 -9.85,-23.04 -5.51,-4.88 -13.78,-7.32 -24.91,-7.32l-42.74 0 0 100.76 -63.62 0zm326.57 -105.11l54.66 0 -27.87 -93.01 -26.78 93.01zm-5.91 -164.26l69.93 0 88.14 269.37 -68.64 0 -15.27 -49.37 -83.51 0 -14.18 49.37 -66.38 0 89.91 -269.37zm348.34 115.41l47.67 0c12.9,0 22.45,-2.55 28.46,-7.65 6.01,-5.2 9.06,-13.38 9.06,-24.63 0,-9.88 -2.96,-17.2 -8.87,-21.98 -5.81,-4.78 -14.77,-7.22 -26.89,-7.22l-49.44 0 0 61.48zm-63.62 153.96l0 -269.37 119.66 0c31.61,0 54.95,6.05 69.92,18.26 15.07,12.21 22.55,31.11 22.55,56.7 0,15.19 -3.25,28.14 -9.65,38.86 -6.4,10.73 -16.25,19.86 -29.74,27.19 10.93,4.56 18.71,10.62 23.24,18.37 4.53,7.75 7.09,21.34 7.78,40.88 0.3,5.42 0.69,12.85 0.98,22.09 0.79,21.76 4.23,34.3 10.44,37.69l0 9.34 -67.07 0c-3.25,-9.45 -5.12,-22.51 -5.61,-39.07 -0.49,-16.67 -0.88,-27.07 -1.38,-31.32 -0.98,-10.51 -4.24,-18.16 -9.85,-23.04 -5.52,-4.88 -13.79,-7.32 -24.92,-7.32l-42.74 0 0 100.76 -63.62 0zm309.93 -134.42c0,27.5 5.22,48.52 15.56,63.17 10.34,14.54 25.21,21.87 44.52,21.87 19.4,0 34.37,-7.33 44.81,-21.87 10.54,-14.65 15.76,-35.68 15.76,-63.17 0,-27.29 -5.22,-48.31 -15.76,-62.96 -10.44,-14.76 -25.41,-22.08 -44.81,-22.08 -19.3,0 -34.18,7.32 -44.52,21.98 -10.34,14.55 -15.56,35.57 -15.56,63.07zm-64.9 0c0,-43.75 11.23,-78.36 33.68,-103.74 22.45,-25.48 52.89,-38.22 91.3,-38.22 38.6,0 69.23,12.74 91.88,38.22 22.65,25.48 33.98,60.09 33.98,103.74 0,43.64 -11.32,78.25 -33.98,103.73 -22.65,25.48 -53.28,38.22 -91.88,38.22 -38.41,0 -68.84,-12.74 -91.3,-38.12 -22.45,-25.48 -33.68,-60.09 -33.68,-103.84zm350.7 -29.63l51.41 0c10.83,0 18.91,-2.12 24.22,-6.48 5.32,-4.35 7.98,-10.83 7.98,-19.64 0,-8.18 -2.46,-14.44 -7.48,-18.58 -5.02,-4.25 -12.31,-6.37 -22.06,-6.37l-54.07 0 0 51.07zm0 110.43l48.35 0c15.27,0 25.91,-2.23 32.01,-6.8 6.11,-4.57 9.16,-12.32 9.16,-23.15 0,-9.77 -2.95,-17.09 -8.77,-22.09 -5.81,-4.99 -14.48,-7.43 -26,-7.43l-54.76 0 0 59.46zm-61.26 53.62l0 -269.37 121.23 0c29.05,0 50.52,5.63 64.41,16.88 13.89,11.26 20.78,28.56 20.78,52.03 0,14.54 -3.05,26.54 -9.26,35.99 -6.2,9.45 -15.56,16.67 -28.26,21.77 14.48,4.04 25.61,11.26 33.29,21.76 7.69,10.41 11.52,23.36 11.52,38.86 0,15.08 -3.15,28.78 -9.56,40.98 -6.4,12.21 -15.36,21.56 -26.88,28.24 -7.78,4.67 -17.24,7.96 -28.36,9.98 -11.13,1.91 -28.17,2.87 -51.21,2.87l-97.7 0zm307.86 -134.42c0,27.5 5.22,48.52 15.56,63.17 10.34,14.54 25.21,21.87 44.52,21.87 19.4,0 34.37,-7.33 44.81,-21.87 10.54,-14.65 15.76,-35.68 15.76,-63.17 0,-27.29 -5.22,-48.31 -15.76,-62.96 -10.44,-14.76 -25.41,-22.08 -44.81,-22.08 -19.3,0 -34.18,7.32 -44.52,21.98 -10.34,14.55 -15.56,35.57 -15.56,63.07zm-64.9 0c0,-43.75 11.22,-78.36 33.68,-103.74 22.45,-25.48 52.88,-38.22 91.29,-38.22 38.6,0 69.23,12.74 91.89,38.22 22.65,25.48 33.97,60.09 33.97,103.74 0,43.64 -11.33,78.25 -33.97,103.73 -22.65,25.48 -53.28,38.22 -91.89,38.22 -38.41,0 -68.84,-12.74 -91.29,-38.12 -22.46,-25.48 -33.68,-60.09 -33.68,-103.84zm339.47 134.42l0 -214.69 -71.6 0 0 -54.68 207.11 0 0 54.68 -71.6 0 0 214.69 -63.91 0zm165.15 0l0 -269.37 63.82 0 0 269.37 -63.82 0zm336.22 -94.39c-4.24,32.38 -16.05,57.44 -35.35,75.28 -19.3,17.74 -44.22,26.65 -74.75,26.65 -36.54,0 -65.98,-12.85 -88.34,-38.54 -22.36,-25.8 -33.58,-59.67 -33.58,-101.61 0,-43.64 11.43,-78.46 34.17,-104.37 22.75,-26.01 53.28,-38.96 91.49,-38.96 30.33,0 55.06,8.6 74.26,25.8 19.2,17.09 30.13,40.56 32.79,70.4l-60.07 0c-2.96,-12.96 -8.57,-22.72 -16.74,-29.2 -8.18,-6.48 -18.91,-9.77 -32.3,-9.77 -17.83,0 -32,7.65 -42.44,22.83 -10.34,15.19 -15.56,36.1 -15.56,62.54 0,26.33 4.93,46.82 14.78,61.37 9.85,14.55 23.73,21.87 41.56,21.87 14.38,0 25.9,-3.82 34.57,-11.36 8.67,-7.54 14.08,-18.58 16.15,-32.91l59.38 0zm31.61 4.99l61.45 0c0.49,15.4 4.63,26.86 12.51,34.61 7.98,7.75 19.6,11.57 34.86,11.57 13,0 23.04,-2.33 30.14,-6.9 7.19,-4.57 10.74,-11.15 10.74,-19.54 0,-4.35 -0.89,-8.17 -2.56,-11.46 -1.68,-3.29 -4.04,-5.84 -7.09,-7.54 -4.63,-2.65 -16.06,-6.9 -34.17,-12.63 -18.02,-5.74 -33.29,-11.26 -45.8,-16.67 -18.02,-7.75 -31.61,-17.83 -40.97,-30.47 -9.36,-12.63 -13.99,-27.28 -13.99,-44.17 0,-25.69 8.96,-46.08 26.89,-61.26 17.92,-15.18 42.25,-22.83 72.88,-22.83 30.04,0 53.96,7.96 71.59,24 17.63,15.93 26.49,37.48 26.49,64.66l-60.27 0c-1.38,-12.53 -5.52,-21.77 -12.31,-27.71 -6.8,-6.05 -16.64,-9.02 -29.54,-9.02 -10.34,0 -18.71,2.33 -25.11,6.9 -6.4,4.57 -9.65,10.3 -9.65,17.41 0,12 15.26,23.25 45.89,33.87 5.61,1.91 9.85,3.4 12.8,4.35l2.46 0.96c31.71,11.04 51.51,19.96 59.39,26.87 8.07,7.11 14.18,15.39 18.31,24.95 4.24,9.56 6.31,20.17 6.31,31.96 0,26.86 -9.56,47.67 -28.56,62.64 -19,14.97 -45.8,22.41 -80.17,22.41 -32.4,0 -57.12,-7.96 -74.16,-24 -16.94,-16.04 -26.39,-40.35 -28.36,-72.94z"/>
  </g>
 </g>
</svg>
