<?xml version="1.0" encoding="UTF-8"?>
<svg id="Layer_1" data-name="Layer 1" xmlns="http://www.w3.org/2000/svg" viewBox="0 0 96.51 80">
  <defs>
    <style>
      .cls-1 {
        fill: #2b2a29;
      }

      .cls-2 {
        fill: #00a9e3;
      }

      .cls-3 {
        fill: #fefefe;
      }
    </style>
  </defs>
  <g id="Layer_1-2" data-name="Layer_1">
    <g id="_2217264105136" data-name=" 2217264105136">
      <path class="cls-2" d="M80.07,34.59c0,17.83-14.46,32.29-32.29,32.29S15.48,52.42,15.48,34.59,29.94,2.29,47.77,2.29s32.29,14.46,32.29,32.29Z"/>
      <path class="cls-3" d="M39.09,44.95s7.72-13.08,21.1-20.33l5.44-2.85s.31-4.33-1.41-4.29c-1.72.04-16.88.35-23.38-1.5l.04,6.98s2.56-1.37,8.31-1.37h9.41s-18.3,12.6-25.81,23.69l-2.74,3.14s-.71,2.7.97,4.77c0,0,5.92-3.62,13.7-3.62l12.02-.35s.18-5.04-1.1-6.81c0,0-2.17,1.81-8.71,2.03l-7.84.51h0Z"/>
      <path class="cls-1" d="M2,77.49v-1.56l3.7-4.67h-3.55v-1.57h5.85v1.57l-3.7,4.67h3.7v1.56H2ZM8.96,77.49v-7.81h5.5v1.6h-3.65v1.38h3.33v1.56h-3.33v1.67h3.77v1.59h-5.62ZM17.46,72.73h1.49c.31,0,.55-.06.7-.19.15-.13.23-.31.23-.57,0-.24-.07-.42-.22-.54-.15-.12-.36-.18-.64-.18h-1.57v1.48h0ZM17.46,75.93h1.4c.44,0,.75-.06.93-.2.18-.13.27-.36.27-.67,0-.28-.09-.5-.25-.64-.17-.14-.42-.22-.75-.22h-1.59v1.72h0ZM15.68,77.49v-7.81h3.51c.84,0,1.46.16,1.87.49.4.33.6.83.6,1.51,0,.42-.09.77-.27,1.04-.18.27-.45.48-.82.63.42.12.74.33.96.63.22.3.33.68.33,1.13s-.09.83-.28,1.19c-.19.35-.45.62-.78.82-.23.14-.5.23-.82.29-.32.06-.82.08-1.48.08h-2.83ZM24.86,73.02h1.38c.37,0,.65-.07.82-.22.17-.15.26-.39.26-.71,0-.29-.09-.5-.26-.64-.17-.14-.43-.21-.78-.21h-1.43v1.78h0ZM23.01,77.49v-7.81h3.47c.92,0,1.59.18,2.03.53.44.35.65.9.65,1.64,0,.44-.09.82-.28,1.13-.19.31-.47.58-.86.79.32.13.54.31.67.53.13.22.21.62.23,1.18,0,.16.02.37.03.64.02.63.12.99.3,1.09v.27h-1.94c-.09-.27-.15-.65-.16-1.13-.01-.48-.03-.78-.04-.91-.03-.3-.12-.53-.29-.67-.16-.14-.4-.21-.72-.21h-1.24v2.92h-1.84ZM32.48,74.44h1.58l-.81-2.7-.78,2.7h0ZM32.31,69.68h2.03l2.55,7.81h-1.99l-.44-1.43h-2.42l-.41,1.43h-1.92l2.61-7.81ZM42.41,73.02h1.38c.37,0,.65-.07.82-.22.17-.15.26-.39.26-.71,0-.29-.09-.5-.26-.64-.17-.14-.43-.21-.78-.21h-1.43v1.78h0ZM40.56,77.49v-7.81h3.47c.92,0,1.59.18,2.03.53.44.35.65.9.65,1.64,0,.44-.09.82-.28,1.13-.19.31-.47.58-.86.79.32.13.54.31.67.53s.21.62.23,1.18c0,.16.02.37.03.64.02.63.12.99.3,1.09v.27h-1.94c-.09-.27-.15-.65-.16-1.13-.01-.48-.03-.78-.04-.91-.03-.3-.12-.53-.29-.67-.16-.14-.4-.21-.72-.21h-1.24v2.92h-1.84,0ZM49.55,73.59c0,.8.15,1.41.45,1.83.3.42.73.63,1.29.63s1-.21,1.3-.63c.31-.42.46-1.03.46-1.83s-.15-1.4-.46-1.82c-.3-.43-.74-.64-1.3-.64s-.99.21-1.29.64c-.3.42-.45,1.03-.45,1.83h0ZM47.66,73.59c0-1.27.33-2.27.98-3.01.65-.74,1.53-1.11,2.65-1.11s2.01.37,2.66,1.11.98,1.74.98,3.01-.33,2.27-.98,3.01c-.66.74-1.54,1.11-2.66,1.11s-2-.37-2.65-1.1c-.65-.74-.98-1.74-.98-3.01h0ZM57.83,72.73h1.49c.31,0,.55-.06.7-.19.15-.13.23-.31.23-.57,0-.24-.07-.42-.22-.54-.15-.12-.36-.18-.64-.18h-1.57v1.48h0ZM57.83,75.93h1.4c.44,0,.75-.06.93-.2.18-.13.27-.36.27-.67,0-.28-.09-.5-.25-.64-.17-.14-.42-.22-.75-.22h-1.59v1.72h0ZM56.05,77.49v-7.81h3.51c.84,0,1.46.16,1.87.49.4.33.6.83.6,1.51,0,.42-.09.77-.27,1.04-.18.27-.45.48-.82.63.42.12.74.33.96.63.22.3.33.68.33,1.13s-.09.83-.28,1.19c-.19.35-.45.62-.78.82-.23.14-.5.23-.82.29-.32.06-.82.08-1.48.08h-2.83ZM64.98,73.59c0,.8.15,1.41.45,1.83.3.42.73.63,1.29.63s1-.21,1.3-.63c.31-.42.46-1.03.46-1.83s-.15-1.4-.46-1.82c-.3-.43-.74-.64-1.3-.64s-.99.21-1.29.64c-.3.42-.45,1.03-.45,1.83h0ZM63.1,73.59c0-1.27.33-2.27.98-3.01.65-.74,1.53-1.11,2.65-1.11s2.01.37,2.66,1.11c.66.74.98,1.74.98,3.01s-.33,2.27-.98,3.01c-.66.74-1.54,1.11-2.66,1.11s-2-.37-2.65-1.1c-.65-.74-.98-1.74-.98-3.01h0ZM72.94,77.49v-6.22h-2.08v-1.58h6v1.58h-2.08v6.22h-1.85ZM77.72,77.49v-7.81h1.85v7.81h-1.85ZM87.47,74.75c-.12.94-.47,1.66-1.02,2.18-.56.51-1.28.77-2.17.77-1.06,0-1.91-.37-2.56-1.12-.65-.75-.97-1.73-.97-2.95s.33-2.27.99-3.03c.66-.75,1.54-1.13,2.65-1.13.88,0,1.6.25,2.15.75.56.5.87,1.18.95,2.04h-1.74c-.09-.38-.25-.66-.49-.85-.24-.19-.55-.28-.94-.28-.52,0-.93.22-1.23.66-.3.44-.45,1.05-.45,1.81s.14,1.36.43,1.78.69.63,1.2.63c.42,0,.75-.11,1-.33.25-.22.41-.54.47-.95h1.72,0ZM88.39,74.9h1.78c.01.45.13.78.36,1,.23.22.57.34,1.01.34.38,0,.67-.07.87-.2.21-.13.31-.32.31-.57,0-.13-.03-.24-.07-.33-.05-.1-.12-.17-.21-.22-.13-.08-.47-.2-.99-.37-.52-.17-.96-.33-1.33-.48-.52-.22-.92-.52-1.19-.88-.27-.37-.41-.79-.41-1.28,0-.74.26-1.34.78-1.78.52-.44,1.22-.66,2.11-.66s1.56.23,2.08.7c.51.46.77,1.09.77,1.87h-1.75c-.04-.36-.16-.63-.36-.8-.2-.18-.48-.26-.86-.26-.3,0-.54.07-.73.2-.19.13-.28.3-.28.5,0,.35.44.67,1.33.98.16.06.29.1.37.13l.07.03c.92.32,1.49.58,1.72.78.23.21.41.45.53.72.12.28.18.58.18.93,0,.78-.28,1.38-.83,1.82s-1.33.65-2.32.65c-.94,0-1.66-.23-2.15-.7-.49-.46-.76-1.17-.82-2.11h0Z"/>
    </g>
  </g>
</svg>